<svg width="29" height="29" viewBox="0 0 29 29" fill="none" xmlns="http://www.w3.org/2000/svg">
<path d="M1.83342 22.6543C1.89468 22.1029 1.92531 21.8273 2.00872 21.5696C2.08272 21.341 2.18727 21.1235 2.31955 20.9229C2.46864 20.6968 2.66476 20.5007 3.057 20.1084L20.6654 2.50007C22.1382 1.02732 24.526 1.02732 25.9987 2.50008C27.4715 3.97284 27.4715 6.36065 25.9987 7.83341L8.39033 25.4418C7.99809 25.834 7.80197 26.0301 7.57588 26.1792C7.37529 26.3115 7.15775 26.4161 6.92916 26.4901C6.6715 26.5735 6.39584 26.6041 5.84452 26.6654L1.33203 27.1667L1.83342 22.6543Z" stroke="#0B2962" stroke-width="2" stroke-linecap="round" stroke-linejoin="round"/>
</svg>
