<svg width="16" height="12" viewBox="0 0 16 12" fill="none" xmlns="http://www.w3.org/2000/svg">
<path d="M14.334 9.99935L9.90541 5.99935M6.09589 5.99935L1.66734 9.99935M1.33398 2.66602L6.77726 6.47631C7.21804 6.78486 7.43844 6.93913 7.67816 6.99889C7.88991 7.05167 8.11139 7.05167 8.32314 6.99889C8.56287 6.93913 8.78326 6.78486 9.22404 6.47631L14.6673 2.66602M4.53398 11.3327H11.4673C12.5874 11.3327 13.1475 11.3327 13.5753 11.1147C13.9516 10.9229 14.2576 10.617 14.4493 10.2407C14.6673 9.81284 14.6673 9.25279 14.6673 8.13268V3.86602C14.6673 2.74591 14.6673 2.18586 14.4493 1.75803C14.2576 1.38171 13.9516 1.07575 13.5753 0.884003C13.1475 0.666016 12.5874 0.666016 11.4673 0.666016H4.53398C3.41388 0.666016 2.85383 0.666016 2.426 0.884003C2.04968 1.07575 1.74372 1.38171 1.55197 1.75803C1.33398 2.18586 1.33398 2.74591 1.33398 3.86602V8.13268C1.33398 9.25279 1.33398 9.81284 1.55197 10.2407C1.74372 10.617 2.04968 10.9229 2.426 11.1147C2.85383 11.3327 3.41388 11.3327 4.53398 11.3327Z" stroke="#919EAB" stroke-linecap="round" stroke-linejoin="round"/>
</svg>
