<svg width="14" height="14" viewBox="0 0 14 14" fill="none" xmlns="http://www.w3.org/2000/svg">
<g opacity="0.6">
<path fill-rule="evenodd" clip-rule="evenodd" d="M4.72488 6.99967C4.72488 8.24412 5.74358 9.25664 7.0013 9.25664C8.25333 9.25664 9.27203 8.24412 9.27203 6.99967C9.27203 5.74957 8.25333 4.73705 7.0013 4.73705C5.74358 4.73705 4.72488 5.74957 4.72488 6.99967ZM10.3476 3.52654C11.3436 4.29584 12.1915 5.42149 12.8005 6.82998C12.846 6.93745 12.846 7.0619 12.8005 7.16371C11.5826 9.98069 9.41431 11.6663 7.0013 11.6663H6.99561C4.58829 11.6663 2.42 9.98069 1.20212 7.16371C1.15659 7.0619 1.15659 6.93745 1.20212 6.82998C2.42 4.01301 4.58829 2.33301 6.99561 2.33301H7.0013C8.20781 2.33301 9.35171 2.75159 10.3476 3.52654ZM7.00199 8.40692C7.78166 8.40692 8.41906 7.77338 8.41906 6.99843C8.41906 6.21782 7.78166 5.58429 7.00199 5.58429C6.93369 5.58429 6.8654 5.58995 6.8028 5.60126C6.78003 6.22348 6.26784 6.72126 5.63613 6.72126H5.60768C5.5906 6.81176 5.57922 6.90227 5.57922 6.99843C5.57922 7.77338 6.21662 8.40692 7.00199 8.40692Z" fill="#667085"/>
</g>
</svg>
