<svg width="179" height="161" viewBox="0 0 179 161" fill="none" xmlns="http://www.w3.org/2000/svg">
<path d="M89.4995 160.5C138.532 160.5 178.28 138.351 178.28 111.029C178.28 83.7073 138.532 61.5586 89.4995 61.5586C40.4672 61.5586 0.71875 83.7073 0.71875 111.029C0.71875 138.351 40.4672 160.5 89.4995 160.5Z" fill="#F0F0F0"/>
<path d="M71.1304 148.517C88.0385 148.517 101.745 140.88 101.745 131.459C101.745 122.038 88.0385 114.401 71.1304 114.401C54.2223 114.401 40.5156 122.038 40.5156 131.459C40.5156 140.88 54.2223 148.517 71.1304 148.517Z" fill="#E0E0E0"/>
<path d="M108.785 99.3299L107.357 98.5334C107.119 98.3842 106.921 98.183 106.779 97.946C106.637 97.709 106.554 97.4429 106.539 97.1695V39.8793C106.555 39.6063 106.636 39.3407 106.778 39.1038C106.919 38.8669 107.116 38.6654 107.353 38.5154L147.054 16.3951C147.306 16.2715 147.586 16.207 147.869 16.207C148.153 16.207 148.432 16.2715 148.685 16.3951L150.114 17.1916C150.352 17.3408 150.55 17.542 150.692 17.779C150.834 18.016 150.916 18.2821 150.931 18.5555V75.8457C150.916 76.1187 150.834 76.3843 150.693 76.6212C150.551 76.8581 150.354 77.0596 150.117 77.2096L110.417 99.3335C110.164 99.4575 109.884 99.5218 109.6 99.5211C109.317 99.5205 109.037 99.4549 108.785 99.3299Z" fill="#0B2962"/>
<path d="M150.928 18.4282C150.872 18.0209 150.529 17.8718 150.118 18.1009L110.414 40.2248C110.174 40.3702 109.975 40.5716 109.837 40.8104L106.773 39.1046C106.91 38.864 107.109 38.6612 107.35 38.5154L147.051 16.3951C147.303 16.2715 147.583 16.207 147.866 16.207C148.15 16.207 148.429 16.2715 148.682 16.3951L150.111 17.1916C150.331 17.3287 150.518 17.5102 150.66 17.7236C150.801 17.937 150.892 18.1774 150.928 18.4282Z" fill="#0B2962"/>
<path d="M110.277 99.3942C110.036 99.4885 109.776 99.5318 109.516 99.5211C109.256 99.5105 109.001 99.4461 108.769 99.3324L107.337 98.5322C107.101 98.3823 106.904 98.1808 106.762 97.9439C106.621 97.707 106.539 97.4413 106.523 97.1684V39.8782C106.533 39.6047 106.615 39.3381 106.761 39.1035L109.825 40.8093C109.676 41.0442 109.593 41.3124 109.583 41.5876V98.8778C109.598 99.3288 109.892 99.5361 110.277 99.3942Z" fill="#0B2962"/>
<path d="M109.598 41.5967V98.8796C109.598 99.3815 109.974 99.5852 110.415 99.3342L150.116 77.2103C150.353 77.0603 150.55 76.8588 150.691 76.6219C150.833 76.385 150.914 76.1194 150.93 75.8464V18.5562C150.93 18.0543 150.553 17.8506 150.116 18.1016L110.415 40.2255C110.176 40.3753 109.978 40.5777 109.836 40.8161C109.693 41.0545 109.612 41.322 109.598 41.5967Z" fill="#0B2962"/>
<path d="M100.328 63.4176C99.8151 63.123 97.4372 61.8173 97.3128 61.7482C97.2159 61.6924 97.1332 61.6163 97.0709 61.5255C97.0085 61.4348 96.9681 61.3316 96.9525 61.2238C96.937 61.1159 96.9467 61.006 96.981 60.9023C97.0153 60.7985 97.0733 60.7036 97.1508 60.6243L106.538 50.9062L109.598 52.6011L100.215 62.3265C100.141 62.4022 100.085 62.4923 100.05 62.5907C100.016 62.689 100.003 62.7934 100.014 62.8968C100.025 63.0002 100.058 63.1002 100.112 63.19C100.166 63.2798 100.24 63.3574 100.328 63.4176Z" fill="#0B2962"/>
<path d="M109.599 52.6133L100.215 62.3277C100.111 62.4351 100.043 62.5705 100.02 62.7159C99.9974 62.8614 100.021 63.0101 100.087 63.1425C100.154 63.2749 100.26 63.3847 100.393 63.4574C100.525 63.5301 100.678 63.5623 100.83 63.5498L109.599 62.8515V52.6133Z" fill="#0B2962"/>
<path d="M130.264 35.1219C134.892 32.5433 138.641 34.6345 138.641 39.7918C138.641 44.9491 134.892 51.2157 130.264 53.7943C125.636 56.3729 121.887 54.2817 121.887 49.128C121.887 43.9744 125.636 37.7005 130.264 35.1219Z" fill="#FFBB00"/>
<path d="M130.205 39.1819C131.713 38.3454 132.922 39.0219 132.922 40.6949C132.871 41.6043 132.598 42.4893 132.126 43.2779C131.654 44.0665 130.996 44.7366 130.205 45.2339C128.698 46.0704 127.484 45.3939 127.484 43.7209C127.536 42.8111 127.81 41.926 128.282 41.1373C128.755 40.3486 129.414 39.6787 130.205 39.1819Z" fill="white"/>
<path d="M135.562 48.0997C135.562 45.3537 133.561 44.2372 131.097 45.612L129.555 46.4703C127.091 47.8451 125.09 51.1984 125.09 53.9371V54.6899C125.555 54.8335 126.041 54.9059 126.529 54.9045C127.851 54.8611 129.139 54.485 130.264 53.8134C132.406 52.5399 134.218 50.8108 135.562 48.758V48.0997Z" fill="white"/>
<path d="M124.958 79.324L135.57 73.4102C136.023 73.1592 136.388 73.3629 136.388 73.8648V77.1636C136.373 77.437 136.291 77.7031 136.148 77.9401C136.006 78.1771 135.808 78.3783 135.57 78.5274L124.958 84.4412C124.506 84.6922 124.141 84.4885 124.141 83.9866V80.6878C124.156 80.4144 124.238 80.1484 124.38 79.9113C124.522 79.6743 124.72 79.4731 124.958 79.324Z" fill="#FFBB00"/>
<path d="M119.761 71.9545L140.755 60.2506C141.294 59.9487 141.735 60.1924 141.735 60.7962V62.0218C141.716 62.3498 141.618 62.6689 141.448 62.9533C141.277 63.2377 141.04 63.4793 140.755 63.6585L119.749 75.3624C119.211 75.6643 118.773 75.4206 118.773 74.8168V73.6021C118.791 73.2715 118.889 72.9497 119.061 72.6632C119.233 72.3766 119.472 72.1337 119.761 71.9545Z" fill="#FAFAFA"/>
<path d="M122.22 63.4828C122.507 63.3228 122.729 63.2973 122.887 63.4101C123.046 63.5228 123.125 63.7738 123.125 64.1593C123.133 64.5112 123.051 64.8596 122.887 65.174C122.739 65.4582 122.507 65.6937 122.22 65.8505L121.655 66.1669V67.3417C121.654 67.3821 121.644 67.4218 121.625 67.458C121.612 67.491 121.588 67.519 121.557 67.5381L121.271 67.6981C121.261 67.7052 121.249 67.709 121.237 67.709C121.225 67.709 121.213 67.7052 121.203 67.6981C121.183 67.6735 121.173 67.6421 121.176 67.6108V64.2102C121.176 64.17 121.185 64.1302 121.203 64.0938C121.217 64.0615 121.241 64.0337 121.271 64.0138L122.22 63.4828ZM121.655 65.5086L122.201 65.2031C122.334 65.1312 122.445 65.0287 122.526 64.9049C122.611 64.7588 122.653 64.5925 122.646 64.4248C122.646 64.2284 122.605 64.1156 122.526 64.0829C122.47 64.0698 122.411 64.0692 122.355 64.0812C122.299 64.0931 122.246 64.1174 122.201 64.152L121.655 64.4575V65.5086Z" fill="#FAFAFA"/>
<path d="M124.7 62.0984C124.738 62.0766 124.768 62.0766 124.787 62.0984C124.811 62.131 124.828 62.1682 124.836 62.2075L125.706 65.0517C125.706 65.0517 125.706 65.0735 125.706 65.0844C125.706 65.1249 125.695 65.1647 125.676 65.2008C125.663 65.2337 125.639 65.2617 125.608 65.2808L125.352 65.4226C125.307 65.4481 125.273 65.4517 125.254 65.4226C125.236 65.4044 125.223 65.3818 125.216 65.3572L125.062 64.8589L123.931 65.4845L123.781 66.1537C123.77 66.1899 123.756 66.2252 123.739 66.2591C123.72 66.3035 123.686 66.3397 123.641 66.361L123.385 66.5028C123.375 66.5105 123.363 66.5147 123.351 66.5147C123.339 66.5147 123.326 66.5105 123.317 66.5028C123.297 66.4793 123.288 66.4493 123.291 66.4192C123.289 66.4059 123.289 66.3924 123.291 66.3792L124.157 62.5676C124.168 62.5115 124.184 62.4567 124.206 62.4039C124.225 62.3657 124.255 62.3339 124.293 62.313L124.7 62.0984ZM124.896 64.3024L124.519 63.0186L124.142 64.7352L124.896 64.3024Z" fill="#FAFAFA"/>
<path d="M127.026 60.7488C127.152 60.672 127.296 60.6259 127.445 60.6143C127.55 60.6051 127.655 60.628 127.746 60.6797C127.829 60.7315 127.893 60.8064 127.931 60.8943C127.972 60.9838 127.995 61.0801 127.999 61.178C128.001 61.2184 127.992 61.2587 127.972 61.2944C127.959 61.3273 127.935 61.3553 127.904 61.3744L127.656 61.5126C127.614 61.5344 127.584 61.5381 127.565 61.5126C127.542 61.4978 127.522 61.4778 127.509 61.4544C127.494 61.4217 127.472 61.3923 127.445 61.3679C127.417 61.3435 127.385 61.3247 127.35 61.3126C127.236 61.2967 127.119 61.3255 127.026 61.3926C126.965 61.4306 126.907 61.4732 126.853 61.5199C126.797 61.5696 126.748 61.6258 126.706 61.6872C126.666 61.7464 126.633 61.8098 126.608 61.8763C126.586 61.9396 126.574 62.0059 126.574 62.0727C126.57 62.1339 126.581 62.1952 126.608 62.2509C126.62 62.2704 126.636 62.287 126.656 62.299C126.675 62.311 126.698 62.3183 126.721 62.32C126.791 62.3317 126.862 62.3317 126.932 62.32L127.26 62.2509C127.382 62.216 127.509 62.2012 127.637 62.2073C127.728 62.207 127.816 62.2351 127.889 62.2873C127.958 62.3433 128.008 62.4181 128.032 62.5019C128.069 62.6197 128.086 62.7426 128.081 62.8656C128.081 63.0281 128.057 63.1897 128.01 63.3457C127.964 63.506 127.897 63.66 127.81 63.8039C127.719 63.9514 127.61 64.0881 127.486 64.2113C127.359 64.3381 127.215 64.4471 127.056 64.535C126.94 64.6032 126.813 64.6512 126.68 64.6768C126.571 64.6969 126.459 64.6881 126.355 64.6513C126.261 64.6091 126.183 64.5391 126.133 64.4513C126.072 64.3391 126.038 64.2146 126.035 64.0876C126.035 64.0462 126.044 64.0053 126.062 63.9676C126.078 63.9366 126.103 63.9103 126.133 63.8912L126.382 63.753C126.42 63.7312 126.45 63.7239 126.472 63.7348C126.495 63.7457 126.51 63.7639 126.525 63.7966C126.541 63.8341 126.561 63.8695 126.585 63.9021C126.609 63.9338 126.642 63.9579 126.68 63.9712C126.729 63.9823 126.781 63.9823 126.83 63.9712C126.91 63.953 126.987 63.9223 127.056 63.8803C127.13 63.8401 127.199 63.7938 127.264 63.7421C127.39 63.6453 127.491 63.5206 127.558 63.3784C127.588 63.3055 127.603 63.2277 127.603 63.1493C127.606 63.1208 127.604 63.0919 127.595 63.0644C127.587 63.0369 127.573 63.0113 127.554 62.9892C127.533 62.9719 127.509 62.959 127.483 62.9515C127.457 62.944 127.43 62.9419 127.403 62.9456C127.318 62.949 127.233 62.9624 127.151 62.9856C127.053 63.0074 126.94 63.0329 126.808 63.0547C126.707 63.0791 126.602 63.0865 126.499 63.0765C126.417 63.0714 126.34 63.0393 126.28 62.9856C126.215 62.924 126.169 62.8458 126.148 62.7601C126.118 62.6337 126.104 62.5042 126.107 62.3746C126.107 62.2144 126.131 62.0551 126.178 61.9018C126.223 61.7439 126.289 61.5924 126.374 61.4508C126.456 61.3102 126.555 61.1795 126.668 61.0616C126.772 60.9415 126.892 60.8362 127.026 60.7488Z" fill="#FAFAFA"/>
<path d="M129.5 59.3734C129.625 59.2942 129.769 59.2467 129.918 59.2352C130.024 59.2265 130.129 59.2494 130.22 59.3006C130.3 59.3538 130.363 59.4283 130.401 59.5152C130.442 59.6048 130.465 59.701 130.469 59.7989C130.473 59.8394 130.464 59.8803 130.442 59.9153C130.429 59.9482 130.405 59.9762 130.374 59.9953L130.126 60.1335C130.088 60.1553 130.058 60.1626 130.035 60.1335C130.011 60.1189 129.993 60.0972 129.983 60.0717C129.948 60.0079 129.89 59.9586 129.82 59.9335C129.764 59.9255 129.707 59.9285 129.652 59.9422C129.597 59.956 129.545 59.9802 129.5 60.0135C129.437 60.0506 129.378 60.0932 129.323 60.1408C129.268 60.1906 129.22 60.2468 129.18 60.3081C129.138 60.3665 129.105 60.4301 129.082 60.4972C129.058 60.5603 129.046 60.6266 129.044 60.6936C129.04 60.7548 129.051 60.8161 129.078 60.8718C129.09 60.8914 129.106 60.9079 129.126 60.9199C129.145 60.932 129.168 60.9392 129.191 60.9409C129.261 60.9527 129.332 60.9527 129.402 60.9409L129.73 60.8718C129.853 60.8389 129.98 60.8242 130.107 60.8282C130.198 60.8274 130.287 60.8555 130.359 60.9082C130.428 60.965 130.479 61.0394 130.506 61.1228C130.54 61.2413 130.555 61.3638 130.552 61.4865C130.551 61.649 130.527 61.8106 130.48 61.9666C130.434 62.1269 130.367 62.281 130.28 62.4248C130.189 62.5737 130.081 62.7117 129.956 62.8358C129.829 62.9596 129.686 63.0671 129.53 63.1559C129.414 63.2238 129.287 63.2718 129.153 63.2977C129.046 63.3175 128.935 63.3087 128.833 63.2723C128.737 63.2313 128.658 63.161 128.607 63.0722C128.545 62.9603 128.513 62.8354 128.513 62.7085C128.508 62.668 128.518 62.6272 128.539 62.5921C128.552 62.5592 128.576 62.5312 128.607 62.5121L128.856 62.3739C128.893 62.3521 128.927 62.3448 128.946 62.3557C128.959 62.3615 128.971 62.37 128.98 62.3807C128.989 62.3915 128.996 62.4041 128.999 62.4176C129.016 62.4543 129.036 62.4895 129.059 62.523C129.084 62.555 129.118 62.5791 129.157 62.5921C129.207 62.6032 129.258 62.6032 129.308 62.5921C129.388 62.5739 129.464 62.5432 129.534 62.5012C129.605 62.4601 129.673 62.4139 129.738 62.363C129.804 62.3132 129.862 62.2544 129.911 62.1884C129.96 62.1256 130 62.0572 130.031 61.9848C130.062 61.9119 130.077 61.8341 130.077 61.7556C130.08 61.7271 130.078 61.6983 130.069 61.6707C130.061 61.6432 130.047 61.6177 130.028 61.5956C130.007 61.5783 129.983 61.5654 129.957 61.5579C129.931 61.5503 129.904 61.5483 129.877 61.552C129.793 61.5569 129.71 61.5703 129.628 61.592C129.53 61.6138 129.413 61.6392 129.285 61.6611C129.183 61.6854 129.077 61.6928 128.973 61.6829C128.891 61.6787 128.813 61.6465 128.754 61.592C128.69 61.53 128.646 61.4518 128.626 61.3665C128.592 61.2418 128.577 61.1133 128.581 60.9846C128.582 60.8234 128.606 60.6631 128.652 60.5081C128.699 60.3509 128.765 60.1995 128.848 60.0571C128.93 59.9156 129.03 59.7848 129.146 59.668C129.247 59.5526 129.367 59.4532 129.5 59.3734Z" fill="#FAFAFA"/>
<path d="M132.25 59.8279L131.944 61.57C131.935 61.6224 131.92 61.6737 131.899 61.7228C131.885 61.762 131.857 61.7953 131.82 61.8173L131.534 61.9774C131.496 61.9992 131.47 61.9992 131.451 61.9774C131.425 61.9475 131.411 61.9105 131.409 61.8719L130.957 58.7986C130.957 58.7986 130.957 58.7695 130.957 58.7586C130.958 58.7182 130.968 58.6784 130.987 58.6422C131.001 58.6099 131.025 58.5821 131.055 58.5622L131.315 58.4167C131.337 58.4082 131.361 58.4082 131.383 58.4167C131.405 58.4167 131.421 58.4458 131.428 58.504L131.726 60.5735L131.986 59.0205C131.993 58.9818 132.004 58.9439 132.02 58.9077C132.035 58.8617 132.067 58.8228 132.11 58.7986L132.4 58.635C132.442 58.6131 132.472 58.6168 132.491 58.635C132.507 58.6581 132.519 58.684 132.525 58.7113L132.788 59.9734L133.086 57.573C133.09 57.5257 133.104 57.4798 133.128 57.4384C133.145 57.4112 133.168 57.3877 133.195 57.3693L133.456 57.2238C133.465 57.2167 133.477 57.2129 133.489 57.2129C133.502 57.2129 133.514 57.2167 133.523 57.2238C133.534 57.2357 133.542 57.2496 133.547 57.2645C133.553 57.2795 133.555 57.2953 133.553 57.3111C133.555 57.3256 133.555 57.3402 133.553 57.3547L133.101 60.9299C133.094 60.9822 133.08 61.0335 133.06 61.0827C133.043 61.1215 133.014 61.1544 132.977 61.1772L132.687 61.3373C132.653 61.3554 132.626 61.3554 132.608 61.3373C132.589 61.3038 132.573 61.2685 132.562 61.2318L132.25 59.8279Z" fill="#FAFAFA"/>
<path d="M134.013 58.2862C134.022 58.0845 134.047 57.8838 134.089 57.6861C134.132 57.4928 134.198 57.3049 134.285 57.126C134.368 56.952 134.474 56.7894 134.601 56.6423C134.73 56.4963 134.884 56.3732 135.057 56.2786C135.19 56.1916 135.345 56.1425 135.506 56.1367C135.625 56.138 135.74 56.1835 135.826 56.264C135.917 56.363 135.983 56.4814 136.018 56.6095C136.067 56.7766 136.093 56.9489 136.097 57.1224C136.097 57.1878 136.097 57.2606 136.097 57.3406C136.097 57.4206 136.097 57.5042 136.097 57.5915C136.097 57.6788 136.097 57.7625 136.097 57.8425C136.097 57.9225 136.097 57.9989 136.097 58.068C136.089 58.2684 136.064 58.4679 136.022 58.6644C135.978 58.8571 135.914 59.0449 135.83 59.2245C135.744 59.3979 135.637 59.5604 135.509 59.7083C135.381 59.8528 135.228 59.9758 135.057 60.072C134.921 60.1583 134.764 60.2073 134.601 60.2138C134.543 60.215 134.484 60.2046 134.43 60.1833C134.375 60.1621 134.326 60.1304 134.285 60.0902C134.186 59.9883 134.119 59.8626 134.089 59.7265C134.044 59.5588 134.019 59.3867 134.013 59.2136C134.013 59.1482 134.013 59.0754 134.013 58.9954C134.013 58.9154 134.013 58.8317 134.013 58.7445C134.013 58.6572 134.013 58.5772 134.013 58.4935C134.013 58.4099 134.01 58.3517 134.013 58.2862ZM135.619 57.4169C135.627 57.328 135.617 57.2383 135.588 57.1533C135.56 57.0683 135.514 56.9897 135.453 56.9223C135.355 56.8387 135.219 56.8423 135.057 56.9223C134.881 57.0221 134.742 57.172 134.658 57.3515C134.551 57.5635 134.494 57.7958 134.492 58.0316C134.492 58.1662 134.492 58.3153 134.492 58.479C134.492 58.6426 134.492 58.7881 134.492 58.919C134.484 59.008 134.494 59.0977 134.522 59.1827C134.551 59.2677 134.597 59.3463 134.658 59.4137C134.756 59.4937 134.891 59.4864 135.057 59.3955C135.23 59.295 135.368 59.1468 135.453 58.97C135.56 58.7592 135.617 58.5281 135.619 58.2935C135.619 58.1553 135.619 58.0061 135.619 57.8425C135.619 57.6788 135.623 57.5479 135.619 57.4169Z" fill="#FAFAFA"/>
<path d="M137.741 54.8285C138.038 54.6648 138.261 54.6393 138.415 54.7594C138.507 54.8567 138.575 54.9724 138.614 55.0982C138.654 55.224 138.665 55.3566 138.645 55.4868C138.648 55.7338 138.609 55.9796 138.528 56.2142C138.452 56.4326 138.333 56.635 138.178 56.8106L138.668 57.8399C138.669 57.8568 138.669 57.8739 138.668 57.8908C138.668 57.9236 138.66 57.956 138.645 57.9854C138.635 58.0118 138.616 58.0346 138.592 58.0508L138.291 58.2181C138.242 58.2436 138.208 58.2472 138.185 58.2181C138.165 58.1991 138.149 58.1769 138.136 58.1527L137.673 57.1816L137.202 57.4435V58.6728C137.202 58.713 137.193 58.7528 137.175 58.7892C137.16 58.8208 137.136 58.8482 137.107 58.8692L136.821 59.0292C136.812 59.0369 136.8 59.0411 136.787 59.0411C136.775 59.0411 136.763 59.0369 136.753 59.0292C136.742 59.0181 136.734 59.0049 136.729 58.9905C136.724 58.9761 136.722 58.9608 136.723 58.9455V55.5449C136.724 55.5045 136.734 55.4648 136.753 55.4286C136.766 55.3956 136.79 55.3676 136.821 55.3485L137.741 54.8285ZM137.209 56.7852L137.741 56.5088C137.87 56.4388 137.981 56.3404 138.065 56.2214C138.152 56.0813 138.194 55.9192 138.185 55.7559C138.185 55.5595 138.144 55.4504 138.065 55.4286C137.95 55.4135 137.834 55.4422 137.741 55.5086L137.228 55.7923L137.209 56.7852Z" fill="#FAFAFA"/>
<path d="M140.266 53.4275C140.403 53.3413 140.559 53.2889 140.722 53.2747C140.84 53.2705 140.955 53.311 141.042 53.3875C141.142 53.4888 141.211 53.6146 141.242 53.7512C141.292 53.9315 141.32 54.1172 141.325 54.304C141.325 54.5586 141.325 54.8204 141.325 55.0859C141.317 55.3025 141.289 55.5179 141.242 55.7297C141.199 55.9265 141.133 56.118 141.046 56.3007C140.962 56.4685 140.855 56.625 140.729 56.7662C140.603 56.9108 140.453 57.0338 140.285 57.1299L139.391 57.5991C139.382 57.6068 139.37 57.611 139.358 57.611C139.345 57.611 139.333 57.6068 139.324 57.5991C139.313 57.5881 139.304 57.5749 139.299 57.5605C139.294 57.546 139.292 57.5307 139.293 57.5155V54.1149C139.295 54.0744 139.305 54.0347 139.324 53.9985C139.337 53.9656 139.361 53.9376 139.391 53.9185L140.266 53.4275ZM140.846 54.5586C140.844 54.4601 140.829 54.3622 140.801 54.2676C140.783 54.196 140.745 54.1305 140.692 54.0785C140.668 54.0557 140.64 54.0377 140.609 54.0259C140.577 54.014 140.544 54.0084 140.511 54.0094C140.416 54.0155 140.325 54.0456 140.247 54.0967L139.772 54.3585V56.7299L140.266 56.4571C140.361 56.4034 140.447 56.3346 140.518 56.2534C140.588 56.1736 140.648 56.0857 140.695 55.9916C140.742 55.8913 140.778 55.7865 140.801 55.6788C140.827 55.5665 140.842 55.452 140.846 55.3369C140.857 55.0714 140.857 54.8132 140.846 54.5586Z" fill="#FAFAFA"/>
<path d="M88.514 0.639401C89.1645 0.779091 89.7912 1.00684 90.3756 1.31588C90.9352 1.60622 91.4367 1.99048 91.8566 2.45063C92.2584 2.89328 92.5566 3.41429 92.7309 3.97818C92.9087 4.58178 92.9217 5.21953 92.7686 5.82941C92.6675 6.31296 92.4691 6.77264 92.1845 7.18238C91.9247 7.53276 91.6152 7.84618 91.265 8.11345C90.9211 8.37114 90.5541 8.59875 90.1684 8.79358L89.0831 9.35004C88.7561 9.51461 88.4458 9.70821 88.156 9.92832C87.8939 10.1224 87.6929 10.3831 87.5757 10.6812C87.5183 10.8174 87.4231 10.9357 87.3006 11.0231C87.2426 11.0665 87.1752 11.0966 87.1034 11.1111C87.0315 11.1256 86.9572 11.1241 86.8861 11.1067L85.2882 10.7648C85.2113 10.7493 85.1384 10.7191 85.0737 10.676C85.0089 10.6329 84.9538 10.5778 84.9114 10.5139C84.8663 10.4545 84.8363 10.3857 84.8239 10.313C84.8114 10.2403 84.8169 10.1659 84.8398 10.0956C84.9684 9.61804 85.1953 9.1703 85.5068 8.77903C85.7911 8.43292 86.1204 8.12365 86.4866 7.85887C86.8434 7.60679 87.2216 7.38414 87.6171 7.19329C87.994 7.0078 88.3708 6.82959 88.6987 6.65138C89.0037 6.49317 89.2904 6.3042 89.5541 6.08764C89.7855 5.90069 89.9459 5.6448 90.0101 5.36024C90.07 5.11314 90.0671 4.8557 90.0015 4.60994C89.9358 4.36419 89.8095 4.13744 89.6333 3.94908C89.1926 3.48474 88.6036 3.17617 87.9601 3.07256C86.7692 2.81797 85.7643 3.2047 84.9453 4.23277C84.8662 4.34499 84.7666 4.44235 84.6514 4.52009C84.5213 4.58232 84.3711 4.59277 84.2331 4.54919L82.5335 4.18548C82.4123 4.16288 82.3053 4.09489 82.2358 3.99636C82.1987 3.94372 82.1738 3.884 82.1628 3.82124C82.1517 3.75849 82.1548 3.69417 82.1717 3.63266C82.3162 3.12728 82.5851 2.6631 82.9556 2.27969C83.3734 1.83505 83.8697 1.46561 84.4215 1.18859C85.0248 0.883953 85.675 0.675177 86.3472 0.570298C87.0673 0.457256 87.8033 0.480727 88.514 0.639401ZM86.7089 12.3433C86.8584 12.3772 86.9883 12.4662 87.0707 12.5912C87.1531 12.7163 87.1815 12.8675 87.1499 13.0125L86.7429 14.7946C86.7291 14.8693 86.6991 14.9402 86.655 15.0029C86.6108 15.0656 86.5534 15.1185 86.4866 15.1583C86.4235 15.2003 86.3521 15.2291 86.2768 15.2429C86.2015 15.2567 86.1241 15.2551 86.0495 15.2384L84.2255 14.8346C84.148 14.822 84.0742 14.7934 84.0091 14.7507C83.9441 14.708 83.8894 14.6523 83.8487 14.5873C83.8065 14.5259 83.7777 14.4568 83.7641 14.3843C83.7505 14.3117 83.7523 14.2373 83.7696 14.1654L84.1803 12.3833C84.2155 12.2388 84.3075 12.1132 84.4369 12.0331C84.5664 11.953 84.723 11.9247 84.8737 11.9541L86.7089 12.3433Z" fill="#FFBB00"/>
<path d="M90.5259 17.6996C90.9797 17.6294 91.4414 17.6208 91.8977 17.6742C92.3335 17.7242 92.7569 17.8472 93.1488 18.0379C93.522 18.2247 93.8506 18.4849 94.1135 18.8016C94.3498 19.1116 94.5162 19.466 94.6019 19.8418C94.6876 20.2177 94.6907 20.6067 94.6109 20.9838C94.5391 21.2738 94.4236 21.5519 94.268 21.8094C94.1181 22.0599 93.9439 22.2961 93.748 22.515C93.5558 22.7332 93.3711 22.9405 93.2015 23.1406C93.0356 23.3269 92.8879 23.5278 92.7606 23.7407C92.6412 23.9272 92.581 24.1434 92.5873 24.3626C92.584 24.4651 92.5542 24.5651 92.5006 24.6536C92.4734 24.6944 92.4374 24.7291 92.3952 24.7554C92.353 24.7817 92.3054 24.7991 92.2557 24.8063L91.1251 24.9809C91.0723 24.9902 91.0181 24.9891 90.9657 24.9779C90.9132 24.9667 90.8637 24.9454 90.8199 24.9154C90.7754 24.8884 90.7381 24.8516 90.7113 24.808C90.6844 24.7643 90.6687 24.7151 90.6654 24.6645C90.618 24.326 90.6437 23.9818 90.7407 23.6534C90.8294 23.3627 90.956 23.084 91.1176 22.8242C91.2761 22.5748 91.4577 22.3398 91.6602 22.1222C91.86 21.904 92.0371 21.7003 92.2104 21.5039C92.3652 21.3285 92.4992 21.137 92.6099 20.9329C92.708 20.7572 92.7437 20.5554 92.7116 20.3583C92.6833 20.1848 92.612 20.0204 92.5037 19.8792C92.3955 19.738 92.2535 19.6241 92.0899 19.5472C91.6847 19.3583 91.2261 19.3046 90.786 19.3945C90.3874 19.4507 90.0167 19.6246 89.7245 19.8922C89.4324 20.1598 89.2332 20.5081 89.1542 20.8893C89.1322 20.981 89.0939 21.0683 89.0412 21.1475C88.9739 21.2165 88.8827 21.2593 88.7849 21.2675L87.5941 21.453C87.5104 21.4685 87.4237 21.4515 87.3529 21.4057C87.3166 21.3817 87.2861 21.3504 87.2633 21.314C87.2406 21.2776 87.2262 21.237 87.221 21.1948C87.1856 20.8339 87.2439 20.4701 87.3906 20.1364C87.5396 19.7481 87.7591 19.3885 88.0388 19.0744C88.3453 18.7305 88.7066 18.4359 89.109 18.2015C89.5433 17.9474 90.0245 17.7769 90.5259 17.6996ZM92.4705 25.6465C92.5224 25.6385 92.5754 25.6405 92.6264 25.6524C92.6775 25.6643 92.7257 25.6857 92.7682 25.7156C92.8126 25.7438 92.8503 25.7807 92.8789 25.8239C92.9075 25.8672 92.9262 25.9158 92.934 25.9665L93.145 27.214C93.1614 27.3152 93.1357 27.4186 93.0736 27.5016C93.0115 27.5847 92.918 27.6408 92.8134 27.6577L91.551 27.8578C91.4462 27.8734 91.3392 27.8486 91.2533 27.7887C91.2095 27.7601 91.1725 27.723 91.1446 27.6798C91.1167 27.6366 91.0985 27.5882 91.0912 27.5377L90.8802 26.2902C90.8706 26.2402 90.872 26.1887 90.8844 26.1392C90.8967 26.0897 90.9197 26.0433 90.9518 26.0029C90.9814 25.9607 91.0198 25.925 91.0646 25.8981C91.1094 25.8711 91.1595 25.8536 91.2118 25.8465L92.4705 25.6465Z" fill="#FFBB00"/>
<g opacity="0.2">
<path d="M90.5259 17.7006C90.9797 17.6303 91.4414 17.6218 91.8977 17.6751C92.3335 17.7251 92.7569 17.8482 93.1488 18.0388C93.522 18.2257 93.8506 18.4859 94.1135 18.8026C94.3498 19.1126 94.5162 19.4669 94.6019 19.8428C94.6876 20.2187 94.6907 20.6077 94.6109 20.9848C94.5391 21.2747 94.4236 21.5529 94.268 21.8104C94.1181 22.0609 93.9439 22.2971 93.748 22.516C93.5558 22.7342 93.3711 22.9415 93.2015 23.1416C93.0356 23.3279 92.8879 23.5288 92.7606 23.7417C92.6412 23.9282 92.581 24.1444 92.5873 24.3636C92.584 24.466 92.5542 24.5661 92.5006 24.6546C92.4734 24.6953 92.4374 24.73 92.3952 24.7564C92.353 24.7827 92.3054 24.8001 92.2557 24.8073L91.1251 24.9819C91.0723 24.9911 91.0181 24.9901 90.9657 24.9789C90.9132 24.9676 90.8637 24.9464 90.8199 24.9164C90.7754 24.8894 90.7381 24.8526 90.7113 24.8089C90.6844 24.7653 90.6687 24.7161 90.6654 24.6655C90.618 24.327 90.6437 23.9828 90.7407 23.6544C90.8294 23.3636 90.956 23.085 91.1176 22.8251C91.2761 22.5758 91.4577 22.3408 91.6602 22.1232C91.86 21.905 92.0371 21.7013 92.2104 21.5049C92.3652 21.3295 92.4992 21.138 92.6099 20.9339C92.708 20.7582 92.7437 20.5564 92.7116 20.3592C92.6833 20.1857 92.612 20.0214 92.5037 19.8802C92.3955 19.739 92.2535 19.6251 92.0899 19.5482C91.6847 19.3593 91.2261 19.3056 90.786 19.3954C90.3874 19.4517 90.0167 19.6255 89.7245 19.8932C89.4324 20.1608 89.2332 20.5091 89.1542 20.8902C89.1322 20.9819 89.0939 21.0693 89.0412 21.1485C88.9739 21.2175 88.8827 21.2602 88.7849 21.2685L87.5941 21.454C87.5104 21.4694 87.4237 21.4525 87.3529 21.4067C87.3166 21.3826 87.2861 21.3514 87.2633 21.315C87.2406 21.2786 87.2262 21.238 87.221 21.1958C87.1856 20.8348 87.2439 20.4711 87.3906 20.1374C87.5396 19.7491 87.7591 19.3894 88.0388 19.0754C88.3453 18.7315 88.7066 18.4368 89.109 18.2025C89.5433 17.9483 90.0245 17.7779 90.5259 17.7006ZM92.4705 25.6475C92.5224 25.6395 92.5754 25.6415 92.6264 25.6534C92.6775 25.6652 92.7257 25.6867 92.7682 25.7166C92.8126 25.7447 92.8503 25.7817 92.8789 25.8249C92.9075 25.8682 92.9262 25.9168 92.934 25.9675L93.145 27.215C93.1614 27.3162 93.1357 27.4195 93.0736 27.5026C93.0115 27.5857 92.918 27.6418 92.8134 27.6587L91.551 27.8588C91.4462 27.8744 91.3392 27.8496 91.2533 27.7897C91.2095 27.7611 91.1725 27.724 91.1446 27.6808C91.1167 27.6376 91.0985 27.5891 91.0912 27.5387L90.8802 26.2912C90.8706 26.2411 90.872 26.1897 90.8844 26.1402C90.8967 26.0907 90.9197 26.0443 90.9518 26.0039C90.9814 25.9617 91.0198 25.926 91.0646 25.899C91.1094 25.8721 91.1595 25.8545 91.2118 25.8475L92.4705 25.6475Z" fill="#FFBB00"/>
</g>
<path d="M101.185 19.6604C101.236 19.6949 101.28 19.7391 101.313 19.7904C101.346 19.8417 101.368 19.8989 101.377 19.9586C101.389 20.0178 101.388 20.0787 101.374 20.1376C101.361 20.1964 101.335 20.2519 101.298 20.3005L100.401 21.5189C100.365 21.5685 100.319 21.6105 100.266 21.6424C100.213 21.6743 100.154 21.6954 100.092 21.7044C100.03 21.716 99.9674 21.7152 99.9064 21.702C99.8454 21.6889 99.7879 21.6637 99.7376 21.628L98.5015 20.7806C98.45 20.7466 98.4066 20.7024 98.3741 20.651C98.3417 20.5996 98.3209 20.5421 98.3131 20.4824C98.3011 20.4232 98.3019 20.3623 98.3156 20.3034C98.3292 20.2446 98.3553 20.1891 98.3922 20.1405L99.3004 18.9221C99.3739 18.8233 99.4847 18.7565 99.6088 18.7361C99.733 18.7157 99.8605 18.7433 99.9637 18.813L101.185 19.6604ZM106.4 11.408C106.851 11.7129 107.252 12.0806 107.591 12.4991C107.921 12.8885 108.177 13.332 108.345 13.8085C108.501 14.2651 108.554 14.7489 108.499 15.2269C108.435 15.7367 108.235 16.2217 107.919 16.6344C107.684 16.9681 107.381 17.2527 107.03 17.4709C106.72 17.6582 106.383 17.8004 106.031 17.8928C105.687 17.9795 105.337 18.0379 104.983 18.0674L103.981 18.1547C103.68 18.1779 103.383 18.2278 103.091 18.3038C102.823 18.3626 102.577 18.4938 102.383 18.6821C102.295 18.7681 102.184 18.8286 102.063 18.8566C102.005 18.8727 101.944 18.8751 101.885 18.8637C101.826 18.8523 101.771 18.8274 101.724 18.7912L100.631 18.0419C100.526 17.97 100.455 17.8618 100.431 17.7401C100.417 17.6811 100.417 17.6197 100.432 17.561C100.448 17.5022 100.477 17.4477 100.518 17.4018C100.773 17.0821 101.092 16.815 101.456 16.6162C101.784 16.4435 102.133 16.3127 102.496 16.2271C102.846 16.1451 103.203 16.0928 103.563 16.0707C103.917 16.0489 104.248 16.0234 104.557 15.9943C104.84 15.9702 105.119 15.9165 105.39 15.8343C105.627 15.7582 105.831 15.6085 105.971 15.4087C106.097 15.2401 106.178 15.0445 106.209 14.8387C106.24 14.6329 106.219 14.4229 106.148 14.2267C105.969 13.742 105.629 13.3285 105.179 13.052C104.365 12.4919 103.477 12.4737 102.515 12.9974C102.418 13.0569 102.311 13.0988 102.198 13.1211C102.14 13.125 102.081 13.1177 102.025 13.0996C101.97 13.0815 101.918 13.053 101.874 13.0156L100.714 12.2191C100.672 12.1922 100.636 12.1574 100.608 12.1168C100.58 12.0761 100.561 12.0306 100.552 11.9827C100.543 11.9332 100.544 11.8824 100.557 11.8336C100.569 11.7848 100.592 11.7389 100.623 11.699C100.897 11.3604 101.253 11.0918 101.659 10.917C102.121 10.7151 102.616 10.592 103.122 10.5533C103.678 10.5085 104.238 10.5515 104.78 10.6806C105.365 10.8167 105.916 11.0639 106.4 11.408Z" fill="#FFBB00"/>
<g opacity="0.6">
<path d="M101.181 19.6594C101.232 19.6939 101.276 19.7381 101.309 19.7894C101.342 19.8407 101.364 19.898 101.373 19.9577C101.385 20.0168 101.384 20.0778 101.37 20.1366C101.357 20.1954 101.331 20.2509 101.294 20.2995L100.397 21.5179C100.361 21.5675 100.315 21.6096 100.262 21.6415C100.209 21.6734 100.15 21.6944 100.088 21.7034C100.027 21.715 99.9635 21.7142 99.9025 21.7011C99.8415 21.6879 99.784 21.6627 99.7337 21.6271L98.4976 20.7796C98.4461 20.7456 98.4027 20.7014 98.3702 20.65C98.3378 20.5986 98.3169 20.5411 98.3092 20.4814C98.2972 20.4222 98.298 20.3613 98.3117 20.3025C98.3253 20.2436 98.3514 20.1881 98.3883 20.1395L99.2965 18.9211C99.37 18.8224 99.4808 18.7555 99.6049 18.7351C99.7291 18.7147 99.8566 18.7423 99.9598 18.812L101.181 19.6594ZM106.396 11.4071C106.847 11.7119 107.248 12.0796 107.587 12.4982C107.918 12.8875 108.173 13.331 108.341 13.8075C108.497 14.2641 108.55 14.7479 108.495 15.2259C108.431 15.7357 108.231 16.2207 107.915 16.6334C107.68 16.9672 107.377 17.2517 107.026 17.47C106.716 17.6573 106.38 17.7994 106.027 17.8919C105.683 17.9785 105.333 18.0369 104.979 18.0664L103.977 18.1537C103.676 18.1769 103.379 18.2268 103.088 18.3028C102.819 18.3617 102.573 18.4928 102.379 18.6811C102.291 18.7671 102.18 18.8276 102.059 18.8557C102.001 18.8717 101.94 18.8741 101.881 18.8627C101.822 18.8513 101.767 18.8264 101.72 18.7902L100.627 18.041C100.522 17.969 100.451 17.8608 100.427 17.7391C100.413 17.6801 100.413 17.6187 100.429 17.56C100.444 17.5012 100.473 17.4467 100.514 17.4009C100.769 17.0811 101.088 16.814 101.452 16.6153C101.78 16.4425 102.129 16.3117 102.492 16.2261C102.842 16.1441 103.199 16.0918 103.559 16.0697C103.913 16.0479 104.244 16.0224 104.554 15.9933C104.836 15.9692 105.116 15.9156 105.386 15.8333C105.623 15.7572 105.827 15.6076 105.967 15.4078C106.093 15.2391 106.175 15.0435 106.205 14.8377C106.236 14.6319 106.215 14.422 106.144 14.2257C105.966 13.741 105.625 13.3276 105.175 13.051C104.361 12.4909 103.473 12.4727 102.511 12.9964C102.414 13.0559 102.307 13.0978 102.194 13.1201C102.136 13.124 102.077 13.1167 102.021 13.0986C101.966 13.0805 101.914 13.052 101.87 13.0146L100.71 12.2181C100.668 12.1912 100.632 12.1564 100.604 12.1158C100.576 12.0752 100.557 12.0296 100.548 11.9817C100.539 11.9322 100.54 11.8815 100.553 11.8326C100.565 11.7838 100.588 11.738 100.619 11.698C100.893 11.3594 101.249 11.0909 101.656 10.9161C102.117 10.7141 102.612 10.591 103.118 10.5524C103.674 10.5075 104.234 10.5505 104.776 10.6797C105.361 10.8157 105.912 11.063 106.396 11.4071Z" fill="white"/>
</g>
<path d="M83.9813 130.714L87.0045 129.465L84.8201 122.38L81.7969 123.625L83.9813 130.714Z" fill="#FFC3BD"/>
<path d="M59.0508 132.148H62.338L62.5084 124.804H59.2211L59.0508 132.148Z" fill="#FFC3BD"/>
<path d="M62.7821 131.781H58.7752C58.7098 131.782 58.6463 131.803 58.5953 131.843C58.5443 131.882 58.5086 131.937 58.4942 131.999L57.8469 134.818C57.8315 134.887 57.8323 134.958 57.8495 135.026C57.8666 135.095 57.8996 135.158 57.9459 135.213C57.9922 135.267 58.0507 135.31 58.1169 135.339C58.1831 135.369 58.2553 135.383 58.3281 135.381C59.6055 135.381 60.5594 135.287 62.1817 135.287C63.1781 135.287 66.1928 135.385 67.5725 135.385C68.9521 135.385 69.1309 134.07 68.5689 133.951C66.014 133.417 64.1276 132.677 63.3144 131.974C63.168 131.848 62.9782 131.779 62.7821 131.781Z" fill="#FFBB00"/>
<path d="M86.9319 129.027L83.6872 130.507C83.6288 130.535 83.5816 130.581 83.5531 130.637C83.5246 130.694 83.5163 130.758 83.5297 130.819L84.1939 133.638C84.2097 133.707 84.2412 133.77 84.2862 133.825C84.3312 133.879 84.3885 133.923 84.4537 133.954C84.5189 133.984 84.5904 133.999 84.6627 133.999C84.735 133.998 84.8062 133.982 84.871 133.951C86.0334 133.4 87.6898 132.562 89.1631 131.896C90.8664 131.111 90.9345 131.111 92.9529 130.191C94.1707 129.636 93.928 128.292 93.3787 128.415C90.8238 128.986 90.3682 129.212 87.775 128.933C87.4903 128.889 87.1985 128.921 86.9319 129.027Z" fill="#FFBB00"/>
<path d="M68.696 31.5269L70.0458 31.8516C70.5142 31.9584 70.9783 32.0529 71.4425 32.1392C72.3362 32.3122 73.2388 32.4397 74.1464 32.5214C74.5443 32.5536 74.9439 32.5618 75.3429 32.5461C75.6055 32.5395 75.8667 32.5065 76.1221 32.4475C76.1775 32.4475 76.1732 32.4475 76.1221 32.4927C76.0442 32.5778 75.9874 32.679 75.9561 32.7886C75.9263 32.9036 75.9561 32.9571 75.9561 32.9324C75.972 32.8551 75.972 32.7755 75.9561 32.6982C75.745 31.9828 75.4172 31.3045 74.9852 30.6886C74.4768 29.92 73.9267 29.1779 73.3373 28.4653C72.128 26.9981 70.7825 25.5269 69.4326 24.1214L70.9741 22.2598C72.7928 23.3475 74.5033 24.5953 76.0838 25.9872C76.9062 26.7094 77.6732 27.4881 78.3789 28.3173C79.2156 29.2605 79.8651 30.3443 80.2951 31.5146C80.4296 31.9144 80.514 32.3283 80.5463 32.7475C80.5859 33.29 80.5136 33.8348 80.3334 34.3502C80.1222 34.9266 79.7702 35.4453 79.3072 35.8625C78.9234 36.2047 78.483 36.4825 78.0042 36.6845C77.2996 36.9753 76.5528 37.1596 75.79 37.231C75.1662 37.2923 74.5387 37.3115 73.9122 37.2886C72.7683 37.2449 71.6295 37.1172 70.5057 36.9064C69.9607 36.8077 69.4241 36.6927 68.8919 36.5694C68.3596 36.4461 67.8529 36.3146 67.2695 36.1584L68.696 31.5269Z" fill="#FFC3BD"/>
<path d="M64.1358 32.8643C65.8391 30.3246 75.0579 32.1945 75.0579 32.1945L75.5902 39.8794C73.0931 39.5231 70.5791 39.2885 68.0576 39.1767C65.4559 39.0657 61.9983 36.0205 64.1358 32.8643Z" fill="#0B2962"/>
<path d="M69.9387 24.4324L66.8516 22.8378L69.8322 20.5693C70.2526 20.8237 70.6126 21.161 70.8885 21.559C71.1644 21.957 71.3501 22.4068 71.4333 22.8789L69.9387 24.4324Z" fill="#FFC3BD"/>
<path d="M64.9688 21.175L67.9792 19.375L69.8485 20.5668L66.8508 22.8353L64.9688 21.175Z" fill="#FFC3BD"/>
<path opacity="0.2" d="M84.8205 122.382L85.9446 126.031L82.9214 127.28L81.793 123.627L84.8205 122.382Z" fill="#FFBB00"/>
<path opacity="0.2" d="M59.2222 124.804H62.5095L62.4201 128.593H59.1328L59.2222 124.804Z" fill="#FFBB00"/>
<path d="M56.4254 39.8039L52.4185 45.3806C52.1605 45.7346 52.0127 46.1524 51.9927 46.5848L51.6776 53.982C51.6551 54.5328 51.8396 55.0728 52.1971 55.5026L53.9387 57.5903C54.1758 57.8677 54.4778 58.0869 54.8198 58.2298C55.1618 58.3727 55.534 58.4352 55.9059 58.4122L61.1732 58.1327C61.7761 58.1011 62.3433 57.8472 62.7577 57.4235C63.1722 56.9998 63.4022 56.4387 63.4002 55.856L63.3534 40.9998C63.3529 40.6964 63.2895 40.3963 63.167 40.1169C63.0444 39.8376 62.8651 39.5847 62.6397 39.3733C62.4143 39.1619 62.1473 38.9962 61.8545 38.8859C61.5617 38.7756 61.249 38.7231 60.9347 38.7313L58.2862 38.8012C57.9163 38.8157 57.5551 38.914 57.2318 39.0882C56.9085 39.2624 56.6323 39.5076 56.4254 39.8039Z" fill="#1C1C1C"/>
<path opacity="0.3" d="M56.4254 39.8039L52.4185 45.3806C52.1605 45.7346 52.0127 46.1524 51.9927 46.5848L51.6776 53.982C51.6551 54.5328 51.8396 55.0728 52.1971 55.5026L53.9387 57.5903C54.1758 57.8677 54.4778 58.0869 54.8198 58.2298C55.1618 58.3727 55.534 58.4352 55.9059 58.4122L61.1732 58.1327C61.7761 58.1011 62.3433 57.8472 62.7577 57.4235C63.1722 56.9998 63.4022 56.4387 63.4002 55.856L63.3534 40.9998C63.3529 40.6964 63.2895 40.3963 63.167 40.1169C63.0444 39.8376 62.8651 39.5847 62.6397 39.3733C62.4143 39.1619 62.1473 38.9962 61.8545 38.8859C61.5617 38.7756 61.249 38.7231 60.9347 38.7313L58.2862 38.8012C57.9163 38.8157 57.5551 38.914 57.2318 39.0882C56.9085 39.2624 56.6323 39.5076 56.4254 39.8039Z" fill="#FFBB00"/>
<path d="M67.0985 30.041L55.5037 30.3477C54.2202 30.3817 53.2082 31.4134 53.2434 32.6522L53.333 35.8072C53.3682 37.0459 54.4372 38.0226 55.7207 37.9887L67.3155 37.682C68.599 37.648 69.611 36.6163 69.5758 35.3775L69.4862 32.2225C69.451 30.9837 68.382 30.007 67.0985 30.041Z" fill="#1C1C1C"/>
<path opacity="0.3" d="M67.0985 30.041L55.5037 30.3477C54.2202 30.3817 53.2082 31.4134 53.2434 32.6522L53.333 35.8072C53.3682 37.0459 54.4372 38.0226 55.7207 37.9887L67.3155 37.682C68.599 37.648 69.611 36.6163 69.5758 35.3775L69.4862 32.2225C69.451 30.9837 68.382 30.007 67.0985 30.041Z" fill="#FFBB00"/>
<path d="M52.8242 32.4144C53.7142 35.8569 54.339 39.3582 54.6935 42.8897C54.9533 45.3555 55.0895 47.698 55.1619 49.8308C55.328 54.8199 55.1364 58.6172 55.2641 59.9076L72.8203 59.0857C73.3398 34.1568 71.2193 31.7116 71.2193 31.7116C69.8377 31.4348 68.4398 31.2399 67.0335 31.1281C66.7497 31.1034 66.4473 31.087 66.1266 31.0787C63.6334 31.0568 61.141 31.1748 58.6621 31.4322C58.1937 31.4774 57.7168 31.5349 57.2527 31.5966C54.8979 31.9048 52.8242 32.4144 52.8242 32.4144Z" fill="#0B2962"/>
<path d="M70.4201 40.0216C66.1803 39.1103 61.7558 39.4321 57.7053 40.9462L57.3477 39.7586C61.6166 38.1631 66.2796 37.8242 70.7479 38.7846C70.6457 39.1956 70.5308 39.6106 70.4201 40.0216Z" fill="#FFBB00"/>
<path opacity="0.2" d="M57.1537 37.0693C57.1315 39.6701 56.3236 42.208 54.8288 44.3721C54.7905 43.8872 54.7437 43.3981 54.6926 42.905C54.4967 41.0556 54.2327 39.1365 53.875 37.1967L57.1537 37.0693Z" fill="#FFBB00"/>
<path d="M67.5227 31.1581L67.033 31.117C66.7349 31.0924 66.4326 31.0759 66.1303 31.0595C63.6371 31.0409 61.1448 31.1603 58.6658 31.417C58.1931 31.4622 57.7205 31.5198 57.2564 31.5814H57.2266L57.563 32.0869C58.0824 32.8801 59.7431 34.7499 63.9884 35.1198L64.4142 35.1527L64.7677 34.9595C65.6789 34.4581 67.1565 33.2458 67.4886 31.9554C67.5522 31.6941 67.5638 31.4236 67.5227 31.1581Z" fill="white"/>
<path d="M56.2616 18.4255C54.6052 17.6282 52.7189 19.9255 53.2809 21.3597C53.6994 21.2826 54.132 21.3216 54.5284 21.4722C54.9249 21.6227 55.2689 21.8787 55.5207 22.2104C55.5207 22.2104 54.4179 23.5173 55.0949 24.9392C56.4405 24.1173 57.8158 25.2515 57.8158 25.2515C57.6546 25.6344 57.6166 26.0553 57.707 26.4592C57.7974 26.8632 58.0119 27.2314 58.3225 27.5159C58.6802 26.5872 60.0258 27.4255 60.5708 26.694C61.4608 25.4981 60.4346 24.2282 60.4346 24.2282L60.0641 23.6365C59.7916 20.8008 58.8378 19.6625 56.2616 18.4255Z" fill="#0B2962"/>
<path d="M58.9834 23.2715C59.5753 25.5688 60.2609 29.7893 58.6641 31.4167C59.3283 32.4318 61.0358 33.5989 64.1017 33.8825C65.1917 33.2866 66.6267 31.8277 66.1243 31.0797C63.4161 30.5907 63.3863 28.6715 63.761 26.8468L58.9834 23.2715Z" fill="#FFC3BD"/>
<path d="M67.4041 31.2401C67.5957 32.7812 68.9881 43.0265 72.6458 47.4073C72.6741 47.4397 72.7118 47.4631 72.7541 47.4744C72.7964 47.4857 72.8413 47.4844 72.8828 47.4706C72.9242 47.4568 72.9604 47.4312 72.9865 47.3971C73.0127 47.3631 73.0275 47.3222 73.0291 47.2799C73.0291 46.3799 73.0291 45.5292 73.0291 45.3772C73.0313 45.3608 73.0313 45.3442 73.0291 45.3278C72.9013 44.8799 71.0363 38.0826 70.785 31.5525C70.7841 31.5173 70.7738 31.483 70.7551 31.4528C70.7365 31.4225 70.7101 31.3974 70.6786 31.3799C69.6946 31.0158 68.6331 30.8902 67.5872 31.0141C67.5597 31.0172 67.5331 31.0254 67.509 31.0385C67.4849 31.0515 67.4637 31.0691 67.4466 31.0901C67.4296 31.1112 67.417 31.1353 67.4097 31.161C67.4024 31.1868 67.4005 31.2137 67.4041 31.2401Z" fill="#FFBB00"/>
<path opacity="0.2" d="M60.9347 24.7236L63.7578 26.8277C63.6646 27.2524 63.6105 27.6843 63.596 28.1182C62.5655 28.0236 61.105 27.0086 60.9432 25.9771C60.8604 25.5633 60.8576 25.1384 60.9347 24.7236Z" fill="#FFBB00"/>
<path d="M64.8644 19.4782C65.7459 19.5645 67.0361 16.7248 65.567 14.6946C64.2087 12.8248 61.5303 14.7645 61.1939 15.1056C60.8576 15.4467 61.7007 19.1618 64.8644 19.4782Z" fill="#0B2962"/>
<path d="M57.4482 20.1892C58.2658 23.2344 58.5851 25.0591 60.5183 26.3536C63.4266 28.281 67.0886 26.1234 67.2291 22.9015C67.3526 20.0042 65.9942 15.5042 62.6175 14.8672C61.8756 14.7243 61.1082 14.7663 60.3878 14.9893C59.6673 15.2123 59.0177 15.6089 58.5003 16.1416C57.9829 16.6743 57.6147 17.3255 57.4306 18.0338C57.2465 18.742 57.2526 19.4838 57.4482 20.1892Z" fill="#FFC3BD"/>
<path d="M58.8455 22.6125C59.7312 22.6988 60.0335 18.8111 59.5481 17.8289C59.0627 16.8467 55.4305 17.8289 55.1793 18.2399C53.7741 20.5659 55.686 22.2961 58.8455 22.6125Z" fill="#0B2962"/>
<path d="M65.976 13.1373C65.8483 11.9619 64.4133 11.3332 62.8804 11.4934C62.808 12.3606 61.3304 13.014 61.3304 13.014C60.8825 12.6699 60.3609 12.4265 59.8033 12.3014C59.2457 12.1763 58.6663 12.1726 58.1071 12.2907C58.2007 13.6058 56.9233 14.6167 56.9233 14.6167C56.9233 14.6167 55.5948 14.0701 54.2364 15.2948C55.335 15.7962 53.5424 16.9017 54.543 18.1304C55.6757 19.5236 57.6855 18.7345 57.6855 18.7345L58.5371 18.2989C62.7016 17.8304 66.3209 16.203 65.976 13.1373Z" fill="#0B2962"/>
<path d="M65.6606 23.1187C65.0167 23.5659 64.2959 23.8998 63.5316 24.105C63.5206 24.1081 63.509 24.1088 63.4977 24.107C63.4864 24.1052 63.4757 24.101 63.4663 24.0947C63.4569 24.0884 63.4491 24.0801 63.4435 24.0705C63.4378 24.0609 63.4344 24.0502 63.4336 24.0392C63.4329 24.0147 63.441 23.9907 63.4566 23.9712C63.4721 23.9517 63.494 23.938 63.5188 23.9324C64.2473 23.7329 64.9345 23.4131 65.5499 22.9872C65.5672 22.9716 65.5901 22.9629 65.6138 22.9629C65.6375 22.9629 65.6603 22.9716 65.6777 22.9872C65.6883 22.9955 65.6966 23.0064 65.7017 23.0187C65.7069 23.031 65.7087 23.0443 65.707 23.0575C65.7053 23.0706 65.7001 23.0832 65.692 23.0939C65.6839 23.1046 65.6731 23.1131 65.6606 23.1187Z" fill="#0B2962"/>
<path d="M56.6931 23.5232C57.2565 24.0981 58.0325 24.4349 58.852 24.4602C59.9378 24.4849 60.2146 23.4862 59.7036 22.6314C59.2309 21.8588 58.094 20.9218 57.1104 21.304C56.1268 21.6862 56.0033 22.8082 56.6931 23.5232Z" fill="#FFC3BD"/>
<path d="M79.7529 93.5792C78.0241 84.045 72.8207 59.0586 72.8207 59.0586L61.2812 59.6093C61.2812 59.6093 69.2013 87.6203 71.4752 95.7409C73.749 103.861 81.6946 127.085 81.6946 127.085L86.7235 124.792C86.7235 124.792 81.5499 103.496 79.7529 93.5792Z" fill="#1C1C1C"/>
<path opacity="0.2" d="M65.9622 69.0283L64.3398 70.4502C65.7322 75.3818 67.3844 81.2421 68.8066 86.2804C69.2026 80.5927 68.4787 72.0448 65.9622 69.0283Z" fill="#FFBB00"/>
<path d="M67.9789 59.2988C67.9789 59.2988 65.6668 85.8386 65.3772 95.1304C65.0579 105.302 63.9848 127.855 63.9848 127.855H57.9639C57.9639 127.855 57.0399 107.246 56.8525 97.2428C56.6226 85.9414 55.2812 59.907 55.2812 59.907L67.9789 59.2988Z" fill="#1C1C1C"/>
<path d="M64.2231 127.986H57.6145L57.3164 125.943L64.7596 125.808L64.2231 127.986Z" fill="#0B2962"/>
<path d="M87.0814 124.773L81.4053 127.367L80.1875 125.526L86.6598 122.562L87.0814 124.773Z" fill="#0B2962"/>
<path d="M62.4667 20.1239C62.5178 20.3745 62.6966 20.5348 62.8669 20.5348C63.0373 20.5348 63.1352 20.2759 63.0841 20.0252C63.033 19.7745 62.8542 19.6143 62.6838 19.6143C62.5135 19.6143 62.4156 19.8896 62.4667 20.1239Z" fill="#0B2962"/>
<path d="M65.4132 19.585C65.4643 19.8357 65.6431 19.9959 65.8135 19.9959C65.9838 19.9959 66.0775 19.7329 66.0264 19.4822C65.9753 19.2316 65.7964 19.0713 65.6261 19.0713C65.4558 19.0713 65.3706 19.3343 65.4132 19.585Z" fill="#0B2962"/>
<path d="M64.5156 19.8857C64.9812 20.5953 65.5457 21.2397 66.1933 21.8008C65.8143 22.3022 64.9457 22.2118 64.9457 22.2118L64.5156 19.8857Z" fill="#ED847E"/>
<path d="M62.8884 18.6815C62.861 18.6746 62.8322 18.6752 62.8051 18.6832C62.7781 18.6912 62.7538 18.7062 62.7351 18.7267C62.6085 18.8692 62.4488 18.9808 62.2689 19.0522C62.0891 19.1237 61.8942 19.1529 61.7004 19.1377C61.6598 19.1329 61.619 19.1436 61.5864 19.1673C61.5539 19.1911 61.5321 19.2261 61.5258 19.2651C61.5222 19.2848 61.5227 19.3051 61.5275 19.3246C61.5322 19.3442 61.541 19.3626 61.5534 19.3787C61.5657 19.3948 61.5814 19.4084 61.5993 19.4185C61.6173 19.4287 61.6372 19.4352 61.6578 19.4377C61.9044 19.4567 62.1521 19.4185 62.3802 19.3263C62.6084 19.2341 62.8104 19.0905 62.9693 18.9075C62.9841 18.8941 62.9959 18.8778 63.004 18.8598C63.0121 18.8418 63.0162 18.8224 63.0162 18.8027C63.0162 18.7831 63.0121 18.7637 63.004 18.7456C62.9959 18.7276 62.9841 18.7114 62.9693 18.6979C62.9452 18.6833 62.9165 18.6775 62.8884 18.6815Z" fill="#0B2962"/>
<path d="M66.5086 17.2922C66.5388 17.2837 66.5656 17.2665 66.5853 17.2429C66.5982 17.2272 66.6077 17.2093 66.6134 17.1901C66.6191 17.1709 66.6208 17.1508 66.6184 17.1309C66.616 17.1111 66.6096 17.0919 66.5996 17.0744C66.5895 17.057 66.576 17.0416 66.5597 17.0292C66.3697 16.8765 66.1442 16.7705 65.9024 16.7204C65.6606 16.6703 65.4098 16.6775 65.1716 16.7415C65.1331 16.7546 65.1013 16.7817 65.083 16.8169C65.0648 16.8522 65.0614 16.8929 65.0737 16.9306C65.0872 16.9678 65.1153 16.9984 65.1518 17.016C65.1883 17.0337 65.2306 17.0369 65.2695 17.0251C65.4595 16.9795 65.658 16.9777 65.8488 17.0198C66.0397 17.0619 66.2176 17.1468 66.3681 17.2675C66.3882 17.2815 66.4112 17.2909 66.4355 17.2952C66.4598 17.2995 66.4848 17.2984 66.5086 17.2922Z" fill="#0B2962"/>
<path d="M63.8701 132.334C64.0948 132.351 64.3188 132.293 64.5045 132.17C64.5658 132.121 64.6129 132.057 64.6413 131.985C64.6696 131.913 64.6782 131.835 64.6663 131.759C64.6669 131.714 64.6545 131.671 64.6303 131.633C64.6062 131.595 64.5714 131.565 64.5301 131.545C64.1681 131.364 63.1079 131.993 62.9886 132.067C62.9757 132.075 62.9655 132.086 62.9594 132.099C62.9533 132.112 62.9516 132.127 62.9546 132.141C62.9565 132.155 62.9628 132.169 62.9726 132.18C62.9825 132.191 62.9954 132.199 63.0099 132.203C63.2906 132.278 63.5791 132.322 63.8701 132.334ZM64.3597 131.677C64.3934 131.669 64.4283 131.669 64.4619 131.677C64.4775 131.686 64.49 131.7 64.4983 131.716C64.5065 131.732 64.5101 131.749 64.5088 131.767C64.5166 131.817 64.511 131.869 64.4923 131.916C64.4737 131.964 64.4427 132.006 64.4023 132.038C64.0359 132.203 63.6175 132.223 63.2356 132.096C63.5792 131.888 63.9608 131.746 64.3597 131.677Z" fill="#1C1C1C"/>
<path d="M63.034 132.221C63.045 132.225 63.0572 132.225 63.0681 132.221C63.4088 132.044 64.0688 131.35 63.9964 130.988C63.9855 130.932 63.9548 130.882 63.9097 130.846C63.8646 130.81 63.8079 130.791 63.7494 130.791C63.6903 130.783 63.6302 130.788 63.5729 130.804C63.5157 130.82 63.4627 130.848 63.4173 130.885C63.0383 131.189 62.9574 132.118 62.9531 132.143C62.9528 132.156 62.9562 132.169 62.963 132.181C62.9697 132.192 62.9796 132.202 62.9915 132.208C63.004 132.217 63.0189 132.221 63.034 132.221ZM63.6941 130.939H63.7324C63.8303 130.939 63.8431 130.996 63.8431 131.017C63.8857 131.222 63.4684 131.748 63.1277 131.995C63.1519 131.635 63.2868 131.29 63.5152 131.004C63.5648 130.963 63.6282 130.939 63.6941 130.939Z" fill="#1C1C1C"/>
<path d="M87.4195 129.306C87.9433 129.179 88.8502 128.895 89.0376 128.484C89.0705 128.419 89.0851 128.347 89.0799 128.275C89.0747 128.203 89.0498 128.133 89.0078 128.073C88.9884 128.036 88.9592 128.005 88.9233 127.983C88.8874 127.961 88.8461 127.948 88.8034 127.946C88.352 127.921 87.4408 129.043 87.3386 129.179C87.3293 129.191 87.3242 129.206 87.3242 129.222C87.3242 129.237 87.3293 129.252 87.3386 129.265C87.3451 129.28 87.3568 129.292 87.3715 129.299C87.3862 129.307 87.4032 129.309 87.4195 129.306ZM88.7906 128.106C88.8072 128.108 88.823 128.113 88.8364 128.123C88.8499 128.132 88.8606 128.145 88.8673 128.159C88.8929 128.197 88.9087 128.239 88.9132 128.284C88.9176 128.328 88.9106 128.373 88.8928 128.414C88.7864 128.657 88.3095 128.907 87.6154 129.101C87.9901 128.665 88.5266 128.122 88.7906 128.106Z" fill="#1C1C1C"/>
<path d="M87.4166 129.308C87.4265 129.307 87.4361 129.305 87.445 129.301C87.4538 129.296 87.4615 129.29 87.4677 129.283C87.753 128.962 88.1575 128.017 87.9446 127.717C87.8935 127.647 87.7913 127.581 87.5912 127.647C87.5174 127.672 87.4496 127.711 87.3919 127.762C87.3341 127.813 87.2875 127.875 87.2548 127.943C87.0249 128.416 87.3229 129.225 87.3357 129.258C87.3405 129.271 87.3485 129.282 87.3589 129.29C87.3693 129.299 87.3819 129.305 87.3953 129.308H87.4166ZM87.7317 127.771C87.7477 127.768 87.7642 127.769 87.7793 127.775C87.7944 127.781 87.8074 127.791 87.8169 127.803C87.9446 127.984 87.7019 128.691 87.4379 129.069C87.3112 128.728 87.2978 128.358 87.3996 128.009C87.4213 127.958 87.4543 127.912 87.4962 127.874C87.5381 127.837 87.5879 127.808 87.6423 127.791C87.6706 127.779 87.7009 127.772 87.7317 127.771Z" fill="#1C1C1C"/>
<path d="M56.2653 37.1344L55.3157 38.3919C54.9921 38.8234 54.677 39.2631 54.3661 39.7029C53.7402 40.5823 53.1398 41.4741 52.5522 42.3659C51.9646 43.2577 51.4323 44.1741 50.9171 45.0864C50.4237 45.9834 49.9774 46.9037 49.58 47.844C49.58 47.844 49.58 47.8851 49.58 47.881C49.58 47.9138 49.58 47.881 49.58 47.9549C49.5821 47.9768 49.5821 47.9988 49.58 48.0207C49.58 48.0454 49.58 48.0864 49.58 48.1193V48.2221L49.6013 48.3454C49.677 48.7567 49.7984 49.159 49.9633 49.5454C50.3622 50.4794 50.8304 51.3845 51.3642 52.2536C51.905 53.1659 52.5053 54.0741 53.1228 54.9782C53.7402 55.8824 54.4002 56.7906 55.0176 57.67L53.2079 59.2892C51.3894 57.7573 49.723 56.0651 48.2302 54.2344C47.4455 53.2813 46.7488 52.2637 46.148 51.1933C45.8101 50.5776 45.5376 49.9304 45.3347 49.2618L45.2538 48.9823L45.1942 48.6741C45.1942 48.5673 45.1559 48.4686 45.1431 48.3577L45.1175 48.0084C45.1018 47.7548 45.1089 47.5004 45.1388 47.2481C45.154 47.1095 45.1796 46.9721 45.2155 46.8371L45.2666 46.6234C45.28 46.565 45.2971 46.5073 45.3177 46.4508C46.0557 44.1762 47.0555 41.9886 48.2983 39.9289C48.8945 38.9138 49.5332 37.9316 50.2017 36.9741C50.5381 36.4933 50.883 36.0207 51.2364 35.5522C51.5899 35.0837 51.939 34.6357 52.3521 34.1426L56.2653 37.1344Z" fill="#FFC3BD"/>
<path d="M52.8246 32.4163C49.729 32.9588 46.8633 40.1753 46.8633 40.1753L53.1866 45.3534C53.1866 45.3534 55.371 41.6999 57.1296 38.1657C59.0585 34.3191 56.5675 31.7629 52.8246 32.4163Z" fill="#0B2962"/>
<path d="M53.7024 57.2205L57.011 56.8096L55.7336 60.6726C55.7336 60.6726 52.838 60.4096 52.8125 58.9096L53.7024 57.2205Z" fill="#FFC3BD"/>
<path d="M59.3701 58.1751L58.1693 61.3189L55.7422 60.6861L57.0068 56.8271L59.3701 58.1751Z" fill="#FFC3BD"/>
<path d="M54.8337 32.1071C55.1914 33.8208 56.7329 42.04 54.9232 48.6688C54.9208 48.6796 54.9208 48.6908 54.9232 48.7017C54.9218 49.0977 54.9503 49.4932 55.0083 49.8852C55.0142 49.9122 55.0273 49.9373 55.0461 49.958C55.065 49.9787 55.0891 49.9943 55.1161 50.0034C55.143 50.0125 55.172 50.0147 55.2001 50.0099C55.2282 50.005 55.2546 49.9932 55.2766 49.9756C56.1665 49.2647 59.4453 46.2154 59.4666 39.677C59.4879 34.4701 58.6533 32.1811 58.3382 31.4989C58.3042 31.4315 58.2484 31.3766 58.1793 31.3425C58.1102 31.3084 58.0314 31.2969 57.9549 31.3098L55.1318 31.7208C55.0853 31.7257 55.0402 31.7398 54.9996 31.7623C54.9589 31.7847 54.9235 31.815 54.8956 31.8513C54.8676 31.8875 54.8477 31.929 54.837 31.973C54.8264 32.017 54.8253 32.0627 54.8337 32.1071Z" fill="#FFBB00"/>
</svg>
