<svg width="24" height="24" viewBox="0 0 24 24" fill="none" xmlns="http://www.w3.org/2000/svg">
<path fill-rule="evenodd" clip-rule="evenodd" d="M16 3.24219H8C5.23858 3.24219 3 5.48077 3 8.24219V16.2422C3 19.0036 5.23858 21.2422 8 21.2422H16C18.7614 21.2422 21 19.0036 21 16.2422V8.24219C21 5.48077 18.7614 3.24219 16 3.24219ZM19.25 16.2422C19.2445 18.0348 17.7926 19.4867 16 19.4922H8C6.20735 19.4867 4.75549 18.0348 4.75 16.2422V8.24219C4.75549 6.44954 6.20735 4.99768 8 4.99219H16C17.7926 4.99768 19.2445 6.44954 19.25 8.24219V16.2422ZM16.75 8.49219C17.3023 8.49219 17.75 8.04447 17.75 7.49219C17.75 6.93991 17.3023 6.49219 16.75 6.49219C16.1977 6.49219 15.75 6.93991 15.75 7.49219C15.75 8.04447 16.1977 8.49219 16.75 8.49219ZM12 7.74219C9.51472 7.74219 7.5 9.75691 7.5 12.2422C7.5 14.7275 9.51472 16.7422 12 16.7422C14.4853 16.7422 16.5 14.7275 16.5 12.2422C16.5027 11.0479 16.0294 9.90176 15.1849 9.05727C14.3404 8.21278 13.1943 7.73953 12 7.74219ZM9.25 12.2422C9.25 13.761 10.4812 14.9922 12 14.9922C13.5188 14.9922 14.75 13.761 14.75 12.2422C14.75 10.7234 13.5188 9.49219 12 9.49219C10.4812 9.49219 9.25 10.7234 9.25 12.2422Z" fill="#FCFCFD"/>
</svg>
