<svg width="209" height="68" viewBox="0 0 209 68" fill="none" xmlns="http://www.w3.org/2000/svg">
<g filter="url(#filter0_d_404_4145)">
<path d="M200.313 1.5H8.28163C6.46924 1.5 5 2.96751 5 4.77778V55.5833C5 57.3936 6.46924 58.8611 8.28163 58.8611H200.313C202.125 58.8611 203.595 57.3936 203.595 55.5833V4.77778C203.595 2.96751 202.125 1.5 200.313 1.5Z" stroke="black" stroke-width="2"/>
<path d="M51.6046 28.8025C51.5666 24.2651 55.3256 22.0534 55.5006 21.9546C53.37 18.8537 50.0676 18.4281 48.9033 18.3976C46.126 18.1089 43.4399 20.0546 42.0246 20.0546C40.5864 20.0546 38.4101 18.4281 36.0589 18.4737C33.038 18.5193 30.215 20.2674 28.6703 22.9731C25.4744 28.4985 27.8562 36.6156 30.9227 41.0846C32.4521 43.2735 34.2403 45.7133 36.584 45.6296C38.8743 45.5384 39.7342 44.1703 42.4963 44.1703C45.2357 44.1703 46.0422 45.6296 48.4316 45.5764C50.8894 45.5384 52.4417 43.3799 53.9178 41.1758C55.6908 38.6678 56.3985 36.1976 56.4289 36.076C56.368 36.038 51.6503 34.2368 51.6046 28.8025ZM47.0924 15.4563C48.325 13.9135 49.1696 11.8234 48.9338 9.69531C47.1532 9.77127 44.9161 10.9265 43.6377 12.4314C42.504 13.7615 41.4843 15.9351 41.7507 17.9796C43.7443 18.124 45.8064 16.9688 47.0924 15.4563Z" fill="black"/>
<path d="M84.7954 45.3021H81.5919L79.8342 39.7994H73.7391L72.0651 45.3021H68.9453L74.987 26.5597H78.7156L84.7954 45.3021ZM79.3091 37.4889L77.7188 32.5944C77.5514 32.0927 77.2318 30.9147 76.7752 29.0602H76.722C76.5393 29.8583 76.235 31.0363 75.8317 32.5944L74.2718 37.4889H79.3091ZM100.303 38.3782C100.303 40.6735 99.6791 42.49 98.4313 43.8277C97.3122 45.0133 95.92 45.6061 94.2611 45.6061C92.4653 45.6061 91.1797 44.9677 90.3962 43.6908V50.7819H87.3902V36.2273C87.3902 34.7833 87.3525 33.3012 87.2762 31.7887H89.9236L90.0918 33.932H90.1443C91.1493 32.3208 92.6712 31.5075 94.7099 31.5075C96.3081 31.5075 97.6396 32.1384 98.7053 33.4C99.7702 34.6617 100.303 36.3261 100.303 38.3782ZM97.2441 38.4922C97.2441 37.1774 96.9472 36.0905 96.354 35.2393C95.7067 34.35 94.8321 33.9092 93.7361 33.9092C92.9985 33.9092 92.3209 34.16 91.7195 34.6464C91.119 35.1405 90.7227 35.7865 90.5406 36.5769C90.4569 36.8734 90.411 37.1849 90.4036 37.4889V39.7462C90.4036 40.7267 90.708 41.5551 91.3093 42.2392C91.9099 42.9156 92.6942 43.2576 93.6598 43.2576C94.7936 43.2576 95.6763 42.8168 96.3081 41.9504C96.9242 41.0687 97.2441 39.921 97.2441 38.4922ZM115.872 38.3782C115.872 40.6735 115.248 42.49 113.999 43.8277C112.881 45.0133 111.489 45.6061 109.83 45.6061C108.034 45.6061 106.748 44.9677 105.964 43.6908V50.7819H102.958V36.2273C102.958 34.7833 102.921 33.3012 102.844 31.7887H105.493L105.66 33.932H105.713C106.717 32.3208 108.239 31.5075 110.279 31.5075C111.877 31.5075 113.208 32.1384 114.273 33.4C115.332 34.6617 115.872 36.3261 115.872 38.3782ZM112.805 38.4922C112.805 37.1774 112.509 36.0905 111.915 35.2393C111.268 34.35 110.393 33.9092 109.298 33.9092C108.559 33.9092 107.882 34.16 107.273 34.6464C106.672 35.1405 106.276 35.7865 106.094 36.5769C106.002 36.9493 105.949 37.2533 105.949 37.4889V39.7462C105.949 40.7267 106.254 41.5551 106.854 42.2392C107.456 42.9156 108.239 43.2576 109.214 43.2576C110.347 43.2576 111.23 42.8168 111.861 41.9504C112.493 41.0687 112.805 39.921 112.805 38.4922ZM133.274 40.0503C133.274 41.6464 132.719 42.946 131.608 43.9416C130.39 45.0361 128.678 45.5833 126.494 45.5833C124.478 45.5833 122.857 45.1957 121.632 44.4128L122.324 41.9124C123.641 42.6952 125.094 43.0828 126.669 43.0828C127.803 43.0828 128.685 42.8244 129.317 42.3151C129.949 41.8059 130.268 41.1219 130.268 40.2707C130.268 39.5107 130.002 38.8722 129.485 38.3478C128.967 37.831 128.107 37.3445 126.898 36.9038C123.61 35.6801 121.966 33.8864 121.966 31.538C121.966 30.0026 122.545 28.741 123.709 27.7606C124.866 26.7801 126.403 26.2861 128.32 26.2861C130.025 26.2861 131.448 26.5825 132.582 27.1753L131.828 29.6227C130.763 29.045 129.568 28.7638 128.221 28.7638C127.164 28.7638 126.327 29.0222 125.733 29.539C125.231 30.0026 124.98 30.5651 124.98 31.2339C124.98 31.9711 125.269 32.5868 125.848 33.0656C126.35 33.5064 127.255 33.9928 128.571 34.5097C130.184 35.1633 131.371 35.9157 132.133 36.7898C132.893 37.6638 133.274 38.7506 133.274 40.0503ZM143.242 34.046H139.924V40.6051C139.924 42.2772 140.51 43.1056 141.682 43.1056C142.222 43.1056 142.664 43.06 143.021 42.9688L143.105 45.2489C142.512 45.4693 141.736 45.5833 140.769 45.5833C139.582 45.5833 138.653 45.2185 137.984 44.4965C137.315 43.7744 136.98 42.5583 136.98 40.8559V34.046H135.009V31.7963H136.98V29.3187L139.932 28.4294V31.7963H143.249L143.242 34.046ZM158.164 38.439C158.164 40.5139 157.57 42.224 156.383 43.554C155.143 44.9296 153.492 45.6137 151.43 45.6137C149.443 45.6137 147.861 44.9525 146.681 43.6452C145.502 42.3304 144.916 40.6659 144.916 38.667C144.916 36.5693 145.525 34.8592 146.743 33.5216C147.96 32.1839 149.596 31.5227 151.658 31.5227C153.644 31.5227 155.242 32.1839 156.444 33.4988C157.585 34.768 158.164 36.4173 158.164 38.439ZM155.044 38.5074C155.044 37.2686 154.778 36.2045 154.237 35.3229C153.606 34.2512 152.708 33.7116 151.536 33.7116C150.334 33.7116 149.406 34.2512 148.781 35.3229C148.242 36.2121 147.975 37.2914 147.975 38.5682C147.975 39.807 148.242 40.8711 148.781 41.7604C149.429 42.8319 150.342 43.3716 151.513 43.3716C152.663 43.3716 153.56 42.8244 154.215 41.7376C154.77 40.8179 155.044 39.7462 155.044 38.5074ZM167.942 34.4336C167.629 34.3804 167.31 34.35 166.99 34.35C165.933 34.35 165.119 34.7453 164.541 35.5433C164.038 36.2501 163.787 37.1393 163.787 38.211V45.3021H160.781V36.0449C160.781 34.6237 160.759 33.2099 160.698 31.7887H163.316L163.422 34.3728H163.505C163.825 33.4836 164.32 32.7692 165.012 32.2296C165.636 31.7583 166.405 31.5075 167.188 31.5075C167.47 31.5075 167.713 31.5303 167.942 31.5607V34.4336ZM181.388 37.907C181.395 38.363 181.356 38.819 181.281 39.2674H172.257C172.287 40.6051 172.728 41.6235 173.565 42.3304C174.326 42.9612 175.308 43.2728 176.518 43.2728C177.857 43.2728 179.074 43.06 180.17 42.6344L180.642 44.7168C179.363 45.2717 177.849 45.5529 176.107 45.5529C174.006 45.5529 172.362 44.9373 171.16 43.706C169.966 42.4748 169.365 40.8179 169.365 38.743C169.365 36.7061 169.92 35.0112 171.039 33.6584C172.203 32.2143 173.786 31.4923 175.772 31.4923C177.72 31.4923 179.196 32.2143 180.201 33.6584C180.984 34.8061 181.388 36.2197 181.388 37.907ZM178.519 37.1317C178.542 36.2425 178.344 35.4749 177.933 34.8212C177.415 33.9852 176.609 33.5672 175.536 33.5672C174.554 33.5672 173.755 33.9776 173.138 34.7908C172.636 35.4369 172.34 36.2197 172.248 37.1242L178.519 37.1317Z" fill="black"/>
<path d="M72.872 19.9401C72.035 19.9401 71.3121 19.9021 70.7109 19.8337V10.7665C71.5556 10.6373 72.4079 10.5689 73.2601 10.5765C76.7071 10.5765 78.2974 12.2713 78.2974 15.0302C78.2898 18.2148 76.4179 19.9401 72.872 19.9401ZM73.3818 11.7393C72.9177 11.7393 72.522 11.7698 72.1948 11.8381V18.724C72.3698 18.7544 72.7122 18.762 73.1916 18.762C75.4515 18.762 76.7375 17.4776 76.7375 15.0759C76.7299 12.925 75.5657 11.7393 73.3818 11.7393ZM83.2434 20.0084C81.3031 20.0084 80.0399 18.5568 80.0399 16.5883C80.0399 14.5362 81.3259 13.077 83.35 13.077C85.2674 13.077 86.5537 14.4602 86.5537 16.4819C86.5537 18.5568 85.2295 20.0084 83.2434 20.0084ZM83.2967 14.1562C82.2314 14.1562 81.5466 15.1518 81.5466 16.5503C81.5466 17.9184 82.2466 18.914 83.2815 18.914C84.324 18.914 85.0164 17.8499 85.0164 16.5199C85.0239 15.1671 84.3391 14.1562 83.2967 14.1562ZM97.6325 13.2138L95.5552 19.8564H94.2007L93.3409 16.9759C93.1276 16.2691 92.9455 15.5547 92.8085 14.8327H92.7781C92.6715 15.5547 92.4655 16.2843 92.2448 16.9759L91.3317 19.8564H89.9625L88.0066 13.2138H89.5285L90.2816 16.3679C90.4572 17.1203 90.609 17.8272 90.7312 18.5036H90.7615C90.8682 17.9412 91.0503 17.2495 91.3096 16.3831L92.253 13.2138H93.455L94.3607 16.3147C94.5814 17.0671 94.7561 17.8044 94.8931 18.5036H94.9309C95.0301 17.8195 95.1745 17.0975 95.3804 16.3147L96.1869 13.2138H97.6325ZM105.295 19.8564H103.819V16.0411C103.819 14.8631 103.37 14.2778 102.479 14.2778C101.605 14.2778 101.004 15.0302 101.004 15.9043V19.8564H99.5276V15.1138C99.5276 14.5287 99.512 13.8978 99.4743 13.2138H100.775L100.844 14.2398H100.881C101.278 13.533 102.084 13.077 102.99 13.077C104.382 13.077 105.302 14.1411 105.302 15.8815L105.295 19.8564ZM109.366 19.8564H107.89V10.166H109.366V19.8564ZM114.761 20.0084C112.821 20.0084 111.557 18.5568 111.557 16.5883C111.557 14.5362 112.844 13.077 114.868 13.077C116.785 13.077 118.071 14.4602 118.071 16.4819C118.071 18.5568 116.74 20.0084 114.761 20.0084ZM114.814 14.1562C113.749 14.1562 113.064 15.1518 113.064 16.5503C113.064 17.9184 113.764 18.914 114.799 18.914C115.841 18.914 116.534 17.8499 116.534 16.5199C116.534 15.1671 115.857 14.1562 114.814 14.1562ZM123.899 19.8564L123.793 19.0888H123.755C123.306 19.7044 122.644 20.0008 121.807 20.0008C120.612 20.0008 119.768 19.1648 119.768 18.0476C119.768 16.4059 121.19 15.5623 123.656 15.5623V15.4407C123.656 14.5666 123.192 14.1258 122.279 14.1258C121.624 14.1258 121.046 14.2931 120.544 14.6199L120.247 13.647C120.864 13.267 121.632 13.0694 122.53 13.0694C124.265 13.0694 125.147 13.9814 125.147 15.8131V18.2604C125.147 18.9292 125.178 19.4536 125.247 19.8488L123.899 19.8564ZM123.694 16.5503C122.05 16.5503 121.229 16.9455 121.229 17.888C121.229 18.5872 121.655 18.9292 122.241 18.9292C122.995 18.9292 123.694 18.3591 123.694 17.5763V16.5503ZM132.308 19.8564L132.24 18.7924H132.201C131.775 19.5981 131.06 20.0084 130.063 20.0084C128.458 20.0084 127.271 18.6024 127.271 16.6187C127.271 14.5438 128.504 13.077 130.185 13.077C131.076 13.077 131.706 13.3734 132.057 13.9814H132.087V10.166H133.563V18.0628C133.563 18.7012 133.579 19.3092 133.616 19.8488H132.308V19.8564ZM132.095 15.9499C132.095 15.0226 131.478 14.2246 130.535 14.2246C129.439 14.2246 128.769 15.1975 128.769 16.5579C128.769 17.8956 129.462 18.8153 130.505 18.8153C131.432 18.8153 132.095 18.0096 132.095 17.052V15.9499ZM142.953 20.0084C141.013 20.0084 139.75 18.5568 139.75 16.5883C139.75 14.5362 141.035 13.077 143.06 13.077C144.977 13.077 146.263 14.4602 146.263 16.4819C146.263 18.5568 144.94 20.0084 142.953 20.0084ZM143.007 14.1562C141.941 14.1562 141.256 15.1518 141.256 16.5503C141.256 17.9184 141.957 18.914 142.991 18.914C144.034 18.914 144.726 17.8499 144.726 16.5199C144.734 15.1671 144.049 14.1562 143.007 14.1562ZM154.215 19.8564H152.738V16.0411C152.738 14.8631 152.29 14.2778 151.4 14.2778C150.524 14.2778 149.924 15.0302 149.924 15.9043V19.8564H148.447V15.1138C148.447 14.5287 148.432 13.8978 148.394 13.2138H149.695L149.764 14.2398H149.801C150.198 13.533 151.004 13.077 151.909 13.077C153.302 13.077 154.223 14.1411 154.223 15.8815V19.8564H154.215ZM164.153 14.3234H162.524V17.5459C162.524 18.3668 162.806 18.7772 163.384 18.7772C163.643 18.7772 163.863 18.7468 164.039 18.7088L164.076 19.826C163.788 19.9325 163.407 19.9933 162.928 19.9933C161.763 19.9933 161.063 19.3549 161.063 17.6675V14.3158H160.089V13.2062H161.063V11.9901L162.517 11.5493V13.2062H164.145L164.153 14.3234ZM171.983 19.8564H170.506V16.0715C170.506 14.8859 170.057 14.2854 169.167 14.2854C168.398 14.2854 167.691 14.8023 167.691 15.8587V19.8641H166.214V10.166H167.691V14.1562H167.722C168.186 13.4342 168.863 13.077 169.723 13.077C171.13 13.077 171.99 14.1714 171.99 15.9043L171.983 19.8564ZM179.995 16.8923H175.559C175.589 18.1464 176.419 18.8608 177.652 18.8608C178.306 18.8608 178.914 18.7544 179.447 18.5492L179.676 19.5752C179.044 19.8488 178.306 19.9857 177.446 19.9857C175.369 19.9857 174.136 18.6708 174.136 16.6415C174.136 14.6046 175.399 13.077 177.279 13.077C178.975 13.077 180.041 14.331 180.041 16.2311C180.056 16.4439 180.041 16.6719 179.995 16.8923ZM178.64 15.8359C178.64 14.8098 178.124 14.0878 177.18 14.0878C176.328 14.0878 175.658 14.825 175.566 15.8359H178.64Z" fill="black"/>
</g>
<defs>
<filter id="filter0_d_404_4145" x="0" y="0.5" width="208.594" height="67.3613" filterUnits="userSpaceOnUse" color-interpolation-filters="sRGB">
<feFlood flood-opacity="0" result="BackgroundImageFix"/>
<feColorMatrix in="SourceAlpha" type="matrix" values="0 0 0 0 0 0 0 0 0 0 0 0 0 0 0 0 0 0 127 0" result="hardAlpha"/>
<feOffset dy="4"/>
<feGaussianBlur stdDeviation="2"/>
<feComposite in2="hardAlpha" operator="out"/>
<feColorMatrix type="matrix" values="0 0 0 0 0 0 0 0 0 0 0 0 0 0 0 0 0 0 0.25 0"/>
<feBlend mode="normal" in2="BackgroundImageFix" result="effect1_dropShadow_404_4145"/>
<feBlend mode="normal" in="SourceGraphic" in2="effect1_dropShadow_404_4145" result="shape"/>
</filter>
</defs>
</svg>
