<svg width="201" height="60" viewBox="0 0 201 60" fill="none" xmlns="http://www.w3.org/2000/svg">
<path d="M196.313 1.5H4.28163C2.46924 1.5 1 2.96751 1 4.77778V55.5833C1 57.3936 2.46924 58.8611 4.28163 58.8611H196.313C198.125 58.8611 199.595 57.3936 199.595 55.5833V4.77778C199.595 2.96751 198.125 1.5 196.313 1.5Z" stroke="black" stroke-width="2"/>
<path d="M47.6046 28.8025C47.5666 24.2651 51.3256 22.0534 51.5006 21.9546C49.37 18.8537 46.0676 18.4281 44.9033 18.3976C42.126 18.1089 39.4399 20.0546 38.0246 20.0546C36.5864 20.0546 34.4101 18.4281 32.0589 18.4737C29.038 18.5193 26.215 20.2674 24.6703 22.9731C21.4744 28.4985 23.8562 36.6156 26.9227 41.0846C28.4521 43.2735 30.2403 45.7133 32.584 45.6296C34.8743 45.5384 35.7342 44.1703 38.4963 44.1703C41.2357 44.1703 42.0422 45.6296 44.4316 45.5764C46.8894 45.5384 48.4417 43.3799 49.9178 41.1758C51.6908 38.6678 52.3985 36.1976 52.4289 36.076C52.368 36.038 47.6503 34.2368 47.6046 28.8025ZM43.0924 15.4563C44.325 13.9135 45.1696 11.8234 44.9338 9.69531C43.1532 9.77127 40.9161 10.9265 39.6377 12.4314C38.504 13.7615 37.4843 15.9351 37.7507 17.9796C39.7443 18.124 41.8064 16.9688 43.0924 15.4563Z" fill="black"/>
<path d="M80.7954 45.3021H77.5919L75.8342 39.7994H69.7391L68.0651 45.3021H64.9453L70.987 26.5597H74.7156L80.7954 45.3021ZM75.3091 37.4889L73.7188 32.5944C73.5514 32.0927 73.2318 30.9147 72.7752 29.0602H72.722C72.5393 29.8583 72.235 31.0363 71.8317 32.5944L70.2718 37.4889H75.3091ZM96.3034 38.3782C96.3034 40.6735 95.6791 42.49 94.4313 43.8277C93.3122 45.0133 91.92 45.6061 90.2611 45.6061C88.4653 45.6061 87.1797 44.9677 86.3962 43.6908V50.7819H83.3902V36.2273C83.3902 34.7833 83.3525 33.3012 83.2762 31.7887H85.9236L86.0918 33.932H86.1443C87.1493 32.3208 88.6712 31.5075 90.7099 31.5075C92.3081 31.5075 93.6396 32.1384 94.7053 33.4C95.7702 34.6617 96.3034 36.3261 96.3034 38.3782ZM93.2441 38.4922C93.2441 37.1774 92.9472 36.0905 92.354 35.2393C91.7067 34.35 90.8321 33.9092 89.7361 33.9092C88.9985 33.9092 88.3209 34.16 87.7195 34.6464C87.119 35.1405 86.7227 35.7865 86.5406 36.5769C86.4569 36.8734 86.411 37.1849 86.4036 37.4889V39.7462C86.4036 40.7267 86.708 41.5551 87.3093 42.2392C87.9099 42.9156 88.6942 43.2576 89.6598 43.2576C90.7936 43.2576 91.6763 42.8168 92.3081 41.9504C92.9242 41.0687 93.2441 39.921 93.2441 38.4922ZM111.872 38.3782C111.872 40.6735 111.248 42.49 109.999 43.8277C108.881 45.0133 107.489 45.6061 105.83 45.6061C104.034 45.6061 102.748 44.9677 101.964 43.6908V50.7819H98.9583V36.2273C98.9583 34.7833 98.9206 33.3012 98.8443 31.7887H101.493L101.66 33.932H101.713C102.717 32.3208 104.239 31.5075 106.279 31.5075C107.877 31.5075 109.208 32.1384 110.273 33.4C111.332 34.6617 111.872 36.3261 111.872 38.3782ZM108.805 38.4922C108.805 37.1774 108.509 36.0905 107.915 35.2393C107.268 34.35 106.393 33.9092 105.298 33.9092C104.559 33.9092 103.882 34.16 103.273 34.6464C102.672 35.1405 102.276 35.7865 102.094 36.5769C102.002 36.9493 101.949 37.2533 101.949 37.4889V39.7462C101.949 40.7267 102.254 41.5551 102.854 42.2392C103.456 42.9156 104.239 43.2576 105.214 43.2576C106.347 43.2576 107.23 42.8168 107.861 41.9504C108.493 41.0687 108.805 39.921 108.805 38.4922ZM129.274 40.0503C129.274 41.6464 128.719 42.946 127.608 43.9416C126.39 45.0361 124.678 45.5833 122.494 45.5833C120.478 45.5833 118.857 45.1957 117.632 44.4128L118.324 41.9124C119.641 42.6952 121.094 43.0828 122.669 43.0828C123.803 43.0828 124.685 42.8244 125.317 42.3151C125.949 41.8059 126.268 41.1219 126.268 40.2707C126.268 39.5107 126.002 38.8722 125.485 38.3478C124.967 37.831 124.107 37.3445 122.898 36.9038C119.61 35.6801 117.966 33.8864 117.966 31.538C117.966 30.0026 118.545 28.741 119.709 27.7606C120.866 26.7801 122.403 26.2861 124.32 26.2861C126.025 26.2861 127.448 26.5825 128.582 27.1753L127.828 29.6227C126.763 29.045 125.568 28.7638 124.221 28.7638C123.164 28.7638 122.327 29.0222 121.733 29.539C121.231 30.0026 120.98 30.5651 120.98 31.2339C120.98 31.9711 121.269 32.5868 121.848 33.0656C122.35 33.5064 123.255 33.9928 124.571 34.5097C126.184 35.1633 127.371 35.9157 128.133 36.7898C128.893 37.6638 129.274 38.7506 129.274 40.0503ZM139.242 34.046H135.924V40.6051C135.924 42.2772 136.51 43.1056 137.682 43.1056C138.222 43.1056 138.664 43.06 139.021 42.9688L139.105 45.2489C138.512 45.4693 137.736 45.5833 136.769 45.5833C135.582 45.5833 134.653 45.2185 133.984 44.4965C133.315 43.7744 132.98 42.5583 132.98 40.8559V34.046H131.009V31.7963H132.98V29.3187L135.932 28.4294V31.7963H139.249L139.242 34.046ZM154.164 38.439C154.164 40.5139 153.57 42.224 152.383 43.554C151.143 44.9296 149.492 45.6137 147.43 45.6137C145.443 45.6137 143.861 44.9525 142.681 43.6452C141.502 42.3304 140.916 40.6659 140.916 38.667C140.916 36.5693 141.525 34.8592 142.743 33.5216C143.96 32.1839 145.596 31.5227 147.658 31.5227C149.644 31.5227 151.242 32.1839 152.444 33.4988C153.585 34.768 154.164 36.4173 154.164 38.439ZM151.044 38.5074C151.044 37.2686 150.778 36.2045 150.237 35.3229C149.606 34.2512 148.708 33.7116 147.536 33.7116C146.334 33.7116 145.406 34.2512 144.781 35.3229C144.242 36.2121 143.975 37.2914 143.975 38.5682C143.975 39.807 144.242 40.8711 144.781 41.7604C145.429 42.8319 146.342 43.3716 147.513 43.3716C148.663 43.3716 149.56 42.8244 150.215 41.7376C150.77 40.8179 151.044 39.7462 151.044 38.5074ZM163.942 34.4336C163.629 34.3804 163.31 34.35 162.99 34.35C161.933 34.35 161.119 34.7453 160.541 35.5433C160.038 36.2501 159.787 37.1393 159.787 38.211V45.3021H156.781V36.0449C156.781 34.6237 156.759 33.2099 156.698 31.7887H159.316L159.422 34.3728H159.505C159.825 33.4836 160.32 32.7692 161.012 32.2296C161.636 31.7583 162.405 31.5075 163.188 31.5075C163.47 31.5075 163.713 31.5303 163.942 31.5607V34.4336ZM177.388 37.907C177.395 38.363 177.356 38.819 177.281 39.2674H168.257C168.287 40.6051 168.728 41.6235 169.565 42.3304C170.326 42.9612 171.308 43.2728 172.518 43.2728C173.857 43.2728 175.074 43.06 176.17 42.6344L176.642 44.7168C175.363 45.2717 173.849 45.5529 172.107 45.5529C170.006 45.5529 168.362 44.9373 167.16 43.706C165.966 42.4748 165.365 40.8179 165.365 38.743C165.365 36.7061 165.92 35.0112 167.039 33.6584C168.203 32.2143 169.786 31.4923 171.772 31.4923C173.72 31.4923 175.196 32.2143 176.201 33.6584C176.984 34.8061 177.388 36.2197 177.388 37.907ZM174.519 37.1317C174.542 36.2425 174.344 35.4749 173.933 34.8212C173.415 33.9852 172.609 33.5672 171.536 33.5672C170.554 33.5672 169.755 33.9776 169.138 34.7908C168.636 35.4369 168.34 36.2197 168.248 37.1242L174.519 37.1317Z" fill="black"/>
<path d="M68.872 19.9401C68.035 19.9401 67.3121 19.9021 66.7109 19.8337V10.7665C67.5556 10.6373 68.4079 10.5689 69.2601 10.5765C72.7071 10.5765 74.2974 12.2713 74.2974 15.0302C74.2898 18.2148 72.4179 19.9401 68.872 19.9401ZM69.3818 11.7393C68.9177 11.7393 68.522 11.7698 68.1948 11.8381V18.724C68.3698 18.7544 68.7122 18.762 69.1916 18.762C71.4515 18.762 72.7375 17.4776 72.7375 15.0759C72.7299 12.925 71.5657 11.7393 69.3818 11.7393ZM79.2434 20.0084C77.3031 20.0084 76.0399 18.5568 76.0399 16.5883C76.0399 14.5362 77.3259 13.077 79.35 13.077C81.2674 13.077 82.5537 14.4602 82.5537 16.4819C82.5537 18.5568 81.2295 20.0084 79.2434 20.0084ZM79.2967 14.1562C78.2314 14.1562 77.5466 15.1518 77.5466 16.5503C77.5466 17.9184 78.2466 18.914 79.2815 18.914C80.324 18.914 81.0164 17.8499 81.0164 16.5199C81.0239 15.1671 80.3391 14.1562 79.2967 14.1562ZM93.6325 13.2138L91.5552 19.8564H90.2007L89.3409 16.9759C89.1276 16.2691 88.9455 15.5547 88.8085 14.8327H88.7781C88.6715 15.5547 88.4655 16.2843 88.2448 16.9759L87.3317 19.8564H85.9625L84.0066 13.2138H85.5285L86.2816 16.3679C86.4572 17.1203 86.609 17.8272 86.7312 18.5036H86.7615C86.8682 17.9412 87.0503 17.2495 87.3096 16.3831L88.253 13.2138H89.455L90.3607 16.3147C90.5814 17.0671 90.7561 17.8044 90.8931 18.5036H90.9309C91.0301 17.8195 91.1745 17.0975 91.3804 16.3147L92.1869 13.2138H93.6325ZM101.295 19.8564H99.8192V16.0411C99.8192 14.8631 99.3696 14.2778 98.4794 14.2778C97.6049 14.2778 97.0035 15.0302 97.0035 15.9043V19.8564H95.5276V15.1138C95.5276 14.5287 95.512 13.8978 95.4743 13.2138H96.7754L96.8435 14.2398H96.8813C97.2775 13.533 98.084 13.077 98.9897 13.077C100.382 13.077 101.302 14.1411 101.302 15.8815L101.295 19.8564ZM105.366 19.8564H103.89V10.166H105.366V19.8564ZM110.761 20.0084C108.821 20.0084 107.557 18.5568 107.557 16.5883C107.557 14.5362 108.844 13.077 110.868 13.077C112.785 13.077 114.071 14.4602 114.071 16.4819C114.071 18.5568 112.74 20.0084 110.761 20.0084ZM110.814 14.1562C109.749 14.1562 109.064 15.1518 109.064 16.5503C109.064 17.9184 109.764 18.914 110.799 18.914C111.841 18.914 112.534 17.8499 112.534 16.5199C112.534 15.1671 111.857 14.1562 110.814 14.1562ZM119.899 19.8564L119.793 19.0888H119.755C119.306 19.7044 118.644 20.0008 117.807 20.0008C116.612 20.0008 115.768 19.1648 115.768 18.0476C115.768 16.4059 117.19 15.5623 119.656 15.5623V15.4407C119.656 14.5666 119.192 14.1258 118.279 14.1258C117.624 14.1258 117.046 14.2931 116.544 14.6199L116.247 13.647C116.864 13.267 117.632 13.0694 118.53 13.0694C120.265 13.0694 121.147 13.9814 121.147 15.8131V18.2604C121.147 18.9292 121.178 19.4536 121.247 19.8488L119.899 19.8564ZM119.694 16.5503C118.05 16.5503 117.229 16.9455 117.229 17.888C117.229 18.5872 117.655 18.9292 118.241 18.9292C118.995 18.9292 119.694 18.3591 119.694 17.5763V16.5503ZM128.308 19.8564L128.24 18.7924H128.201C127.775 19.5981 127.06 20.0084 126.063 20.0084C124.458 20.0084 123.271 18.6024 123.271 16.6187C123.271 14.5438 124.504 13.077 126.185 13.077C127.076 13.077 127.706 13.3734 128.057 13.9814H128.087V10.166H129.563V18.0628C129.563 18.7012 129.579 19.3092 129.616 19.8488H128.308V19.8564ZM128.095 15.9499C128.095 15.0226 127.478 14.2246 126.535 14.2246C125.439 14.2246 124.769 15.1975 124.769 16.5579C124.769 17.8956 125.462 18.8153 126.505 18.8153C127.432 18.8153 128.095 18.0096 128.095 17.052V15.9499ZM138.953 20.0084C137.013 20.0084 135.75 18.5568 135.75 16.5883C135.75 14.5362 137.035 13.077 139.06 13.077C140.977 13.077 142.263 14.4602 142.263 16.4819C142.263 18.5568 140.94 20.0084 138.953 20.0084ZM139.007 14.1562C137.941 14.1562 137.256 15.1518 137.256 16.5503C137.256 17.9184 137.957 18.914 138.991 18.914C140.034 18.914 140.726 17.8499 140.726 16.5199C140.734 15.1671 140.049 14.1562 139.007 14.1562ZM150.215 19.8564H148.738V16.0411C148.738 14.8631 148.29 14.2778 147.4 14.2778C146.524 14.2778 145.924 15.0302 145.924 15.9043V19.8564H144.447V15.1138C144.447 14.5287 144.432 13.8978 144.394 13.2138H145.695L145.764 14.2398H145.801C146.198 13.533 147.004 13.077 147.909 13.077C149.302 13.077 150.223 14.1411 150.223 15.8815V19.8564H150.215ZM160.153 14.3234H158.524V17.5459C158.524 18.3668 158.806 18.7772 159.384 18.7772C159.643 18.7772 159.863 18.7468 160.039 18.7088L160.076 19.826C159.788 19.9325 159.407 19.9933 158.928 19.9933C157.763 19.9933 157.063 19.3549 157.063 17.6675V14.3158H156.089V13.2062H157.063V11.9901L158.517 11.5493V13.2062H160.145L160.153 14.3234ZM167.983 19.8564H166.506V16.0715C166.506 14.8859 166.057 14.2854 165.167 14.2854C164.398 14.2854 163.691 14.8023 163.691 15.8587V19.8641H162.214V10.166H163.691V14.1562H163.722C164.186 13.4342 164.863 13.077 165.723 13.077C167.13 13.077 167.99 14.1714 167.99 15.9043L167.983 19.8564ZM175.995 16.8923H171.559C171.589 18.1464 172.419 18.8608 173.652 18.8608C174.306 18.8608 174.914 18.7544 175.447 18.5492L175.676 19.5752C175.044 19.8488 174.306 19.9857 173.446 19.9857C171.369 19.9857 170.136 18.6708 170.136 16.6415C170.136 14.6046 171.399 13.077 173.279 13.077C174.975 13.077 176.041 14.331 176.041 16.2311C176.056 16.4439 176.041 16.6719 175.995 16.8923ZM174.64 15.8359C174.64 14.8098 174.124 14.0878 173.18 14.0878C172.328 14.0878 171.658 14.825 171.566 15.8359H174.64Z" fill="black"/>
</svg>
