<svg width="581" height="500" viewBox="0 0 581 500" fill="none" xmlns="http://www.w3.org/2000/svg">
<path d="M289.223 500.002C448.741 500.002 578.056 424.416 578.056 331.175C578.056 237.935 448.741 162.349 289.223 162.349C129.705 162.349 0.390625 237.935 0.390625 331.175C0.390625 424.416 129.705 500.002 289.223 500.002Z" fill="#F5F5F5"/>
<path d="M350.625 456.279C371.57 456.279 388.55 446.685 388.55 434.851C388.55 423.017 371.57 413.423 350.625 413.423C329.679 413.423 312.699 423.017 312.699 434.851C312.699 446.685 329.679 456.279 350.625 456.279Z" fill="#E0E0E0"/>
<path d="M50.9196 407.578L70.5764 418.677C71.4008 419.085 72.312 419.298 73.2362 419.298C74.1604 419.298 75.0716 419.085 75.896 418.677L305.132 289.11C305.452 289.004 305.731 288.801 305.929 288.532C306.126 288.262 306.232 287.939 306.232 287.607C306.232 287.276 306.126 286.952 305.929 286.683C305.731 286.413 305.452 286.211 305.132 286.104L285.475 275.017C284.65 274.609 283.739 274.396 282.815 274.396C281.891 274.396 280.98 274.609 280.155 275.017L50.9196 404.548C50.5896 404.648 50.3012 404.85 50.0965 405.122C49.8917 405.395 49.7812 405.724 49.7812 406.063C49.7812 406.401 49.8917 406.73 50.0965 407.003C50.3012 407.276 50.5896 407.477 50.9196 407.578Z" fill="#E0E0E0"/>
<path d="M66.1045 365.778C66.1045 365.778 72.0753 342.642 63.3648 325.651C54.6544 308.66 39.2238 307.771 33.3021 309.105C27.3805 310.44 21.9872 317.15 29.7025 324.677C37.4178 332.205 54.0033 347.524 54.8018 357.914L66.1045 365.778Z" fill="#BA68C8"/>
<path opacity="0.15" d="M66.1045 365.778C66.1045 365.778 72.0753 342.642 63.3648 325.651C54.6544 308.66 39.2238 307.771 33.3021 309.105C27.3805 310.44 21.9872 317.15 29.7025 324.677C37.4178 332.205 54.0033 347.524 54.8018 357.914L66.1045 365.778Z" fill="black"/>
<path d="M38.1914 313.013C45.5627 317.161 64.2121 330.833 63.4627 361.857" stroke="white" stroke-miterlimit="10" stroke-linecap="round"/>
<path d="M64.9141 359.02C66.1426 353.008 61.855 347.272 51.5843 345.673C41.3136 344.073 42.8493 344.302 31.9274 337.412C21.0056 330.521 11.1035 332.602 8.69551 336.81C6.07869 341.44 15.084 346.731 21.2636 352.262C27.4432 357.793 31.092 363.493 27.1115 369.325C23.7576 374.327 23.1064 379.27 31.0552 384.104C38.1316 388.396 47.8003 386.737 48.5129 394.926C48.906 399.615 54.5451 406.433 62.457 404.786C85.7135 393.146 64.9141 359.02 64.9141 359.02Z" fill="#BA68C8"/>
<path d="M18.3281 337.22C30.5031 342.186 61.4872 362.111 68.3671 396.141" stroke="white" stroke-miterlimit="10" stroke-linecap="round"/>
<path d="M35.5273 373.015C35.5273 373.015 46.8915 369.407 58.4521 371.812" stroke="white" stroke-miterlimit="10" stroke-linecap="round"/>
<path d="M349.129 60.9299L374.081 46.8369V137.022C374.081 141.255 379.069 145.439 379.069 145.439L354.117 159.532C354.117 159.532 349.129 155.312 349.129 151.115V60.9299Z" fill="#37474F"/>
<path d="M318.797 60.6924L329.313 73.8113V110.174L317.949 139.142L354.167 159.584C351.022 156.806 349.437 153.98 349.179 151.166V77.8156L318.797 60.6924Z" fill="#455A64"/>
<path d="M317.898 139.142V144.781L354.116 165.247V159.608L317.898 139.142Z" fill="#BA68C8"/>
<path d="M354.117 165.245L379.069 151.152V145.513L354.117 159.606V165.245Z" fill="#BA68C8"/>
<path opacity="0.1" d="M354.117 165.245L379.069 151.152V145.513L354.117 159.606V165.245Z" fill="black"/>
<path d="M347.986 1.61302C343.747 -0.876096 337.838 -0.563454 331.314 3.11611L331.081 3.2604C318.181 10.5474 307.738 28.2718 307.738 42.8578V43.1223C307.738 50.6738 310.552 55.8925 315.048 58.1652L333.931 68.9874L365.443 11.6176L347.986 1.61302Z" fill="#F0F0F0"/>
<path d="M315.036 58.1659L333.919 68.9881L344.362 49.9771L309.901 30.4971C308.522 34.4606 307.788 38.6117 307.727 42.7983V43.0629C307.727 50.6745 310.54 55.8932 315.036 58.1659Z" fill="#E0E0E0"/>
<path d="M388.762 15.6475C383.971 12.9539 377.521 13.0622 370.334 16.4892C369.585 16.8379 368.823 17.2347 368.049 17.6917C367.275 18.1486 366.255 18.7498 365.371 19.3511C363.883 20.3428 362.455 21.4188 361.095 22.5737C358.49 24.77 356.086 27.184 353.908 29.7885C347.872 37.0259 343.4 45.3877 340.763 54.367C339.52 58.5904 338.867 62.9589 338.822 67.3537C338.822 76.264 341.942 82.601 347.016 85.6794L328.981 75.5065C325.639 73.3862 322.908 70.4643 321.045 67.0189C319.183 63.5734 318.252 59.7189 318.342 55.822C318.38 51.6311 318.979 47.4632 320.123 43.4245C322.73 34.2062 327.275 25.6219 333.465 18.2208C335.639 15.6135 338.044 13.1992 340.652 11.0059C342.009 9.84735 343.437 8.77113 344.928 7.78332C345.812 7.18208 346.709 6.58084 347.606 6.1239C348.503 5.66697 349.142 5.30622 349.916 4.92143C353.119 3.43991 356.628 2.6997 360.171 2.75809C363.714 2.81647 367.195 3.67188 370.346 5.25813L370.85 5.53469L371.477 5.95556L388.762 15.6475Z" fill="#BA68C8"/>
<path opacity="0.1" d="M328.93 75.5048C325.589 73.3845 322.857 70.4626 320.994 67.0172C319.132 63.5717 318.202 59.7172 318.291 55.8203C318.329 51.6294 318.928 47.4615 320.072 43.4229L340.761 54.3653C339.518 58.5887 338.866 62.9572 338.82 67.352C338.82 76.2623 341.941 82.5993 347.015 85.6777L328.93 75.5048Z" fill="black"/>
<path d="M397.363 34.234C397.363 52.5236 384.254 74.7573 368.074 83.8961C359.941 88.5015 352.57 88.9104 347.263 85.8441L346.968 85.6757C341.894 82.5974 338.773 76.2604 338.773 67.3501C338.773 49.0605 351.882 26.8268 368.062 17.676C376.134 13.1187 383.456 12.6737 388.751 15.6559C394.046 18.638 397.363 25.0712 397.363 34.234Z" fill="#BA68C8"/>
<path opacity="0.2" d="M397.363 34.234C397.363 52.5236 384.254 74.7573 368.074 83.8961C359.941 88.5015 352.57 88.9104 347.263 85.8441L346.968 85.6757C341.894 82.5974 338.773 76.2604 338.773 67.3501C338.773 49.0605 351.882 26.8268 368.062 17.676C376.134 13.1187 383.456 12.6737 388.751 15.6559C394.046 18.638 397.363 25.0712 397.363 34.234Z" fill="black"/>
<path d="M487.182 29.512C487.182 29.512 457.636 44.3504 432.389 87.1464C427.852 94.8256 423.85 102.796 420.411 111.003C407.744 141.438 408.788 162.409 408.788 162.409C399.98 141.294 389.033 119.433 370.765 102.694C363.61 96.1835 356.109 90.0464 348.295 84.3085C343.466 81.5549 340.641 75.5906 340.641 67.3657C340.737 61.6091 341.855 55.9128 343.945 50.5311C345.299 46.891 346.976 43.3743 348.958 40.0216C354.093 31.3157 361.182 23.7161 368.996 19.303C376.269 15.1905 382.964 14.6013 387.805 17.3309C396.792 21.0801 405.974 24.3673 415.312 27.1792C439.281 34.2497 464.098 32.5903 487.182 29.512Z" fill="#F0F0F0"/>
<path d="M420.411 111.001C407.744 141.435 408.788 162.406 408.788 162.406C399.98 141.291 389.033 119.43 370.765 102.691C363.61 96.1807 356.109 90.0436 348.295 84.3057C343.466 81.5521 340.641 75.5878 340.641 67.3629C340.737 61.6063 341.855 55.9099 343.945 50.5283C366.354 61.4708 402.597 81.7084 420.411 111.001Z" fill="#E0E0E0"/>
<path d="M542.859 70.7785C542.859 89.8496 536.863 110.725 526.887 130C514.086 154.687 494.773 176.728 473.151 188.921C434.635 210.71 403.418 193.07 403.418 149.564C403.527 139.127 405.076 128.752 408.025 118.721C415.809 92.2385 430.343 68.1275 450.263 48.653C452.99 46.0316 455.791 43.5665 458.666 41.2578C459.895 40.2958 461.123 39.3579 462.29 38.456C464.027 37.1654 465.775 35.9429 467.536 34.7885C469.379 33.586 471.222 32.4437 473.114 31.3855C511.641 9.63282 542.859 27.261 542.859 70.7785Z" fill="#BA68C8"/>
<path opacity="0.1" d="M526.875 130.011C514.074 154.698 494.761 176.739 473.138 188.932C434.635 210.709 403.418 193.068 403.418 149.563C403.527 139.126 405.076 128.751 408.025 118.72C410.63 124.347 419.991 132.38 424.18 126.752C421.601 135.655 420.242 144.855 420.139 154.108C420.139 166.614 422.989 176.703 428.37 183.304C432.965 188.932 439.279 191.794 447.13 191.722C454.759 191.722 463.629 188.98 472.782 183.821C491.21 173.432 508.078 154.758 520.069 133.606C520.13 133.666 522.489 135.651 526.875 130.011Z" fill="black"/>
<path d="M538.093 73.2084C538.093 92.4479 531.201 114.092 520.094 133.669C508.104 154.82 491.199 173.494 472.808 183.884C463.655 189.042 454.785 191.796 447.155 191.784C439.305 191.784 432.99 188.934 428.395 183.367C423.014 176.765 420.164 166.676 420.164 154.171C420.267 144.917 421.627 135.718 424.206 126.815C425.189 123.279 426.344 119.732 427.658 116.197C429.986 109.938 432.732 103.837 435.877 97.9312C436.524 96.7047 437.188 95.5022 437.868 94.3238C438.985 92.3156 440.153 90.3195 441.369 88.3114C445.456 81.6714 450.052 75.3444 455.116 69.3845C455.116 69.3845 455.239 69.2523 455.288 69.1801C458.55 65.3532 462.024 61.7043 465.694 58.2496C468.291 55.8447 470.94 53.572 473.643 51.4316C474.773 50.5418 475.916 49.6881 477.071 48.8584C478.455 47.8723 479.855 46.9224 481.272 46.0085C482.648 45.1307 484.036 44.301 485.425 43.5074C494.602 38.3127 503.472 35.5951 511.101 35.5831C528.006 35.547 538.093 49.64 538.093 73.2084Z" fill="#BA68C8"/>
<path opacity="0.3" d="M538.093 73.2084C538.093 92.4479 531.201 114.092 520.094 133.669C508.104 154.82 491.199 173.494 472.808 183.884C463.655 189.042 454.785 191.796 447.155 191.784C439.305 191.784 432.99 188.934 428.395 183.367C423.014 176.765 420.164 166.676 420.164 154.171C420.267 144.917 421.627 135.718 424.206 126.815C425.189 123.279 426.344 119.732 427.658 116.197C429.986 109.938 432.732 103.837 435.877 97.9312C436.524 96.7047 437.188 95.5022 437.868 94.3238C438.985 92.3156 440.153 90.3195 441.369 88.3114C445.456 81.6714 450.052 75.3444 455.116 69.3845C455.116 69.3845 455.239 69.2523 455.288 69.1801C458.55 65.3532 462.024 61.7043 465.694 58.2496C468.291 55.8447 470.94 53.572 473.643 51.4316C474.773 50.5418 475.916 49.6881 477.071 48.8584C478.455 47.8723 479.855 46.9224 481.272 46.0085C482.648 45.1307 484.036 44.301 485.425 43.5074C494.602 38.3127 503.472 35.5951 511.101 35.5831C528.006 35.547 538.093 49.64 538.093 73.2084Z" fill="black"/>
<path d="M478.853 83.8983L454.392 128.606C447.524 126.081 435.89 122.041 426.418 119.672C426.811 118.469 427.229 117.267 427.647 116.149C429.974 109.89 432.72 103.789 435.866 97.883C436.513 96.6565 437.176 95.454 437.856 94.2756C438.974 92.2675 440.141 90.2714 441.357 88.2632C445.444 81.6233 450.04 75.2962 455.105 69.3364C455.105 69.3364 455.228 69.2041 455.277 69.1319C456.014 68.2782 456.751 67.4244 457.5 66.5947C464.089 72.9603 471.234 78.7502 478.853 83.8983Z" fill="#E0E0E0"/>
<path d="M456.431 128.488C450.902 128.488 447.598 124.111 447.598 116.787V116.583C447.598 105.075 455.89 91.0306 466.026 85.3188L466.235 85.2106C468.549 83.7666 471.209 82.9377 473.95 82.8057C479.466 82.8057 482.771 87.1826 482.771 94.4937V94.7221C482.771 106.23 474.491 120.275 464.343 125.986L464.146 126.095C461.828 127.532 459.171 128.36 456.431 128.5V128.488Z" fill="#F5F5F5"/>
<path d="M295.107 94.8172C294.217 94.4246 293.238 94.2657 292.266 94.3564C291.295 94.4471 290.364 94.7841 289.566 95.3343L78.2551 214.716C75.7421 216.328 73.7114 218.565 72.3704 221.197L62.3945 215.557C63.7579 212.931 65.81 210.707 68.3407 209.112L279.578 89.6947C281.789 88.4922 283.792 88.396 285.315 89.2979L295.107 94.8172Z" fill="#455A64"/>
<path d="M62.7031 406.94C60.8357 405.918 59.6563 403.501 59.6563 400.062V225.307C59.6563 224.91 59.6563 224.514 59.6563 224.105C59.6563 223.696 59.6562 223.552 59.7422 223.275C59.8282 222.998 59.8037 222.746 59.8528 222.481C59.8789 222.291 59.9158 222.102 59.9634 221.916C60.0907 221.246 60.2589 220.583 60.4671 219.932C60.5408 219.644 60.6391 219.355 60.7374 219.066C60.8357 218.778 61.0322 218.285 61.1797 217.864C61.1797 217.864 61.1797 217.78 61.2411 217.744C61.4008 217.359 61.5605 216.986 61.7448 216.625C61.9291 216.265 62.1379 215.844 62.3468 215.423L72.3718 221.195C72.1506 221.592 71.9418 222 71.7329 222.397C71.5241 222.794 71.4258 223.071 71.2906 223.407C71.2856 223.459 71.2856 223.512 71.2906 223.564C71.1186 223.948 70.9712 224.345 70.8361 224.766C70.7009 225.187 70.5535 225.596 70.4429 225.969C70.3478 226.277 70.2699 226.59 70.2095 226.906C69.8802 228.229 69.7112 229.585 69.7058 230.947V405.69C69.7058 409.165 70.9344 411.606 72.8018 412.616L62.7031 406.94Z" fill="#263238"/>
<path d="M289.567 95.3352L78.2556 214.704C73.4643 217.422 69.582 224.685 69.582 230.938V405.693C69.582 411.946 73.4643 414.82 78.2556 412.114L289.567 292.745C294.358 290.039 298.24 282.764 298.24 276.511V101.756C298.24 95.5036 294.358 92.6297 289.567 95.3352Z" fill="#37474F"/>
<path d="M277.934 291.183L89.9658 397.409C87.5087 398.804 85.457 397.313 85.457 394.078V224.686C85.457 221.439 87.4719 217.676 89.9658 216.269L277.934 110.055C280.391 108.648 282.431 110.139 282.431 113.373V282.765C282.431 286.012 280.416 289.74 277.934 291.183Z" fill="#BA68C8"/>
<path opacity="0.1" d="M277.934 291.183L89.9658 397.409C87.5087 398.804 85.457 397.313 85.457 394.078V224.686C85.457 221.439 87.4719 217.676 89.9658 216.269L277.934 110.055C280.391 108.648 282.431 110.139 282.431 113.373V282.765C282.431 286.012 280.416 289.74 277.934 291.183Z" fill="black"/>
<path d="M80.4556 318.802C80.4385 319.864 80.1674 320.909 79.6639 321.85C79.1604 322.792 78.4386 323.605 77.5562 324.225C75.9468 325.139 74.6445 324.225 74.6445 322.084C74.6591 321.018 74.9304 319.97 75.4363 319.026C75.9422 318.082 76.6685 317.267 77.5562 316.649C79.1533 315.735 80.4556 316.709 80.4556 318.802Z" fill="#E0E0E0"/>
<path d="M77.5543 290.785C77.0183 291.162 76.5794 291.656 76.2723 292.228C75.9652 292.8 75.7984 293.434 75.7852 294.08V309.159C75.7852 310.433 76.5837 311.011 77.5543 310.457C78.0891 310.083 78.5268 309.591 78.8319 309.021C79.137 308.451 79.3012 307.818 79.3111 307.175V292.144C79.3111 290.821 78.5248 290.244 77.5543 290.785Z" fill="#E0E0E0"/>
<path d="M264.271 132.13L114.547 216.736V383.446L264.271 298.901V132.13Z" fill="#FAFAFA"/>
<path d="M264.27 132.127L259.27 129.313L109.559 213.907L114.547 216.733L264.27 132.127Z" fill="white"/>
<path d="M109.559 213.911L114.547 216.737V383.447L109.559 386.261V213.911Z" fill="#E0E0E0"/>
<path d="M132.695 240.715C132.774 241.309 132.803 241.908 132.781 242.506C132.803 243.137 132.774 243.768 132.695 244.394L123.972 249.324C123.893 248.731 123.864 248.131 123.886 247.533C123.871 246.902 123.9 246.272 123.972 245.645L126.675 244.118V225.54L124.427 226.742C124.347 226.152 124.318 225.557 124.341 224.962C124.326 224.332 124.355 223.701 124.427 223.075L131.97 218.806L139.145 232.165V218.481L136.896 219.756C136.817 219.162 136.788 218.563 136.81 217.964C136.795 217.338 136.824 216.711 136.896 216.088L145.496 211.278C145.576 211.872 145.604 212.471 145.582 213.07C145.605 213.701 145.576 214.332 145.496 214.958L142.965 216.389V238.647L138.776 241.051L130.496 225.816V242.05L132.695 240.715Z" fill="#455A64"/>
<path d="M162.622 201.548V207.969C162.179 208.293 161.715 208.59 161.234 208.859C160.775 209.125 160.299 209.362 159.809 209.568V206.767L153.015 210.59V217.36L156.258 215.521V212.839C156.703 212.507 157.171 212.205 157.659 211.937C158.08 211.667 158.534 211.449 159.01 211.288V220.354C158.597 220.699 158.144 220.993 157.659 221.232C157.215 221.503 156.746 221.733 156.258 221.918V219.128L153.015 220.956V229.181L160.079 225.188V221.737C160.538 221.399 161.018 221.09 161.517 220.811C161.965 220.563 162.428 220.342 162.905 220.15V227.269L146.713 236.419C146.647 235.825 146.618 235.226 146.627 234.628C146.618 233.997 146.646 233.367 146.713 232.74L149.243 231.321V212.779L146.995 214.054C146.923 213.459 146.895 212.86 146.909 212.262C146.909 211.192 146.995 210.374 146.995 210.374L162.622 201.548Z" fill="#455A64"/>
<path d="M175.9 198.819L179.807 196.607L183.333 211.734L183.505 211.577C183.505 211.577 185.053 199.168 185.618 192.158L183.382 193.54C183.382 193.54 183.382 192.915 183.382 191.665C183.382 190.414 183.382 189.873 183.382 189.873L191.048 185.544C191.119 186.114 191.147 186.689 191.134 187.263C191.148 187.914 191.12 188.565 191.048 189.211L189.07 190.33C188.37 198.254 186.367 214.115 186.367 214.115L180.63 217.361L177.73 204.856L174.831 220.644L169.081 223.879C169.081 223.879 166.944 210.652 166.415 203.136L164.438 204.254C164.438 204.254 164.438 203.617 164.438 202.366C164.438 201.116 164.438 200.575 164.438 200.575L172.411 196.078C172.481 196.644 172.51 197.215 172.497 197.785C172.511 198.44 172.482 199.094 172.411 199.745L170.15 201.02C170.556 207.633 172.214 218.083 172.214 218.083L172.411 217.963L175.9 198.819Z" fill="#455A64"/>
<path d="M204.859 184.511C204.39 184.866 203.893 185.184 203.372 185.461C202.86 185.771 202.322 186.036 201.763 186.255V183.657C201.763 183.657 200.78 183.212 198.888 184.283C197.946 184.853 197.154 185.632 196.578 186.558C196.002 187.483 195.657 188.529 195.571 189.609C195.571 190.896 195.878 192.087 197.143 191.882L200.829 191.341C202.807 191.077 205.743 191.257 205.743 196.151C205.743 201.045 203.176 205.097 198.372 207.779C193.839 210.352 191.787 208.38 191.787 208.38V203.462C192.264 203.119 192.761 202.802 193.273 202.512C193.789 202.208 194.327 201.943 194.883 201.718V204.472C194.883 204.472 195.927 205.206 198.372 203.823C199.415 203.296 200.295 202.505 200.919 201.532C201.544 200.559 201.89 199.44 201.922 198.291C201.922 196.415 200.694 195.814 199.465 195.995L195.436 196.584C192.647 196.981 191.75 194.912 191.75 191.714C191.75 187.385 194.981 182.503 198.839 180.326C199.73 179.801 200.734 179.488 201.771 179.413C202.809 179.338 203.849 179.503 204.809 179.894L204.859 184.511Z" fill="#455A64"/>
<path d="M252.565 150.118L212.637 172.689V199.227L252.565 176.657V150.118Z" fill="#E0E0E0"/>
<path d="M252.565 192.109L124.059 264.726V257.86L252.565 185.243V192.109Z" fill="#BA68C8"/>
<path d="M164.81 313.087L124.059 336.115V273.31L164.81 250.282V313.087Z" fill="#455A64"/>
<path d="M157.953 264.16L130.925 279.443C130.421 279.72 130.016 279.443 130.016 278.782C130.022 278.453 130.108 278.13 130.266 277.84C130.424 277.549 130.65 277.3 130.925 277.111L157.953 261.839C158.444 261.551 158.85 261.839 158.85 262.501C158.843 262.826 158.758 263.146 158.602 263.434C158.446 263.722 158.224 263.971 157.953 264.16Z" fill="white"/>
<path d="M157.953 275.429L130.925 290.7C130.421 290.977 130.016 290.7 130.016 290.039C130.022 289.708 130.108 289.384 130.266 289.091C130.424 288.799 130.649 288.547 130.925 288.355L157.953 273.084C158.444 272.807 158.85 273.084 158.85 273.745C158.845 274.075 158.761 274.399 158.605 274.691C158.449 274.983 158.226 275.236 157.953 275.429Z" fill="white"/>
<path d="M157.953 286.683L130.925 301.954C130.421 302.243 130.016 301.954 130.016 301.293C130.02 300.963 130.105 300.64 130.263 300.349C130.421 300.058 130.648 299.809 130.925 299.621L157.953 284.338C158.444 284.061 158.85 284.338 158.85 285.011C158.844 285.339 158.759 285.661 158.604 285.951C158.448 286.241 158.225 286.492 157.953 286.683Z" fill="white"/>
<path d="M157.953 297.938L130.925 313.221C130.421 313.498 130.016 313.221 130.016 312.56C130.02 312.229 130.105 311.903 130.263 311.611C130.421 311.318 130.648 311.066 130.925 310.876L157.953 295.605C158.444 295.316 158.85 295.605 158.85 296.266C158.845 296.594 158.761 296.916 158.605 297.207C158.449 297.497 158.226 297.747 157.953 297.938Z" fill="white"/>
<path d="M157.953 309.202L130.925 324.474C130.421 324.75 130.016 324.474 130.016 323.812C130.022 323.482 130.108 323.157 130.266 322.865C130.424 322.573 130.649 322.32 130.925 322.129L157.953 306.857C158.444 306.581 158.85 306.858 158.85 307.519C158.845 307.848 158.761 308.172 158.605 308.465C158.449 308.757 158.226 309.009 157.953 309.202Z" fill="white"/>
<path d="M157.953 269.539L130.925 284.811C130.421 285.087 130.016 284.811 130.016 284.149C130.02 283.819 130.105 283.493 130.263 283.201C130.421 282.908 130.648 282.656 130.925 282.466L157.953 267.195C158.444 266.906 158.85 267.195 158.85 267.856C158.844 268.185 158.759 268.509 158.604 268.801C158.448 269.093 158.225 269.346 157.953 269.539Z" fill="white"/>
<path d="M157.953 280.792L130.925 296.064C130.421 296.352 130.016 296.064 130.016 295.402C130.022 295.072 130.108 294.747 130.266 294.455C130.424 294.162 130.649 293.91 130.925 293.719L157.953 278.447C158.444 278.171 158.85 278.447 158.85 279.109C158.845 279.438 158.761 279.762 158.605 280.054C158.449 280.347 158.226 280.599 157.953 280.792Z" fill="white"/>
<path d="M157.953 292.046L130.925 307.329C130.421 307.606 130.016 307.329 130.016 306.656C130.02 306.327 130.105 306.003 130.263 305.712C130.421 305.422 130.648 305.172 130.925 304.984L157.953 289.701C158.444 289.424 158.85 289.701 158.85 290.374C158.844 290.702 158.759 291.024 158.604 291.314C158.448 291.604 158.225 291.855 157.953 292.046Z" fill="white"/>
<path d="M157.953 303.313L130.925 318.584C130.421 318.861 130.016 318.584 130.016 317.923C130.02 317.592 130.105 317.267 130.263 316.974C130.421 316.681 130.648 316.43 130.925 316.239L157.953 300.968C158.444 300.679 158.85 300.968 158.85 301.629C158.844 301.959 158.759 302.282 158.604 302.574C158.448 302.867 158.225 303.119 157.953 303.313Z" fill="white"/>
<path d="M252.562 305.456L173.824 349.959V245.188L252.562 200.696V305.456Z" fill="#E0E0E0"/>
<path d="M179.365 246.965L247.808 208.294C248.766 207.741 249.552 208.186 249.552 209.268V264.257C249.518 264.847 249.342 265.422 249.039 265.933C248.736 266.445 248.314 266.88 247.808 267.203L179.377 305.886C178.407 306.428 177.633 305.983 177.633 304.9V249.911C177.665 249.322 177.839 248.748 178.14 248.236C178.441 247.724 178.86 247.289 179.365 246.965Z" fill="#BA68C8"/>
<path opacity="0.8" d="M179.365 246.965L247.808 208.294C248.766 207.741 249.552 208.186 249.552 209.268V264.257C249.518 264.847 249.342 265.422 249.039 265.933C248.736 266.445 248.314 266.88 247.808 267.203L179.377 305.886C178.407 306.428 177.633 305.983 177.633 304.9V249.911C177.665 249.322 177.839 248.748 178.14 248.236C178.441 247.724 178.86 247.289 179.365 246.965Z" fill="white"/>
<path d="M230.461 240.017L219.023 259.821L227.057 270.018L200.508 247.652L177.633 296.148V304.926C177.633 306.008 178.407 306.453 179.377 305.912L247.808 267.229C248.314 266.906 248.736 266.471 249.039 265.959C249.342 265.447 249.518 264.873 249.552 264.282V257.128L230.461 240.017Z" fill="#BA68C8"/>
<path d="M238.361 221.858C240.253 220.788 241.789 221.654 241.789 223.794C241.725 224.96 241.381 226.094 240.785 227.105C240.19 228.116 239.359 228.976 238.361 229.614C236.469 230.684 234.934 229.819 234.934 227.678C234.998 226.513 235.342 225.379 235.937 224.367C236.533 223.356 237.363 222.497 238.361 221.858Z" fill="#BA68C8"/>
<path d="M191.676 308.521L249.295 275.958V298.516L191.676 331.079V308.521Z" fill="#F0F0F0"/>
<path d="M186.432 334.036L124.059 369.28V346.734L186.432 311.478V334.036Z" fill="#BA68C8"/>
<path d="M346.131 218.298H347.175C351.868 218.301 356.368 220.128 359.685 223.377C363.003 226.626 364.866 231.032 364.866 235.625V255.262H343.87C339.783 255.249 335.868 253.651 332.982 250.818C330.097 247.984 328.477 244.147 328.477 240.147V235.625C328.477 231.038 330.335 226.638 333.644 223.39C336.954 220.142 341.444 218.311 346.131 218.298Z" fill="#263238"/>
<path d="M330.774 222.866C331.081 222.925 331.374 223.043 331.635 223.213C331.896 223.382 332.12 223.601 332.294 223.855C332.469 224.11 332.591 224.396 332.652 224.697C332.714 224.997 332.714 225.307 332.653 225.608L327.973 224.694C328.097 224.088 328.462 223.556 328.987 223.213C329.512 222.87 330.155 222.746 330.774 222.866Z" fill="#263238"/>
<path d="M333.834 221.871C334.012 222.461 333.951 223.095 333.666 223.643C333.38 224.191 332.891 224.611 332.298 224.817L330.824 220.379C331.122 220.284 331.436 220.246 331.748 220.269C332.061 220.292 332.366 220.376 332.645 220.514C332.925 220.653 333.174 220.844 333.378 221.076C333.582 221.309 333.737 221.579 333.834 221.871Z" fill="#263238"/>
<path d="M365.409 428.646C367.529 430.826 369.853 432.806 372.35 434.562C372.75 434.805 373.083 435.139 373.321 435.536C373.652 436.21 374.156 437.857 371.048 438.915C369.477 439.451 367.806 439.648 366.15 439.492C364.493 439.336 362.891 438.832 361.453 438.013C358.91 436.45 358.787 433.203 356.379 431.34C354.598 429.969 352.362 429.62 350.924 427.816C349.917 426.614 350.187 424.906 350.703 422.838C351.219 420.77 351.538 418.894 352.3 419.062L352.177 420.096C353.123 421.587 358.05 422.02 360.237 420.998C361.821 423.635 363.547 426.188 365.409 428.646Z" fill="#263238"/>
<path d="M367.558 430.751C366.821 430.089 366.096 429.404 365.408 428.659C363.948 426.814 362.606 424.882 361.39 422.875C360.547 421.656 360.148 420.194 360.26 418.726L360.874 413.183L353.085 412.642L352.176 420.121C351.992 421.816 353.405 423.32 355.96 425.46C358.516 427.6 361.71 432.591 364.007 433.877C366.305 435.164 367.951 435.08 368.921 434.442C369.892 433.805 370.027 433.216 367.558 430.751Z" fill="#B16668"/>
<path d="M335.764 429.319V428.177C336.231 429.524 338.369 435.307 341.624 438.217C344.204 440.514 347.767 443.184 348.627 445.757C349.487 448.33 343.713 449.364 341.256 448.907C338.035 448.38 335.082 446.829 332.852 444.494C331.464 442.823 330.579 440.887 329.584 439.528C328.589 438.169 326.304 436.75 325.764 435.223C325.602 433.803 325.766 432.365 326.243 431.015C326.624 429.608 327.029 428.045 327.471 428.177V429.055C328.665 429.978 330.152 430.463 331.673 430.425C332.865 430.425 335.776 430.221 335.764 429.319Z" fill="#263238"/>
<path d="M343.955 440.241C343.157 439.543 342.346 438.858 341.621 438.209C339.44 435.955 337.74 433.298 336.621 430.393C336.053 429.055 335.761 427.62 335.761 426.172V421.603H327.566V429.046V429.226C327.96 430.898 331.719 435.323 333.857 438.221C335.585 440.698 338.227 442.422 341.228 443.031C344.447 443.488 345.958 442.526 343.955 440.241Z" fill="#B16668"/>
<path d="M329.202 304.72C322.851 318.296 329.436 366.118 329.436 366.118C329.239 368.318 326.672 372.659 325.75 382.351C324.608 393.811 327.519 422.574 327.519 422.574C328.768 423.284 330.175 423.684 331.618 423.741C333.061 423.797 334.497 423.508 335.8 422.899C335.8 422.899 343.601 379.61 345.075 368.186C346.304 358.242 348.761 334.878 348.761 334.878L355.149 368.403C353.98 371.538 353.157 374.787 352.692 378.095C352.029 384.792 352.533 415.792 352.533 415.792C352.533 415.792 355.321 417.872 360.69 417.103C360.69 417.103 369.978 374.667 370.703 366.599C371.133 361.789 365.518 302.724 365.518 302.724L329.202 304.72Z" fill="#37474F"/>
<path d="M348.773 334.878L350.837 323.779C350.837 323.779 359.56 322.012 363.516 318.368C360.785 321.499 357.215 323.823 353.209 325.078L350.887 334.782L354.572 365.108L348.773 334.878Z" fill="#263238"/>
<path d="M313.255 295.955C313.464 295.077 316.658 285.95 318.648 280.876L329.386 285.986L325.836 295.342L315.135 301.354C312.26 300.32 313.059 296.821 313.255 295.955Z" fill="#B16668"/>
<path d="M374.067 278.782L379.461 288.462L371.07 295.509L363.379 283.58L374.067 278.782Z" fill="#B16668"/>
<path d="M353.82 257.196C359.165 257.196 365.062 259.156 367.089 263.209C369.116 267.261 375.566 280.043 375.566 280.043C375.566 280.043 369.742 285.298 362.236 284.853L353.82 257.196Z" fill="#BA68C8"/>
<path opacity="0.3" d="M353.82 257.196C359.165 257.196 365.062 259.156 367.089 263.209C369.116 267.261 375.566 280.043 375.566 280.043C375.566 280.043 369.742 285.298 362.236 284.853L353.82 257.196Z" fill="black"/>
<path d="M342.739 257.377L337.825 257.557C332.984 258.699 331.682 261.958 329.606 266.167C328.109 269.408 327.968 273.094 329.212 276.436L334.888 292.501C334.888 292.501 332.235 298.778 329.151 304.718C343.39 312.498 361.167 308.41 365.442 302.734C365.627 301.531 365.381 296.108 365.725 289.928C366.094 283.35 367.015 275.907 365.958 271.89C364.103 264.291 360.418 257.196 353.046 257.196L342.739 257.377Z" fill="#BA68C8"/>
<path d="M337.874 257.559C331.043 257.198 326.239 258.761 322.283 269.691C319.568 277.183 316.141 285.889 316.141 285.889C316.141 285.889 320.391 290.037 328.426 290.001C328.475 290.001 339.164 264.942 337.874 257.559Z" fill="#BA68C8"/>
<path opacity="0.3" d="M337.874 257.559C331.043 257.198 326.239 258.761 322.283 269.691C319.568 277.183 316.141 285.889 316.141 285.889C316.141 285.889 320.391 290.037 328.426 290.001C328.475 290.001 339.164 264.942 337.874 257.559Z" fill="black"/>
<path d="M358.884 225.501C360.813 226.619 363.184 231.357 362.951 241.289C362.754 249.707 359.965 251.787 358.565 252.388C357.164 252.989 354.474 252.617 351.844 252.196V257.27C351.844 257.27 355.53 261.395 355.248 263.703C354.965 266.012 350.002 266.577 346.648 264.305C344.449 262.757 342.563 260.824 341.082 258.605V246.364C340.806 246.695 340.464 246.97 340.078 247.171C339.693 247.372 339.27 247.497 338.834 247.537C338.399 247.577 337.96 247.533 337.542 247.406C337.124 247.279 336.737 247.072 336.402 246.797C333.514 244.909 333.404 240.255 335.087 238.572C336.77 236.888 340.394 237.429 341.082 239.774C344.525 239.629 347.877 238.65 350.837 236.924C353.003 235.775 354.86 234.142 356.259 232.156C357.657 230.171 358.557 227.891 358.884 225.501Z" fill="#B16668"/>
<path d="M353.713 239.294C353.715 239.501 353.655 239.705 353.54 239.879C353.424 240.054 353.259 240.191 353.065 240.274C352.87 240.357 352.655 240.383 352.446 240.347C352.237 240.311 352.043 240.216 351.889 240.073C351.735 239.931 351.627 239.747 351.579 239.544C351.531 239.342 351.545 239.13 351.619 238.936C351.693 238.741 351.823 238.572 351.995 238.45C352.166 238.327 352.371 238.257 352.583 238.247C352.874 238.241 353.156 238.347 353.368 238.543C353.579 238.739 353.703 239.009 353.713 239.294Z" fill="#263238"/>
<path d="M353.636 246.302L356.093 247.095C356.047 247.259 355.967 247.412 355.859 247.545C355.752 247.679 355.618 247.789 355.465 247.871C355.313 247.953 355.146 248.004 354.973 248.022C354.8 248.039 354.625 248.023 354.459 247.973C354.129 247.851 353.86 247.609 353.707 247.298C353.554 246.987 353.528 246.631 353.636 246.302Z" fill="#9A4A4D"/>
<path d="M362.214 235.927L360.027 234.424C360.114 234.274 360.232 234.144 360.375 234.043C360.517 233.942 360.68 233.872 360.852 233.837C361.025 233.803 361.203 233.806 361.374 233.845C361.545 233.883 361.706 233.958 361.846 234.063C362.141 234.267 362.344 234.575 362.413 234.922C362.482 235.27 362.41 235.63 362.214 235.927Z" fill="#263238"/>
<path d="M361.904 239.114C361.904 239.321 361.842 239.523 361.726 239.695C361.609 239.868 361.444 240.003 361.25 240.085C361.056 240.166 360.842 240.19 360.634 240.154C360.426 240.118 360.234 240.023 360.08 239.881C359.927 239.739 359.819 239.556 359.771 239.355C359.723 239.154 359.735 238.943 359.808 238.749C359.88 238.555 360.009 238.386 360.179 238.263C360.348 238.14 360.551 238.068 360.762 238.056C361.056 238.049 361.342 238.157 361.555 238.355C361.769 238.553 361.895 238.826 361.904 239.114Z" fill="#263238"/>
<path d="M356.609 237.802L356.781 244.175L360.209 243.141L356.609 237.802Z" fill="#9A4A4D"/>
<path d="M351.818 252.197C349.054 251.836 343.366 250.237 342.469 248.036C342.832 249.15 343.53 250.131 344.471 250.85C346.167 252.269 351.843 253.88 351.843 253.88L351.818 252.197Z" fill="#9A4A4D"/>
<path d="M393.504 273.841L356.525 286.286L344.977 333.159L380.396 320.328L393.504 273.841Z" fill="#F5F5F5"/>
<path d="M350.629 320.145L381.147 309.731L378.874 318.365L348.418 329.248L350.629 320.145Z" fill="#E0E0E0"/>
<path d="M369.844 307.075L368.996 312.378L381.576 307.785L383.186 302.313L369.844 307.075Z" fill="#E6E6E6"/>
<path d="M356.143 297.697L369.915 293.056L366.217 313.317L350.836 318.368L356.143 297.697Z" fill="#E0E0E0"/>
<path d="M387.485 286.806L383.775 299.973L370.273 304.867L372.595 292.337L387.485 286.806Z" fill="#E6E6E6"/>
<path d="M390.138 277.364L358.281 288.006L356.5 295.197L388.283 283.99L390.138 277.364Z" fill="#E0E0E0"/>
<path opacity="0.15" d="M378.848 303.06C379.143 303.841 380.862 305.994 384.511 305.825L384.966 304.25L378.848 303.06Z" fill="black"/>
<path opacity="0.15" d="M367.213 304.61C367.077 305.632 364.94 307.508 361.328 308.687C357.224 310.034 350.836 309.372 350.836 309.372L351.315 307.376L367.213 304.61Z" fill="black"/>
<path d="M315.137 301.354L326.378 293.935C326.378 293.935 343.258 300.019 345.752 300.211C347.075 300.249 348.378 299.893 349.49 299.191C350.602 298.489 351.47 297.474 351.981 296.279C352.927 293.874 354.61 294.175 354.61 294.175C354.61 294.175 353.873 297.217 353.627 298.191C353.382 299.165 359.377 299.959 362.706 298.865C366.036 297.77 370.827 299.358 367.854 303.783C364.881 308.208 359.082 308.713 355.065 308.725C353.38 308.713 351.698 308.6 350.028 308.388C348.725 308.232 347.435 308.1 346.133 308.003C337.889 307.438 318.884 302.496 315.137 301.354Z" fill="#B16668"/>
<path d="M389.23 288.979C389.23 288.979 388.124 292.899 387.854 293.789C387.584 294.678 383.935 296.422 381.637 297.047C379.34 297.673 376.797 298.406 377.952 301.557C378.959 304.479 382.755 305.164 384.697 305.056C385.995 304.84 387.207 304.277 388.198 303.428C389.19 302.578 389.921 301.477 390.311 300.246C391.65 296.53 390.925 292.562 391.454 290.386C391.982 288.209 390.385 287.68 389.23 288.979Z" fill="#B16668"/>
<path d="M505.535 258.279L557.503 225.704L580.391 232.907L505.535 258.279Z" fill="#BA68C8"/>
<path d="M505.535 258.279L550.451 221.616L540.475 210.337L505.535 258.279Z" fill="#BA68C8"/>
<path d="M550.451 221.614V230.128L505.535 258.278L550.451 221.614Z" fill="#BA68C8"/>
<path opacity="0.3" d="M550.451 221.614V230.128L505.535 258.278L550.451 221.614Z" fill="black"/>
<path d="M437.203 257.229L475.534 233.204L492.427 238.507L437.203 257.229Z" fill="#BA68C8"/>
<path d="M437.203 257.229L470.337 230.185L462.978 221.864L437.203 257.229Z" fill="#BA68C8"/>
<path d="M470.337 230.188V236.465L437.203 257.232L470.337 230.188Z" fill="#BA68C8"/>
<path opacity="0.3" d="M470.337 230.188V236.465L437.203 257.232L470.337 230.188Z" fill="black"/>
<path d="M556.988 219.257C556.802 219.257 556.622 219.202 556.469 219.1C556.316 218.998 556.197 218.853 556.13 218.684C556.062 218.516 556.048 218.331 556.089 218.154C556.131 217.977 556.225 217.817 556.361 217.694C558.127 216.101 559.732 214.345 561.153 212.451C561.299 212.26 561.516 212.133 561.757 212.097C561.998 212.062 562.244 212.119 562.442 212.258C562.542 212.328 562.625 212.415 562.689 212.517C562.753 212.618 562.795 212.731 562.814 212.849C562.832 212.967 562.826 213.087 562.796 213.202C562.766 213.318 562.713 213.426 562.639 213.521C561.144 215.503 559.461 217.343 557.614 219.016C557.443 219.17 557.22 219.256 556.988 219.257ZM565.121 208.783C564.976 208.78 564.834 208.747 564.703 208.687C564.49 208.577 564.329 208.389 564.256 208.164C564.182 207.94 564.202 207.696 564.31 207.485C565.394 205.39 566.275 203.2 566.939 200.943C566.97 200.829 567.024 200.722 567.098 200.628C567.172 200.535 567.265 200.456 567.37 200.398C567.475 200.34 567.591 200.303 567.711 200.289C567.831 200.275 567.953 200.285 568.069 200.318C568.304 200.385 568.503 200.54 568.622 200.749C568.742 200.958 568.773 201.205 568.708 201.436C568.017 203.807 567.091 206.107 565.944 208.302C565.866 208.45 565.748 208.573 565.602 208.658C565.457 208.743 565.29 208.786 565.121 208.783ZM569.027 196.193H568.917C568.797 196.18 568.681 196.144 568.576 196.086C568.471 196.028 568.379 195.951 568.304 195.858C568.23 195.765 568.175 195.659 568.143 195.545C568.111 195.431 568.103 195.312 568.118 195.195C568.301 193.687 568.391 192.169 568.389 190.65C568.389 189.82 568.389 188.979 568.315 188.161C568.305 188.042 568.319 187.923 568.357 187.809C568.396 187.696 568.457 187.591 568.537 187.502C568.617 187.412 568.715 187.339 568.824 187.287C568.934 187.235 569.053 187.205 569.175 187.199C569.295 187.191 569.416 187.206 569.53 187.244C569.645 187.282 569.75 187.342 569.841 187.421C569.931 187.499 570.004 187.594 570.057 187.701C570.109 187.807 570.139 187.923 570.145 188.041C570.207 188.906 570.231 189.784 570.231 190.65C570.231 192.257 570.137 193.863 569.949 195.46C569.906 195.668 569.791 195.855 569.623 195.989C569.455 196.122 569.244 196.195 569.027 196.193ZM568.389 183.038C568.179 183.038 567.976 182.967 567.813 182.838C567.65 182.709 567.537 182.529 567.492 182.329C566.988 180.021 566.294 177.757 565.416 175.559C565.328 175.336 565.334 175.087 565.433 174.869C565.532 174.65 565.716 174.479 565.944 174.393C566.172 174.307 566.426 174.313 566.649 174.41C566.873 174.507 567.048 174.686 567.136 174.91C568.049 177.198 568.773 179.554 569.298 181.956C569.345 182.189 569.297 182.43 569.163 182.628C569.03 182.826 568.822 182.965 568.585 183.014C568.522 183.034 568.455 183.042 568.389 183.038ZM563.683 170.689C563.518 170.688 563.356 170.644 563.213 170.562C563.071 170.48 562.953 170.362 562.872 170.22C561.72 168.127 560.414 166.117 558.966 164.208C558.819 164.016 558.756 163.776 558.791 163.539C558.825 163.302 558.954 163.089 559.15 162.945C559.345 162.802 559.591 162.74 559.833 162.774C560.075 162.808 560.293 162.934 560.44 163.126C561.935 165.088 563.29 167.149 564.494 169.294C564.604 169.502 564.628 169.744 564.559 169.968C564.49 170.193 564.335 170.382 564.126 170.497C563.998 170.597 563.845 170.664 563.683 170.689ZM555.759 160.023C555.634 160.024 555.51 159.999 555.395 159.95C555.281 159.9 555.179 159.826 555.096 159.735C553.438 158.007 551.678 156.377 549.825 154.853C549.732 154.774 549.656 154.677 549.602 154.57C549.547 154.462 549.514 154.345 549.506 154.225C549.497 154.105 549.513 153.984 549.552 153.87C549.591 153.756 549.652 153.651 549.733 153.56C549.814 153.469 549.912 153.395 550.022 153.341C550.132 153.287 550.252 153.255 550.374 153.247C550.497 153.239 550.62 153.254 550.737 153.292C550.853 153.33 550.961 153.391 551.054 153.47C552.962 155.04 554.772 156.723 556.472 158.508C556.594 158.637 556.675 158.797 556.705 158.97C556.735 159.143 556.712 159.321 556.641 159.482C556.569 159.643 556.451 159.78 556.301 159.876C556.151 159.972 555.975 160.023 555.796 160.023H555.759ZM545.538 151.45C545.352 151.445 545.172 151.387 545.022 151.281C543.203 150.079 541.275 148.876 539.284 147.758L538.83 147.505C538.725 147.446 538.633 147.367 538.559 147.273C538.485 147.179 538.431 147.072 538.4 146.958C538.369 146.843 538.361 146.724 538.376 146.606C538.392 146.489 538.431 146.376 538.492 146.273C538.552 146.17 538.633 146.08 538.729 146.008C538.825 145.936 538.935 145.883 539.051 145.852C539.168 145.822 539.29 145.814 539.41 145.829C539.53 145.845 539.646 145.883 539.751 145.942L540.206 146.195C542.233 147.325 544.211 148.6 546.066 149.802C546.229 149.911 546.353 150.069 546.418 150.252C546.483 150.434 546.486 150.633 546.427 150.818C546.367 151.003 546.249 151.164 546.089 151.278C545.929 151.391 545.735 151.452 545.538 151.45ZM533.977 144.607C533.817 144.61 533.659 144.569 533.522 144.487L527.134 140.88C527.022 140.824 526.923 140.746 526.843 140.651C526.762 140.557 526.703 140.447 526.668 140.329C526.633 140.21 526.623 140.086 526.638 139.964C526.654 139.842 526.695 139.725 526.759 139.619C526.822 139.513 526.908 139.42 527.009 139.348C527.111 139.275 527.226 139.224 527.349 139.197C527.472 139.17 527.599 139.167 527.722 139.19C527.846 139.213 527.963 139.26 528.068 139.329L534.444 142.936C534.62 143.035 534.758 143.189 534.836 143.373C534.913 143.557 534.927 143.762 534.873 143.954C534.82 144.146 534.703 144.316 534.541 144.436C534.379 144.557 534.18 144.621 533.977 144.619V144.607ZM522.281 137.982C522.121 137.982 521.965 137.94 521.827 137.862L515.45 134.254C515.246 134.136 515.095 133.945 515.031 133.721C514.967 133.497 514.994 133.257 515.106 133.052C515.229 132.854 515.425 132.708 515.653 132.646C515.881 132.583 516.125 132.608 516.335 132.715L522.711 136.322C522.888 136.422 523.025 136.576 523.103 136.76C523.181 136.944 523.194 137.148 523.141 137.34C523.087 137.533 522.97 137.702 522.808 137.823C522.646 137.943 522.448 138.007 522.244 138.006L522.281 137.982ZM510.585 131.356C510.425 131.352 510.268 131.306 510.131 131.224L503.755 127.617C503.552 127.496 503.404 127.305 503.34 127.082C503.276 126.859 503.301 126.62 503.411 126.414C503.533 126.216 503.73 126.071 503.958 126.011C504.187 125.95 504.431 125.979 504.639 126.089L511.015 129.697C511.22 129.815 511.37 130.006 511.434 130.23C511.498 130.454 511.471 130.694 511.359 130.899C511.275 131.026 511.161 131.13 511.026 131.204C510.891 131.277 510.74 131.317 510.585 131.32V131.356ZM498.902 124.719C498.738 124.72 498.577 124.678 498.435 124.598L496.211 123.396C496.106 123.337 496.014 123.258 495.941 123.164C495.867 123.07 495.813 122.963 495.781 122.848C495.75 122.734 495.742 122.614 495.758 122.497C495.774 122.379 495.813 122.266 495.873 122.163C495.934 122.061 496.014 121.971 496.11 121.899C496.206 121.826 496.316 121.773 496.433 121.743C496.55 121.712 496.672 121.704 496.792 121.72C496.912 121.735 497.028 121.773 497.133 121.833L499.356 123.035C499.559 123.155 499.707 123.347 499.771 123.57C499.835 123.793 499.81 124.032 499.7 124.238C499.619 124.374 499.502 124.486 499.362 124.564C499.222 124.643 499.063 124.683 498.902 124.683V124.719Z" fill="#E6E6E6"/>
<path d="M478.139 230.298C477.951 230.296 477.769 230.239 477.616 230.133C477.463 230.026 477.346 229.877 477.282 229.705C477.218 229.532 477.209 229.344 477.257 229.167C477.305 228.989 477.407 228.83 477.549 228.711L482.132 225.007C482.224 224.928 482.332 224.868 482.449 224.83C482.565 224.792 482.688 224.776 482.811 224.785C482.934 224.793 483.053 224.825 483.164 224.879C483.274 224.932 483.372 225.007 483.452 225.098C483.533 225.188 483.595 225.294 483.634 225.408C483.673 225.522 483.688 225.642 483.68 225.763C483.671 225.883 483.639 226 483.584 226.107C483.529 226.215 483.453 226.311 483.36 226.39L478.778 230.094C478.601 230.242 478.371 230.315 478.139 230.298ZM487.464 222.771C487.328 222.772 487.193 222.744 487.07 222.688C486.946 222.631 486.837 222.549 486.751 222.446C486.597 222.26 486.523 222.023 486.546 221.784C486.569 221.546 486.687 221.326 486.874 221.171L492.562 216.578C492.752 216.435 492.991 216.369 493.229 216.396C493.468 216.423 493.686 216.539 493.838 216.721C493.99 216.902 494.063 217.135 494.043 217.368C494.023 217.602 493.91 217.819 493.729 217.973L488.053 222.566C487.886 222.697 487.678 222.769 487.464 222.771ZM497.71 214.161C497.46 214.157 497.222 214.058 497.046 213.884C496.874 213.715 496.777 213.486 496.777 213.247C496.777 213.008 496.874 212.779 497.046 212.61C498.773 210.957 500.413 209.219 501.961 207.403C502.122 207.225 502.347 207.114 502.589 207.094C502.832 207.073 503.073 207.146 503.263 207.295C503.448 207.451 503.563 207.672 503.584 207.91C503.605 208.148 503.529 208.385 503.373 208.57C501.801 210.385 500.093 212.177 498.275 213.909C498.123 214.056 497.923 214.145 497.71 214.161ZM506.482 204.132C506.296 204.128 506.116 204.07 505.966 203.964C505.777 203.831 505.648 203.632 505.604 203.408C505.561 203.185 505.607 202.953 505.732 202.762C507.12 200.834 508.388 198.827 509.528 196.749C509.578 196.634 509.652 196.53 509.745 196.444C509.838 196.358 509.948 196.292 510.068 196.25C510.189 196.208 510.317 196.191 510.444 196.2C510.572 196.209 510.696 196.244 510.809 196.303C510.922 196.362 511.021 196.443 511.101 196.541C511.18 196.639 511.237 196.752 511.269 196.873C511.301 196.995 511.307 197.121 511.287 197.245C511.266 197.368 511.22 197.486 511.15 197.591C509.977 199.746 508.672 201.83 507.243 203.832C507.149 203.936 507.031 204.018 506.899 204.07C506.766 204.122 506.624 204.143 506.482 204.132ZM512.907 192.529C512.797 192.546 512.685 192.546 512.575 192.529C512.458 192.486 512.35 192.421 512.26 192.337C512.169 192.253 512.096 192.151 512.047 192.039C511.998 191.926 511.972 191.805 511.972 191.682C511.972 191.56 511.998 191.439 512.047 191.326C512.928 189.128 513.643 186.869 514.185 184.568C514.204 184.446 514.249 184.33 514.317 184.226C514.385 184.122 514.473 184.032 514.578 183.963C514.682 183.894 514.8 183.846 514.924 183.823C515.048 183.8 515.175 183.803 515.298 183.83C515.421 183.857 515.537 183.909 515.638 183.981C515.74 184.054 515.826 184.147 515.889 184.253C515.953 184.36 515.994 184.478 516.009 184.6C516.025 184.723 516.014 184.847 515.978 184.965C515.421 187.353 514.682 189.696 513.767 191.975C513.696 192.141 513.576 192.282 513.423 192.38C513.27 192.479 513.09 192.531 512.907 192.529ZM516.027 179.71H515.941C515.821 179.701 515.703 179.669 515.596 179.615C515.488 179.56 515.392 179.486 515.315 179.395C515.237 179.304 515.178 179.199 515.142 179.086C515.107 178.973 515.094 178.854 515.106 178.736C515.204 177.534 515.253 176.428 515.253 175.285C515.253 174.143 515.253 172.88 515.094 171.678C515.082 171.56 515.094 171.441 515.13 171.328C515.166 171.215 515.224 171.11 515.302 171.019C515.38 170.928 515.476 170.854 515.583 170.799C515.691 170.745 515.808 170.713 515.929 170.704C516.171 170.687 516.41 170.763 516.596 170.915C516.782 171.068 516.899 171.285 516.924 171.521C517.035 172.724 517.096 174.023 517.096 175.273C517.096 176.524 517.096 177.678 516.937 178.881C516.918 179.105 516.815 179.315 516.646 179.468C516.478 179.622 516.257 179.708 516.027 179.71ZM514.995 166.579C514.79 166.578 514.59 166.51 514.428 166.386C514.266 166.262 514.15 166.089 514.099 165.894C513.528 163.609 512.747 161.379 511.764 159.232C511.712 159.124 511.683 159.006 511.677 158.886C511.672 158.766 511.692 158.646 511.734 158.534C511.777 158.421 511.842 158.318 511.926 158.231C512.01 158.143 512.111 158.073 512.223 158.024C512.335 157.975 512.456 157.949 512.579 157.946C512.701 157.944 512.823 157.965 512.937 158.01C513.051 158.054 513.155 158.12 513.243 158.204C513.33 158.288 513.4 158.388 513.447 158.499C514.471 160.746 515.293 163.075 515.905 165.461C515.961 165.694 515.921 165.938 515.795 166.143C515.668 166.348 515.465 166.496 515.229 166.555L514.995 166.579ZM509.7 154.47C509.545 154.472 509.392 154.435 509.254 154.364C509.117 154.292 509 154.188 508.914 154.062C507.626 152.067 506.176 150.177 504.577 148.41C504.414 148.23 504.331 147.994 504.346 147.753C504.361 147.513 504.473 147.289 504.657 147.129C504.841 146.97 505.083 146.889 505.328 146.903C505.573 146.918 505.803 147.027 505.966 147.207C507.621 149.046 509.129 151.008 510.474 153.076C510.566 153.211 510.619 153.368 510.626 153.53C510.633 153.693 510.595 153.854 510.515 153.996C510.435 154.139 510.317 154.257 510.174 154.339C510.03 154.42 509.866 154.461 509.7 154.458V154.47ZM500.929 144.466C500.702 144.466 500.483 144.385 500.314 144.237C498.506 142.669 496.593 141.219 494.589 139.896C494.489 139.829 494.404 139.744 494.337 139.644C494.271 139.545 494.226 139.433 494.204 139.317C494.181 139.2 494.183 139.08 494.208 138.964C494.233 138.848 494.281 138.738 494.35 138.64C494.418 138.542 494.506 138.458 494.607 138.393C494.709 138.329 494.823 138.284 494.942 138.262C495.061 138.241 495.184 138.242 495.302 138.267C495.421 138.291 495.533 138.338 495.633 138.405C497.699 139.776 499.673 141.274 501.543 142.891C501.633 142.97 501.707 143.065 501.76 143.172C501.812 143.279 501.843 143.395 501.85 143.513C501.857 143.631 501.84 143.75 501.8 143.862C501.759 143.974 501.697 144.077 501.617 144.165C501.531 144.261 501.425 144.338 501.306 144.39C501.188 144.442 501.059 144.468 500.929 144.466ZM489.872 136.866C489.703 136.865 489.537 136.819 489.392 136.734L483.078 133.018C482.963 132.965 482.861 132.889 482.778 132.796C482.695 132.702 482.632 132.593 482.594 132.474C482.556 132.356 482.543 132.231 482.557 132.108C482.57 131.985 482.609 131.865 482.672 131.757C482.735 131.65 482.819 131.556 482.921 131.481C483.023 131.407 483.139 131.354 483.262 131.326C483.385 131.297 483.514 131.294 483.638 131.316C483.763 131.339 483.882 131.386 483.987 131.455C484.503 131.744 488.606 134.161 490.338 135.195C490.509 135.297 490.641 135.45 490.715 135.632C490.788 135.813 490.8 136.014 490.747 136.202C490.694 136.391 490.58 136.558 490.423 136.677C490.265 136.797 490.071 136.863 489.872 136.866Z" fill="#E6E6E6"/>
</svg>
