<svg width="201" height="60" viewBox="0 0 201 60" fill="none" xmlns="http://www.w3.org/2000/svg">
<path d="M196.313 1.13867H4.28163C2.46924 1.13867 1 2.60618 1 4.41645V55.222C1 57.0323 2.46924 58.4998 4.28163 58.4998H196.313C198.125 58.4998 199.595 57.0323 199.595 55.222V4.41645C199.595 2.60618 198.125 1.13867 196.313 1.13867Z" stroke="black" stroke-width="2"/>
<path d="M72.0596 15.7704C72.0596 16.8995 71.777 17.8874 71.0706 18.593C70.2227 19.4397 69.2337 19.8631 67.9621 19.8631C66.6905 19.8631 65.7014 19.4397 64.8537 18.593C64.0059 17.7462 63.582 16.7584 63.582 15.4882C63.582 14.2181 64.0059 13.2302 64.8537 12.3834C65.7014 11.5367 66.6905 11.1133 67.9621 11.1133C68.5273 11.1133 69.0925 11.2544 69.6576 11.5367C70.2227 11.8189 70.6466 12.1012 70.9292 12.5245L70.2227 13.2302C69.6576 12.5245 68.9511 12.2423 67.9621 12.2423C67.1143 12.2423 66.2666 12.5245 65.7014 13.2302C64.9949 13.7947 64.7124 14.6415 64.7124 15.6293C64.7124 16.6172 64.9949 17.464 65.7014 18.0285C66.4078 18.593 67.1143 19.0163 67.9621 19.0163C68.9511 19.0163 69.6576 18.7341 70.3641 18.0285C70.7879 17.6051 71.0706 17.0406 71.0706 16.3349H67.9621V15.3471H72.0596C72.0596 15.3471 72.0596 15.4882 72.0596 15.7704Z" fill="black" stroke="black" stroke-width="0.2" stroke-miterlimit="10"/>
<path d="M78.5624 12.2423H74.7475V14.9237H78.2798V15.9116H74.7475V18.593H78.5624V19.5808H73.6172V11.1133H78.5624V12.2423Z" fill="black" stroke="black" stroke-width="0.2" stroke-miterlimit="10"/>
<path d="M83.2241 19.5808H82.0934V12.1012H79.6914V11.1133H85.6254V12.1012H83.2241V19.5808Z" fill="black" stroke="black" stroke-width="0.2" stroke-miterlimit="10"/>
<path d="M89.7227 19.5808V11.1133H90.8524V19.5808H89.7227Z" fill="black" stroke="black" stroke-width="0.2" stroke-miterlimit="10"/>
<path d="M95.6569 19.5808H94.5272V12.1012H92.125V11.1133H97.9179V12.1012H95.5157V19.5808H95.6569Z" fill="black" stroke="black" stroke-width="0.2" stroke-miterlimit="10"/>
<path d="M109.079 18.593C108.231 19.4397 107.242 19.8631 105.97 19.8631C104.698 19.8631 103.71 19.4397 102.861 18.593C102.014 17.7462 101.59 16.7584 101.59 15.4882C101.59 14.2181 102.014 13.2302 102.861 12.3834C103.71 11.5367 104.698 11.1133 105.97 11.1133C107.242 11.1133 108.231 11.5367 109.079 12.3834C109.926 13.2302 110.35 14.2181 110.35 15.4882C110.35 16.6172 109.926 17.7462 109.079 18.593ZM103.71 17.8874C104.275 18.4519 105.123 18.8752 105.97 18.8752C106.818 18.8752 107.666 18.593 108.231 17.8874C108.796 17.3229 109.22 16.4761 109.22 15.4882C109.22 14.5003 108.937 13.6536 108.231 13.089C107.666 12.5245 106.818 12.1012 105.97 12.1012C105.123 12.1012 104.275 12.3834 103.71 13.089C103.145 13.6536 102.72 14.5003 102.72 15.4882C102.72 16.3349 103.003 17.1818 103.71 17.8874Z" fill="black" stroke="black" stroke-width="0.2" stroke-miterlimit="10"/>
<path d="M111.906 19.5808V11.1133H113.178L117.275 17.7462V16.0527V11.1133H118.406V19.5808H117.275L112.895 12.6657V14.3592V19.5808H111.906Z" fill="black" stroke="black" stroke-width="0.2" stroke-miterlimit="10"/>
<path d="M101.309 32.0001C97.9183 32.0001 95.2339 34.5404 95.2339 38.0686C95.2339 41.4556 97.9183 44.137 101.309 44.137C104.7 44.137 107.385 41.5967 107.385 38.0686C107.385 34.5404 104.7 32.0001 101.309 32.0001ZM101.309 41.5967C99.4722 41.5967 97.9183 40.0443 97.9183 37.9275C97.9183 35.8105 99.4722 34.2582 101.309 34.2582C103.146 34.2582 104.7 35.6694 104.7 37.9275C104.7 40.1854 103.146 41.5967 101.309 41.5967ZM88.1686 32.0001C84.7778 32.0001 82.0934 34.5404 82.0934 38.0686C82.0934 41.4556 84.7778 44.137 88.1686 44.137C91.5601 44.137 94.2445 41.5967 94.2445 38.0686C94.2445 34.5404 91.5601 32.0001 88.1686 32.0001ZM88.1686 41.5967C86.3325 41.5967 84.7778 40.0443 84.7778 37.9275C84.7778 35.8105 86.3325 34.2582 88.1686 34.2582C90.0055 34.2582 91.5601 35.6694 91.5601 37.9275C91.5601 40.1854 90.0055 41.5967 88.1686 41.5967ZM72.4855 33.8348V36.375H78.561C78.4197 37.7864 77.8546 38.9153 77.1481 39.6209C76.3004 40.4677 74.8874 41.4556 72.4855 41.4556C68.6706 41.4556 65.8447 38.4919 65.8447 34.6816C65.8447 30.8711 68.8119 27.9075 72.4855 27.9075C74.4636 27.9075 76.0178 28.7542 77.1481 29.7421L78.9849 27.9075C77.4307 26.4962 75.4526 25.3672 72.6268 25.3672C67.5402 25.3672 63.1602 29.601 63.1602 34.6816C63.1602 39.762 67.5402 43.9959 72.6268 43.9959C75.4526 43.9959 77.4307 43.1491 79.1262 41.3145C80.8217 39.6209 81.3868 37.2218 81.3868 35.3872C81.3868 34.8227 81.3868 34.2582 81.2456 33.8348H72.4855ZM136.633 35.8105C136.067 34.3993 134.654 32.0001 131.546 32.0001C128.437 32.0001 125.894 34.3993 125.894 38.0686C125.894 41.4556 128.437 44.137 131.828 44.137C134.513 44.137 136.208 42.4435 136.774 41.4556L134.796 40.0443C134.089 41.0322 133.241 41.7378 131.828 41.7378C130.415 41.7378 129.567 41.1734 128.861 39.9032L136.915 36.5161L136.633 35.8105ZM128.437 37.7864C128.437 35.5283 130.274 34.2582 131.546 34.2582C132.535 34.2582 133.524 34.8227 133.806 35.5283L128.437 37.7864ZM121.796 43.5725H124.481V25.9317H121.796V43.5725ZM117.558 33.2702C116.851 32.5646 115.721 31.859 114.308 31.859C111.341 31.859 108.515 34.5404 108.515 37.9275C108.515 41.3145 111.2 43.8548 114.308 43.8548C115.721 43.8548 116.851 43.1491 117.416 42.4435H117.558V43.2902C117.558 45.5482 116.286 46.8184 114.308 46.8184C112.754 46.8184 111.623 45.6894 111.341 44.7015L109.08 45.6894C109.786 47.2418 111.482 49.2175 114.45 49.2175C117.558 49.2175 120.101 47.3829 120.101 43.008V32.2824H117.558V33.2702ZM114.45 41.5967C112.613 41.5967 111.058 40.0443 111.058 37.9275C111.058 35.8105 112.613 34.2582 114.45 34.2582C116.286 34.2582 117.699 35.8105 117.699 37.9275C117.699 40.0443 116.286 41.5967 114.45 41.5967ZM148.925 25.9317H142.567V43.5725H145.251V36.9395H148.925C151.891 36.9395 154.718 34.8227 154.718 31.4357C154.718 28.0486 151.891 25.9317 148.925 25.9317ZM149.066 34.5404H145.251V28.472H149.066C151.044 28.472 152.174 30.1655 152.174 31.4357C152.033 32.8469 150.903 34.5404 149.066 34.5404ZM165.315 32.0001C163.336 32.0001 161.358 32.8469 160.652 34.6816L163.054 35.6694C163.619 34.6816 164.467 34.3993 165.456 34.3993C166.869 34.3993 168.14 35.2461 168.281 36.6573V36.7984C167.858 36.5161 166.728 36.0928 165.597 36.0928C163.054 36.0928 160.511 37.5041 160.511 40.0443C160.511 42.4435 162.63 43.9959 164.891 43.9959C166.728 43.9959 167.575 43.1491 168.281 42.3024H168.423V43.7136H170.966V36.9395C170.684 33.6936 168.281 32.0001 165.315 32.0001ZM165.032 41.5967C164.184 41.5967 162.913 41.1734 162.913 40.0443C162.913 38.6331 164.467 38.2097 165.738 38.2097C166.869 38.2097 167.434 38.492 168.14 38.7742C167.858 40.4677 166.445 41.5967 165.032 41.5967ZM179.867 32.2824L176.901 39.9032H176.76L173.651 32.2824H170.825L175.488 43.008L172.803 48.9353H175.488L182.694 32.2824H179.867ZM156.13 43.5725H158.815V25.9317H156.13V43.5725Z" fill="black"/>
<path d="M19.0743 47.0999C18.5091 46.8177 18.2266 46.1121 18.2266 45.4065C18.2266 45.2653 18.2266 44.9831 18.2266 44.8419C18.2266 34.3986 18.2266 23.9552 18.2266 13.653C18.2266 13.0885 18.3678 12.6652 18.5091 12.1006C18.6505 11.8183 18.933 11.5361 19.2156 11.2539C25.2912 17.3223 31.2254 23.3907 37.1597 29.4592C31.0842 35.1042 25.1499 41.0315 19.0743 47.0999Z" fill="black"/>
<path d="M43.0976 23.2506C41.4021 24.9442 39.5653 26.6376 37.8698 28.4723C32.2181 22.6861 26.4251 16.8999 20.7734 11.1138C20.7734 11.1138 20.7734 10.9727 20.9147 10.9727C28.262 15.0653 35.6091 19.158 43.0976 23.2506Z" fill="black"/>
<path d="M20.7734 47.1011C26.4251 41.4561 32.2181 35.8111 37.8698 30.166C39.424 31.7184 41.1196 33.2708 42.9564 34.9643C35.6091 39.057 28.262 43.1496 20.9147 47.1011H20.7734Z" fill="black"/>
<path d="M43.9433 34.3989C42.1065 32.7054 40.411 31.0119 38.5742 29.3184C40.411 27.4838 42.2478 25.6491 44.0846 23.8145C44.6498 24.0967 45.2149 24.379 45.7801 24.8023C47.193 25.6491 48.7473 26.3547 50.1602 27.2015C50.5841 27.3426 50.8666 27.6249 51.1492 28.0482C51.7144 28.7538 51.7144 29.4595 51.1492 30.1651C50.8666 30.4474 50.5841 30.7297 50.1602 30.8708C48.1821 32.1409 46.0627 33.2699 43.9433 34.3989Z" fill="black"/>
</svg>
