<svg width="32" height="33" viewBox="0 0 32 33" fill="none" xmlns="http://www.w3.org/2000/svg">
<path d="M15.068 29.3203C15.3632 29.4925 15.5108 29.5786 15.7191 29.6232C15.8808 29.6579 16.1166 29.6579 16.2783 29.6232C16.4866 29.5786 16.6342 29.4925 16.9294 29.3202C19.5268 27.8049 26.6654 23.045 26.6654 16.5004V11.4337C26.6654 10.0019 26.6654 9.28596 26.4446 8.77775C26.2203 8.26122 25.9968 7.98643 25.5368 7.66162C25.0841 7.34205 24.1969 7.15751 22.4223 6.78844C20.4664 6.38167 18.9644 5.64713 17.5912 4.58484C16.9327 4.07544 16.6035 3.82074 16.3458 3.75127C16.074 3.67796 15.9234 3.67796 15.6516 3.75127C15.3939 3.82074 15.0647 4.07544 14.4062 4.58484C13.033 5.64713 11.531 6.38167 9.5751 6.78844C7.80053 7.15751 6.91325 7.34205 6.46063 7.66162C6.00059 7.98643 5.77708 8.26122 5.55275 8.77775C5.33203 9.28596 5.33203 10.0019 5.33203 11.4337V16.5004C5.33203 23.045 12.4706 27.8049 15.068 29.3203Z" stroke="black" stroke-width="2" stroke-linecap="round" stroke-linejoin="round"/>
</svg>
