<svg width="32" height="33" viewBox="0 0 32 33" fill="none" xmlns="http://www.w3.org/2000/svg">
<path d="M4.66797 7.16634C4.66797 6.28229 5.01916 5.43444 5.64428 4.80932C6.2694 4.1842 7.11725 3.83301 8.0013 3.83301H21.3346C22.2187 3.83301 23.0665 4.1842 23.6917 4.80932C24.3168 5.43444 24.668 6.28229 24.668 7.16634V14.4997C24.668 14.6765 24.5977 14.8461 24.4727 14.9711C24.3477 15.0961 24.1781 15.1663 24.0013 15.1663C23.8245 15.1663 23.6549 15.0961 23.5299 14.9711C23.4049 14.8461 23.3346 14.6765 23.3346 14.4997V7.16634C23.3346 6.63591 23.1239 6.1272 22.7488 5.75213C22.3738 5.37705 21.8651 5.16634 21.3346 5.16634H8.0013C7.47087 5.16634 6.96216 5.37705 6.58709 5.75213C6.21202 6.1272 6.0013 6.63591 6.0013 7.16634V25.833C6.0013 26.3634 6.21202 26.8721 6.58709 27.2472C6.96216 27.6223 7.47087 27.833 8.0013 27.833H17.3346C17.5114 27.833 17.681 27.9032 17.806 28.0283C17.9311 28.1533 18.0013 28.3229 18.0013 28.4997C18.0013 28.6765 17.9311 28.8461 17.806 28.9711C17.681 29.0961 17.5114 29.1663 17.3346 29.1663H8.0013C7.11725 29.1663 6.2694 28.8152 5.64428 28.19C5.01916 27.5649 4.66797 26.7171 4.66797 25.833V7.16634Z" fill="black"/>
<path d="M23.999 18.5003C24.1758 18.5003 24.3454 18.5706 24.4704 18.6956C24.5954 18.8206 24.6657 18.9902 24.6657 19.167V20.0563H24.891C26.1577 20.0563 27.3324 20.9683 27.3324 22.2777C27.3324 22.4545 27.2621 22.624 27.1371 22.7491C27.0121 22.8741 26.8425 22.9443 26.6657 22.9443C26.4889 22.9443 26.3193 22.8741 26.1943 22.7491C26.0693 22.624 25.999 22.4545 25.999 22.2777C25.999 21.8643 25.591 21.3897 24.891 21.3897H22.883C22.3097 21.3897 21.999 21.7803 21.999 22.0777C21.999 22.3617 22.0684 22.4577 22.1097 22.5017C22.171 22.567 22.295 22.643 22.5764 22.727L25.799 23.6617C26.1497 23.7657 26.5524 23.9257 26.8604 24.2537C27.1897 24.6043 27.3324 25.059 27.3324 25.5897C27.3324 26.787 26.251 27.611 25.115 27.611H24.6657V28.5003C24.6657 28.6771 24.5954 28.8467 24.4704 28.9717C24.3454 29.0968 24.1758 29.167 23.999 29.167C23.8222 29.167 23.6526 29.0968 23.5276 28.9717C23.4026 28.8467 23.3324 28.6771 23.3324 28.5003V27.611H23.107C21.8404 27.611 20.6657 26.699 20.6657 25.3897C20.6657 25.2128 20.7359 25.0433 20.8609 24.9183C20.986 24.7932 21.1555 24.723 21.3324 24.723C21.5092 24.723 21.6787 24.7932 21.8038 24.9183C21.9288 25.0433 21.999 25.2128 21.999 25.3897C21.999 25.803 22.407 26.2777 23.107 26.2777H25.115C25.6884 26.2777 25.999 25.887 25.999 25.5897C25.999 25.3057 25.9297 25.2097 25.8884 25.1657C25.827 25.1003 25.703 25.0243 25.4217 24.9403L22.199 24.0057C21.8484 23.9017 21.4457 23.7417 21.1377 23.4137C20.8084 23.063 20.6657 22.6083 20.6657 22.0777C20.6657 20.8803 21.747 20.0563 22.883 20.0563H23.3324V19.167C23.3324 18.9902 23.4026 18.8206 23.5276 18.6956C23.6526 18.5706 23.8222 18.5003 23.999 18.5003ZM8.66569 15.167C8.66569 14.9902 8.73592 14.8206 8.86095 14.6956C8.98597 14.5706 9.15554 14.5003 9.33235 14.5003H9.99902C10.1758 14.5003 10.3454 14.5706 10.4704 14.6956C10.5954 14.8206 10.6657 14.9902 10.6657 15.167C10.6657 15.3438 10.5954 15.5134 10.4704 15.6384C10.3454 15.7634 10.1758 15.8337 9.99902 15.8337H9.33235C9.15554 15.8337 8.98597 15.7634 8.86095 15.6384C8.73592 15.5134 8.66569 15.3438 8.66569 15.167ZM12.6657 15.167C12.6657 14.9902 12.7359 14.8206 12.8609 14.6956C12.986 14.5706 13.1555 14.5003 13.3324 14.5003H19.999C20.1758 14.5003 20.3454 14.5706 20.4704 14.6956C20.5954 14.8206 20.6657 14.9902 20.6657 15.167C20.6657 15.3438 20.5954 15.5134 20.4704 15.6384C20.3454 15.7634 20.1758 15.8337 19.999 15.8337H13.3324C13.1555 15.8337 12.986 15.7634 12.8609 15.6384C12.7359 15.5134 12.6657 15.3438 12.6657 15.167ZM8.66569 19.167C8.66569 18.9902 8.73592 18.8206 8.86095 18.6956C8.98597 18.5706 9.15554 18.5003 9.33235 18.5003H9.99902C10.1758 18.5003 10.3454 18.5706 10.4704 18.6956C10.5954 18.8206 10.6657 18.9902 10.6657 19.167C10.6657 19.3438 10.5954 19.5134 10.4704 19.6384C10.3454 19.7634 10.1758 19.8337 9.99902 19.8337H9.33235C9.15554 19.8337 8.98597 19.7634 8.86095 19.6384C8.73592 19.5134 8.66569 19.3438 8.66569 19.167ZM12.6657 19.167C12.6657 18.9902 12.7359 18.8206 12.8609 18.6956C12.986 18.5706 13.1555 18.5003 13.3324 18.5003H17.999C18.1758 18.5003 18.3454 18.5706 18.4704 18.6956C18.5954 18.8206 18.6657 18.9902 18.6657 19.167C18.6657 19.3438 18.5954 19.5134 18.4704 19.6384C18.3454 19.7634 18.1758 19.8337 17.999 19.8337H13.3324C13.1555 19.8337 12.986 19.7634 12.8609 19.6384C12.7359 19.5134 12.6657 19.3438 12.6657 19.167ZM8.66569 23.167C8.66569 22.9902 8.73592 22.8206 8.86095 22.6956C8.98597 22.5706 9.15554 22.5003 9.33235 22.5003H9.99902C10.1758 22.5003 10.3454 22.5706 10.4704 22.6956C10.5954 22.8206 10.6657 22.9902 10.6657 23.167C10.6657 23.3438 10.5954 23.5134 10.4704 23.6384C10.3454 23.7634 10.1758 23.8337 9.99902 23.8337H9.33235C9.15554 23.8337 8.98597 23.7634 8.86095 23.6384C8.73592 23.5134 8.66569 23.3438 8.66569 23.167ZM12.6657 23.167C12.6657 22.9902 12.7359 22.8206 12.8609 22.6956C12.986 22.5706 13.1555 22.5003 13.3324 22.5003H15.999C16.1758 22.5003 16.3454 22.5706 16.4704 22.6956C16.5954 22.8206 16.6657 22.9902 16.6657 23.167C16.6657 23.3438 16.5954 23.5134 16.4704 23.6384C16.3454 23.7634 16.1758 23.8337 15.999 23.8337H13.3324C13.1555 23.8337 12.986 23.7634 12.8609 23.6384C12.7359 23.5134 12.6657 23.3438 12.6657 23.167ZM9.04435 6.50032H20.287C20.455 6.50032 20.619 6.50032 20.7577 6.51099C20.9097 6.52432 21.091 6.55366 21.271 6.64566C21.5219 6.77348 21.7259 6.97745 21.8537 7.22832C21.947 7.40966 21.975 7.58832 21.987 7.74166C21.999 7.88032 21.999 8.04432 21.999 8.21232V10.1217C21.999 10.2897 21.999 10.4537 21.987 10.5923C21.9774 10.7706 21.9321 10.9452 21.8537 11.1057C21.7259 11.3565 21.5219 11.5605 21.271 11.6883C21.1106 11.7667 20.936 11.812 20.7577 11.8217C20.601 11.8312 20.444 11.8352 20.287 11.8337H9.04435C8.87635 11.8337 8.71235 11.8337 8.57369 11.823C8.39528 11.813 8.22071 11.7672 8.06035 11.6883C7.80948 11.5605 7.60552 11.3565 7.47769 11.1057C7.39932 10.9452 7.35397 10.7706 7.34435 10.5923C7.33481 10.4356 7.33081 10.2786 7.33235 10.1217V8.21232C7.33235 8.04432 7.33235 7.88032 7.34302 7.74166C7.35635 7.58966 7.38569 7.40832 7.47769 7.22832C7.60552 6.97745 7.80948 6.77348 8.06035 6.64566C8.22081 6.56728 8.39537 6.52194 8.57369 6.51232C8.73039 6.50278 8.88737 6.49878 9.04435 6.50032ZM8.67369 7.84166V7.84966C8.66569 7.92832 8.66569 8.03632 8.66569 8.23366V10.1003C8.66355 10.231 8.66622 10.3618 8.67369 10.4923H8.68169C8.76035 10.5003 8.86835 10.5003 9.06569 10.5003H20.2657C20.463 10.5003 20.5724 10.5003 20.6497 10.4937H20.6577V10.4843C20.665 10.3565 20.6676 10.2284 20.6657 10.1003V8.23366C20.6678 8.10294 20.6652 7.97218 20.6577 7.84166H20.6497C20.5218 7.83438 20.3937 7.83171 20.2657 7.83366H9.06569C8.93497 7.83152 8.80421 7.83419 8.67369 7.84166Z" fill="black"/>
</svg>
