<svg width="580" height="572" viewBox="0 0 580 572" fill="none" xmlns="http://www.w3.org/2000/svg">
<path d="M98.6039 527.936C208.721 585.462 387.247 585.462 497.404 527.936C607.561 470.41 607.508 377.219 497.404 319.626C387.301 262.034 208.761 262.101 98.6039 319.626C-11.553 377.152 -11.4329 470.41 98.6039 527.936Z" fill="#F0F0F0"/>
<path d="M192.182 543.116L197.117 546.037C198.012 546.491 199.002 546.727 200.005 546.727C201.008 546.727 201.998 546.491 202.893 546.037L524.347 360.522C524.695 360.404 524.998 360.179 525.212 359.88C525.427 359.581 525.542 359.222 525.542 358.855C525.542 358.487 525.427 358.128 525.212 357.829C524.998 357.53 524.695 357.306 524.347 357.187L519.412 354.28C518.517 353.826 517.528 353.59 516.524 353.59C515.521 353.59 514.532 353.826 513.637 354.28L192.196 539.782C191.847 539.899 191.543 540.122 191.328 540.42C191.112 540.718 190.996 541.076 190.994 541.444C190.993 541.812 191.106 542.171 191.32 542.471C191.533 542.771 191.834 542.997 192.182 543.116Z" fill="#E0E0E0"/>
<path d="M127.146 505.663L132.081 508.584C132.976 509.038 133.965 509.274 134.969 509.274C135.972 509.274 136.961 509.038 137.856 508.584L459.297 323.082C459.646 322.964 459.948 322.739 460.163 322.44C460.377 322.141 460.492 321.783 460.492 321.415C460.492 321.047 460.377 320.688 460.163 320.389C459.948 320.09 459.646 319.866 459.297 319.748L454.362 316.827C453.467 316.373 452.478 316.137 451.475 316.137C450.471 316.137 449.482 316.373 448.587 316.827L127.146 502.329C126.798 502.447 126.495 502.671 126.281 502.97C126.066 503.269 125.951 503.628 125.951 503.996C125.951 504.364 126.066 504.722 126.281 505.021C126.495 505.321 126.798 505.545 127.146 505.663Z" fill="#E0E0E0"/>
<path d="M62.1109 468.211L67.0459 471.145C67.9409 471.599 68.9301 471.835 69.9335 471.835C70.9369 471.835 71.9261 471.599 72.8211 471.145L394.262 285.63C394.611 285.512 394.913 285.287 395.127 284.988C395.342 284.689 395.457 284.331 395.457 283.963C395.457 283.595 395.342 283.236 395.127 282.937C394.913 282.638 394.611 282.414 394.262 282.295L389.327 279.374C388.432 278.921 387.443 278.685 386.44 278.685C385.436 278.685 384.447 278.921 383.552 279.374L62.1109 464.877C61.7625 464.995 61.4599 465.219 61.2456 465.518C61.0313 465.817 60.916 466.176 60.916 466.544C60.916 466.912 61.0313 467.27 61.2456 467.569C61.4599 467.868 61.7625 468.093 62.1109 468.211Z" fill="#E0E0E0"/>
<path d="M66.8714 411.697C67.2582 411.537 68.472 385.355 57.2149 369.937C45.9578 354.518 32.2999 352.718 23.3235 356.519C14.3472 360.32 16.2011 369.457 27.2448 374.979C38.2885 380.5 52.0265 390.157 55.2542 407.749L66.8714 411.697Z" fill="#E0E0E0"/>
<path d="M62.7232 404.029C62.5231 404.031 62.3291 403.96 62.1771 403.83C62.025 403.7 61.9253 403.52 61.8962 403.322C57.6681 376.726 41.8895 363.708 28.6451 360.374C28.4296 360.32 28.2442 360.184 28.1292 359.994C28.0143 359.804 27.9792 359.576 28.0315 359.36C28.0882 359.144 28.2275 358.958 28.4196 358.843C28.6117 358.729 28.8411 358.694 29.0586 358.747C42.8765 362.201 59.1887 375.659 63.5501 403.055C63.5848 403.274 63.5313 403.498 63.4013 403.678C63.2714 403.858 63.0755 403.979 62.8565 404.015L62.7232 404.029Z" fill="white"/>
<path d="M64.8308 460.314C63.1235 453.405 56.1745 448.856 47.9718 448.11C39.4489 447.336 29.5256 446.509 26.8981 439.307C24.2705 432.104 26.8981 422.368 25.6977 417.579C24.2305 411.791 22.0164 408.336 10.826 404.828C0.795988 401.681 -4.75254 392.091 5.35752 388.036C11.7212 385.634 18.681 385.302 25.2442 387.089C29.4723 388.169 33.5136 389.917 37.7817 390.85C39.7608 391.265 41.7663 391.541 43.7837 391.677C46.1178 391.837 48.4519 391.05 50.8127 391.197C56.8814 391.584 62.3233 395.759 65.1909 401.12C67.2049 404.895 66.7514 409.123 66.6047 413.258C66.458 417.393 66.2846 421.567 66.1379 425.729C65.7911 434.745 65.4488 443.77 65.1109 452.804L64.8308 460.314Z" fill="#E6E6E6"/>
<path d="M64.8323 436.906C64.659 436.907 64.4897 436.853 64.3485 436.753C64.2073 436.652 64.1013 436.51 64.0454 436.346C56.0427 414.165 23.5251 394.092 12.7082 392.811C12.5938 392.805 12.4819 392.776 12.3793 392.725C12.2767 392.674 12.1856 392.603 12.1115 392.516C12.0374 392.428 11.982 392.327 11.9486 392.217C11.9152 392.108 11.9046 391.992 11.9173 391.879C11.9301 391.765 11.9659 391.655 12.0227 391.555C12.0795 391.456 12.1561 391.369 12.2476 391.3C12.3392 391.232 12.4438 391.182 12.5551 391.155C12.6664 391.128 12.7821 391.125 12.8949 391.144C24.0186 392.478 57.4698 413.031 65.6326 435.786C65.7012 435.996 65.6854 436.225 65.5883 436.424C65.4912 436.623 65.3206 436.777 65.1124 436.853C65.0237 436.89 64.9284 436.908 64.8323 436.906Z" fill="white"/>
<path d="M53.3074 418.713C53.2459 418.727 53.1821 418.727 53.1206 418.713C53.0153 418.678 52.9179 418.623 52.8339 418.551C52.75 418.478 52.6813 418.39 52.6317 418.291C52.5821 418.191 52.5526 418.083 52.545 417.973C52.5373 417.862 52.5517 417.751 52.5871 417.646C56.4017 406.416 54.5345 398.746 54.5211 398.666C54.4931 398.56 54.4865 398.45 54.5016 398.341C54.5167 398.233 54.5532 398.128 54.6091 398.034C54.6649 397.94 54.739 397.857 54.8269 397.792C54.9149 397.726 55.0149 397.679 55.1213 397.653C55.2282 397.625 55.3395 397.618 55.449 397.633C55.5585 397.648 55.6639 397.684 55.7593 397.74C55.8547 397.796 55.9382 397.87 56.0049 397.958C56.0717 398.046 56.1204 398.146 56.1483 398.253C56.2283 398.586 58.1623 406.456 54.1877 418.193C54.1168 418.363 53.9927 418.506 53.834 418.599C53.6753 418.693 53.4906 418.733 53.3074 418.713Z" fill="white"/>
<path d="M62.7244 432.091C62.5854 432.094 62.4479 432.062 62.3243 431.998C55.7888 428.45 41.6107 430.984 41.464 431.011C41.2451 431.046 41.0211 430.995 40.8394 430.868C40.6577 430.741 40.5325 430.548 40.4903 430.331C40.469 430.222 40.4694 430.11 40.4914 430.002C40.5134 429.893 40.5567 429.79 40.6186 429.699C40.6806 429.607 40.7601 429.528 40.8525 429.467C40.9449 429.407 41.0485 429.365 41.1572 429.344C41.7707 429.237 56.0689 426.676 63.1246 430.518C63.2862 430.608 63.4136 430.749 63.4867 430.919C63.5599 431.089 63.5749 431.279 63.5292 431.458C63.4836 431.638 63.38 431.797 63.2344 431.912C63.0889 432.026 62.9096 432.089 62.7244 432.091Z" fill="white"/>
<path d="M66.8714 411.697C67.2582 411.537 68.472 385.355 57.2149 369.937C45.9578 354.518 32.2999 352.718 23.3235 356.519C14.3472 360.32 16.2011 369.457 27.2448 374.979C38.2885 380.5 52.0265 390.157 55.2542 407.749L66.8714 411.697Z" fill="#BA68C8"/>
<g opacity="0.1">
<path d="M66.8714 411.697C67.2582 411.537 68.472 385.355 57.2149 369.937C45.9578 354.518 32.2999 352.718 23.3235 356.519C14.3472 360.32 16.2011 369.457 27.2448 374.979C38.2885 380.5 52.0265 390.157 55.2542 407.749L66.8714 411.697Z" fill="black"/>
</g>
<path d="M62.7232 404.029C62.5231 404.031 62.3291 403.96 62.1771 403.83C62.025 403.7 61.9253 403.52 61.8962 403.322C57.6681 376.726 41.8895 363.708 28.6451 360.374C28.4296 360.32 28.2442 360.184 28.1292 359.994C28.0143 359.804 27.9792 359.576 28.0315 359.36C28.0882 359.144 28.2275 358.958 28.4196 358.843C28.6117 358.729 28.8411 358.694 29.0586 358.747C42.8765 362.201 59.1887 375.659 63.5501 403.055C63.5848 403.274 63.5313 403.498 63.4013 403.678C63.2714 403.858 63.0755 403.979 62.8565 404.015L62.7232 404.029Z" fill="white"/>
<path d="M64.8308 460.314C63.1235 453.405 56.1745 448.856 47.9718 448.11C39.4489 447.336 29.5256 446.509 26.8981 439.307C24.2705 432.104 26.8981 422.368 25.6977 417.579C24.2305 411.791 22.0164 408.336 10.826 404.828C0.795988 401.681 -4.75254 392.091 5.35752 388.036C11.7212 385.634 18.681 385.302 25.2442 387.089C29.4723 388.169 33.5136 389.917 37.7817 390.85C39.7608 391.265 41.7663 391.541 43.7837 391.677C46.1178 391.837 48.4519 391.05 50.8127 391.197C56.8814 391.584 62.3233 395.759 65.1909 401.12C67.2049 404.895 66.7514 409.123 66.6047 413.258C66.458 417.393 66.2846 421.567 66.1379 425.729C65.7911 434.745 65.4488 443.77 65.1109 452.804L64.8308 460.314Z" fill="#BA68C8"/>
<path d="M64.8323 436.906C64.659 436.907 64.4897 436.853 64.3485 436.753C64.2073 436.652 64.1013 436.51 64.0454 436.346C56.0427 414.165 23.5251 394.092 12.7082 392.811C12.5938 392.805 12.4819 392.776 12.3793 392.725C12.2767 392.674 12.1856 392.603 12.1115 392.516C12.0374 392.428 11.982 392.327 11.9486 392.217C11.9152 392.108 11.9046 391.992 11.9173 391.879C11.9301 391.765 11.9659 391.655 12.0227 391.555C12.0795 391.456 12.1561 391.369 12.2476 391.3C12.3392 391.232 12.4438 391.182 12.5551 391.155C12.6664 391.128 12.7821 391.125 12.8949 391.144C24.0186 392.478 57.4698 413.031 65.6326 435.786C65.7012 435.996 65.6854 436.225 65.5883 436.424C65.4912 436.623 65.3206 436.777 65.1124 436.853C65.0237 436.89 64.9284 436.908 64.8323 436.906Z" fill="white"/>
<path d="M53.3074 418.714C53.2459 418.728 53.1821 418.728 53.1206 418.714C53.0153 418.679 52.9179 418.624 52.8339 418.552C52.75 418.479 52.6813 418.391 52.6317 418.292C52.5821 418.192 52.5526 418.084 52.545 417.974C52.5373 417.863 52.5517 417.752 52.5871 417.647C56.4017 406.417 54.5345 398.747 54.5211 398.667C54.4931 398.561 54.4865 398.451 54.5016 398.342C54.5167 398.234 54.5532 398.129 54.6091 398.035C54.6649 397.941 54.739 397.858 54.8269 397.793C54.9149 397.727 55.0149 397.68 55.1213 397.654C55.2282 397.626 55.3395 397.619 55.449 397.634C55.5585 397.649 55.6639 397.685 55.7593 397.741C55.8547 397.797 55.9382 397.871 56.0049 397.959C56.0717 398.047 56.1204 398.147 56.1483 398.254C56.2283 398.587 58.1623 406.457 54.1877 418.194C54.1168 418.364 53.9927 418.507 53.834 418.6C53.6753 418.694 53.4906 418.734 53.3074 418.714Z" fill="white"/>
<path d="M62.7244 432.091C62.5854 432.094 62.4479 432.062 62.3243 431.998C55.7888 428.45 41.6107 430.984 41.464 431.011C41.2451 431.046 41.0211 430.995 40.8394 430.868C40.6577 430.741 40.5325 430.548 40.4903 430.331C40.469 430.222 40.4694 430.11 40.4914 430.002C40.5134 429.893 40.5567 429.79 40.6186 429.699C40.6806 429.607 40.7601 429.528 40.8525 429.467C40.9449 429.407 41.0485 429.365 41.1572 429.344C41.7707 429.237 56.0689 426.676 63.1246 430.518C63.2862 430.608 63.4136 430.749 63.4867 430.919C63.5599 431.089 63.5749 431.279 63.5292 431.458C63.4836 431.638 63.38 431.797 63.2344 431.912C63.0889 432.026 62.9096 432.089 62.7244 432.091Z" fill="white"/>
<path d="M67.7262 467.69C66.9304 467.139 66.2746 466.409 65.8114 465.559C65.3482 464.709 65.0904 463.763 65.0586 462.795V188.037C65.113 187.034 65.4036 186.058 65.9065 185.189C66.4095 184.32 67.1106 183.582 67.9529 183.035L381.778 1.80083C382.612 1.29126 383.568 1.01638 384.546 1.00524C385.523 0.994088 386.486 1.24708 387.331 1.7375C388.177 2.22791 388.874 2.93756 389.35 3.7915C389.826 4.64544 390.062 5.61199 390.034 6.5891V281.348C389.98 282.351 389.689 283.326 389.186 284.195C388.683 285.065 387.982 285.803 387.14 286.349L73.328 467.583C72.4685 468.041 71.5132 468.289 70.5399 468.307C69.5665 468.326 68.6025 468.114 67.7262 467.69Z" fill="#BA68C8"/>
<path opacity="0.4" d="M390.034 6.12189C389.834 4.62805 388.621 4.0812 387.18 4.92148L73.3283 186.116C72.4715 186.654 71.7613 187.397 71.2609 188.276L65.9258 185.142C66.415 184.266 67.1168 183.528 67.9665 182.994L381.778 1.80044C382.573 1.27655 383.494 0.974894 384.444 0.92675C385.395 0.878606 386.342 1.08573 387.185 1.52664C388.029 1.96755 388.739 2.62618 389.243 3.4342C389.746 4.24223 390.024 5.17021 390.048 6.12189H390.034Z" fill="white"/>
<path d="M72.7815 467.837H72.6615C72.5729 467.884 72.4788 467.92 72.3814 467.943L72.168 468.01C72.0387 468.057 71.9044 468.088 71.7678 468.103C71.6795 468.117 71.5895 468.117 71.5011 468.103H71.0609C69.9212 468.259 68.7612 468.059 67.7398 467.53C66.9418 466.981 66.2843 466.252 65.8209 465.401C65.3574 464.551 65.1009 463.603 65.0723 462.635V222.194L70.5008 225.329V465.889C70.5008 467.223 71.1543 467.957 72.1013 467.957C72.2295 467.975 72.3598 467.975 72.4881 467.957H72.5548C72.6348 467.926 72.7108 467.885 72.7815 467.837Z" fill="#F0F0F0"/>
<path opacity="0.1" d="M71.2601 188.276C70.7416 189.136 70.4523 190.114 70.4198 191.117V225.328L64.9913 222.194V187.996C64.9847 187.88 64.9847 187.765 64.9913 187.649C65.0183 187.407 65.0584 187.167 65.1114 186.929C65.2687 186.303 65.5111 185.702 65.8316 185.142L71.2601 188.276Z" fill="black"/>
<path d="M390.033 6.58858V22.0204L160.009 154.838C158.422 155.759 157.128 155.012 157.128 153.171V147.329C157.128 145.488 155.795 144.742 154.234 145.662L84.1705 186.115C83.3265 186.664 82.6243 187.404 82.1212 188.275C81.6182 189.147 81.3286 190.125 81.2762 191.13V196.972C81.2212 197.973 80.9318 198.948 80.4314 199.816C79.931 200.685 79.2336 201.424 78.3953 201.974L70.3926 206.562V191.13C70.4476 190.129 70.737 189.155 71.2374 188.286C71.7378 187.418 72.4352 186.679 73.2735 186.129L387.192 4.92136C388.779 4.00105 390.033 4.74797 390.033 6.58858Z" fill="#BA68C8"/>
<path d="M390.034 281.374C389.98 282.377 389.689 283.352 389.186 284.222C388.683 285.091 387.982 285.829 387.14 286.376L73.3282 467.583C71.741 468.503 70.4473 467.756 70.4473 465.916V206.549L78.4499 201.961C80.0371 201.04 82.6247 187.036 84.2252 186.115L153.115 146.342C154.715 145.422 158.45 155.759 160.064 154.838L390.034 22.0205V281.374Z" fill="#FAFAFA"/>
<path d="M390.034 22.0205V40.8001L70.4473 225.329V206.549L76.3826 203.135C77.9698 202.214 78.5033 200.814 79.2636 198.133L81.2776 191.13C81.9044 188.703 82.6113 187.049 84.1719 186.129L153.062 146.355C154.662 145.435 155.916 145.328 157.063 147.342L159.53 151.824C160.437 153.398 160.864 154.318 162.478 153.398L390.034 22.0205Z" fill="#E6E6E6"/>
<path d="M376.536 16.2594C378.55 15.1124 380.177 16.046 380.177 18.3668C380.111 19.6292 379.746 20.8578 379.113 21.952C378.48 23.0463 377.597 23.975 376.536 24.6622C374.535 25.8093 372.908 24.8756 372.908 22.5549C372.973 21.2937 373.336 20.0658 373.966 18.9717C374.597 17.8775 375.478 16.9481 376.536 16.2594Z" fill="white"/>
<path d="M366.013 29.4797C367.431 27.0237 367.432 24.3698 366.016 23.5521C364.6 22.7345 362.302 24.0627 360.884 26.5187C359.466 28.9748 359.464 31.6287 360.881 32.4463C362.297 33.264 364.595 31.9358 366.013 29.4797Z" fill="white"/>
<path d="M350.366 31.3434C352.38 30.1964 354.007 31.13 354.007 33.4508C353.941 34.7131 353.576 35.9418 352.943 37.036C352.31 38.1303 351.427 39.059 350.366 39.7462C348.365 40.8933 346.738 39.9596 346.738 37.6388C346.803 36.3777 347.166 35.1498 347.797 34.0557C348.427 32.9615 349.308 32.0321 350.366 31.3434Z" fill="white"/>
<path opacity="0.5" d="M83.6915 207.91L79.1567 210.577L80.8906 207.256C80.9595 207.131 80.9956 206.991 80.9956 206.849C80.9956 206.707 80.9595 206.567 80.8906 206.442C80.7572 206.282 80.5305 206.442 80.3838 206.682L77.9296 211.364C77.9016 211.419 77.8792 211.478 77.8629 211.537V211.604C77.8563 211.684 77.8563 211.764 77.8629 211.844C77.8556 211.915 77.8556 211.987 77.8629 212.058C77.8772 212.098 77.8999 212.134 77.9296 212.164L80.3971 214.058C80.4317 214.084 80.4738 214.098 80.5171 214.098C80.5604 214.098 80.6025 214.084 80.6372 214.058C80.7587 213.972 80.8516 213.851 80.9039 213.711C81.0373 213.405 81.024 213.058 80.9039 212.938L79.17 211.604L83.7049 208.937C83.8197 208.843 83.9118 208.725 83.9742 208.591C84.0366 208.457 84.0676 208.311 84.065 208.163C84.0517 207.95 83.8916 207.789 83.6915 207.91Z" fill="#455A64"/>
<path opacity="0.5" d="M87.4794 205.722L92.0143 203.055L90.2804 201.721C90.1336 201.601 90.1203 201.254 90.2804 200.947C90.4404 200.641 90.6405 200.481 90.7872 200.601L93.2547 202.495C93.2612 202.53 93.2612 202.566 93.2547 202.601C93.262 202.672 93.262 202.744 93.2547 202.815C93.2612 202.895 93.2612 202.975 93.2547 203.055C93.2547 203.055 93.2547 203.055 93.2547 203.121C93.2601 203.179 93.2601 203.237 93.2547 203.295L90.7872 208.03C90.7364 208.145 90.6529 208.242 90.5471 208.31C90.5104 208.343 90.4629 208.361 90.4137 208.361C90.3645 208.361 90.317 208.343 90.2804 208.31C90.2115 208.185 90.1753 208.045 90.1753 207.903C90.1753 207.761 90.2115 207.621 90.2804 207.496L92.0143 204.175L87.4794 206.843C87.2794 206.963 87.1193 206.843 87.1193 206.496C87.1166 206.348 87.1477 206.202 87.2101 206.068C87.2725 205.933 87.3646 205.815 87.4794 205.722Z" fill="#455A64"/>
<path opacity="0.5" d="M102.35 192.665C102.35 192.398 102.083 192.425 101.963 192.665L101.336 194.172C100.283 194.065 99.0022 195.092 98.1352 196.933C97.0148 199.307 97.0148 202.121 98.1352 203.202C98.4071 203.453 98.7577 203.603 99.1274 203.624C99.4971 203.646 99.8629 203.539 100.163 203.322C101.073 202.72 101.783 201.861 102.203 200.854C102.278 200.734 102.317 200.595 102.317 200.454C102.317 200.313 102.278 200.174 102.203 200.054C102.057 199.921 101.83 200.054 101.683 200.347C100.856 202.121 99.4823 202.922 98.642 202.108C97.8018 201.294 97.8151 199.2 98.642 197.426C99.2422 196.093 100.109 195.412 100.856 195.372L100.389 196.519C100.256 196.813 100.389 197.093 100.563 196.96L102.417 195.759C102.488 195.696 102.543 195.618 102.577 195.53C102.612 195.442 102.626 195.347 102.617 195.252L102.35 192.665Z" fill="#455A64"/>
<path opacity="0.5" d="M151.074 154.919L152.728 151.411C152.822 151.246 152.871 151.06 152.871 150.871C152.871 150.681 152.822 150.495 152.728 150.331C152.528 150.144 152.208 150.331 152.021 150.731L150.367 154.239L148.713 152.638C148.513 152.451 148.207 152.638 148.007 153.051C147.906 153.216 147.854 153.405 147.854 153.598C147.854 153.791 147.906 153.98 148.007 154.145L149.66 155.732L148.007 159.227C147.906 159.392 147.854 159.581 147.854 159.774C147.854 159.967 147.906 160.156 148.007 160.321C148.058 160.361 148.121 160.382 148.187 160.382C148.252 160.382 148.315 160.361 148.367 160.321C148.521 160.209 148.642 160.057 148.713 159.88L150.367 156.386L152.021 157.973C152.071 158.012 152.132 158.033 152.195 158.033C152.257 158.033 152.319 158.012 152.368 157.973C152.527 157.869 152.652 157.721 152.728 157.546C152.822 157.379 152.871 157.191 152.871 156.999C152.871 156.808 152.822 156.62 152.728 156.453L151.074 154.919Z" fill="#455A64"/>
<path d="M108.365 196.972V191.13C108.421 190.13 108.711 189.156 109.211 188.287C109.712 187.419 110.409 186.679 111.246 186.129L370.947 36.2651C372.534 35.3448 373.827 36.0917 373.827 37.9323V43.7743C373.772 44.7753 373.483 45.7495 372.983 46.6182C372.482 47.487 371.785 48.2261 370.947 48.776L111.273 198.639C109.659 199.56 108.365 198.813 108.365 196.972Z" fill="#FAFAFA"/>
<path d="M367.012 49.2296C366.928 49.2449 366.842 49.2449 366.758 49.2296C366.598 49.1553 366.468 49.0294 366.388 48.8722C366.309 48.715 366.284 48.5356 366.318 48.3626L366.598 45.9885L365.491 45.1882C365.391 45.1125 365.31 45.0133 365.257 44.8994C365.203 44.7856 365.179 44.6603 365.184 44.5347C365.188 44.3432 365.233 44.1548 365.316 43.9822C365.398 43.8096 365.517 43.6568 365.665 43.5343L367.359 42.2006C367.392 42.1626 367.415 42.1166 367.425 42.0672L368.185 39.573C368.236 39.3717 368.343 39.1892 368.495 39.0473C368.646 38.9054 368.835 38.8101 369.039 38.7728C369.178 38.7613 369.317 38.7938 369.437 38.8655C369.557 38.9373 369.651 39.0448 369.706 39.1729L370.346 40.5067L371.773 39.9598C371.904 39.9042 372.049 39.8911 372.188 39.9222C372.327 39.9533 372.452 40.0271 372.547 40.1332C372.66 40.308 372.72 40.5118 372.72 40.7201C372.72 40.9283 372.66 41.1321 372.547 41.3069L371.36 43.5877C371.36 43.6544 371.36 43.7211 371.36 43.7344L371.64 45.8151C371.657 46.0042 371.634 46.1948 371.572 46.3742C371.51 46.5536 371.41 46.7177 371.28 46.8555C371.197 46.9488 371.094 47.0215 370.978 47.0679C370.862 47.1142 370.737 47.1328 370.613 47.1222L369.279 46.9488L367.785 48.8561C367.701 48.9812 367.585 49.0817 367.449 49.1473C367.313 49.2129 367.162 49.2413 367.012 49.2296ZM366.198 44.4146L367.305 45.2149C367.42 45.3109 367.507 45.4353 367.559 45.5758C367.61 45.7163 367.624 45.8678 367.599 46.0152L367.359 47.589L368.359 46.2553C368.443 46.1332 368.557 46.0347 368.69 45.9694C368.823 45.904 368.971 45.8738 369.119 45.8818L370.453 46.0552C370.46 46.0066 370.46 45.9571 370.453 45.9085L370.159 43.8144C370.135 43.5565 370.186 43.297 370.306 43.0675L371.387 41.0535L370.279 41.4803C370.115 41.5472 369.93 41.547 369.766 41.4797C369.601 41.4124 369.47 41.2834 369.399 41.1202L368.906 40.0665L368.225 42.2806C368.151 42.5248 368.007 42.7424 367.812 42.9075L366.118 44.2413C366.118 44.2742 366.125 44.3068 366.139 44.3368C366.153 44.3667 366.173 44.3933 366.198 44.4146Z" fill="#E0E0E0"/>
<g opacity="0.5">
<path d="M377.229 35.5588C377.021 35.549 376.821 35.4747 376.658 35.3462C376.494 35.2177 376.375 35.0414 376.316 34.8418C376.257 34.6422 376.262 34.4293 376.33 34.2327C376.398 34.0361 376.526 33.8656 376.695 33.7449L384.818 29.05C385.048 28.9173 385.321 28.8814 385.578 28.9502C385.834 29.019 386.052 29.1868 386.185 29.4167C386.318 29.6467 386.354 29.9199 386.285 30.1763C386.216 30.4327 386.048 30.6512 385.818 30.7839L377.696 35.4788C377.549 35.5424 377.389 35.5699 377.229 35.5588Z" fill="#455A64"/>
<path d="M377.229 40.2541C377.009 40.2529 376.796 40.1793 376.622 40.0447C376.448 39.9101 376.324 39.7219 376.268 39.5094C376.211 39.2968 376.227 39.0717 376.311 38.8688C376.396 38.6659 376.545 38.4965 376.736 38.3868L384.858 33.7453C384.972 33.6796 385.098 33.637 385.228 33.6198C385.359 33.6027 385.491 33.6115 385.618 33.6455C385.745 33.6796 385.864 33.7383 385.968 33.8184C386.072 33.8984 386.16 33.9982 386.226 34.1121C386.291 34.2259 386.334 34.3516 386.351 34.4819C386.368 34.6122 386.359 34.7446 386.325 34.8716C386.291 34.9985 386.232 35.1175 386.152 35.2218C386.072 35.326 385.973 35.4135 385.859 35.4792L377.736 40.1741C377.575 40.2387 377.402 40.266 377.229 40.2541Z" fill="#455A64"/>
<path d="M377.229 44.9486C377.006 44.9565 376.786 44.8895 376.606 44.7581C376.425 44.6267 376.293 44.4386 376.232 44.2237C376.17 44.0088 376.183 43.7796 376.267 43.5725C376.351 43.3655 376.502 43.1925 376.696 43.0813L384.818 38.3864C385.044 38.2634 385.309 38.2322 385.558 38.2992C385.806 38.3663 386.019 38.5265 386.152 38.7465C386.271 38.9747 386.298 39.2395 386.229 39.4871C386.16 39.7348 385.999 39.9468 385.779 40.0803L377.656 44.7752C377.527 44.8613 377.382 44.9203 377.229 44.9486Z" fill="#455A64"/>
</g>
<path d="M70.4461 206.549V225.328L65.0176 222.194V203.428L70.4461 206.549Z" fill="#E0E0E0"/>
<path d="M84.1716 273.718L143.405 239.506C144.992 238.586 146.286 239.333 146.286 241.174V409.683C146.231 410.684 145.941 411.659 145.441 412.527C144.941 413.396 144.243 414.135 143.405 414.685L84.1583 448.883C82.5711 449.803 81.2773 449.057 81.2773 447.216V278.719C81.3318 277.717 81.6223 276.741 82.1253 275.872C82.6282 275.003 83.3294 274.265 84.1716 273.718Z" fill="#F0F0F0"/>
<path d="M95.0017 279.974L132.614 258.273C134.215 257.353 135.509 258.007 135.509 259.74C135.429 260.703 135.126 261.633 134.623 262.457C134.121 263.282 133.433 263.977 132.614 264.489L95.0017 286.229C93.4012 287.15 92.1074 286.496 92.1074 284.762C92.1799 283.793 92.4797 282.854 92.9826 282.022C93.4854 281.19 94.1772 280.489 95.0017 279.974Z" fill="#E0E0E0"/>
<path d="M92.1074 296.152V298.407C92.1074 299.514 92.881 299.954 93.8413 299.407L95.802 298.273C96.306 297.944 96.7255 297.501 97.0267 296.979C97.3278 296.458 97.5023 295.873 97.5359 295.272V293.018C97.5359 291.911 96.749 291.471 95.802 292.018L93.8413 293.151C93.3359 293.479 92.9153 293.922 92.6139 294.444C92.3125 294.965 92.1389 295.551 92.1074 296.152Z" fill="#FAFAFA"/>
<path d="M102.949 291.017C102.949 292.751 104.283 293.405 105.83 292.484L132.506 277.053C133.332 276.537 134.025 275.833 134.528 274.998C135.031 274.164 135.33 273.223 135.4 272.251C135.4 270.53 134.066 269.877 132.506 270.797L105.83 286.229C105.009 286.746 104.32 287.449 103.82 288.28C103.319 289.112 103.021 290.049 102.949 291.017Z" fill="#E0E0E0"/>
<path d="M92.1074 308.677V310.931C92.1074 312.038 92.881 312.478 93.8413 311.931L95.802 310.798C96.306 310.468 96.7255 310.025 97.0267 309.504C97.3278 308.982 97.5023 308.398 97.5359 307.797V305.543C97.5359 304.435 96.749 303.995 95.802 304.542L93.8413 305.676C93.3359 306.004 92.9153 306.446 92.6139 306.968C92.3125 307.49 92.1389 308.075 92.1074 308.677Z" fill="#FAFAFA"/>
<path d="M102.949 303.542C102.949 305.276 104.283 305.929 105.83 305.009L132.506 289.577C133.332 289.061 134.025 288.357 134.528 287.523C135.031 286.688 135.33 285.747 135.4 284.775C135.4 283.055 134.066 282.401 132.506 283.322L105.83 298.753C105.009 299.27 104.32 299.973 103.82 300.805C103.319 301.636 103.021 302.574 102.949 303.542Z" fill="#E0E0E0"/>
<path d="M92.1074 321.174V323.428C92.1074 324.535 92.881 324.989 93.8413 324.429L95.802 323.308C96.3045 322.977 96.7229 322.534 97.0239 322.013C97.3249 321.492 97.5002 320.908 97.5359 320.307V318.053C97.5359 316.946 96.749 316.493 95.802 317.053L93.8413 318.173C93.3366 318.502 92.9166 318.945 92.6153 319.466C92.314 319.988 92.14 320.573 92.1074 321.174Z" fill="#FAFAFA"/>
<path d="M102.949 316.053C102.949 317.773 104.283 318.427 105.83 317.506L132.506 302.075C133.33 301.56 134.022 300.858 134.525 300.026C135.028 299.194 135.328 298.256 135.4 297.286C135.4 295.552 134.066 294.899 132.506 295.819L105.83 311.251C105.007 311.769 104.317 312.474 103.817 313.308C103.316 314.142 103.019 315.082 102.949 316.053Z" fill="#E0E0E0"/>
<path d="M92.1074 333.671V335.925C92.1074 337.032 92.881 337.486 93.8413 336.926L95.802 335.805C96.3045 335.475 96.7229 335.031 97.0239 334.51C97.3249 333.989 97.5002 333.405 97.5359 332.804V330.55C97.5359 329.443 96.749 328.99 95.802 329.55L93.8413 330.67C93.3366 330.999 92.9166 331.442 92.6153 331.963C92.314 332.485 92.14 333.07 92.1074 333.671Z" fill="#FAFAFA"/>
<path d="M102.949 328.51C102.949 330.23 104.283 330.884 105.83 329.964L132.506 314.532C133.33 314.017 134.022 313.315 134.525 312.483C135.028 311.651 135.328 310.713 135.4 309.743C135.4 308.01 134.066 307.356 132.506 308.276L105.83 323.708C105.007 324.226 104.317 324.931 103.817 325.765C103.316 326.599 103.019 327.54 102.949 328.51Z" fill="#E0E0E0"/>
<path d="M94.7732 348.903L132.332 327.176C133.933 326.255 135.227 326.909 135.227 328.643C135.154 329.612 134.854 330.551 134.352 331.383C133.849 332.215 133.157 332.916 132.332 333.431L94.7732 355.185C93.1727 356.105 91.8789 355.452 91.8789 353.718C91.9473 352.744 92.2452 351.8 92.7482 350.963C93.2513 350.126 93.9452 349.42 94.7732 348.903Z" fill="#E0E0E0"/>
<path d="M91.8789 365.096V367.35C91.8789 368.444 92.6525 368.897 93.6128 368.35L95.5601 367.217C96.0656 366.889 96.4862 366.446 96.7876 365.924C97.089 365.403 97.2625 364.817 97.2941 364.216V361.961C97.2941 360.854 96.5205 360.414 95.5601 360.961L93.6128 362.095C93.1074 362.423 92.6867 362.865 92.3854 363.387C92.084 363.909 91.9104 364.494 91.8789 365.096Z" fill="#FAFAFA"/>
<path d="M102.711 359.961C102.711 361.695 104.045 362.348 105.605 361.428L132.281 345.983C133.105 345.468 133.797 344.766 134.3 343.934C134.803 343.103 135.103 342.164 135.175 341.195C135.175 339.461 133.841 338.807 132.281 339.727L105.605 355.173C104.781 355.687 104.089 356.389 103.586 357.221C103.083 358.053 102.783 358.991 102.711 359.961Z" fill="#E0E0E0"/>
<path d="M91.8789 377.619V379.873C91.8789 380.98 92.6525 381.421 93.6128 380.874L95.5601 379.74C96.0656 379.412 96.4862 378.969 96.7876 378.448C97.089 377.926 97.2625 377.341 97.2941 376.739V374.485C97.2941 373.378 96.5205 372.938 95.5601 373.485L93.6128 374.618C93.1074 374.946 92.6867 375.389 92.3854 375.91C92.084 376.432 91.9104 377.018 91.8789 377.619Z" fill="#FAFAFA"/>
<path d="M102.711 372.524C102.711 374.258 104.045 374.912 105.605 373.992L132.281 358.546C133.131 358.04 133.846 357.337 134.369 356.497C134.891 355.657 135.204 354.704 135.282 353.718C135.282 351.984 133.948 351.331 132.388 352.251L105.712 367.696C104.862 368.202 104.146 368.905 103.624 369.745C103.102 370.585 102.789 371.538 102.711 372.524Z" fill="#E0E0E0"/>
<path d="M91.8789 390.117V392.371C91.8789 393.478 92.6525 393.932 93.6128 393.371L95.5601 392.251C96.0634 391.921 96.4823 391.478 96.7834 390.956C97.0845 390.435 97.2594 389.851 97.2941 389.25V386.983C97.2941 385.889 96.5205 385.435 95.5601 385.996L93.6128 387.116C93.1074 387.444 92.6867 387.887 92.3854 388.408C92.084 388.93 91.9104 389.515 91.8789 390.117Z" fill="#FAFAFA"/>
<path d="M102.711 384.995C102.711 386.716 104.045 387.37 105.605 386.449L132.281 371.017C133.107 370.501 133.8 369.798 134.303 368.963C134.806 368.129 135.105 367.187 135.175 366.216C135.175 364.495 133.841 363.842 132.281 364.762L105.605 380.194C104.779 380.71 104.086 381.414 103.583 382.248C103.08 383.082 102.781 384.024 102.711 384.995Z" fill="#E0E0E0"/>
<path d="M91.8789 402.615V404.869C91.8789 405.976 92.6525 406.429 93.6128 405.869L95.5601 404.749C96.0634 404.419 96.4823 403.975 96.7834 403.454C97.0845 402.933 97.2594 402.349 97.2941 401.748V399.494C97.2941 398.387 96.5205 397.933 95.5601 398.493L93.6128 399.614C93.1081 399.942 92.688 400.385 92.3868 400.907C92.0855 401.428 91.9115 402.013 91.8789 402.615Z" fill="#FAFAFA"/>
<path d="M102.711 397.493C102.711 399.214 104.045 399.868 105.605 398.947L132.281 383.515C133.107 382.999 133.8 382.296 134.303 381.461C134.806 380.627 135.105 379.686 135.175 378.714C135.175 376.993 133.841 376.34 132.281 377.26L105.605 392.692C104.779 393.208 104.086 393.912 103.583 394.746C103.08 395.581 102.781 396.522 102.711 397.493Z" fill="#E0E0E0"/>
<path d="M287.16 216.153V219.247C287.16 221.088 288.494 221.835 290.041 220.901L365.546 176.966C366.384 176.413 367.081 175.671 367.581 174.8C368.082 173.93 368.371 172.954 368.427 171.951V169.284C368.427 167.443 367.094 166.696 365.533 167.617L290.001 211.138C289.168 211.694 288.478 212.437 287.984 213.308C287.491 214.179 287.209 215.153 287.16 216.153Z" fill="#E0E0E0"/>
<path d="M290 229.916L376.336 180.073C377.923 179.153 379.217 179.806 379.217 181.54C379.145 182.508 378.846 183.446 378.346 184.277C377.846 185.109 377.157 185.812 376.336 186.329L290 236.172C288.413 237.092 287.119 236.439 287.119 234.718C287.189 233.748 287.486 232.808 287.987 231.974C288.487 231.14 289.177 230.435 290 229.916Z" fill="#EBEBEB"/>
<path d="M290 242.428L376.336 192.584C377.923 191.664 379.217 192.317 379.217 194.038C379.147 195.008 378.849 195.948 378.349 196.783C377.848 197.617 377.159 198.321 376.336 198.84L290 248.683C288.413 249.603 287.119 248.95 287.119 247.216C287.191 246.248 287.489 245.311 287.99 244.479C288.49 243.647 289.179 242.945 290 242.428Z" fill="#EBEBEB"/>
<path d="M290 254.925L376.336 205.082C377.923 204.162 379.217 204.815 379.217 206.549C379.145 207.517 378.846 208.454 378.346 209.286C377.846 210.118 377.157 210.82 376.336 211.337L290 261.181C288.413 262.101 287.119 261.447 287.119 259.727C287.189 258.757 287.486 257.817 287.987 256.982C288.487 256.148 289.177 255.444 290 254.925Z" fill="#EBEBEB"/>
<path d="M290 267.436L376.336 217.593C377.923 216.673 379.217 217.326 379.217 219.047C379.147 220.017 378.849 220.957 378.349 221.791C377.848 222.625 377.159 223.33 376.336 223.848L290 273.692C288.413 274.612 287.119 273.959 287.119 272.225C287.191 271.257 287.489 270.319 287.99 269.488C288.49 268.656 289.179 267.953 290 267.436Z" fill="#EBEBEB"/>
<path d="M290 279.934L376.336 230.091C377.923 229.17 379.217 229.824 379.217 231.558C379.145 232.526 378.846 233.463 378.346 234.295C377.846 235.126 377.157 235.829 376.336 236.346L290 286.19C288.413 287.11 287.119 286.456 287.119 284.736C287.189 283.765 287.486 282.825 287.987 281.991C288.487 281.157 289.177 280.452 290 279.934Z" fill="#EBEBEB"/>
<path d="M290 292.498L376.336 242.655C377.923 241.734 379.217 242.388 379.217 244.108C379.147 245.079 378.849 246.019 378.349 246.853C377.848 247.687 377.159 248.392 376.336 248.91L290 298.7C288.413 299.62 287.119 298.967 287.119 297.233C287.199 296.274 287.501 295.347 288.001 294.526C288.501 293.704 289.186 293.01 290 292.498Z" fill="#EBEBEB"/>
<path d="M290 304.942L376.376 255.152C377.963 254.232 379.257 254.885 379.257 256.619C379.185 257.589 378.886 258.528 378.386 259.362C377.886 260.196 377.197 260.901 376.376 261.421L290 311.171C288.413 312.091 287.119 311.438 287.119 309.717C287.193 308.752 287.492 307.817 287.993 306.988C288.493 306.158 289.18 305.458 290 304.942Z" fill="#EBEBEB"/>
<path d="M290 317.453L376.336 267.609C377.923 266.689 379.217 267.343 379.217 269.076C379.145 270.044 378.846 270.982 378.346 271.813C377.846 272.645 377.157 273.348 376.336 273.865L290 323.708C288.413 324.628 287.119 323.975 287.119 322.241C287.191 321.273 287.489 320.336 287.99 319.504C288.49 318.672 289.179 317.97 290 317.453Z" fill="#EBEBEB"/>
<path d="M160.01 286.229L273.381 220.741C274.968 219.82 276.262 220.567 276.262 222.408V334.606C276.207 335.607 275.918 336.581 275.417 337.449C274.917 338.318 274.219 339.057 273.381 339.607L160.01 405.096C158.423 406.016 157.129 405.269 157.129 403.429V291.231C157.184 290.23 157.473 289.256 157.974 288.387C158.474 287.518 159.172 286.779 160.01 286.229Z" fill="#F0F0F0"/>
<path d="M244.651 284.388L225.712 317.919L239.049 335.191L195.035 297.272L157.115 379.38V403.388C157.115 405.228 158.449 405.975 159.996 405.055L273.368 339.566C274.206 339.016 274.903 338.277 275.404 337.408C275.904 336.54 276.193 335.566 276.248 334.565V313.224L244.651 284.388Z" fill="#E0E0E0"/>
<path d="M249.226 249.817C253.947 247.15 257.762 249.31 257.762 254.752C257.603 257.715 256.747 260.599 255.264 263.169C253.781 265.74 251.712 267.924 249.226 269.544C244.504 272.211 240.689 270.064 240.689 264.622C240.848 261.657 241.704 258.771 243.187 256.199C244.67 253.626 246.739 251.44 249.226 249.817Z" fill="#E0E0E0"/>
<path d="M84.1583 229.917L376.376 61.2075C377.963 60.2872 379.257 61.0341 379.257 62.8747V93.7651C379.203 94.7678 378.912 95.7435 378.409 96.6127C377.906 97.4818 377.205 98.2199 376.363 98.7667L84.1583 267.45C82.5711 268.384 81.2773 267.637 81.2773 265.783V234.919C81.3324 233.918 81.6218 232.944 82.1222 232.075C82.6226 231.206 83.32 230.467 84.1583 229.917Z" fill="#E0E0E0"/>
<path d="M270.9 138.18V143.515C270.9 144.609 271.687 145.062 272.634 144.515L357.583 95.4722V86.1357L272.661 135.179C272.153 135.506 271.729 135.948 271.423 136.469C271.117 136.991 270.938 137.577 270.9 138.18Z" fill="#FAFAFA"/>
<path d="M366.692 80.8801C367.652 80.3332 368.426 80.7734 368.426 81.8804V87.2155C368.391 87.8164 368.216 88.4008 367.915 88.9219C367.614 89.443 367.195 89.8864 366.692 90.2165L357.582 95.4716V86.1352L366.692 80.8801Z" fill="#EBEBEB"/>
<path d="M366.025 88.2564L365.011 87.9497C365.118 87.5132 365.172 87.0653 365.171 86.6159C365.22 86.2048 365.16 85.7883 364.999 85.4071C364.837 85.026 364.58 84.6934 364.251 84.4418C364.027 84.3092 363.771 84.2393 363.511 84.2393C363.25 84.2393 362.995 84.3092 362.771 84.4418C362.127 84.9401 361.608 85.5818 361.256 86.3159C360.904 87.0499 360.729 87.856 360.743 88.6699C360.698 89.0808 360.758 89.4964 360.919 89.8771C361.081 90.2578 361.337 90.5907 361.664 90.844C361.864 90.9523 362.089 91.0074 362.317 91.004C362.609 90.9978 362.894 90.915 363.144 90.7639C363.917 90.2359 364.494 89.4668 364.785 88.5765L365.798 88.8833H365.918C365.999 88.8817 366.076 88.8552 366.141 88.8074C366.205 88.7596 366.254 88.6929 366.278 88.6166C366.276 88.5383 366.251 88.4625 366.206 88.3985C366.161 88.3345 366.098 88.2851 366.025 88.2564ZM362.771 90.2038C362.67 90.2822 362.549 90.3312 362.422 90.3453C362.295 90.3594 362.166 90.3381 362.05 90.2838C361.842 90.0937 361.682 89.8564 361.585 89.5918C361.487 89.3272 361.455 89.0431 361.49 88.7633C361.48 88.0816 361.624 87.4064 361.91 86.7877C362.196 86.169 362.618 85.6225 363.144 85.1887C363.281 85.1035 363.437 85.0532 363.597 85.042C363.697 85.0415 363.794 85.0692 363.878 85.1221C364.082 85.3147 364.238 85.5528 364.333 85.817C364.428 86.0812 364.459 86.364 364.424 86.6426C364.433 87.3234 364.287 87.9972 363.998 88.6139C363.71 89.2305 363.285 89.774 362.757 90.2038H362.771Z" fill="#FAFAFA"/>
<path d="M157.129 234.918V272.051C157.129 273.892 158.463 274.638 160.01 273.718L376.376 148.796C377.214 148.246 377.911 147.507 378.412 146.639C378.912 145.77 379.202 144.796 379.257 143.795V106.675C379.257 104.835 377.923 104.088 376.376 105.008L160.01 229.917C159.172 230.467 158.474 231.206 157.974 232.075C157.473 232.943 157.184 233.917 157.129 234.918Z" fill="#EBEBEB"/>
<path d="M132.748 505.209C131.95 504.659 131.293 503.93 130.83 503.079C130.367 502.229 130.11 501.282 130.08 500.314V225.555C130.136 224.554 130.426 223.58 130.926 222.712C131.427 221.843 132.123 221.104 132.961 220.553L446.786 39.3192C447.622 38.7947 448.586 38.5081 449.572 38.4902C450.559 38.4722 451.532 38.7237 452.387 39.2176C453.242 39.7114 453.945 40.4289 454.423 41.2928C454.9 42.1568 455.133 43.1345 455.096 44.1208V318.879C455.041 319.881 454.751 320.855 454.251 321.723C453.75 322.592 453.053 323.331 452.215 323.881L138.336 505.115C137.478 505.57 136.524 505.816 135.553 505.832C134.582 505.848 133.621 505.635 132.748 505.209Z" fill="#BA68C8"/>
<path d="M455.069 43.6404C454.869 42.1466 453.656 41.5997 452.215 42.44L138.337 223.647C137.49 224.19 136.789 224.932 136.296 225.808L130.881 222.674C131.37 221.798 132.072 221.059 132.922 220.526L446.8 39.319C447.595 38.7951 448.515 38.4934 449.466 38.4453C450.417 38.3972 451.363 38.6043 452.207 39.0452C453.051 39.4861 453.761 40.1447 454.264 40.9528C454.768 41.7608 455.046 42.6888 455.069 43.6404Z" fill="#455A64"/>
<path d="M137.789 505.355H137.669C137.581 505.403 137.487 505.439 137.389 505.462L137.176 505.529C137.047 505.576 136.912 505.607 136.776 505.622C136.687 505.636 136.597 505.636 136.509 505.622L136.069 505.689C134.929 505.845 133.769 505.645 132.748 505.115C131.95 504.567 131.292 503.837 130.829 502.987C130.365 502.136 130.109 501.189 130.08 500.22V259.727L135.509 262.861V503.435C135.509 504.769 136.162 505.502 137.109 505.502C137.237 505.521 137.368 505.521 137.496 505.502C137.6 505.468 137.699 505.419 137.789 505.355Z" fill="#F0F0F0"/>
<path d="M136.295 225.809C135.777 226.669 135.487 227.647 135.455 228.65V262.862L130.026 259.727V225.529C130.02 225.414 130.02 225.298 130.026 225.182C130.053 224.94 130.094 224.7 130.147 224.462C130.304 223.836 130.546 223.235 130.867 222.675L136.295 225.809Z" fill="#263238"/>
<path d="M455.094 44.1081V59.54L225.017 192.371C223.43 193.291 222.136 192.544 222.136 190.704V184.862C222.136 183.021 220.802 182.274 219.242 183.195L149.178 223.648C148.336 224.195 147.635 224.933 147.132 225.802C146.629 226.672 146.338 227.647 146.284 228.65V234.492C146.229 235.493 145.94 236.467 145.439 237.336C144.939 238.205 144.241 238.944 143.403 239.494L135.4 244.082V228.65C135.455 227.649 135.745 226.675 136.245 225.806C136.746 224.937 137.443 224.198 138.281 223.648L452.213 42.4409C453.8 41.5206 455.094 42.2675 455.094 44.1081Z" fill="#37474F"/>
<path d="M455.109 318.907C455.054 319.91 454.764 320.885 454.261 321.754C453.758 322.624 453.057 323.362 452.214 323.909L138.336 505.103C136.749 506.023 135.455 505.276 135.455 503.435V244.082L143.458 239.494C145.045 238.573 147.633 224.569 149.233 223.648L218.123 183.875C219.723 182.955 223.458 193.292 225.072 192.371L455.149 59.54V318.907H455.109Z" fill="#FAFAFA"/>
<path d="M455.095 59.54V78.3197L135.455 262.861V244.082L141.39 240.641C142.978 239.72 143.511 238.32 144.271 235.639L146.285 228.65C146.926 226.223 147.619 224.569 149.18 223.648L218.069 183.875C219.67 182.955 220.924 182.848 222.137 184.862L224.618 189.344C225.512 190.904 225.952 191.824 227.553 190.904L455.095 59.54Z" fill="#E6E6E6"/>
<path d="M444.116 59.4573C445.534 57.0012 445.535 54.3473 444.119 53.5297C442.703 52.712 440.405 54.0402 438.987 56.4963C437.569 58.9523 437.568 61.6062 438.984 62.4239C440.4 63.2415 442.698 61.9133 444.116 59.4573Z" fill="white"/>
<path d="M428.473 61.3268C430.474 60.1798 432.101 61.1134 432.101 63.4342C432.04 64.6999 431.679 65.9331 431.049 67.0323C430.418 68.1314 429.535 69.065 428.473 69.7563C426.459 70.9033 424.832 69.9697 424.832 67.6489C424.894 66.382 425.257 65.148 425.89 64.0488C426.523 62.9496 427.409 62.0166 428.473 61.3268Z" fill="white"/>
<path d="M415.376 68.8764C417.376 67.716 419.003 68.6497 419.003 70.9704C418.938 72.2316 418.576 73.4595 417.945 74.5536C417.315 75.6478 416.434 76.5772 415.376 77.2659C413.362 78.4263 411.734 77.4926 411.734 75.1718C411.801 73.9095 412.166 72.6809 412.799 71.5866C413.431 70.4923 414.315 69.5636 415.376 68.8764Z" fill="white"/>
<path opacity="0.5" d="M148.698 245.429L144.176 248.096L145.897 244.762C145.968 244.638 146.006 244.498 146.006 244.355C146.006 244.212 145.968 244.072 145.897 243.948C145.763 243.801 145.523 243.948 145.377 244.201L142.923 248.923C142.923 248.923 142.923 249.03 142.856 249.096C142.843 249.176 142.843 249.257 142.856 249.336C142.839 249.407 142.839 249.48 142.856 249.55L142.923 249.643L145.377 251.537C145.413 251.56 145.454 251.572 145.497 251.572C145.539 251.572 145.581 251.56 145.617 251.537C145.743 251.446 145.84 251.321 145.897 251.177C146.03 250.87 146.017 250.524 145.897 250.403L144.176 249.07L148.698 246.402C148.817 246.312 148.912 246.195 148.977 246.06C149.042 245.926 149.074 245.778 149.071 245.629C149.071 245.469 148.911 245.322 148.698 245.429Z" fill="#455A64"/>
<path opacity="0.5" d="M152.487 243.241L157.022 240.574L155.301 239.24C155.141 239.12 155.128 238.773 155.301 238.466C155.475 238.16 155.661 238 155.822 238.106L158.276 240L158.342 240.094C158.357 240.159 158.357 240.228 158.342 240.294C158.356 240.378 158.356 240.463 158.342 240.547C158.342 240.547 158.342 240.667 158.276 240.72L155.822 245.442C155.763 245.552 155.681 245.647 155.581 245.722C155.543 245.756 155.493 245.775 155.441 245.775C155.39 245.775 155.34 245.756 155.301 245.722C155.23 245.598 155.192 245.458 155.192 245.315C155.192 245.173 155.23 245.032 155.301 244.909L157.022 241.574L152.487 244.242C152.287 244.348 152.127 244.242 152.127 243.882C152.159 243.629 152.288 243.4 152.487 243.241Z" fill="#455A64"/>
<path opacity="0.5" d="M167.36 230.197C167.36 229.917 167.093 229.957 166.973 230.197L166.359 231.718C165.292 231.598 164.012 232.638 163.145 234.465C162.025 236.84 162.025 239.654 163.145 240.734C163.418 240.989 163.771 241.141 164.144 241.162C164.516 241.184 164.885 241.075 165.186 240.854C166.089 240.245 166.797 239.388 167.226 238.387C167.294 238.267 167.33 238.131 167.33 237.993C167.33 237.855 167.294 237.72 167.226 237.6C167.08 237.453 166.853 237.6 166.706 237.893C165.866 239.667 164.505 240.454 163.665 239.654C162.825 238.854 162.825 236.746 163.665 234.959C164.265 233.705 165.119 232.958 165.866 232.905L165.399 234.052C165.279 234.345 165.399 234.625 165.586 234.505L167.426 233.292C167.5 233.23 167.557 233.152 167.595 233.064C167.632 232.976 167.647 232.88 167.64 232.785L167.36 230.197Z" fill="#455A64"/>
<path opacity="0.5" d="M216.081 192.464L217.735 188.97C217.835 188.805 217.888 188.616 217.888 188.423C217.888 188.23 217.835 188.041 217.735 187.876C217.549 187.689 217.229 187.876 217.028 188.29L215.375 191.784L213.721 190.197C213.534 190.01 213.214 190.197 213.014 190.61C212.92 190.775 212.871 190.961 212.871 191.151C212.871 191.34 212.92 191.526 213.014 191.691L214.668 193.278L213.014 196.786C212.92 196.951 212.871 197.137 212.871 197.326C212.871 197.515 212.92 197.702 213.014 197.866C213.064 197.909 213.128 197.932 213.194 197.932C213.26 197.932 213.323 197.909 213.374 197.866C213.529 197.761 213.649 197.612 213.721 197.439L215.375 193.932L217.028 195.532C217.079 195.574 217.143 195.598 217.209 195.598C217.274 195.598 217.338 195.574 217.389 195.532C217.546 195.43 217.668 195.28 217.735 195.105C217.835 194.94 217.888 194.751 217.888 194.558C217.888 194.366 217.835 194.176 217.735 194.012L216.081 192.464Z" fill="#455A64"/>
<path d="M173.375 234.492V228.65C173.429 227.647 173.72 226.672 174.223 225.803C174.726 224.933 175.427 224.195 176.269 223.648L435.956 73.7583C437.557 72.838 438.851 73.5849 438.851 75.4255V81.2675C438.793 82.2694 438.501 83.2439 437.998 84.1126C437.496 84.9813 436.796 85.7199 435.956 86.2691L176.269 236.159C174.669 237.08 173.375 236.333 173.375 234.492Z" fill="#FAFAFA"/>
<path d="M432.035 86.7488C431.947 86.7628 431.857 86.7628 431.769 86.7488C431.609 86.6718 431.479 86.5429 431.402 86.383C431.324 86.2232 431.303 86.0419 431.342 85.8685L431.622 83.4944L430.501 82.6941C430.405 82.619 430.327 82.5215 430.276 82.41C430.225 82.2986 430.202 82.1764 430.208 82.0539C430.208 81.8613 430.25 81.6709 430.33 81.4959C430.411 81.3209 430.528 81.1655 430.675 81.0402L432.369 79.7065C432.406 79.6693 432.433 79.6234 432.449 79.5731L433.209 77.0922C433.256 76.8878 433.361 76.7015 433.513 76.5568C433.665 76.4121 433.856 76.3154 434.063 76.2786C434.2 76.2745 434.337 76.31 434.455 76.381C434.573 76.4519 434.668 76.5553 434.73 76.6788L435.356 78.0126L436.797 77.4657C436.925 77.4045 437.069 77.3883 437.207 77.4198C437.345 77.4513 437.469 77.5286 437.557 77.6391C437.676 77.8093 437.74 78.0118 437.74 78.2193C437.74 78.4268 437.676 78.6293 437.557 78.7995L436.33 81.1069C436.318 81.1506 436.318 81.1966 436.33 81.2403L436.624 83.3343C436.641 83.5234 436.618 83.714 436.556 83.8934C436.494 84.0728 436.394 84.2369 436.263 84.3747C436.177 84.4667 436.071 84.5375 435.953 84.5815C435.835 84.6254 435.708 84.6414 435.583 84.6281L434.249 84.4547L432.716 86.3887C432.638 86.4978 432.536 86.5872 432.418 86.6498C432.3 86.7123 432.169 86.7462 432.035 86.7488ZM431.208 81.9339L432.315 82.7341C432.436 82.8258 432.529 82.9492 432.583 83.0906C432.637 83.232 432.651 83.3857 432.622 83.5344L432.435 85.1083L433.436 83.7745C433.519 83.6519 433.633 83.5539 433.767 83.4905C433.9 83.4272 434.049 83.4009 434.196 83.4144L435.53 83.5878C435.547 83.5358 435.547 83.4797 435.53 83.4277L435.383 81.4004C435.346 81.1419 435.397 80.8785 435.53 80.6534L436.597 78.6394L435.503 79.0529C435.34 79.1207 435.157 79.1223 434.993 79.0576C434.829 78.9929 434.696 78.8669 434.623 78.7061L434.116 77.6391L433.449 79.8532C433.371 80.099 433.222 80.3168 433.022 80.4801L431.328 81.8138C431.276 81.8389 431.233 81.8812 431.208 81.9339Z" fill="#E0E0E0"/>
<g opacity="0.5">
<path d="M442.252 73.0781C442.031 73.0798 441.816 73.0083 441.64 72.8747C441.464 72.7412 441.337 72.5531 441.279 72.3398C441.221 72.1265 441.236 71.9001 441.32 71.6958C441.404 71.4916 441.554 71.321 441.745 71.2108L449.882 66.5292C450.107 66.4272 450.363 66.4126 450.599 66.4881C450.834 66.5636 451.034 66.7239 451.158 66.938C451.283 67.1521 451.323 67.4047 451.272 67.647C451.221 67.8894 451.082 68.1041 450.882 68.2498L442.746 72.9447C442.597 73.0335 442.426 73.0797 442.252 73.0781Z" fill="#455A64"/>
<path d="M442.252 77.7596C442.031 77.7613 441.816 77.6898 441.64 77.5563C441.464 77.4227 441.337 77.2346 441.279 77.0213C441.221 76.8081 441.236 76.5816 441.32 76.3774C441.404 76.1731 441.554 76.0026 441.745 75.8923L449.882 71.1974C450.111 71.0648 450.385 71.0289 450.641 71.0977C450.897 71.1665 451.116 71.3343 451.249 71.5642C451.381 71.7941 451.417 72.0673 451.348 72.3237C451.28 72.5801 451.112 72.7987 450.882 72.9313L442.746 77.6262C442.597 77.7151 442.426 77.7612 442.252 77.7596Z" fill="#455A64"/>
<path d="M442.252 82.4676C442.031 82.4693 441.816 82.3978 441.64 82.2643C441.464 82.1307 441.337 81.9426 441.279 81.7294C441.221 81.5161 441.236 81.2896 441.32 81.0854C441.404 80.8811 441.554 80.7106 441.745 80.6003L449.882 75.9054C450.111 75.7728 450.385 75.7369 450.641 75.8057C450.897 75.8745 451.116 76.0423 451.249 76.2722C451.381 76.5021 451.417 76.7753 451.348 77.0317C451.28 77.2881 451.112 77.5067 450.882 77.6393L442.746 82.3342C442.597 82.4231 442.426 82.4692 442.252 82.4676Z" fill="#455A64"/>
</g>
<path d="M135.454 244.082V262.862L130.025 259.727V240.961L135.454 244.082Z" fill="#E0E0E0"/>
<path d="M149.166 311.237L208.413 277.039C210 276.119 211.294 276.852 211.294 278.706V447.216C211.239 448.217 210.949 449.191 210.449 450.06C209.948 450.929 209.251 451.668 208.413 452.218L149.166 486.416C147.579 487.336 146.285 486.589 146.285 484.749V316.239C146.34 315.238 146.63 314.264 147.13 313.395C147.63 312.526 148.328 311.787 149.166 311.237Z" fill="#F0F0F0"/>
<path d="M160.01 317.493L197.569 295.806C199.169 294.886 200.463 295.539 200.463 297.26C200.393 298.231 200.094 299.173 199.591 300.007C199.088 300.841 198.395 301.545 197.569 302.061L160.01 323.749C158.409 324.669 157.115 324.015 157.115 322.281C157.188 321.312 157.488 320.374 157.99 319.542C158.493 318.71 159.185 318.008 160.01 317.493Z" fill="#E0E0E0"/>
<path d="M157.115 333.672V335.926C157.115 337.033 157.889 337.473 158.849 336.926L160.81 335.792C161.314 335.464 161.732 335.021 162.031 334.499C162.33 333.977 162.501 333.392 162.53 332.791V330.537C162.53 329.443 161.757 328.99 160.81 329.537L158.849 330.671C158.344 330.998 157.923 331.441 157.622 331.963C157.32 332.484 157.147 333.07 157.115 333.672Z" fill="#FAFAFA"/>
<path d="M167.959 328.509C167.959 330.243 169.293 330.897 170.84 329.977L197.516 314.545C198.342 314.029 199.035 313.325 199.538 312.49C200.041 311.656 200.339 310.715 200.41 309.743C200.41 308.023 199.076 307.369 197.516 308.289L170.84 323.721C170.019 324.238 169.33 324.941 168.83 325.772C168.329 326.604 168.031 327.542 167.959 328.509Z" fill="#E0E0E0"/>
<path d="M157.115 346.196V348.516C157.115 349.624 157.889 350.064 158.849 349.517L160.81 348.383C161.314 348.055 161.732 347.611 162.031 347.09C162.33 346.568 162.501 345.983 162.53 345.382V343.128C162.53 342.034 161.757 341.581 160.81 342.128L158.849 343.261C158.352 343.583 157.937 344.015 157.636 344.524C157.335 345.033 157.157 345.606 157.115 346.196Z" fill="#FAFAFA"/>
<path d="M167.959 341.06C167.959 342.794 169.293 343.448 170.84 342.527L197.516 327.096C198.342 326.579 199.035 325.876 199.538 325.041C200.041 324.207 200.339 323.266 200.41 322.294C200.41 320.573 199.076 319.92 197.516 320.84L170.84 336.272C170.019 336.789 169.33 337.492 168.83 338.323C168.329 339.155 168.031 340.092 167.959 341.06Z" fill="#E0E0E0"/>
<path d="M157.115 358.693V360.947C157.115 362.054 157.889 362.507 158.849 361.947L160.81 360.827C161.313 360.498 161.731 360.054 162.03 359.533C162.329 359.011 162.5 358.426 162.53 357.826V355.572C162.53 354.465 161.757 354.011 160.81 354.571L158.849 355.692C158.346 356.022 157.927 356.465 157.626 356.986C157.325 357.508 157.15 358.092 157.115 358.693Z" fill="#FAFAFA"/>
<path d="M167.959 353.571C167.959 355.292 169.293 355.945 170.84 355.025L197.516 339.593C198.34 339.078 199.032 338.377 199.535 337.545C200.038 336.713 200.337 335.774 200.41 334.805C200.41 333.071 199.076 332.417 197.516 333.338L170.84 348.77C170.017 349.288 169.327 349.993 168.827 350.827C168.326 351.661 168.029 352.601 167.959 353.571Z" fill="#E0E0E0"/>
<path d="M157.115 371.191V373.445C157.115 374.552 157.889 375.005 158.849 374.445L160.81 373.325C161.314 372.996 161.732 372.553 162.031 372.031C162.33 371.51 162.501 370.925 162.53 370.324V368.07C162.53 366.963 161.757 366.509 160.81 367.07L158.849 368.19C158.346 368.52 157.927 368.963 157.626 369.484C157.325 370.006 157.15 370.59 157.115 371.191Z" fill="#FAFAFA"/>
<path d="M167.959 366.068C167.959 367.789 169.293 368.442 170.84 367.522L197.516 352.09C198.34 351.576 199.032 350.874 199.535 350.042C200.038 349.21 200.337 348.271 200.41 347.302C200.41 345.568 199.076 344.915 197.516 345.835L170.84 361.267C170.017 361.785 169.327 362.49 168.827 363.324C168.326 364.158 168.029 365.098 167.959 366.068Z" fill="#E0E0E0"/>
<path d="M159.783 386.436L197.342 364.735C198.943 363.815 200.237 364.468 200.237 366.202C200.166 367.174 199.867 368.115 199.364 368.95C198.861 369.784 198.169 370.488 197.342 371.004L159.77 392.691C158.182 393.612 156.889 392.958 156.889 391.224C156.961 390.255 157.261 389.316 157.764 388.484C158.267 387.652 158.958 386.951 159.783 386.436Z" fill="#E0E0E0"/>
<path d="M156.889 402.614V404.868C156.889 405.976 157.662 406.416 158.623 405.869L160.57 404.735C161.075 404.407 161.496 403.965 161.797 403.443C162.099 402.921 162.272 402.336 162.304 401.734V399.48C162.304 398.373 161.53 397.933 160.57 398.48L158.623 399.613C158.117 399.941 157.697 400.384 157.395 400.906C157.094 401.427 156.92 402.013 156.889 402.614Z" fill="#FAFAFA"/>
<path d="M167.721 397.48C167.721 399.214 169.054 399.868 170.615 398.947L197.291 383.515C198.117 382.999 198.81 382.296 199.313 381.461C199.816 380.627 200.114 379.686 200.185 378.714C200.185 376.993 198.851 376.34 197.291 377.26L170.615 392.692C169.79 393.207 169.099 393.908 168.596 394.74C168.093 395.572 167.793 396.511 167.721 397.48Z" fill="#E0E0E0"/>
<path d="M156.889 415.205V417.46C156.889 418.567 157.662 419.007 158.623 418.46L160.57 417.326C161.075 416.998 161.496 416.556 161.797 416.034C162.099 415.512 162.272 414.927 162.304 414.325V412.004C162.304 410.897 161.53 410.457 160.57 411.004L158.623 412.138C158.108 412.472 157.682 412.925 157.38 413.459C157.078 413.993 156.91 414.592 156.889 415.205Z" fill="#FAFAFA"/>
<path d="M167.721 410.005C167.721 411.738 169.054 412.392 170.615 411.472L197.291 396.04C198.117 395.524 198.81 394.82 199.313 393.986C199.816 393.151 200.114 392.21 200.185 391.238C200.185 389.518 198.851 388.864 197.291 389.784L170.615 405.216C169.79 405.731 169.099 406.433 168.596 407.265C168.093 408.097 167.793 409.035 167.721 410.005Z" fill="#E0E0E0"/>
<path d="M156.889 427.636V429.877C156.889 430.984 157.662 431.437 158.623 430.877L160.57 429.757C161.075 429.428 161.495 428.985 161.796 428.464C162.097 427.942 162.271 427.357 162.304 426.756V424.542C162.304 423.434 161.53 422.981 160.57 423.541L158.623 424.662C158.121 424.987 157.703 425.426 157.402 425.943C157.101 426.459 156.925 427.039 156.889 427.636Z" fill="#FAFAFA"/>
<path d="M167.721 422.515C167.721 424.235 169.054 424.889 170.615 423.968L197.291 408.537C198.115 408.022 198.807 407.32 199.31 406.488C199.813 405.656 200.112 404.718 200.185 403.748C200.185 402.014 198.851 401.361 197.291 402.281L170.615 417.713C169.789 418.229 169.096 418.933 168.593 419.767C168.09 420.602 167.791 421.543 167.721 422.515Z" fill="#E0E0E0"/>
<path d="M156.889 440.134V442.388C156.889 443.495 157.662 443.949 158.623 443.389L160.57 442.268C161.075 441.94 161.495 441.497 161.796 440.975C162.097 440.454 162.271 439.869 162.304 439.267V437.013C162.304 435.906 161.53 435.453 160.57 436.013L158.623 437.133C158.118 437.462 157.698 437.905 157.397 438.426C157.095 438.948 156.921 439.533 156.889 440.134Z" fill="#FAFAFA"/>
<path d="M167.721 435.013C167.721 436.733 169.054 437.387 170.615 436.466L197.291 421.035C198.115 420.52 198.807 419.818 199.31 418.986C199.813 418.154 200.112 417.216 200.185 416.246C200.185 414.512 198.851 413.859 197.291 414.779L170.615 430.211C169.789 430.727 169.096 431.431 168.593 432.265C168.09 433.1 167.791 434.041 167.721 435.013Z" fill="#E0E0E0"/>
<path d="M352.168 253.672V256.766C352.168 258.607 353.502 259.354 355.049 258.42L430.554 214.485C431.392 213.932 432.089 213.19 432.589 212.319C433.089 211.449 433.379 210.473 433.435 209.47V206.803C433.435 204.949 432.101 204.202 430.541 205.136L355.049 248.71C354.214 249.254 353.518 249.986 353.017 250.848C352.517 251.71 352.226 252.677 352.168 253.672Z" fill="#E0E0E0"/>
<path d="M355.049 267.449L441.385 217.606C442.972 216.685 444.266 217.339 444.266 219.06C444.195 220.03 443.898 220.97 443.398 221.804C442.897 222.638 442.208 223.343 441.385 223.861L355.049 273.691C353.462 274.625 352.168 273.958 352.168 272.237C352.236 271.268 352.532 270.329 353.033 269.497C353.534 268.665 354.225 267.963 355.049 267.449Z" fill="#EBEBEB"/>
<path d="M355.049 279.947L441.385 230.103C442.972 229.183 444.266 229.837 444.266 231.571C444.193 232.538 443.895 233.476 443.395 234.308C442.894 235.139 442.206 235.842 441.385 236.359L355.049 286.202C353.462 287.123 352.168 286.469 352.168 284.748C352.236 283.778 352.532 282.837 353.033 282.002C353.534 281.168 354.224 280.464 355.049 279.947Z" fill="#EBEBEB"/>
<path d="M355.049 292.498L441.385 242.615C442.972 241.694 444.266 242.348 444.266 244.068C444.195 245.039 443.898 245.979 443.398 246.813C442.897 247.647 442.208 248.352 441.385 248.87L355.049 298.713C353.462 299.634 352.168 298.98 352.168 297.246C352.243 296.284 352.543 295.354 353.043 294.529C353.544 293.704 354.231 293.009 355.049 292.498Z" fill="#EBEBEB"/>
<path d="M355.049 304.956L441.385 255.152C442.972 254.232 444.266 254.885 444.266 256.619C444.193 257.587 443.895 258.525 443.395 259.356C442.894 260.188 442.206 260.891 441.385 261.408L355.049 311.171C353.462 312.091 352.168 311.438 352.168 309.717C352.242 308.753 352.541 307.82 353.042 306.993C353.542 306.166 354.23 305.468 355.049 304.956Z" fill="#EBEBEB"/>
<path d="M355.049 317.466L441.385 267.622C442.972 266.702 444.266 267.356 444.266 269.076C444.195 270.046 443.898 270.987 443.398 271.821C442.897 272.655 442.208 273.359 441.385 273.878L355.049 323.721C353.462 324.641 352.168 323.988 352.168 322.254C352.237 321.285 352.534 320.347 353.034 319.514C353.535 318.682 354.225 317.98 355.049 317.466Z" fill="#EBEBEB"/>
<path d="M355.049 329.963L441.385 280.12C442.972 279.2 444.266 279.853 444.266 281.587C444.193 282.555 443.895 283.493 443.395 284.324C442.894 285.156 442.206 285.858 441.385 286.375L355.049 336.219C353.462 337.139 352.168 336.486 352.168 334.765C352.236 333.794 352.532 332.853 353.033 332.019C353.534 331.184 354.224 330.48 355.049 329.963Z" fill="#EBEBEB"/>
<path d="M355.049 342.474L441.385 292.631C442.972 291.711 444.266 292.364 444.266 294.085C444.195 295.055 443.898 295.995 443.398 296.829C442.897 297.664 442.208 298.368 441.385 298.887L355.049 348.73C353.462 349.65 352.168 348.997 352.168 347.263C352.237 346.294 352.534 345.355 353.034 344.523C353.535 343.691 354.225 342.989 355.049 342.474Z" fill="#EBEBEB"/>
<path d="M355.049 354.972L441.385 305.129C442.972 304.208 444.266 304.862 444.266 306.596C444.193 307.564 443.895 308.501 443.395 309.333C442.894 310.165 442.206 310.867 441.385 311.384L355.049 361.228C353.462 362.148 352.168 361.494 352.168 359.774C352.236 358.803 352.532 357.862 353.033 357.028C353.534 356.193 354.224 355.489 355.049 354.972Z" fill="#EBEBEB"/>
<path d="M225.018 323.749L338.389 258.26C339.976 257.34 341.27 258.087 341.27 259.927V372.125C341.215 373.126 340.926 374.1 340.425 374.969C339.925 375.838 339.227 376.577 338.389 377.127L225.018 442.615C223.43 443.536 222.137 442.789 222.137 440.948V328.75C222.192 327.749 222.481 326.775 222.982 325.907C223.482 325.038 224.179 324.299 225.018 323.749Z" fill="#F0F0F0"/>
<path d="M309.686 321.908L290.733 355.453L304.071 372.712L260.056 334.793L222.137 416.9V440.908C222.137 442.749 223.471 443.496 225.018 442.575L338.389 377.087C339.227 376.537 339.925 375.798 340.425 374.929C340.926 374.06 341.215 373.086 341.27 372.085V350.745L309.686 321.908Z" fill="#E0E0E0"/>
<path d="M314.235 287.403C318.957 284.669 322.772 286.883 322.772 292.324C322.613 295.289 321.757 298.175 320.274 300.748C318.791 303.32 316.722 305.506 314.235 307.129C309.514 309.797 305.699 307.636 305.699 302.194C305.858 299.231 306.714 296.347 308.197 293.777C309.68 291.207 311.749 289.023 314.235 287.403Z" fill="#E0E0E0"/>
<path d="M149.166 267.45L441.384 98.7397C442.971 97.8194 444.265 98.5663 444.265 100.407V131.271C444.211 132.273 443.92 133.249 443.417 134.118C442.914 134.987 442.213 135.725 441.371 136.272L149.166 304.982C147.579 305.902 146.285 305.156 146.285 303.315V272.491C146.332 271.483 146.617 270.5 147.118 269.623C147.619 268.747 148.321 268.002 149.166 267.45Z" fill="#E0E0E0"/>
<path d="M335.908 175.712V181.047C335.908 182.154 336.682 182.594 337.642 182.048L422.591 133.004V123.668L337.642 172.724C337.138 173.051 336.719 173.492 336.418 174.011C336.116 174.53 335.942 175.113 335.908 175.712Z" fill="#FAFAFA"/>
<path d="M431.7 118.399C432.647 117.852 433.433 118.292 433.433 119.399V124.734C433.398 125.335 433.222 125.919 432.921 126.44C432.62 126.961 432.202 127.404 431.7 127.735L422.59 132.99V123.654L431.7 118.399Z" fill="#EBEBEB"/>
<path d="M431.021 125.776L430.007 125.456C430.115 125.019 430.169 124.571 430.167 124.122C430.213 123.711 430.152 123.295 429.991 122.915C429.83 122.534 429.574 122.201 429.247 121.948C429.017 121.824 428.757 121.766 428.496 121.78C428.235 121.795 427.982 121.88 427.767 122.028C427.122 122.523 426.603 123.162 426.251 123.894C425.899 124.626 425.724 125.43 425.739 126.243C425.694 126.653 425.754 127.069 425.916 127.45C426.077 127.83 426.333 128.163 426.66 128.417C426.855 128.527 427.075 128.587 427.3 128.59C427.598 128.587 427.89 128.499 428.14 128.337C428.913 127.808 429.49 127.039 429.781 126.149L430.794 126.469H430.914C430.995 126.468 431.073 126.441 431.137 126.393C431.202 126.346 431.25 126.279 431.275 126.202C431.292 126.113 431.276 126.02 431.229 125.941C431.182 125.862 431.108 125.803 431.021 125.776ZM427.767 127.71C427.664 127.791 427.541 127.841 427.411 127.855C427.282 127.869 427.151 127.847 427.033 127.79C426.829 127.597 426.673 127.359 426.578 127.095C426.483 126.831 426.452 126.548 426.486 126.269C426.476 125.587 426.62 124.912 426.906 124.294C427.192 123.675 427.614 123.128 428.14 122.695C428.278 122.613 428.434 122.567 428.594 122.561C428.691 122.556 428.789 122.579 428.874 122.628C429.078 122.821 429.234 123.059 429.329 123.323C429.424 123.587 429.455 123.87 429.421 124.148C429.433 124.831 429.291 125.507 429.005 126.126C428.718 126.745 428.295 127.291 427.767 127.723V127.71Z" fill="#FAFAFA"/>
<path d="M222.137 272.49V309.569C222.137 311.41 223.471 312.157 225.018 311.237L441.383 186.315C442.222 185.765 442.919 185.026 443.42 184.157C443.92 183.288 444.209 182.314 444.264 181.313V144.194C444.264 142.353 442.931 141.607 441.37 142.527L225.018 267.449C224.173 268.001 223.471 268.746 222.97 269.622C222.469 270.499 222.183 271.482 222.137 272.49Z" fill="#EBEBEB"/>
<path d="M197.889 508.57C197.529 500.141 190.7 482.908 181.484 472.318C172.267 461.728 158.156 454.285 148.513 458.047C139.536 461.541 141.017 473.452 152.407 480.908C163.798 488.364 180.83 497.62 186.259 511.104L197.155 527.483L197.889 508.57Z" fill="#BA68C8"/>
<path opacity="0.1" d="M197.889 508.57C197.529 500.141 190.7 482.908 181.484 472.318C172.267 461.728 158.156 454.285 148.513 458.047C139.536 461.541 141.017 473.452 152.407 480.908C163.798 488.364 180.83 497.62 186.259 511.104L197.155 527.483L197.889 508.57Z" fill="black"/>
<path d="M198.997 520.094C198.863 520.092 198.733 520.044 198.63 519.96C198.526 519.875 198.453 519.758 198.423 519.627C191.554 491.058 167.266 468.61 153.075 464.022C152.918 463.97 152.788 463.858 152.713 463.711C152.638 463.564 152.624 463.393 152.675 463.235C152.7 463.158 152.741 463.086 152.794 463.024C152.848 462.963 152.913 462.912 152.987 462.876C153.06 462.84 153.14 462.819 153.221 462.815C153.303 462.81 153.384 462.821 153.462 462.848C167.893 467.517 192.635 490.324 199.597 519.334C199.633 519.495 199.604 519.663 199.517 519.803C199.429 519.943 199.291 520.043 199.13 520.081C199.087 520.094 199.042 520.099 198.997 520.094Z" fill="white"/>
<path d="M195.474 538.727C193.913 534.032 187.791 526.443 178.135 520.374C167.465 513.705 154.207 510.918 150.952 505.476C147.031 498.94 152.406 492.378 163.116 493.258C173.827 494.139 193.153 507.93 197.061 529.631L195.474 538.727Z" fill="#BA68C8"/>
<path d="M197.316 533.659C197.197 533.654 197.082 533.616 196.985 533.547C196.888 533.478 196.813 533.383 196.769 533.272C186.899 508.957 167.706 501.088 158.943 500.315C158.862 500.31 158.782 500.288 158.709 500.252C158.636 500.215 158.572 500.164 158.52 500.101C158.467 500.039 158.428 499.967 158.404 499.889C158.381 499.811 158.374 499.729 158.383 499.648C158.389 499.567 158.412 499.488 158.449 499.416C158.486 499.345 158.538 499.281 158.6 499.229C158.662 499.177 158.733 499.137 158.81 499.113C158.888 499.089 158.969 499.08 159.05 499.087C168.746 499.941 187.846 507.997 197.916 532.805C197.978 532.958 197.978 533.128 197.916 533.28C197.853 533.433 197.734 533.554 197.583 533.619C197.496 533.645 197.406 533.659 197.316 533.659Z" fill="white"/>
<path d="M513.035 317.746C513.035 317.746 514.876 301.487 522.958 288.883C531.041 276.279 542.152 268.396 552.515 267.543C562.879 266.689 571.255 276.266 560.158 282.814C549.061 289.363 529.374 296.045 520.304 320.534L513.035 317.746Z" fill="#BA68C8"/>
<path opacity="0.1" d="M513.035 317.746C513.035 317.746 514.876 301.487 522.958 288.883C531.041 276.279 542.152 268.396 552.515 267.543C562.879 266.689 571.255 276.266 560.158 282.814C549.061 289.363 529.374 296.045 520.304 320.534L513.035 317.746Z" fill="black"/>
<path d="M516.077 313.518H515.957C515.89 313.49 515.829 313.45 515.778 313.398C515.727 313.347 515.687 313.286 515.66 313.219C515.632 313.152 515.619 313.08 515.619 313.008C515.62 312.936 515.635 312.864 515.663 312.798C526.6 285.855 547.421 274.612 556.89 272.437C556.961 272.418 557.036 272.413 557.109 272.423C557.182 272.434 557.252 272.459 557.314 272.498C557.377 272.537 557.431 272.588 557.473 272.649C557.515 272.71 557.543 272.779 557.557 272.851C557.573 272.921 557.575 272.993 557.563 273.064C557.55 273.135 557.524 273.203 557.486 273.263C557.447 273.324 557.397 273.377 557.339 273.418C557.28 273.459 557.214 273.489 557.144 273.504C547.807 275.652 527.454 286.696 516.69 313.211C516.636 313.323 516.547 313.414 516.436 313.469C516.325 313.525 516.198 313.542 516.077 313.518Z" fill="white"/>
<path d="M571.429 313.838C570.496 315.959 568.188 317.053 566.028 317.919C563.867 318.786 561.559 319.72 560.399 321.721C558.052 325.722 561.893 331.431 559.385 335.365C558.799 336.155 558.058 336.816 557.207 337.309C556.356 337.802 555.413 338.117 554.437 338.233C552.836 338.54 551.209 338.526 549.582 338.673C548.81 338.651 548.04 338.589 547.275 338.486C545.033 337.988 542.689 338.241 540.606 339.207C537.391 341.007 536.418 345.062 534.457 348.183C533.254 350.031 531.664 351.596 529.796 352.768C527.928 353.94 525.827 354.692 523.64 354.972C522.2 355.159 519.519 355.425 518.051 354.598C517.943 354.547 517.84 354.485 517.745 354.412C517.547 354.195 517.36 353.968 517.184 353.731C517.155 353.706 517.132 353.674 517.118 353.638C516.558 351.544 517.478 349.37 517.518 347.196C517.525 347.067 517.525 346.938 517.518 346.809C517.425 344.288 517.358 341.794 517.305 339.287C517.185 334.658 517.131 330.044 517.158 325.415C517.158 322.414 516.824 319.133 518.105 316.306C519.505 313.198 523 313.118 524.32 310.077C524.854 308.863 525.134 307.556 525.654 306.329C526.445 304.525 527.717 302.974 529.331 301.845C530.945 300.716 532.838 300.052 534.804 299.927C540.912 299.62 546.381 304.568 552.476 304.115C554.052 303.903 555.615 303.605 557.158 303.221C562.106 302.301 567.828 303.701 570.602 307.889C571.216 308.738 571.613 309.724 571.757 310.761C571.901 311.798 571.788 312.855 571.429 313.838Z" fill="#BA68C8"/>
<path d="M516.582 343.994C516.45 343.96 516.337 343.874 516.267 343.757C516.197 343.64 516.176 343.5 516.208 343.367C524.651 311.717 557.982 307.142 565.785 307.702C565.922 307.715 566.048 307.781 566.137 307.886C566.227 307.99 566.273 308.125 566.265 308.262C566.262 308.33 566.245 308.396 566.215 308.458C566.186 308.519 566.144 308.573 566.093 308.618C566.042 308.663 565.983 308.697 565.918 308.718C565.854 308.74 565.786 308.748 565.718 308.742C558.089 308.195 525.465 312.664 517.222 343.634C517.185 343.767 517.096 343.879 516.976 343.946C516.856 344.014 516.714 344.031 516.582 343.994Z" fill="white"/>
<path d="M553.623 327.962C553.522 327.938 553.43 327.887 553.356 327.816C550.278 325.151 546.65 323.197 542.731 322.092C538.812 320.988 534.698 320.761 530.682 321.427C530.544 321.446 530.404 321.411 530.292 321.329C530.18 321.247 530.104 321.124 530.081 320.987C530.062 320.849 530.097 320.709 530.179 320.597C530.262 320.485 530.384 320.41 530.521 320.387C534.701 319.693 538.982 319.93 543.058 321.083C547.135 322.236 550.906 324.276 554.103 327.055C554.2 327.153 554.254 327.285 554.254 327.422C554.254 327.56 554.2 327.692 554.103 327.789C554.043 327.855 553.968 327.905 553.884 327.935C553.8 327.965 553.711 327.975 553.623 327.962Z" fill="white"/>
<path d="M197.755 542.769C196.96 542.218 196.304 541.488 195.841 540.638C195.377 539.788 195.12 538.841 195.088 537.874V263.115C195.14 262.113 195.428 261.138 195.929 260.269C196.429 259.4 197.128 258.661 197.969 258.113L511.794 76.8794C512.629 76.3557 513.591 76.0692 514.577 76.0508C515.562 76.0323 516.534 76.2826 517.389 76.7748C518.243 77.267 518.947 77.9825 519.425 78.8445C519.903 79.7065 520.138 80.6825 520.103 81.6677V356.52C520.048 357.521 519.759 358.495 519.259 359.364C518.758 360.232 518.061 360.972 517.222 361.521L203.304 542.675C202.451 543.124 201.504 543.366 200.541 543.382C199.577 543.398 198.623 543.188 197.755 542.769Z" fill="#BA68C8"/>
<path opacity="0.4" d="M520.076 81.201C519.876 79.7071 518.662 79.1603 517.222 80.0006L203.303 261.208C202.456 261.75 201.756 262.492 201.263 263.369L195.848 260.234C196.359 259.349 197.089 258.609 197.968 258.087L511.807 76.8795C512.602 76.3556 513.522 76.054 514.473 76.0059C515.424 75.9577 516.37 76.1648 517.214 76.6057C518.057 77.0466 518.768 77.7053 519.271 78.5133C519.775 79.3213 520.053 80.2493 520.076 81.201Z" fill="white"/>
<path d="M202.797 542.915H202.677C202.589 542.962 202.494 542.998 202.397 543.022L202.184 543.088C202.054 543.135 201.92 543.166 201.783 543.182C201.695 543.196 201.605 543.196 201.517 543.182L201.077 543.249C199.937 543.405 198.777 543.204 197.755 542.675C196.957 542.126 196.3 541.397 195.836 540.546C195.373 539.696 195.117 538.748 195.088 537.78V297.286L200.516 300.421V540.994C200.516 542.328 201.17 543.062 202.117 543.062C202.245 543.081 202.375 543.081 202.504 543.062L202.797 542.915Z" fill="#F0F0F0"/>
<path opacity="0.1" d="M201.305 263.368C200.787 264.227 200.497 265.205 200.465 266.208V300.42L195.036 297.286V263.154C195.03 263.039 195.03 262.923 195.036 262.807C195.063 262.565 195.103 262.325 195.156 262.087C195.314 261.461 195.556 260.86 195.877 260.3L201.305 263.368Z" fill="black"/>
<path d="M520.105 81.6677V97.0995L290.001 229.931C288.414 230.851 287.12 230.104 287.12 228.263V222.422C287.12 220.581 285.787 219.834 284.226 220.754L214.163 261.208C213.32 261.755 212.619 262.493 212.116 263.362C211.613 264.231 211.323 265.207 211.268 266.209V272.051C211.213 273.053 210.924 274.027 210.424 274.895C209.923 275.764 209.226 276.503 208.387 277.053L200.385 281.641V266.209C200.44 265.208 200.729 264.234 201.23 263.366C201.73 262.497 202.427 261.758 203.266 261.208L517.224 80.0005C518.811 79.0935 520.105 79.8271 520.105 81.6677Z" fill="#BA68C8"/>
<path d="M520.116 356.519C520.061 357.522 519.771 358.497 519.268 359.366C518.765 360.236 518.064 360.974 517.221 361.521L203.303 542.661C201.716 543.582 200.422 542.835 200.422 540.994V281.64L208.425 277.052C210.012 276.132 212.599 262.127 214.2 261.207L283.09 221.42C284.69 220.5 288.425 230.85 290.039 229.93L520.116 97.0986V356.519Z" fill="#FAFAFA"/>
<path d="M214.187 348.784L273.42 314.585C275.021 313.665 276.315 314.412 276.315 316.253V484.749C276.26 485.752 275.97 486.727 275.467 487.597C274.964 488.466 274.263 489.204 273.42 489.751L214.187 523.962C212.587 524.883 211.293 524.136 211.293 522.295V353.852C211.337 352.838 211.623 351.849 212.126 350.967C212.629 350.086 213.336 349.337 214.187 348.784Z" fill="#F0F0F0"/>
<path d="M225.018 355.039L262.59 333.351C264.191 332.431 265.471 333.085 265.471 334.819C265.402 335.787 265.105 336.726 264.605 337.558C264.104 338.39 263.414 339.092 262.59 339.607L225.018 361.307C223.43 362.228 222.137 361.561 222.137 359.84C222.207 358.87 222.504 357.93 223.004 357.096C223.505 356.262 224.195 355.557 225.018 355.039Z" fill="#E0E0E0"/>
<path d="M222.137 371.191V373.445C222.137 374.538 222.91 374.992 223.871 374.445L225.818 373.311C226.323 372.984 226.744 372.541 227.045 372.019C227.347 371.497 227.52 370.912 227.552 370.31V368.056C227.552 366.949 226.778 366.509 225.818 367.056L223.871 368.19C223.365 368.517 222.945 368.96 222.643 369.482C222.342 370.003 222.168 370.589 222.137 371.191Z" fill="#BA68C8"/>
<path d="M232.969 366.096C232.969 367.83 234.303 368.483 235.863 367.563L262.539 352.118C263.36 351.601 264.049 350.898 264.549 350.066C265.049 349.235 265.348 348.297 265.42 347.329C265.42 345.595 264.086 344.942 262.539 345.862L235.863 361.294C235.037 361.81 234.344 362.514 233.841 363.348C233.338 364.183 233.039 365.124 232.969 366.096Z" fill="#E0E0E0"/>
<path d="M222.137 383.755V386.009C222.137 387.103 222.91 387.556 223.871 387.009L225.818 385.876C226.323 385.548 226.744 385.105 227.045 384.584C227.347 384.062 227.52 383.476 227.552 382.875V380.621C227.552 379.514 226.778 379.073 225.818 379.62L223.871 380.754C223.365 381.082 222.945 381.525 222.643 382.046C222.342 382.568 222.168 383.153 222.137 383.755Z" fill="#BA68C8"/>
<path d="M232.969 378.62C232.969 380.354 234.303 381.008 235.863 380.087L262.539 364.642C263.36 364.125 264.049 363.422 264.549 362.591C265.049 361.759 265.348 360.822 265.42 359.854C265.42 358.12 264.086 357.466 262.539 358.387L235.863 373.818C235.037 374.335 234.344 375.038 233.841 375.873C233.338 376.707 233.039 377.648 232.969 378.62Z" fill="#E0E0E0"/>
<path d="M222.137 396.253V398.507C222.137 399.614 222.91 400.054 223.871 399.507L225.818 398.387C226.321 398.057 226.74 397.613 227.041 397.092C227.342 396.571 227.517 395.987 227.552 395.386V393.118C227.552 392.025 226.778 391.571 225.818 392.118L223.871 393.252C223.365 393.579 222.945 394.022 222.643 394.544C222.342 395.065 222.168 395.651 222.137 396.253Z" fill="#BA68C8"/>
<path d="M232.969 391.118C232.969 392.852 234.303 393.505 235.863 392.585L262.539 377.153C263.362 376.635 264.051 375.93 264.552 375.096C265.052 374.262 265.35 373.322 265.42 372.352C265.42 370.631 264.086 369.977 262.539 370.898L235.863 386.33C235.038 386.844 234.347 387.546 233.844 388.378C233.341 389.21 233.041 390.148 232.969 391.118Z" fill="#E0E0E0"/>
<path d="M222.137 408.75V411.004C222.137 412.111 222.91 412.564 223.871 412.004L225.818 410.884C226.321 410.554 226.74 410.11 227.041 409.589C227.342 409.068 227.517 408.484 227.552 407.883V405.615C227.552 404.522 226.778 404.068 225.818 404.615L223.871 405.749C223.365 406.076 222.945 406.519 222.643 407.041C222.342 407.563 222.168 408.148 222.137 408.75Z" fill="#BA68C8"/>
<path d="M232.969 403.615C232.969 405.349 234.303 406.002 235.863 405.082L262.539 389.65C263.362 389.132 264.051 388.427 264.552 387.593C265.052 386.759 265.35 385.819 265.42 384.849C265.42 383.128 264.086 382.474 262.539 383.395L235.863 398.827C235.038 399.341 234.347 400.043 233.844 400.875C233.341 401.707 233.041 402.646 232.969 403.615Z" fill="#E0E0E0"/>
<path d="M224.791 423.982L262.364 402.295C263.951 401.374 265.245 402.028 265.245 403.762C265.173 404.73 264.874 405.667 264.374 406.499C263.874 407.331 263.185 408.033 262.364 408.55L224.791 430.237C223.191 431.158 221.91 430.504 221.91 428.784C221.98 427.813 222.277 426.873 222.778 426.039C223.278 425.205 223.968 424.5 224.791 423.982Z" fill="#E0E0E0"/>
<path d="M221.977 440.161V442.415C221.977 443.522 222.75 443.975 223.697 443.415L225.658 442.295C226.163 441.967 226.584 441.524 226.885 441.002C227.187 440.481 227.36 439.895 227.392 439.294V437.04C227.392 435.933 226.618 435.479 225.658 436.039L223.697 437.16C223.197 437.492 222.781 437.936 222.483 438.457C222.184 438.978 222.011 439.561 221.977 440.161Z" fill="#BA68C8"/>
<path d="M232.74 435.039C232.74 436.76 234.074 437.413 235.621 436.493L262.363 421.061C263.185 420.544 263.873 419.841 264.374 419.01C264.874 418.178 265.172 417.241 265.244 416.273C265.244 414.539 263.911 413.885 262.363 414.806L235.621 430.237C234.798 430.756 234.108 431.46 233.608 432.295C233.108 433.129 232.81 434.069 232.74 435.039Z" fill="#E0E0E0"/>
<path d="M221.977 452.684V454.938C221.977 456.045 222.75 456.499 223.697 455.938L225.658 454.818C226.163 454.49 226.584 454.047 226.885 453.526C227.187 453.004 227.36 452.419 227.392 451.817V449.563C227.392 448.456 226.618 448.002 225.658 448.563L223.697 449.683C223.197 450.015 222.781 450.46 222.483 450.98C222.184 451.501 222.011 452.085 221.977 452.684Z" fill="#BA68C8"/>
<path d="M232.74 447.563C232.74 449.284 234.074 449.938 235.621 449.017L262.363 433.585C263.185 433.068 263.873 432.366 264.374 431.534C264.874 430.702 265.172 429.765 265.244 428.797C265.244 427.063 263.911 426.41 262.363 427.33L235.621 442.762C234.798 443.28 234.108 443.985 233.608 444.819C233.108 445.653 232.81 446.593 232.74 447.563Z" fill="#E0E0E0"/>
<path d="M221.977 465.195V467.45C221.977 468.557 222.75 468.997 223.697 468.45L225.658 467.316C226.163 466.988 226.584 466.546 226.885 466.024C227.187 465.502 227.36 464.917 227.392 464.315V462.061C227.392 460.954 226.618 460.514 225.658 461.061L223.697 462.194C223.195 462.524 222.777 462.968 222.479 463.489C222.18 464.011 222.008 464.595 221.977 465.195Z" fill="#BA68C8"/>
<path d="M232.74 460.06C232.74 461.794 234.074 462.448 235.621 461.527L262.363 446.096C263.187 445.577 263.876 444.872 264.377 444.038C264.877 443.204 265.174 442.264 265.244 441.294C265.244 439.573 263.911 438.92 262.363 439.84L235.621 455.219C234.793 455.741 234.1 456.452 233.599 457.293C233.098 458.135 232.804 459.083 232.74 460.06Z" fill="#E0E0E0"/>
<path d="M221.977 477.693V479.948C221.977 481.055 222.75 481.495 223.697 480.948L225.658 479.814C226.163 479.486 226.584 479.044 226.885 478.522C227.187 478 227.36 477.415 227.392 476.813V474.559C227.392 473.452 226.618 473.012 225.658 473.559L223.697 474.692C223.195 475.023 222.777 475.466 222.479 475.988C222.18 476.509 222.008 477.093 221.977 477.693Z" fill="#BA68C8"/>
<path d="M232.74 472.558C232.74 474.292 234.074 474.946 235.621 474.025L262.363 458.594C263.187 458.075 263.876 457.371 264.377 456.536C264.877 455.702 265.174 454.762 265.244 453.792C265.244 452.071 263.911 451.418 262.363 452.338L235.621 467.77C234.8 468.287 234.111 468.99 233.611 469.821C233.11 470.653 232.812 471.59 232.74 472.558Z" fill="#E0E0E0"/>
<path d="M417.176 291.23V294.325C417.176 296.165 418.51 296.912 420.057 295.979L495.562 251.964C496.4 251.414 497.098 250.675 497.598 249.806C498.099 248.937 498.388 247.963 498.443 246.962V244.295C498.443 242.454 497.109 241.707 495.562 242.627L420.07 286.215C419.226 286.763 418.524 287.504 418.021 288.375C417.518 289.247 417.228 290.225 417.176 291.23Z" fill="#BA68C8"/>
<path d="M420.07 304.996L506.392 255.152C507.993 254.232 509.287 254.885 509.287 256.619C509.214 257.589 508.914 258.527 508.411 259.359C507.909 260.191 507.217 260.893 506.392 261.408L420.07 311.251C418.47 312.171 417.176 311.518 417.176 309.797C417.246 308.826 417.545 307.884 418.048 307.05C418.551 306.215 419.244 305.512 420.07 304.996Z" fill="#E6E6E6"/>
<path d="M420.07 317.507L506.392 267.663C507.993 266.743 509.287 267.397 509.287 269.117C509.216 270.089 508.917 271.03 508.414 271.865C507.911 272.699 507.219 273.403 506.392 273.919L420.07 323.762C418.47 324.682 417.176 324.029 417.176 322.295C417.248 321.326 417.548 320.387 418.051 319.555C418.554 318.723 419.245 318.021 420.07 317.507Z" fill="#E6E6E6"/>
<path d="M420.07 330.004L506.392 280.161C507.993 279.241 509.287 279.894 509.287 281.628C509.214 282.598 508.914 283.536 508.411 284.368C507.909 285.2 507.217 285.902 506.392 286.416L420.07 336.26C418.47 337.18 417.176 336.527 417.176 334.806C417.246 333.834 417.545 332.893 418.048 332.059C418.551 331.224 419.244 330.52 420.07 330.004Z" fill="#E6E6E6"/>
<path d="M420.07 342.515L506.392 292.671C507.993 291.751 509.287 292.404 509.287 294.125C509.216 295.097 508.917 296.038 508.414 296.872C507.911 297.707 507.219 298.411 506.392 298.927L420.07 348.77C418.47 349.69 417.176 349.037 417.176 347.303C417.248 346.333 417.548 345.395 418.051 344.563C418.554 343.731 419.245 343.029 420.07 342.515Z" fill="#E6E6E6"/>
<path d="M420.07 355.012L506.392 305.169C507.993 304.249 509.287 304.902 509.287 306.636C509.214 307.605 508.914 308.544 508.411 309.376C507.909 310.208 507.217 310.91 506.392 311.424L420.07 361.268C418.47 362.188 417.176 361.534 417.176 359.814C417.246 358.842 417.545 357.901 418.048 357.066C418.551 356.232 419.244 355.528 420.07 355.012Z" fill="#E6E6E6"/>
<path d="M420.07 367.523L506.392 317.68C507.993 316.76 509.287 317.413 509.287 319.134C509.216 320.105 508.917 321.047 508.414 321.881C507.911 322.715 507.219 323.419 506.392 323.935L420.07 373.779C418.47 374.699 417.176 374.046 417.176 372.312C417.248 371.342 417.548 370.404 418.051 369.572C418.554 368.74 419.245 368.038 420.07 367.523Z" fill="#E6E6E6"/>
<path d="M420.07 380.02L506.392 330.177C507.993 329.256 509.287 329.91 509.287 331.644C509.214 332.613 508.914 333.552 508.411 334.384C507.909 335.216 507.217 335.917 506.392 336.432L420.07 386.275C418.47 387.196 417.176 386.542 417.176 384.822C417.246 383.85 417.545 382.909 418.048 382.074C418.551 381.24 419.244 380.536 420.07 380.02Z" fill="#E6E6E6"/>
<path d="M420.07 392.532L506.392 342.689C507.993 341.768 509.287 342.422 509.287 344.143C509.216 345.114 508.917 346.056 508.414 346.89C507.911 347.724 507.219 348.428 506.392 348.944L420.07 398.788C418.47 399.708 417.176 399.054 417.176 397.32C417.248 396.351 417.548 395.412 418.051 394.58C418.554 393.749 419.245 393.047 420.07 392.532Z" fill="#E6E6E6"/>
<path d="M290 361.294L403.371 295.819C404.972 294.899 406.265 295.645 406.265 297.486V409.684C406.211 410.686 405.92 411.662 405.417 412.531C404.915 413.4 404.213 414.138 403.371 414.685L290 480.161C288.399 481.081 287.105 480.334 287.105 478.493V366.296C287.16 365.293 287.45 364.317 287.953 363.448C288.456 362.579 289.158 361.841 290 361.294Z" fill="#BA68C8"/>
<path opacity="0.8" d="M290 361.294L403.371 295.819C404.972 294.899 406.265 295.645 406.265 297.486V409.684C406.211 410.686 405.92 411.662 405.417 412.531C404.915 413.4 404.213 414.138 403.371 414.685L290 480.161C288.399 481.081 287.105 480.334 287.105 478.493V366.296C287.16 365.293 287.45 364.317 287.953 363.448C288.456 362.579 289.158 361.841 290 361.294Z" fill="white"/>
<path d="M374.709 359.467L355.756 392.998L369.094 410.27L325.079 372.351L287.146 454.459V478.467C287.146 480.307 288.48 481.054 290.041 480.134L403.412 414.659C404.254 414.112 404.956 413.374 405.458 412.505C405.961 411.635 406.252 410.66 406.306 409.657V388.316L374.709 359.467Z" fill="#BA68C8"/>
<path d="M379.257 324.948C383.965 322.281 387.793 324.428 387.793 329.883C387.631 332.846 386.774 335.729 385.291 338.298C383.808 340.868 381.741 343.053 379.257 344.675C374.535 347.409 370.707 345.195 370.707 339.753C370.866 336.787 371.724 333.9 373.209 331.327C374.695 328.755 376.767 326.569 379.257 324.948Z" fill="#BA68C8"/>
<path d="M214.187 304.995L506.392 136.286C507.992 135.365 509.286 136.112 509.286 137.953V168.83C509.234 169.832 508.946 170.807 508.446 171.676C507.945 172.545 507.246 173.284 506.405 173.832L214.187 342.528C212.587 343.448 211.293 342.701 211.293 340.861V309.997C211.347 308.994 211.638 308.019 212.141 307.15C212.644 306.28 213.345 305.542 214.187 304.995Z" fill="#455A64"/>
<path d="M400.918 213.258V218.593C400.918 219.686 401.705 220.14 402.652 219.593L487.614 170.537V161.2L402.652 210.243C402.148 210.576 401.728 211.021 401.427 211.545C401.126 212.068 400.952 212.655 400.918 213.258Z" fill="#FAFAFA"/>
<path d="M496.735 155.959C497.695 155.399 498.469 155.852 498.469 156.959V162.295C498.437 162.896 498.264 163.482 497.963 164.003C497.661 164.525 497.241 164.968 496.735 165.296L487.639 170.551V161.214L496.735 155.959Z" fill="#BA68C8"/>
<path d="M496.042 163.335L495.028 163.015C495.13 162.578 495.184 162.13 495.188 161.681C495.234 161.271 495.172 160.856 495.008 160.477C494.845 160.098 494.585 159.768 494.255 159.521C494.025 159.398 493.766 159.339 493.505 159.351C493.245 159.363 492.992 159.444 492.774 159.587C492.128 160.083 491.608 160.725 491.256 161.459C490.904 162.194 490.729 163.001 490.747 163.815C490.701 164.226 490.763 164.641 490.927 165.02C491.091 165.398 491.351 165.728 491.681 165.976C491.874 166.092 492.095 166.152 492.321 166.149C492.617 166.143 492.906 166.06 493.161 165.909C493.931 165.372 494.507 164.6 494.802 163.709L495.815 164.029H495.922C496.002 164.032 496.08 164.009 496.145 163.963C496.211 163.918 496.259 163.851 496.282 163.775C496.304 163.685 496.291 163.59 496.247 163.509C496.203 163.428 496.13 163.366 496.042 163.335ZM492.734 165.282C492.626 165.35 492.502 165.386 492.374 165.386C492.247 165.386 492.122 165.35 492.014 165.282C491.81 165.092 491.654 164.857 491.559 164.595C491.464 164.333 491.433 164.052 491.467 163.775C491.456 163.093 491.599 162.418 491.886 161.799C492.172 161.18 492.594 160.634 493.121 160.201C493.257 160.114 493.413 160.063 493.575 160.054C493.669 160.054 493.762 160.082 493.841 160.134C494.048 160.322 494.206 160.557 494.301 160.82C494.396 161.083 494.426 161.365 494.388 161.641C494.412 162.335 494.275 163.024 493.989 163.656C493.702 164.288 493.272 164.844 492.734 165.282Z" fill="#FAFAFA"/>
<path d="M287.146 309.997V347.182C287.146 349.023 288.48 349.77 290.041 348.85L506.393 223.941C507.236 223.394 507.937 222.656 508.44 221.787C508.943 220.918 509.233 219.942 509.288 218.939V181.794C509.288 179.953 507.954 179.206 506.393 180.126L290.001 304.995C289.166 305.546 288.473 306.286 287.977 307.155C287.481 308.024 287.196 308.997 287.146 309.997Z" fill="#BA68C8"/>
<path opacity="0.7" d="M287.146 309.997V347.182C287.146 349.023 288.48 349.77 290.041 348.85L506.393 223.941C507.236 223.394 507.937 222.656 508.44 221.787C508.943 220.918 509.233 219.942 509.288 218.939V181.794C509.288 179.953 507.954 179.206 506.393 180.126L290.001 304.995C289.166 305.546 288.473 306.286 287.977 307.155C287.481 308.024 287.196 308.997 287.146 309.997Z" fill="white"/>
<path d="M520.103 97.0986V115.878L200.463 300.42V281.64L206.398 278.199C207.985 277.279 208.519 275.879 209.279 273.198L211.293 266.209C211.933 263.781 212.627 262.127 214.188 261.207L283.077 221.42C284.678 220.5 285.932 220.407 287.145 222.421L289.613 226.902C290.52 228.463 290.947 229.383 292.56 228.463L520.103 97.0986Z" fill="#E6E6E6"/>
<path d="M506.552 91.351C508.566 90.1906 510.193 91.1243 510.193 93.445C510.126 94.7074 509.762 95.936 509.129 97.0303C508.496 98.1245 507.613 99.0533 506.552 99.7405C504.551 100.901 502.924 99.9539 502.924 97.6464C502.989 96.3853 503.352 95.1574 503.982 94.0633C504.613 92.9691 505.493 92.0397 506.552 91.351Z" fill="white"/>
<path d="M493.481 98.8864C495.482 97.726 497.109 98.673 497.109 100.994C497.042 102.253 496.678 103.478 496.048 104.569C495.417 105.661 494.538 106.588 493.481 107.276C491.467 108.436 489.84 107.503 489.84 105.182C489.906 103.919 490.271 102.691 490.904 101.597C491.537 100.502 492.42 99.5735 493.481 98.8864Z" fill="white"/>
<path d="M482.96 112.111C484.378 109.655 484.379 107.001 482.963 106.183C481.547 105.365 479.249 106.694 477.831 109.15C476.413 111.606 476.412 114.26 477.828 115.077C479.244 115.895 481.542 114.567 482.96 112.111Z" fill="white"/>
<path opacity="0.5" d="M213.708 282.987L209.173 285.655L210.907 282.334C210.974 282.209 211.01 282.069 211.01 281.927C211.01 281.785 210.974 281.645 210.907 281.52C210.773 281.36 210.533 281.52 210.386 281.774L207.932 286.495C207.932 286.495 207.932 286.602 207.866 286.669C207.853 286.748 207.853 286.829 207.866 286.909C207.85 286.979 207.85 287.052 207.866 287.122L207.932 287.215L210.386 289.096C210.421 289.122 210.463 289.136 210.506 289.136C210.55 289.136 210.592 289.122 210.627 289.096C210.755 289.014 210.854 288.893 210.907 288.749C210.979 288.633 211.017 288.499 211.017 288.362C211.017 288.226 210.979 288.092 210.907 287.976L209.173 286.642L213.708 283.974C213.825 283.886 213.921 283.771 213.985 283.639C214.05 283.507 214.083 283.361 214.081 283.214C214.081 283.027 213.974 282.881 213.708 282.987Z" fill="#455A64"/>
<path opacity="0.5" d="M217.495 280.801L222.03 278.134L220.296 276.8C220.149 276.693 220.136 276.346 220.296 276.04C220.456 275.733 220.656 275.573 220.803 275.68L223.27 277.573C223.3 277.599 223.322 277.631 223.337 277.667C223.345 277.733 223.345 277.8 223.337 277.867C223.343 277.951 223.343 278.036 223.337 278.12C223.323 278.181 223.3 278.239 223.27 278.294L220.776 283.162C220.725 283.277 220.642 283.374 220.536 283.442C220.519 283.46 220.498 283.474 220.475 283.484C220.452 283.493 220.427 283.498 220.403 283.498C220.378 283.498 220.353 283.493 220.33 283.484C220.307 283.474 220.287 283.46 220.269 283.442C220.2 283.32 220.164 283.182 220.164 283.042C220.164 282.902 220.2 282.764 220.269 282.642L222.003 279.307L217.468 281.975C217.268 282.082 217.108 281.975 217.108 281.615C217.102 281.458 217.134 281.302 217.202 281.161C217.269 281.019 217.37 280.896 217.495 280.801Z" fill="#455A64"/>
<path opacity="0.5" d="M232.368 267.756C232.368 267.476 232.101 267.516 231.981 267.756L231.367 269.276C230.3 269.156 229.02 270.197 228.153 272.024C227.032 274.398 227.032 277.212 228.153 278.293C228.426 278.548 228.779 278.699 229.151 278.721C229.524 278.743 229.893 278.634 230.193 278.413C231.096 277.806 231.801 276.948 232.221 275.945C232.294 275.825 232.332 275.686 232.332 275.545C232.332 275.404 232.294 275.266 232.221 275.145C232.087 275.012 231.847 275.145 231.714 275.452C230.874 277.226 229.513 278.013 228.673 277.199C227.833 276.385 227.833 274.291 228.673 272.518C229.26 271.264 230.127 270.517 230.874 270.463L230.407 271.611C230.287 271.904 230.407 272.184 230.58 272.064L232.434 270.85C232.508 270.79 232.565 270.712 232.6 270.623C232.635 270.534 232.647 270.438 232.634 270.343L232.368 267.756Z" fill="#455A64"/>
<path opacity="0.5" d="M281.091 229.998L282.744 226.503C282.845 226.338 282.898 226.149 282.898 225.956C282.898 225.763 282.845 225.574 282.744 225.409C282.544 225.223 282.238 225.409 282.038 225.823L280.384 229.317L278.73 227.73C278.543 227.543 278.223 227.73 278.023 228.13C277.929 228.297 277.88 228.486 277.88 228.677C277.88 228.869 277.929 229.057 278.023 229.224L279.677 230.811L277.996 234.319C277.903 234.484 277.854 234.67 277.854 234.859C277.854 235.049 277.903 235.235 277.996 235.399C278.048 235.439 278.111 235.461 278.176 235.461C278.241 235.461 278.305 235.439 278.356 235.399C278.508 235.29 278.627 235.143 278.703 234.973L280.357 231.465L282.011 233.065C282.061 233.108 282.125 233.131 282.191 233.131C282.257 233.131 282.321 233.108 282.371 233.065C282.529 232.963 282.65 232.814 282.718 232.639C282.818 232.474 282.871 232.285 282.871 232.092C282.871 231.899 282.818 231.71 282.718 231.545L281.091 229.998Z" fill="#455A64"/>
<path d="M238.383 272.051V266.209C238.437 265.206 238.728 264.23 239.231 263.361C239.734 262.492 240.435 261.754 241.277 261.207L500.964 111.357C502.551 110.437 503.845 111.184 503.845 113.024V118.866C503.79 119.867 503.501 120.841 503 121.71C502.5 122.579 501.802 123.318 500.964 123.868L241.277 273.718C239.677 274.638 238.383 273.891 238.383 272.051Z" fill="#FAFAFA"/>
<path d="M497.029 124.307C496.945 124.321 496.859 124.321 496.775 124.307C496.613 124.233 496.48 124.105 496.4 123.945C496.32 123.785 496.297 123.602 496.335 123.427L496.628 121.053L495.508 120.253C495.411 120.177 495.333 120.08 495.28 119.968C495.227 119.857 495.2 119.736 495.201 119.612C495.203 119.419 495.247 119.228 495.33 119.053C495.412 118.878 495.533 118.723 495.681 118.599L497.375 117.265C497.409 117.225 497.436 117.18 497.455 117.132L498.216 114.651C498.262 114.446 498.368 114.26 498.52 114.115C498.672 113.971 498.863 113.874 499.069 113.837C499.207 113.833 499.343 113.869 499.461 113.94C499.58 114.01 499.675 114.114 499.736 114.237L500.363 115.571L501.803 115.011C501.933 114.956 502.078 114.944 502.215 114.978C502.352 115.012 502.474 115.089 502.564 115.198C502.679 115.369 502.741 115.571 502.741 115.778C502.741 115.985 502.679 116.187 502.564 116.358L501.337 118.666C501.325 118.709 501.325 118.755 501.337 118.799L501.63 120.893C501.646 121.083 501.621 121.274 501.556 121.454C501.492 121.633 501.39 121.797 501.257 121.933C501.172 122.023 501.068 122.093 500.952 122.137C500.837 122.181 500.713 122.198 500.59 122.187L499.256 122.013L497.762 123.934C497.68 124.052 497.571 124.148 497.442 124.213C497.314 124.278 497.172 124.311 497.029 124.307ZM496.215 119.492L497.322 120.293C497.441 120.385 497.533 120.509 497.587 120.65C497.641 120.791 497.656 120.944 497.629 121.093L497.429 122.667L498.442 121.333C498.523 121.208 498.637 121.109 498.771 121.045C498.906 120.981 499.055 120.956 499.203 120.973L500.536 121.133C500.553 121.085 500.553 121.034 500.536 120.986L500.256 118.906C500.22 118.643 500.271 118.376 500.403 118.145L501.47 116.131L500.363 116.558C500.202 116.625 500.021 116.627 499.859 116.562C499.697 116.497 499.566 116.371 499.496 116.211L498.989 115.144L498.309 117.358C498.244 117.607 498.099 117.828 497.895 117.985L496.202 119.319C496.193 119.377 496.197 119.436 496.215 119.492Z" fill="#E0E0E0"/>
<g opacity="0.5">
<path d="M507.26 110.637C507.039 110.639 506.824 110.568 506.648 110.434C506.472 110.3 506.345 110.112 506.287 109.899C506.229 109.686 506.243 109.459 506.328 109.255C506.412 109.051 506.562 108.88 506.753 108.77L514.876 104.075C515.104 103.957 515.369 103.929 515.617 103.998C515.864 104.068 516.076 104.229 516.21 104.449C516.335 104.675 516.366 104.942 516.296 105.192C516.226 105.441 516.061 105.654 515.836 105.782L507.714 110.477C507.578 110.567 507.422 110.622 507.26 110.637Z" fill="#455A64"/>
<path d="M507.26 115.332C507.039 115.334 506.824 115.262 506.648 115.129C506.472 114.995 506.345 114.807 506.287 114.594C506.229 114.381 506.243 114.154 506.328 113.95C506.412 113.746 506.562 113.575 506.753 113.465L514.876 108.77C515.104 108.648 515.369 108.619 515.618 108.688C515.867 108.758 516.079 108.921 516.21 109.143C516.335 109.37 516.366 109.637 516.296 109.887C516.226 110.136 516.061 110.348 515.836 110.477L507.714 115.172C507.578 115.262 507.422 115.317 507.26 115.332Z" fill="#455A64"/>
<path d="M507.26 120.027C507.039 120.029 506.824 119.958 506.648 119.824C506.472 119.69 506.345 119.502 506.287 119.289C506.229 119.076 506.243 118.849 506.328 118.645C506.412 118.441 506.562 118.27 506.753 118.16L514.876 113.465C515.104 113.343 515.369 113.314 515.618 113.384C515.867 113.453 516.079 113.616 516.21 113.839C516.335 114.065 516.366 114.332 516.296 114.582C516.226 114.832 516.061 115.044 515.836 115.172L507.714 119.867C507.578 119.957 507.422 120.012 507.26 120.027Z" fill="#455A64"/>
</g>
<path d="M200.464 281.642V300.421L195.035 297.287V278.521L200.464 281.642Z" fill="#E0E0E0"/>
</svg>
