<svg width="581" height="500" viewBox="0 0 581 500" fill="none" xmlns="http://www.w3.org/2000/svg">
<path d="M290.391 500.003C450.553 500.003 580.391 441.117 580.391 368.478C580.391 295.839 450.553 236.953 290.391 236.953C130.228 236.953 0.390625 295.839 0.390625 368.478C0.390625 441.117 130.228 500.003 290.391 500.003Z" fill="#F5F5F5"/>
<path d="M94.5903 42.0946L83.5121 47.7C83.5121 47.2664 83.6086 46.8327 83.6086 46.4097V43.5964C83.6086 38.5833 79.5901 36.5633 74.6544 39.0593C72.5218 40.2182 70.6985 41.7656 69.3084 43.5964C68.4998 37.3036 62.8642 34.9663 56.0338 38.4247C48.6363 42.1687 42.6386 51.2747 42.6386 58.7626V62.9931C42.5838 64.6731 42.972 66.3416 43.773 67.8687L34.5653 72.5222C33.1221 73.3505 31.9212 74.4645 31.0597 75.7744C30.1981 77.0843 29.7 78.5533 29.6055 80.063C29.6055 82.8445 31.8259 83.9656 34.5653 82.5801L94.5903 52.1525C96.0272 51.3284 97.2241 50.2211 98.0854 48.919C98.9466 47.617 99.4482 46.1564 99.5501 44.654C99.5501 41.8302 97.3297 40.7091 94.5903 42.0946Z" fill="#EBEBEB"/>
<path d="M147.884 63.1208L139.521 67.3512C139.568 67.0321 139.592 66.7106 139.593 66.3888V64.2736C139.593 60.4979 136.564 58.9855 132.835 60.8575C131.23 61.7235 129.855 62.8812 128.804 64.2524C128.201 59.5037 123.977 57.7269 118.788 60.3392C113.201 63.1631 108.675 70.0376 108.675 75.6852V78.8581C108.635 80.1263 108.928 81.3857 109.532 82.5386L102.569 86.0393C101.48 86.6637 100.573 87.5042 99.9233 88.4927C99.2734 89.4813 98.8982 90.59 98.8281 91.7293C98.8281 93.8445 100.506 94.68 102.569 93.633L147.871 70.7144C148.962 70.09 149.87 69.2497 150.521 68.2613C151.173 67.273 151.551 66.1643 151.625 65.0245C151.637 62.9304 149.947 62.0737 147.884 63.1208Z" fill="#EBEBEB"/>
<path d="M467.717 357.899C502.594 357.899 530.867 343.589 530.867 325.938C530.867 308.286 502.594 293.977 467.717 293.977C432.84 293.977 404.566 308.286 404.566 325.938C404.566 343.589 432.84 357.899 467.717 357.899Z" fill="#E0E0E0"/>
<path d="M83.8519 441.673L31.0676 414.957C28.0868 413.455 28.0868 411.012 31.0676 409.511L326.438 260.228C328.108 259.487 329.954 259.102 331.826 259.102C333.698 259.102 335.544 259.487 337.214 260.228L390.011 286.944C392.979 288.445 392.979 290.888 390.011 292.39L94.6284 441.673C92.958 442.413 91.1122 442.799 89.2402 442.799C87.3681 442.799 85.5223 442.413 83.8519 441.673Z" fill="#E0E0E0"/>
<path d="M423.621 298.677C423.647 298.416 423.752 298.165 423.926 297.951C424.1 297.737 424.336 297.568 424.61 297.461C425.349 297.132 426.165 296.961 426.994 296.961C427.822 296.961 428.639 297.132 429.377 297.461C429.649 297.57 429.884 297.739 430.058 297.953C430.232 298.166 430.338 298.416 430.367 298.677L424.212 326.334C424.187 326.514 424.11 326.686 423.987 326.832C423.864 326.978 423.701 327.095 423.512 327.17C422.991 327.404 422.414 327.527 421.829 327.527C421.243 327.527 420.666 327.404 420.145 327.17C419.957 327.095 419.793 326.978 419.67 326.832C419.548 326.686 419.47 326.514 419.445 326.334L423.621 298.677Z" fill="#455A64"/>
<path d="M510.958 298.677C510.932 298.416 510.828 298.167 510.656 297.953C510.484 297.739 510.251 297.569 509.98 297.46C509.234 297.124 508.406 296.949 507.567 296.949C506.727 296.949 505.9 297.124 505.153 297.46C504.882 297.569 504.649 297.739 504.478 297.953C504.306 298.167 504.202 298.416 504.176 298.677L510.318 326.333C510.342 326.512 510.418 326.683 510.538 326.829C510.659 326.976 510.82 327.092 511.006 327.169C511.529 327.404 512.108 327.526 512.696 327.526C513.283 327.526 513.862 327.404 514.385 327.169C514.572 327.092 514.733 326.976 514.853 326.829C514.973 326.683 515.049 326.512 515.073 326.333L510.958 298.677Z" fill="#455A64"/>
<path d="M471.078 302.768C471.051 302.508 470.945 302.259 470.771 302.047C470.597 301.835 470.361 301.668 470.088 301.563C469.35 301.234 468.533 301.062 467.705 301.062C466.877 301.062 466.06 301.234 465.322 301.563C465.05 301.67 464.816 301.837 464.642 302.049C464.468 302.261 464.361 302.509 464.332 302.768L465.322 342.217C465.347 342.398 465.424 342.569 465.547 342.716C465.669 342.862 465.833 342.978 466.022 343.053C466.544 343.283 467.12 343.402 467.705 343.402C468.29 343.402 468.866 343.283 469.388 343.053C469.577 342.978 469.741 342.862 469.863 342.716C469.986 342.569 470.063 342.398 470.088 342.217L471.078 302.768Z" fill="#455A64"/>
<path d="M528.143 277.596H528.082C528.082 269.77 522.241 261.944 510.439 255.979C486.835 244.038 448.568 244.038 424.975 255.979C413.173 261.944 407.32 269.728 407.32 277.596V281.827C407.453 289.547 413.354 297.247 425.024 303.138C448.616 315.078 486.883 315.078 510.487 303.138C522.133 297.247 528.046 289.547 528.191 281.827L528.143 277.596Z" fill="#BA68C8"/>
<path d="M424.964 255.979C401.371 267.919 401.371 287.284 424.964 299.225C448.556 311.165 486.823 311.165 510.428 299.225C534.032 287.284 534.032 267.919 510.428 255.979C486.823 244.038 448.568 244.038 424.964 255.979Z" fill="#BA68C8"/>
<path opacity="0.45" d="M424.964 255.979C401.371 267.919 401.371 287.284 424.964 299.225C448.556 311.165 486.823 311.165 510.428 299.225C534.032 287.284 534.032 267.919 510.428 255.979C486.823 244.038 448.568 244.038 424.964 255.979Z" fill="white"/>
<g opacity="0.05">
<path d="M480.947 272.488C488.477 276.296 488.477 282.472 480.947 286.237C473.417 290.002 461.204 290.045 453.686 286.237C446.168 282.43 446.156 276.253 453.686 272.488C461.216 268.723 473.417 268.67 480.947 272.488Z" fill="black"/>
</g>
<path d="M455.329 280.232C448.764 274.373 444.915 259.736 451.311 255.082H483.894C490.289 259.736 486.44 274.362 479.887 280.232L479.718 280.391L479.489 280.581C479.296 280.74 479.103 280.898 478.897 281.046L478.741 281.152L478.246 281.48C477.973 281.656 477.687 281.815 477.389 281.956C472.007 284.685 463.258 284.685 457.863 281.956C457.574 281.819 457.296 281.649 457.007 281.48L456.548 281.173L456.355 281.036C456.152 280.902 455.962 280.753 455.788 280.592L455.522 280.37C455.451 280.332 455.386 280.286 455.329 280.232Z" fill="#EBEBEB"/>
<path d="M481.02 253.21C488.442 256.965 488.442 263.057 481.02 266.811C473.599 270.566 461.567 270.566 454.133 266.811C446.7 263.057 446.712 256.965 454.133 253.21C461.555 249.456 473.599 249.456 481.02 253.21Z" fill="#FAFAFA"/>
<path d="M475.758 255.874C480.271 258.159 480.271 261.861 475.758 264.145C473.223 265.269 470.422 265.855 467.582 265.855C464.741 265.855 461.94 265.269 459.406 264.145C454.88 261.861 454.88 258.159 459.406 255.874C461.94 254.75 464.741 254.164 467.582 254.164C470.422 254.164 473.223 254.75 475.758 255.874Z" fill="#EBEBEB"/>
<path d="M459.407 259.8C461.941 258.676 464.742 258.09 467.583 258.09C470.423 258.09 473.224 258.676 475.758 259.8C476.852 260.318 477.781 261.067 478.462 261.979C477.773 262.868 476.844 263.595 475.758 264.094C473.224 265.219 470.423 265.805 467.583 265.805C464.742 265.805 461.941 265.219 459.407 264.094C458.32 263.592 457.388 262.866 456.691 261.979C457.38 261.069 458.312 260.321 459.407 259.8Z" fill="#E0E0E0"/>
<path d="M474.758 261.977C477.072 259.917 479.064 257.599 480.684 255.081C483.411 250.851 483.918 245.172 482.506 244.505C481.094 243.839 475.338 249.465 475.338 249.465C475.871 247.084 476.078 244.656 475.953 242.231C475.712 238.466 474.662 235.04 473.431 234.352C472.2 233.665 469.436 238.413 468.254 241.861C467.071 245.309 466.359 248.143 466.359 248.143C465.891 245.455 465.185 242.803 464.247 240.211C462.811 236.626 461.508 235.822 460.506 236.171C459.505 236.52 458.829 238.202 458.527 242.961C458.422 245.241 458.507 247.524 458.781 249.793C458.781 249.793 456.753 247.837 454.497 245.944C452.023 243.828 450.973 243.575 450.261 243.966C449.549 244.357 449.356 247.604 453.193 253.675C455.097 256.766 457.54 259.578 460.434 262.009C460.434 262.009 465.708 264.97 474.758 261.977Z" fill="#BA68C8"/>
<path opacity="0.3" d="M474.758 261.977C477.072 259.917 479.064 257.599 480.684 255.081C483.411 250.851 483.918 245.172 482.506 244.505C481.094 243.839 475.338 249.465 475.338 249.465C475.871 247.084 476.078 244.656 475.953 242.231C475.712 238.466 474.662 235.04 473.431 234.352C472.2 233.665 469.436 238.413 468.254 241.861C467.071 245.309 466.359 248.143 466.359 248.143C465.891 245.455 465.185 242.803 464.247 240.211C462.811 236.626 461.508 235.822 460.506 236.171C459.505 236.52 458.829 238.202 458.527 242.961C458.422 245.241 458.507 247.524 458.781 249.793C458.781 249.793 456.753 247.837 454.497 245.944C452.023 243.828 450.973 243.575 450.261 243.966C449.549 244.357 449.356 247.604 453.193 253.675C455.097 256.766 457.54 259.578 460.434 262.009C460.434 262.009 465.708 264.97 474.758 261.977Z" fill="black"/>
<path d="M261.921 400.162L307.296 377.159C311.978 374.8 314.319 371.691 314.319 368.592C314.319 365.493 314.319 363.061 314.319 363.061L267.255 339.793C265.939 339.041 264.843 338.028 264.057 336.835C263.27 335.643 262.816 334.305 262.73 332.929V283.898L183.469 324.088V373.129C183.552 374.503 184.004 375.839 184.788 377.03C185.572 378.221 186.667 379.233 187.982 379.983L228.071 400.162C237.4 404.89 252.569 404.89 261.921 400.162Z" fill="#BA68C8"/>
<g opacity="0.6">
<path d="M261.921 400.162L307.296 377.159C311.978 374.8 314.319 371.691 314.319 368.592C314.319 365.493 314.319 363.061 314.319 363.061L267.255 339.793C265.939 339.041 264.843 338.028 264.057 336.835C263.27 335.643 262.816 334.305 262.73 332.929V283.898L183.469 324.088V373.129C183.552 374.503 184.004 375.839 184.788 377.03C185.572 378.221 186.667 379.233 187.982 379.983L228.071 400.162C237.4 404.89 252.569 404.89 261.921 400.162Z" fill="black"/>
</g>
<path opacity="0.3" d="M202.499 381.758V387.321L188.017 379.981C186.705 379.228 185.613 378.216 184.829 377.026C184.046 375.835 183.592 374.5 183.504 373.128V324.044L198.564 316.461C198.866 319.814 199.216 323.293 199.53 326.678L188.934 332.05V370.357C189.011 371.731 189.461 373.07 190.246 374.262C191.031 375.454 192.128 376.464 193.448 377.21L202.499 381.758Z" fill="black"/>
<path d="M188.934 370.316C189.016 371.689 189.468 373.026 190.253 374.217C191.037 375.408 192.132 376.42 193.447 377.169L228.069 394.631C237.422 399.358 252.591 399.369 261.956 394.631L307.354 371.638C316.707 366.91 316.707 359.232 307.354 354.494L272.72 337.033C271.405 336.28 270.311 335.266 269.527 334.074C268.743 332.881 268.29 331.543 268.207 330.169V291.852L188.946 332.041L188.934 370.316Z" fill="#BA68C8"/>
<path opacity="0.3" d="M188.934 370.316C189.016 371.689 189.468 373.026 190.253 374.217C191.037 375.408 192.132 376.42 193.447 377.169L228.069 394.631C237.422 399.358 252.591 399.369 261.956 394.631L307.354 371.638C316.707 366.91 316.707 359.232 307.354 354.494L272.72 337.033C271.405 336.28 270.311 335.266 269.527 334.074C268.743 332.881 268.29 331.543 268.207 330.169V291.852L188.946 332.041L188.934 370.316Z" fill="black"/>
<path opacity="0.5" d="M281.915 341.686L272.72 337.033C271.405 336.28 270.311 335.266 269.527 334.074C268.742 332.881 268.29 331.543 268.206 330.169V291.852L188.945 332.041V370.358C189.028 371.732 189.48 373.068 190.265 374.259C191.049 375.45 192.143 376.462 193.459 377.212L202.509 381.791L281.915 341.686Z" fill="black"/>
<path d="M314.331 363.059V368.59C314.331 371.699 311.917 374.788 307.308 377.167L261.921 400.149C256.947 402.481 251.39 403.691 245.75 403.671V398.161C251.39 398.181 256.947 396.97 261.921 394.639L307.308 371.636C311.978 369.277 314.331 366.168 314.331 363.059Z" fill="#BA68C8"/>
<path opacity="0.5" d="M314.331 363.059V368.59C314.331 371.699 311.917 374.788 307.308 377.167L261.921 400.149C256.947 402.481 251.39 403.691 245.75 403.671V398.161C251.39 398.181 256.947 396.97 261.921 394.639L307.308 371.636C311.978 369.277 314.331 366.168 314.331 363.059Z" fill="black"/>
<path d="M61.6568 417.993C63.3682 418.721 65.2519 419.084 67.1541 419.053C69.0563 419.022 70.9231 418.597 72.6022 417.813L379.123 262.703C380.764 261.763 382.13 260.498 383.109 259.01C384.088 257.521 384.653 255.852 384.759 254.136V9.45706C384.693 7.79041 384.18 6.16088 383.259 4.70147C382.338 3.24207 381.037 1.99415 379.461 1.05959C377.751 0.333032 375.87 -0.0293816 373.97 0.0018616C372.07 0.0331048 370.205 0.457122 368.527 1.23939L62.0188 156.349C60.3741 157.286 59.0052 158.551 58.0238 160.039C57.0423 161.528 56.4761 163.199 56.3711 164.916V409.532C56.4235 411.208 56.9302 412.85 57.8492 414.321C58.7682 415.792 60.0733 417.051 61.6568 417.993Z" fill="#BA68C8"/>
<path d="M72.6047 417.757L379.125 262.648C380.77 261.708 382.138 260.441 383.119 258.951C384.101 257.46 384.667 255.788 384.773 254.07V9.44405C384.773 6.2712 382.239 5.01264 379.125 6.58849L72.6047 161.698C70.96 162.635 69.5911 163.9 68.6097 165.389C67.6283 166.877 67.062 168.548 66.957 170.265V414.891C66.957 418.054 69.4913 419.333 72.6047 417.757Z" fill="#BA68C8"/>
<path opacity="0.5" d="M72.6047 417.757L379.125 262.648C380.77 261.708 382.138 260.441 383.119 258.951C384.101 257.46 384.667 255.788 384.773 254.07V9.44405C384.773 6.2712 382.239 5.01264 379.125 6.58849L72.6047 161.698C70.96 162.635 69.5911 163.9 68.6097 165.389C67.6283 166.877 67.062 168.548 66.957 170.265V414.891C66.957 418.054 69.4913 419.333 72.6047 417.757Z" fill="black"/>
<path d="M71.7699 423.41C70.1672 424.015 68.4347 424.311 66.6899 424.278C64.9451 424.246 63.2287 423.884 61.6571 423.219C60.0812 422.285 58.7798 421.037 57.8591 419.578C56.9383 418.118 56.4245 416.489 56.3594 414.822V395.023L66.9549 400.396V420.184C66.9549 423.061 69.0426 424.341 71.7699 423.41Z" fill="#BA68C8"/>
<path opacity="0.5" d="M71.7699 423.41C70.1672 424.015 68.4347 424.311 66.6899 424.278C64.9451 424.246 63.2287 423.884 61.6571 423.219C60.0812 422.285 58.7798 421.037 57.8591 419.578C56.9383 418.118 56.4245 416.489 56.3594 414.822V395.023L66.9549 400.396V420.184C66.9549 423.061 69.0426 424.341 71.7699 423.41Z" fill="black"/>
<path d="M66.957 400.394V420.172C66.957 423.345 69.4913 424.614 72.6047 423.027L379.125 267.928C380.77 266.988 382.138 265.722 383.119 264.231C384.101 262.741 384.667 261.069 384.773 259.351V239.531L66.957 400.394Z" fill="#BA68C8"/>
<path opacity="0.3" d="M66.957 400.352V420.172C66.957 423.345 69.4913 424.614 72.6047 423.027L379.125 267.928C380.77 266.988 382.138 265.722 383.119 264.231C384.101 262.741 384.667 261.069 384.773 259.351V239.531L66.957 400.352Z" fill="black"/>
<path d="M77.5508 375.562V173.357C77.6158 172.325 77.9566 171.322 78.5456 170.427C79.1347 169.532 79.9555 168.772 80.9418 168.206L370.809 21.536C372.68 20.5948 374.2 21.3563 374.2 23.2494V225.508C374.135 226.538 373.794 227.54 373.205 228.433C372.616 229.326 371.795 230.084 370.809 230.648L80.9418 377.286C79.0713 378.227 77.5508 377.455 77.5508 375.562Z" fill="#BA68C8"/>
<path d="M77.5508 375.562V173.357C77.6158 172.325 77.9566 171.322 78.5456 170.427C79.1347 169.532 79.9555 168.772 80.9418 168.206L370.809 21.536C372.68 20.5948 374.2 21.3563 374.2 23.2494V225.508C374.135 226.538 373.794 227.54 373.205 228.433C372.616 229.326 371.795 230.084 370.809 230.648L80.9418 377.286C79.0713 378.227 77.5508 377.455 77.5508 375.562Z" fill="#263238"/>
<path opacity="0.7" d="M68.6202 165.368C67.6168 166.857 67.045 168.538 66.9549 170.265V400.391L56.3594 395.019V164.914C56.4322 163.189 57.0009 161.508 58.0127 160.027L68.6202 165.368Z" fill="black"/>
<path opacity="0.3" d="M384.749 8.6327C384.351 6.08385 381.998 5.16372 379.15 6.5915L72.629 161.701C70.9598 162.608 69.5843 163.875 68.6345 165.382L58.0391 160.02C58.9958 158.518 60.3697 157.252 62.0335 156.339L368.566 1.29285C370.245 0.508849 372.112 0.0838851 374.014 0.0526388C375.917 0.0213924 377.8 0.384749 379.512 1.11306C380.945 1.96798 382.153 3.08093 383.056 4.37764C383.959 5.67435 384.536 7.12498 384.749 8.6327Z" fill="black"/>
<path d="M106.667 394.809C105.995 395.157 105.238 395.356 104.459 395.391C103.348 395.518 102.219 395.345 101.225 394.894C100.435 394.422 99.7848 393.792 99.3275 393.057C98.8701 392.321 98.6186 391.501 98.5938 390.663V201.773L103.891 204.449V393.382C103.891 394.503 104.531 395.148 105.448 395.148C105.878 395.117 106.295 395.001 106.667 394.809Z" fill="#F0F0F0"/>
<path d="M398.022 244.54C397.964 245.389 397.679 246.214 397.191 246.949C396.702 247.683 396.024 248.307 395.211 248.771L106.671 394.806C105.126 395.589 103.871 394.954 103.871 393.378V188.487L111.607 184.573C113.151 183.791 115.673 171.882 117.23 171.047L184.327 137.097C185.883 136.314 189.54 145.146 191.085 144.352L398.022 39.6484V244.54Z" fill="#FAFAFA"/>
<path d="M396.719 41.5843V244.541C396.665 245.195 396.443 245.83 396.069 246.397C395.695 246.965 395.178 247.451 394.559 247.819L106.019 393.823C105.841 393.922 105.638 393.984 105.428 394.003C105.162 394.003 105.162 393.411 105.162 393.379V189.132L112.258 185.536C113.38 184.965 114.08 183.051 115.661 178.133C116.226 176.025 117.001 173.966 117.978 171.978L184.472 138.335C185.26 139.27 185.966 140.256 186.583 141.286C188.394 144.078 189.407 145.516 190.88 145.516C191.182 145.516 191.478 145.443 191.736 145.305L396.719 41.5843ZM398.022 39.6172L191.085 144.321C191.023 144.354 190.952 144.373 190.88 144.374C189.311 144.374 186.052 136.971 184.532 136.971C184.465 136.955 184.394 136.955 184.327 136.971L117.23 170.92C115.673 171.713 113.151 183.611 111.607 184.447L103.871 188.487V393.379C103.871 394.5 104.499 395.145 105.428 395.145C105.857 395.128 106.274 395.012 106.635 394.807L395.211 248.771C396.024 248.308 396.702 247.684 397.191 246.949C397.679 246.214 397.964 245.389 398.022 244.541V39.6172Z" fill="#E0E0E0"/>
<path d="M101.225 196.05C100.433 195.579 99.7806 194.95 99.3211 194.215C98.8616 193.479 98.6082 192.658 98.582 191.82V172.624C98.6374 171.779 98.9172 170.956 99.399 170.221C99.8808 169.487 100.551 168.861 101.358 168.394L389.897 22.4429C390.709 21.992 391.647 21.7445 392.608 21.7275C393.569 21.7105 394.517 21.9245 395.349 22.3463C396.181 22.7681 396.865 23.3816 397.327 24.1202C397.789 24.8588 398.012 25.6943 397.971 26.5359V45.7105C397.914 46.5596 397.63 47.3851 397.142 48.1201C396.653 48.8551 395.974 49.4789 395.159 49.9409L106.667 195.966C105.831 196.353 104.903 196.562 103.958 196.577C103.012 196.591 102.076 196.411 101.225 196.05Z" fill="#BA68C8"/>
<path opacity="0.4" d="M397.982 26.0489C397.789 24.7692 396.607 24.3039 395.207 24.9913L106.667 171.027C105.844 171.495 105.161 172.13 104.676 172.878L99.4023 170.202C99.8749 169.468 100.546 168.847 101.357 168.393L389.897 22.4425C390.674 22.0082 391.568 21.7614 392.489 21.7269C393.41 21.6923 394.324 21.8713 395.141 22.2457C395.958 22.6202 396.647 23.1768 397.139 23.8594C397.632 24.5421 397.91 25.3265 397.946 26.1335L397.982 26.0489Z" fill="white"/>
<path opacity="0.1" d="M104.677 172.878C104.175 173.611 103.897 174.445 103.869 175.3V204.5L98.5709 201.825V172.624C98.5649 172.525 98.5649 172.426 98.5709 172.328C98.5925 172.122 98.6288 171.917 98.6795 171.714C98.8306 171.181 99.0662 170.668 99.3795 170.191L104.677 172.878Z" fill="black"/>
<path d="M398.01 26.4392V39.6171L191.073 144.321C189.528 145.114 188.273 144.469 188.273 142.904V137.912C188.273 136.347 187.066 135.701 185.449 136.495L117.218 171.015C116.405 171.479 115.727 172.103 115.239 172.838C114.751 173.573 114.466 174.397 114.406 175.246V180.227C114.345 181.075 114.059 181.899 113.571 182.633C113.083 183.368 112.406 183.992 111.594 184.457L103.871 188.487V175.299C103.931 174.451 104.215 173.628 104.701 172.894C105.187 172.159 105.861 171.534 106.671 171.068L395.211 25.1172C396.755 24.2288 398.01 24.874 398.01 26.4392Z" fill="#BA68C8"/>
<path d="M384.833 34.701C386.788 33.7174 388.369 34.5212 388.369 36.4989C388.302 37.5748 387.947 38.6219 387.333 39.5552C386.719 40.4886 385.862 41.2821 384.833 41.8716C382.878 42.8552 381.285 42.0514 381.285 40.0737C381.354 38.997 381.711 37.9497 382.328 37.0164C382.944 36.083 383.802 35.2899 384.833 34.701Z" fill="white"/>
<path d="M372.087 41.1406C374.042 40.157 375.622 40.9503 375.622 42.928C375.558 44.0043 375.203 45.0519 374.589 45.9856C373.975 46.9192 373.117 47.7125 372.087 48.3007C370.132 49.2948 368.551 48.4911 368.551 46.5133C368.618 45.4374 368.973 44.3904 369.587 43.457C370.201 42.5236 371.057 41.7301 372.087 41.1406Z" fill="white"/>
<path d="M359.344 47.5828C361.299 46.5886 362.88 47.3924 362.88 49.3701C362.813 50.4461 362.459 51.4931 361.844 52.4265C361.23 53.3598 360.374 54.1534 359.344 54.7428C357.389 55.7264 355.809 54.9332 355.809 52.9555C355.874 51.8791 356.228 50.8315 356.842 49.8979C357.457 48.9642 358.314 48.171 359.344 47.5828Z" fill="white"/>
<path d="M398.022 39.6172V55.6401L103.871 204.499V188.487L109.652 185.557C111.196 184.775 111.715 183.58 112.451 181.327L114.418 175.362C115.034 173.247 115.625 171.883 117.23 171.132L184.327 137.182C185.883 136.4 187.102 136.315 188.285 138.028L190.699 141.857C191.579 143.189 192.026 143.972 193.571 143.189L398.022 39.6172Z" fill="#E6E6E6"/>
<path d="M103.868 188.467V204.501L98.5703 201.825V185.812L103.868 188.467Z" fill="#E0E0E0"/>
<path d="M116.77 189.63L112.354 191.861L114.031 189.027C114.099 188.92 114.134 188.8 114.134 188.678C114.134 188.556 114.099 188.435 114.031 188.329C113.898 188.191 113.681 188.329 113.524 188.54L111.111 192.57C111.111 192.57 111.111 192.665 111.05 192.718C111.044 192.785 111.044 192.852 111.05 192.919C111.042 192.978 111.042 193.039 111.05 193.099C111.068 193.128 111.088 193.156 111.111 193.183L113.524 194.791C113.558 194.815 113.601 194.828 113.645 194.828C113.689 194.828 113.731 194.815 113.765 194.791C113.889 194.721 113.982 194.616 114.031 194.495C114.164 194.23 114.14 193.934 114.031 193.839L112.354 192.697L116.77 190.465C116.882 190.387 116.972 190.287 117.033 190.173C117.094 190.059 117.124 189.935 117.12 189.809C117.12 189.661 116.963 189.545 116.77 189.63Z" fill="#455A64"/>
<path d="M120.452 187.756L124.868 185.524L123.179 184.392C123.107 184.293 123.069 184.177 123.069 184.059C123.069 183.941 123.107 183.826 123.179 183.726C123.3 183.462 123.529 183.335 123.674 183.43L126.087 185.048C126.12 185.07 126.145 185.099 126.16 185.133C126.172 185.192 126.172 185.253 126.16 185.312C126.171 185.383 126.171 185.454 126.16 185.524L126.087 185.683L123.674 189.723C123.627 189.82 123.547 189.901 123.444 189.955C123.408 189.985 123.361 190.002 123.312 190.002C123.262 190.002 123.215 189.985 123.179 189.955C123.11 189.851 123.074 189.732 123.074 189.612C123.074 189.491 123.11 189.372 123.179 189.268L124.868 186.434L120.452 188.665C120.258 188.76 120.102 188.665 120.102 188.369C120.107 188.251 120.141 188.135 120.201 188.029C120.262 187.924 120.347 187.83 120.452 187.756Z" fill="#455A64"/>
<path d="M134.927 176.62C134.927 176.387 134.673 176.408 134.553 176.62L133.949 177.921C132.911 177.825 131.668 178.703 130.824 180.269C129.725 182.299 129.725 184.7 130.824 185.62C131.088 185.837 131.43 185.966 131.791 185.985C132.153 186.004 132.51 185.913 132.803 185.726C133.686 185.204 134.378 184.47 134.794 183.611C134.861 183.507 134.896 183.391 134.896 183.272C134.896 183.154 134.861 183.037 134.794 182.934C134.649 182.817 134.432 182.934 134.287 183.188C133.466 184.7 132.139 185.377 131.33 184.689C130.522 184.002 130.51 182.204 131.33 180.692C131.91 179.634 132.742 178.978 133.466 178.936L133.02 179.92C132.899 180.173 133.02 180.406 133.189 180.3L134.987 179.243C135.061 179.194 135.119 179.13 135.155 179.056C135.191 178.981 135.204 178.9 135.192 178.82L134.927 176.62Z" fill="#455A64"/>
<path d="M182.379 144.397L183.996 141.414C184.087 141.272 184.135 141.112 184.135 140.949C184.135 140.786 184.087 140.626 183.996 140.484C183.803 140.325 183.489 140.484 183.308 140.833L181.691 143.815L180.086 142.461C179.893 142.303 179.591 142.461 179.398 142.81C179.301 142.951 179.25 143.112 179.25 143.276C179.25 143.44 179.301 143.601 179.398 143.741L181.003 145.126L179.398 148.109C179.301 148.249 179.25 148.41 179.25 148.574C179.25 148.738 179.301 148.899 179.398 149.04C179.445 149.076 179.505 149.096 179.567 149.096C179.629 149.096 179.69 149.076 179.736 149.04C179.894 148.951 180.016 148.822 180.086 148.669L181.691 145.687L183.308 147.041C183.355 147.077 183.415 147.097 183.477 147.097C183.539 147.097 183.6 147.077 183.646 147.041C183.804 146.952 183.926 146.823 183.996 146.671C184.087 146.528 184.135 146.368 184.135 146.205C184.135 146.042 184.087 145.882 183.996 145.74L182.379 144.397Z" fill="#455A64"/>
<path d="M140.797 180.292V175.3C140.855 174.451 141.14 173.626 141.629 172.892C142.117 172.157 142.795 171.533 143.609 171.07L379.376 51.7812C380.933 50.988 382.188 51.6332 382.188 53.1985V58.1904C382.129 59.0391 381.845 59.864 381.356 60.5987C380.868 61.3335 380.19 61.9576 379.376 62.4209L143.597 181.709C142.052 182.502 140.797 181.857 140.797 180.292Z" fill="#FAFAFA"/>
<path d="M375.548 62.8422C375.464 62.8543 375.378 62.8543 375.295 62.8422C375.137 62.7782 375.009 62.6688 374.932 62.5322C374.855 62.3955 374.834 62.2399 374.872 62.0913L375.15 60.0713L374.064 59.3838C373.969 59.3187 373.894 59.2349 373.843 59.1393C373.793 59.0438 373.769 58.9391 373.774 58.8339C373.769 58.6697 373.808 58.5068 373.888 58.3581C373.967 58.2094 374.086 58.079 374.233 57.9772L375.886 56.8561C375.919 56.8219 375.943 56.7824 375.958 56.7398L376.694 54.6246C376.74 54.4504 376.843 54.2921 376.991 54.1696C377.14 54.0472 377.326 53.9663 377.527 53.9371C377.663 53.9236 377.8 53.9493 377.918 54.0104C378.035 54.0715 378.127 54.1646 378.179 54.2755L378.794 55.4283L380.194 54.963C380.318 54.9143 380.458 54.9024 380.59 54.9291C380.723 54.9558 380.843 55.0197 380.93 55.1111C381.045 55.2573 381.106 55.4307 381.106 55.6081C381.106 55.7856 381.045 55.9589 380.93 56.1052L379.723 58.0724C379.718 58.111 379.718 58.1501 379.723 58.1887L380.013 59.9655C380.035 60.128 380.014 60.2929 379.951 60.447C379.889 60.6012 379.786 60.7405 379.651 60.8539C379.572 60.9354 379.471 60.9983 379.357 61.0371C379.243 61.0759 379.12 61.0892 378.999 61.076L377.708 60.8962L376.248 62.5249C376.17 62.6244 376.066 62.7054 375.943 62.7607C375.821 62.8161 375.685 62.8441 375.548 62.8422ZM374.752 58.7175L375.838 59.405C375.95 59.4853 376.036 59.5903 376.087 59.7092C376.137 59.8281 376.151 59.9567 376.127 60.0818L375.934 61.4356L376.912 60.378C376.995 60.2738 377.108 60.19 377.239 60.1345C377.37 60.079 377.515 60.0536 377.66 60.0607L379.011 60.2088C379.02 60.1633 379.02 60.1168 379.011 60.0713L378.722 58.2945C378.699 58.0751 378.75 57.8548 378.867 57.6599L379.917 55.936L378.915 56.285C378.756 56.3424 378.578 56.3436 378.418 56.2884C378.259 56.2332 378.129 56.1258 378.058 55.9889L377.575 55.0793L376.912 56.9725C376.843 57.1855 376.699 57.3741 376.501 57.5118L374.848 58.5695C374.801 58.6098 374.767 58.6612 374.752 58.7175Z" fill="#E0E0E0"/>
<path d="M385.505 51.1688C385.289 51.1744 385.077 51.116 384.903 51.0031C384.729 50.8901 384.603 50.7292 384.546 50.5462C384.489 50.3632 384.504 50.1686 384.588 49.9938C384.672 49.819 384.821 49.6741 385.01 49.5824L392.927 45.5741C393.038 45.5101 393.163 45.4667 393.294 45.4465C393.425 45.4264 393.559 45.4298 393.689 45.4567C393.818 45.4836 393.94 45.5333 394.047 45.6029C394.153 45.6724 394.243 45.7604 394.309 45.8612C394.376 45.9621 394.418 46.0739 394.434 46.1896C394.45 46.3054 394.438 46.4227 394.4 46.5344C394.362 46.6461 394.299 46.7499 394.214 46.8394C394.128 46.9288 394.023 47.0021 393.904 47.0547L385.988 51.0525C385.843 51.1314 385.676 51.1718 385.505 51.1688Z" fill="#455A64"/>
<path d="M385.502 55.2285C385.332 55.2299 385.163 55.1914 385.015 55.1171C384.866 55.0428 384.743 54.9352 384.658 54.8055C384.529 54.6086 384.494 54.3754 384.559 54.1559C384.625 53.9365 384.786 53.7482 385.008 53.6315L392.924 49.6337C393.035 49.5766 393.158 49.5393 393.285 49.5238C393.412 49.5083 393.542 49.515 393.667 49.5434C393.791 49.5719 393.908 49.6217 394.01 49.6898C394.113 49.7579 394.199 49.8431 394.264 49.9405C394.328 50.0375 394.37 50.1447 394.386 50.256C394.403 50.3673 394.394 50.4803 394.361 50.5886C394.327 50.6968 394.269 50.7982 394.19 50.8866C394.111 50.9751 394.013 51.0489 393.902 51.1038L385.985 55.1122C385.841 55.1911 385.673 55.2315 385.502 55.2285Z" fill="#455A64"/>
<path d="M385.504 59.1857C385.289 59.1863 385.079 59.1247 384.908 59.0104C384.737 58.8961 384.614 58.7355 384.558 58.5536C384.501 58.3716 384.515 58.1784 384.597 58.004C384.678 57.8296 384.823 57.6836 385.009 57.5887L392.926 53.5804C393.152 53.4687 393.419 53.4394 393.669 53.4988C393.92 53.5581 394.134 53.7014 394.265 53.8977C394.329 53.9947 394.371 54.1019 394.388 54.2132C394.405 54.3245 394.396 54.4375 394.362 54.5458C394.328 54.6541 394.27 54.7554 394.192 54.8438C394.113 54.9323 394.015 55.0061 393.903 55.061L385.987 59.0694C385.84 59.1434 385.673 59.1834 385.504 59.1857Z" fill="#455A64"/>
<path d="M112.548 208.984C112.332 208.989 112.12 208.931 111.946 208.818C111.772 208.705 111.646 208.544 111.589 208.361C111.532 208.178 111.547 207.984 111.631 207.809C111.715 207.634 111.864 207.489 112.053 207.397L119.97 203.389C120.193 203.29 120.45 203.27 120.69 203.332C120.929 203.395 121.132 203.535 121.257 203.725C121.382 203.914 121.42 204.138 121.362 204.351C121.305 204.564 121.156 204.75 120.947 204.87L113.031 208.868C112.885 208.945 112.718 208.985 112.548 208.984Z" fill="#455A64"/>
<path d="M112.55 212.993C112.379 212.995 112.211 212.956 112.062 212.882C111.914 212.808 111.791 212.7 111.705 212.57C111.64 212.473 111.597 212.366 111.58 212.254C111.562 212.142 111.57 212.029 111.602 211.92C111.635 211.811 111.691 211.708 111.769 211.619C111.847 211.529 111.944 211.453 112.055 211.396L119.971 207.399C120.081 207.342 120.203 207.305 120.33 207.289C120.456 207.274 120.585 207.281 120.708 207.309C120.832 207.338 120.948 207.387 121.049 207.455C121.15 207.523 121.235 207.608 121.299 207.705C121.364 207.803 121.407 207.91 121.424 208.022C121.442 208.133 121.435 208.247 121.402 208.356C121.369 208.465 121.313 208.567 121.235 208.657C121.157 208.747 121.06 208.823 120.949 208.879L113.033 212.877C112.887 212.954 112.72 212.995 112.55 212.993Z" fill="#455A64"/>
<path d="M112.547 217.044C112.332 217.045 112.122 216.983 111.951 216.869C111.78 216.755 111.657 216.594 111.601 216.412C111.544 216.23 111.558 216.037 111.64 215.863C111.721 215.688 111.866 215.542 112.052 215.447L119.969 211.45C120.078 211.391 120.2 211.353 120.327 211.337C120.453 211.321 120.583 211.327 120.707 211.356C120.831 211.384 120.947 211.435 121.048 211.503C121.149 211.572 121.233 211.658 121.296 211.756C121.361 211.853 121.403 211.959 121.421 212.07C121.438 212.181 121.431 212.294 121.398 212.402C121.366 212.51 121.309 212.612 121.231 212.701C121.154 212.789 121.057 212.864 120.946 212.92L113.03 216.928C112.882 217.001 112.716 217.041 112.547 217.044Z" fill="#455A64"/>
<path d="M182.762 173.683V179.828C182.762 181.087 183.775 181.594 185.018 180.97L279.062 133.314V122.59L185.03 170.246C184.37 170.622 183.82 171.129 183.426 171.726C183.032 172.324 182.804 172.994 182.762 173.683Z" fill="#E6E6E6"/>
<path d="M290.909 116.572C292.116 115.937 293.166 116.456 293.166 117.714V123.859C293.122 124.545 292.895 125.213 292.503 125.808C292.111 126.403 291.565 126.909 290.909 127.286L279.059 133.282V122.59L290.909 116.572Z" fill="#BA68C8"/>
<path d="M290.032 125.032L288.716 124.662C288.85 124.174 288.919 123.673 288.921 123.171C288.983 122.702 288.904 122.227 288.692 121.793C288.48 121.359 288.144 120.981 287.715 120.696C287.416 120.557 287.08 120.491 286.742 120.506C286.404 120.521 286.077 120.616 285.796 120.781C284.954 121.346 284.277 122.078 283.818 122.916C283.358 123.753 283.131 124.674 283.153 125.603C283.092 126.072 283.171 126.547 283.382 126.981C283.594 127.415 283.931 127.793 284.36 128.078C284.614 128.204 284.901 128.27 285.192 128.269C285.576 128.265 285.952 128.17 286.279 127.994C287.287 127.388 288.038 126.507 288.415 125.487L289.742 125.847C289.79 125.857 289.839 125.857 289.887 125.847C290.01 125.858 290.134 125.827 290.232 125.76C290.33 125.694 290.395 125.597 290.413 125.489C290.432 125.382 290.403 125.272 290.332 125.183C290.261 125.094 290.153 125.033 290.032 125.011V125.032ZM285.796 127.253C285.66 127.34 285.499 127.393 285.331 127.406C285.163 127.419 284.994 127.392 284.842 127.327C284.576 127.11 284.373 126.84 284.249 126.541C284.125 126.241 284.085 125.92 284.13 125.603C284.117 124.825 284.304 124.055 284.675 123.348C285.047 122.642 285.595 122.017 286.279 121.521C286.461 121.424 286.669 121.37 286.882 121.362C287.006 121.359 287.128 121.389 287.232 121.447C287.498 121.664 287.701 121.934 287.825 122.234C287.949 122.533 287.99 122.855 287.944 123.171C287.955 123.947 287.768 124.716 287.396 125.42C287.025 126.125 286.478 126.747 285.796 127.243V127.253Z" fill="#FAFAFA"/>
<path d="M143.673 191.162L130.097 198.005C129.44 198.376 128.894 198.878 128.502 199.47C128.109 200.062 127.883 200.727 127.84 201.41V207.534C127.84 208.793 128.854 209.3 130.097 208.676L143.673 201.791C144.328 201.417 144.872 200.913 145.262 200.319C145.652 199.725 145.877 199.059 145.917 198.375V192.294C145.917 191.046 144.916 190.528 143.673 191.162Z" fill="#BA68C8"/>
<path d="M379.778 71.6861C378.24 72.5667 376.96 73.7522 376.042 75.1468C375.124 76.5413 374.593 78.1057 374.492 79.7134C374.492 82.6747 376.906 83.8698 379.778 82.3997C381.319 81.5186 382.602 80.3317 383.522 78.9353C384.443 77.5388 384.975 75.9721 385.076 74.3618C385.076 71.4005 382.698 70.2054 379.778 71.6861Z" fill="#BA68C8"/>
<path d="M379.164 76.3811C378.999 76.3836 378.836 76.347 378.693 76.2754C378.525 76.171 378.39 76.0307 378.301 75.8678C378.213 75.7049 378.173 75.5248 378.186 75.3446C378.209 74.9207 378.346 74.5076 378.588 74.1397C378.829 73.7718 379.167 73.4597 379.574 73.2294C379.739 73.1151 379.939 73.0469 380.149 73.0336C380.359 73.0204 380.568 73.0626 380.751 73.1549C380.933 73.2473 381.079 73.3854 381.17 73.5514C381.262 73.7175 381.294 73.9037 381.263 74.0861C381.238 74.5106 381.097 74.9237 380.854 75.2914C380.611 75.6591 380.271 75.971 379.863 76.2013C379.651 76.3113 379.41 76.3731 379.164 76.3811Z" fill="white"/>
<path d="M381.865 76.7101C381.571 76.5815 381.243 76.5254 380.915 76.5478C380.588 76.5701 380.274 76.6701 380.006 76.837L379.234 77.2283C378.533 77.6177 377.949 78.1481 377.529 78.7754C377.109 79.4027 376.866 80.1087 376.82 80.8348V81.3213C377.293 81.5003 377.81 81.5691 378.322 81.5209C378.834 81.4727 379.322 81.3092 379.741 81.0463C380.959 80.3826 381.964 79.4581 382.661 78.36V78.2436C382.694 77.9492 382.638 77.6524 382.498 77.3831C382.358 77.1139 382.14 76.8817 381.865 76.7101Z" fill="white"/>
<path d="M361.062 86.0273V84.388C361.062 82.5266 359.771 81.6699 358.178 82.4737C357.296 83.0263 356.575 83.7524 356.072 84.5937C355.569 85.4349 355.298 86.3679 355.281 87.3176V88.7877C355.243 89.7976 354.906 90.7816 354.304 91.6433C354.154 91.8686 354.071 92.123 354.062 92.3836C354.062 92.8595 354.388 93.071 354.787 92.8701L361.557 89.454C361.777 89.3122 361.957 89.1277 362.083 88.9149C362.208 88.7021 362.276 88.4667 362.281 88.2272C362.288 88.1354 362.273 88.0432 362.236 87.9573C362.198 87.8714 362.139 87.7938 362.063 87.7301C361.723 87.5649 361.446 87.3149 361.268 87.0119C361.09 86.7088 361.018 86.3661 361.062 86.0273Z" fill="#BA68C8"/>
<path d="M359.612 90.9766C359.603 91.4323 359.473 91.8799 359.232 92.2838C358.991 92.6877 358.646 93.0368 358.224 93.3033C357.452 93.6841 356.824 93.3033 356.824 92.3832L359.612 90.9766Z" fill="#BA68C8"/>
<path d="M336.103 93.8105C336.473 93.6187 336.884 93.4963 337.31 93.4509C337.644 93.4166 337.982 93.4758 338.275 93.6201C338.559 93.7724 338.783 93.9977 338.915 94.2653C339.071 94.6333 339.133 95.0268 339.096 95.4181C339.1 95.774 339.056 96.1291 338.963 96.4757C338.876 96.7857 338.763 97.0897 338.625 97.3852C338.493 97.6636 338.344 97.9355 338.179 98.1996L337.696 98.9611C337.551 99.2043 337.407 99.4582 337.286 99.7014C337.17 99.9355 337.085 100.18 337.032 100.431C337.02 100.551 336.988 100.669 336.936 100.78C336.895 100.865 336.828 100.938 336.743 100.992L335.379 101.679C335.295 101.679 335.222 101.679 335.174 101.679C335.139 101.647 335.113 101.608 335.096 101.567C335.08 101.525 335.073 101.48 335.077 101.436C335.075 101.11 335.128 100.786 335.234 100.473C335.332 100.167 335.453 99.8666 335.596 99.5745C335.753 99.289 335.91 99.0034 336.091 98.739C336.272 98.4746 336.417 98.2102 336.574 97.9775C336.731 97.7448 336.839 97.5016 336.948 97.2795C337.039 97.0808 337.088 96.8694 337.093 96.6555C337.093 96.3594 337.008 96.169 336.851 96.095C336.695 96.0209 336.429 96.095 336.091 96.2219C335.802 96.3552 335.556 96.5519 335.379 96.793C335.246 96.983 335.137 97.1851 335.053 97.3958L334.884 97.9246C334.847 98.068 334.747 98.193 334.607 98.2736L333.243 98.9611C333.219 98.9766 333.189 98.9849 333.159 98.9849C333.128 98.9849 333.099 98.9766 333.074 98.9611C333.047 98.9318 333.026 98.898 333.014 98.8617C333.001 98.8254 332.997 98.7873 333.002 98.7496C333.019 98.338 333.092 97.9297 333.219 97.5333C333.373 97.0634 333.574 96.6068 333.822 96.169C334.086 95.7074 334.41 95.2743 334.788 94.8787C335.149 94.456 335.595 94.0941 336.103 93.8105ZM337.069 103.583C337.068 103.696 337.039 103.808 336.984 103.911C336.938 104.002 336.863 104.079 336.767 104.133L335.367 104.841C335.354 104.853 335.338 104.863 335.32 104.869C335.302 104.875 335.284 104.879 335.265 104.879C335.245 104.879 335.227 104.875 335.209 104.869C335.191 104.863 335.175 104.853 335.162 104.841C335.127 104.809 335.101 104.771 335.084 104.729C335.068 104.687 335.061 104.642 335.065 104.598V103.086C335.069 102.971 335.102 102.859 335.162 102.758C335.2 102.663 335.272 102.581 335.367 102.525L336.767 101.817C336.797 101.794 336.836 101.782 336.876 101.782C336.915 101.782 336.954 101.794 336.984 101.817C337.016 101.848 337.04 101.885 337.055 101.925C337.07 101.965 337.074 102.008 337.069 102.049V103.583Z" fill="#BA68C8"/>
<path d="M312.883 133.619V154.644C312.883 156.22 314.09 156.855 315.695 156.072L346.998 140.208C347.811 139.744 348.489 139.12 348.977 138.385C349.465 137.65 349.751 136.826 349.81 135.977V114.984C349.81 113.418 348.603 112.773 346.998 113.566L315.622 129.431C314.829 129.897 314.169 130.518 313.694 131.244C313.219 131.971 312.941 132.783 312.883 133.619Z" fill="#BA68C8"/>
<path opacity="0.5" d="M312.883 133.619V154.644C312.883 156.22 314.09 156.855 315.695 156.072L346.998 140.208C347.811 139.744 348.489 139.12 348.977 138.385C349.465 137.65 349.751 136.826 349.81 135.977V114.984C349.81 113.418 348.603 112.773 346.998 113.566L315.622 129.431C314.829 129.897 314.169 130.518 313.694 131.244C313.219 131.971 312.941 132.783 312.883 133.619Z" fill="white"/>
<path d="M326.266 142.439V133.249C326.274 132.79 326.481 132.352 326.843 132.022C327.206 131.693 327.699 131.496 328.221 131.472L337.79 131.102C338.864 131.102 339.142 131.599 338.43 132.297L327.569 142.873C326.857 143.571 326.266 143.38 326.266 142.439Z" fill="#FAFAFA"/>
<path d="M358.812 109.062L384.155 96.2115C384.854 95.8625 385.422 96.1163 385.422 96.772C385.39 97.143 385.259 97.5021 385.039 97.8201C384.818 98.1381 384.515 98.4059 384.155 98.6017L358.812 111.452C358.112 111.801 357.605 111.547 357.605 110.891C357.629 110.525 357.751 110.168 357.961 109.851C358.17 109.533 358.462 109.263 358.812 109.062Z" fill="#455A64"/>
<path d="M358.812 113.834L384.155 100.995C384.854 100.646 385.422 100.889 385.422 101.555C385.39 101.926 385.259 102.285 385.039 102.603C384.818 102.921 384.515 103.189 384.155 103.385L358.812 116.224C358.112 116.584 357.605 116.33 357.605 115.675C357.629 115.307 357.751 114.949 357.961 114.629C358.17 114.31 358.462 114.038 358.812 113.834Z" fill="#455A64"/>
<path d="M358.812 118.476L384.155 105.626C384.854 105.277 385.422 105.53 385.422 106.186C385.39 106.557 385.259 106.916 385.039 107.234C384.818 107.552 384.515 107.82 384.155 108.016L358.812 120.855C358.112 121.215 357.605 120.961 357.605 120.305C357.629 119.939 357.75 119.582 357.959 119.264C358.169 118.946 358.461 118.676 358.812 118.476Z" fill="#455A64"/>
<path d="M358.4 125.105L375.826 116.285C376.296 116.042 376.682 116.221 376.682 116.666C376.661 116.919 376.572 117.165 376.423 117.383C376.275 117.602 376.07 117.787 375.826 117.924L358.4 126.745C357.929 126.977 357.543 126.808 357.543 126.353C357.565 126.101 357.653 125.857 357.802 125.64C357.951 125.423 358.156 125.24 358.4 125.105Z" fill="#E0E0E0"/>
<path d="M358.4 128.383L375.826 119.562C376.296 119.319 376.682 119.499 376.682 119.943C376.661 120.197 376.572 120.442 376.423 120.661C376.275 120.879 376.07 121.064 375.826 121.201L358.4 130.022C357.929 130.255 357.543 130.085 357.543 129.631C357.565 129.378 357.653 129.134 357.802 128.917C357.951 128.701 358.156 128.517 358.4 128.383Z" fill="#E0E0E0"/>
<path d="M358.4 131.558L375.826 122.748C376.296 122.505 376.682 122.674 376.682 123.129C376.661 123.382 376.572 123.628 376.423 123.846C376.275 124.065 376.07 124.25 375.826 124.387L358.4 133.197C357.929 133.44 357.543 133.271 357.543 132.816C357.565 132.563 357.653 132.317 357.802 132.098C357.951 131.88 358.155 131.695 358.4 131.558Z" fill="#E0E0E0"/>
<path d="M312.883 171.005V192.009C312.883 193.585 314.09 194.22 315.695 193.437L346.998 177.573C347.811 177.109 348.489 176.485 348.977 175.75C349.465 175.015 349.751 174.191 349.81 173.342V152.349C349.81 150.773 348.603 150.138 346.998 150.921L315.622 166.785C314.824 167.254 314.161 167.88 313.685 168.612C313.21 169.344 312.935 170.164 312.883 171.005Z" fill="#BA68C8"/>
<path opacity="0.5" d="M312.883 171.005V192.009C312.883 193.585 314.09 194.22 315.695 193.437L346.998 177.573C347.811 177.109 348.489 176.485 348.977 175.75C349.465 175.015 349.751 174.191 349.81 173.342V152.349C349.81 150.773 348.603 150.138 346.998 150.921L315.622 166.785C314.824 167.254 314.161 167.88 313.685 168.612C313.21 169.344 312.935 170.164 312.883 171.005Z" fill="white"/>
<path d="M326.266 179.815V170.635C326.271 170.176 326.477 169.737 326.84 169.406C327.204 169.076 327.698 168.88 328.221 168.858L337.79 168.488C338.864 168.488 339.142 168.985 338.43 169.683L327.569 180.26C326.857 180.958 326.266 180.767 326.266 179.815Z" fill="#FAFAFA"/>
<path d="M358.812 146.436L384.155 133.596C384.854 133.247 385.422 133.491 385.422 134.157C385.39 134.528 385.259 134.887 385.039 135.205C384.818 135.523 384.515 135.791 384.155 135.987L358.812 148.826C358.112 149.186 357.605 148.932 357.605 148.276C357.629 147.908 357.751 147.55 357.961 147.231C358.17 146.911 358.462 146.639 358.812 146.436Z" fill="#455A64"/>
<path d="M358.812 151.217L384.155 138.378C384.854 138.029 385.422 138.272 385.422 138.938C385.388 139.309 385.256 139.667 385.036 139.985C384.816 140.303 384.514 140.571 384.155 140.768L358.812 153.607C358.112 153.956 357.605 153.713 357.605 153.047C357.629 152.68 357.751 152.324 357.961 152.006C358.17 151.688 358.462 151.418 358.812 151.217Z" fill="#455A64"/>
<path d="M358.812 155.85L384.155 143.01C384.854 142.661 385.422 142.905 385.422 143.571C385.39 143.942 385.259 144.301 385.039 144.619C384.818 144.937 384.515 145.205 384.155 145.401L358.812 158.24C358.112 158.589 357.605 158.346 357.605 157.68C357.631 157.314 357.754 156.958 357.963 156.64C358.173 156.323 358.463 156.052 358.812 155.85Z" fill="#455A64"/>
<path d="M358.4 162.484L375.826 153.674C376.296 153.43 376.682 153.6 376.682 154.054C376.661 154.308 376.572 154.554 376.423 154.772C376.275 154.991 376.07 155.176 375.826 155.313L358.4 164.165C357.929 164.408 357.543 164.239 357.543 163.784C357.557 163.523 357.642 163.269 357.791 163.043C357.94 162.817 358.149 162.625 358.4 162.484Z" fill="#E0E0E0"/>
<path d="M358.4 165.761L375.826 156.951C376.296 156.708 376.682 156.877 376.682 157.332C376.661 157.585 376.572 157.831 376.423 158.05C376.275 158.268 376.07 158.453 375.826 158.59L358.4 167.4C357.929 167.643 357.543 167.474 357.543 167.019C357.565 166.766 357.653 166.52 357.802 166.302C357.951 166.083 358.155 165.898 358.4 165.761Z" fill="#E0E0E0"/>
<path d="M358.4 168.944L375.826 160.135C376.296 159.891 376.682 160.06 376.682 160.515C376.661 160.769 376.572 161.015 376.423 161.233C376.275 161.452 376.07 161.637 375.826 161.774L358.4 170.584C357.929 170.827 357.543 170.658 357.543 170.203C357.565 169.949 357.653 169.704 357.802 169.485C357.951 169.267 358.155 169.082 358.4 168.944Z" fill="#E0E0E0"/>
<path d="M312.883 208.363V229.367C312.883 230.943 314.09 231.577 315.695 230.795L346.998 214.93C347.811 214.466 348.489 213.842 348.977 213.108C349.465 212.373 349.751 211.548 349.81 210.7V189.706C349.81 188.141 348.603 187.496 346.998 188.289L315.622 204.153C314.826 204.622 314.164 205.246 313.689 205.976C313.214 206.707 312.938 207.523 312.883 208.363Z" fill="#BA68C8"/>
<path opacity="0.5" d="M312.883 208.363V229.367C312.883 230.943 314.09 231.577 315.695 230.795L346.998 214.93C347.811 214.466 348.489 213.842 348.977 213.108C349.465 212.373 349.751 211.548 349.81 210.7V189.706C349.81 188.141 348.603 187.496 346.998 188.289L315.622 204.153C314.826 204.622 314.164 205.246 313.689 205.976C313.214 206.707 312.938 207.523 312.883 208.363Z" fill="white"/>
<path d="M326.266 217.181V207.991C326.274 207.533 326.481 207.094 326.843 206.765C327.206 206.435 327.699 206.238 328.221 206.214L337.79 205.844C338.864 205.844 339.142 206.341 338.43 207.039L327.569 217.615C326.857 218.313 326.266 218.102 326.266 217.181Z" fill="#FAFAFA"/>
<path d="M358.812 183.8L384.155 170.95C384.854 170.601 385.422 170.855 385.422 171.51C385.39 171.881 385.259 172.24 385.039 172.558C384.818 172.876 384.515 173.144 384.155 173.34L358.812 186.19C358.112 186.539 357.605 186.285 357.605 185.629C357.629 185.263 357.75 184.906 357.959 184.588C358.169 184.27 358.461 184 358.812 183.8Z" fill="#455A64"/>
<path d="M358.812 188.573L384.155 175.733C384.854 175.384 385.422 175.627 385.422 176.294C385.39 176.665 385.259 177.024 385.039 177.342C384.818 177.66 384.515 177.928 384.155 178.123L358.812 190.963C358.112 191.322 357.605 191.069 357.605 190.413C357.629 190.045 357.751 189.687 357.961 189.368C358.17 189.048 358.462 188.776 358.812 188.573Z" fill="#455A64"/>
<path d="M358.812 193.218L384.155 180.368C384.854 180.019 385.422 180.273 385.422 180.928C385.39 181.299 385.259 181.658 385.039 181.976C384.818 182.294 384.515 182.562 384.155 182.758L358.812 195.597C358.112 195.957 357.605 195.703 357.605 195.047C357.629 194.681 357.75 194.324 357.959 194.006C358.169 193.688 358.461 193.418 358.812 193.218Z" fill="#455A64"/>
<path d="M358.4 199.848L375.826 191.027C376.296 190.784 376.682 190.964 376.682 191.408C376.661 191.661 376.572 191.907 376.423 192.126C376.275 192.344 376.07 192.529 375.826 192.666L358.4 201.487C357.929 201.719 357.543 201.55 357.543 201.095C357.565 200.843 357.653 200.599 357.802 200.382C357.951 200.166 358.156 199.982 358.4 199.848Z" fill="#E0E0E0"/>
<path d="M358.4 203.125L375.826 194.304C376.296 194.061 376.682 194.241 376.682 194.685C376.661 194.939 376.572 195.184 376.423 195.403C376.275 195.621 376.07 195.806 375.826 195.944L358.4 204.764C357.929 204.997 357.543 204.828 357.543 204.373C357.565 204.121 357.653 203.876 357.802 203.66C357.951 203.443 358.156 203.26 358.4 203.125Z" fill="#E0E0E0"/>
<path d="M358.4 206.3L375.826 197.49C376.296 197.247 376.682 197.416 376.682 197.871C376.661 198.124 376.572 198.37 376.423 198.589C376.275 198.807 376.07 198.992 375.826 199.129L358.4 207.939C357.929 208.182 357.543 208.013 357.543 207.558C357.565 207.305 357.653 207.059 357.802 206.841C357.951 206.622 358.155 206.437 358.4 206.3Z" fill="#E0E0E0"/>
<path d="M312.883 245.747V266.752C312.883 268.317 314.09 268.952 315.695 268.169L346.998 252.305C347.812 251.841 348.49 251.217 348.978 250.483C349.467 249.748 349.752 248.923 349.81 248.074V227.081C349.81 225.515 348.603 224.881 346.998 225.663L315.622 241.528C314.824 241.997 314.161 242.622 313.685 243.355C313.21 244.087 312.935 244.906 312.883 245.747Z" fill="#BA68C8"/>
<path opacity="0.5" d="M312.883 245.747V266.752C312.883 268.317 314.09 268.952 315.695 268.169L346.998 252.305C347.812 251.841 348.49 251.217 348.978 250.483C349.467 249.748 349.752 248.923 349.81 248.074V227.081C349.81 225.515 348.603 224.881 346.998 225.663L315.622 241.528C314.824 241.997 314.161 242.622 313.685 243.355C313.21 244.087 312.935 244.906 312.883 245.747Z" fill="white"/>
<path d="M326.266 254.565V245.385C326.271 244.925 326.476 244.484 326.839 244.152C327.203 243.82 327.696 243.622 328.221 243.598L337.79 243.238C338.864 243.238 339.142 243.725 338.43 244.433L327.569 255.01C326.857 255.708 326.266 255.507 326.266 254.565Z" fill="#FAFAFA"/>
<path d="M358.812 221.191L384.155 208.351C384.854 207.992 385.422 208.246 385.422 208.901C385.391 209.272 385.26 209.632 385.04 209.95C384.819 210.268 384.516 210.536 384.155 210.731L358.812 223.581C358.112 223.93 357.605 223.687 357.605 223.02C357.629 222.654 357.751 222.298 357.961 221.98C358.17 221.662 358.462 221.392 358.812 221.191Z" fill="#455A64"/>
<path d="M358.812 225.968L384.155 213.118C384.854 212.769 385.422 213.023 385.422 213.678C385.39 214.049 385.259 214.408 385.039 214.726C384.818 215.044 384.515 215.312 384.155 215.508L358.812 228.358C358.112 228.707 357.605 228.453 357.605 227.797C357.629 227.431 357.751 227.075 357.961 226.757C358.17 226.439 358.462 226.169 358.812 225.968Z" fill="#455A64"/>
<path d="M358.812 230.601L384.155 217.751C384.854 217.402 385.422 217.655 385.422 218.311C385.391 218.682 385.26 219.042 385.04 219.36C384.819 219.678 384.516 219.946 384.155 220.141L358.812 232.991C358.112 233.34 357.605 233.086 357.605 232.43C357.629 232.064 357.751 231.707 357.961 231.39C358.17 231.072 358.462 230.802 358.812 230.601Z" fill="#455A64"/>
<path d="M358.4 237.233L375.826 228.413C376.296 228.18 376.682 228.349 376.682 228.804C376.661 229.056 376.572 229.3 376.423 229.517C376.274 229.734 376.07 229.917 375.826 230.052L358.4 238.872C357.929 239.116 357.543 238.936 357.543 238.492C357.565 238.238 357.653 237.992 357.802 237.774C357.951 237.555 358.155 237.37 358.4 237.233Z" fill="#E0E0E0"/>
<path d="M358.4 240.514L375.826 231.694C376.296 231.461 376.682 231.63 376.682 232.085C376.661 232.337 376.572 232.582 376.423 232.798C376.274 233.015 376.07 233.198 375.826 233.333L358.4 242.154C357.929 242.397 357.543 242.217 357.543 241.773C357.565 241.519 357.653 241.274 357.802 241.055C357.951 240.837 358.155 240.652 358.4 240.514Z" fill="#E0E0E0"/>
<path d="M358.4 243.685L375.826 234.875C376.296 234.631 376.682 234.811 376.682 235.255C376.661 235.509 376.572 235.755 376.423 235.973C376.275 236.192 376.07 236.377 375.826 236.514L358.4 245.324C357.929 245.567 357.543 245.398 357.543 244.943C357.565 244.689 357.653 244.444 357.802 244.225C357.951 244.007 358.155 243.822 358.4 243.685Z" fill="#E0E0E0"/>
<path d="M118.003 346.856L212.638 298.967C214.183 298.184 215.45 298.745 215.438 300.215C215.369 301.043 215.078 301.844 214.59 302.555C214.101 303.267 213.429 303.867 212.626 304.308L118.003 352.197C116.459 352.979 115.191 352.419 115.191 350.949C115.261 350.121 115.551 349.319 116.04 348.608C116.528 347.897 117.201 347.297 118.003 346.856Z" fill="#455A64"/>
<path d="M116.767 356.523L169.865 329.692C170.746 329.247 171.446 329.554 171.446 330.39C171.405 330.854 171.24 331.303 170.966 331.701C170.691 332.1 170.314 332.437 169.865 332.685L116.827 359.516C115.958 359.96 115.246 359.643 115.246 358.818C115.28 358.359 115.435 357.912 115.699 357.514C115.963 357.116 116.328 356.777 116.767 356.523Z" fill="#E0E0E0"/>
<path d="M137.429 355.453L205.213 321.165C206.758 320.372 208.025 320.932 208.025 322.413C207.956 323.241 207.665 324.043 207.177 324.754C206.688 325.465 206.016 326.065 205.213 326.506L137.429 360.794C135.872 361.576 134.617 361.027 134.617 359.546C134.686 358.718 134.977 357.916 135.466 357.205C135.954 356.494 136.627 355.894 137.429 355.453Z" fill="#455A64"/>
<path d="M136.186 365.109L162.385 351.857C163.266 351.413 163.966 351.73 163.966 352.555C163.928 353.02 163.765 353.47 163.49 353.869C163.215 354.268 162.837 354.604 162.385 354.85L136.186 368.102C135.317 368.536 134.617 368.229 134.617 367.404C134.654 366.941 134.815 366.491 135.088 366.092C135.36 365.693 135.737 365.356 136.186 365.109Z" fill="#E0E0E0"/>
<path d="M122.514 361.544C120.365 362.772 118.576 364.427 117.292 366.375C116.009 368.323 115.268 370.509 115.129 372.754C115.129 376.879 118.435 378.561 122.514 376.488C124.665 375.261 126.455 373.606 127.739 371.657C129.022 369.709 129.763 367.523 129.9 365.277C129.9 361.152 126.593 359.481 122.514 361.544Z" fill="#BA68C8"/>
<path d="M121.659 368.125C121.426 368.133 121.196 368.081 120.996 367.977C120.755 367.838 120.562 367.645 120.436 367.418C120.311 367.191 120.258 366.938 120.284 366.687C120.316 366.094 120.511 365.516 120.851 365.003C121.191 364.489 121.667 364.055 122.239 363.736C122.473 363.59 122.749 363.503 123.036 363.484C123.323 363.466 123.611 363.516 123.868 363.63C124.108 363.769 124.302 363.962 124.427 364.189C124.552 364.416 124.605 364.669 124.58 364.92C124.547 365.512 124.354 366.089 124.016 366.602C123.678 367.115 123.205 367.55 122.637 367.871C122.341 368.028 122.005 368.116 121.659 368.125Z" fill="white"/>
<path d="M125.491 368.557C125.079 368.377 124.619 368.299 124.16 368.331C123.701 368.363 123.26 368.503 122.885 368.737L121.823 369.276C120.848 369.822 120.037 370.566 119.458 371.443C118.878 372.321 118.547 373.308 118.492 374.321V374.987C119.151 375.24 119.874 375.337 120.589 375.271C121.304 375.204 121.988 374.975 122.571 374.606C124.271 373.682 125.675 372.394 126.65 370.862V370.704C126.691 370.288 126.605 369.87 126.402 369.493C126.198 369.116 125.884 368.793 125.491 368.557Z" fill="white"/>
<path d="M249.913 301.461L281.217 285.597C282.774 284.814 284.041 285.449 284.041 287.024V292.006C283.98 292.855 283.693 293.68 283.203 294.415C282.712 295.15 282.032 295.774 281.217 296.236L249.913 312.1C248.357 312.883 247.102 312.249 247.102 310.673V305.691C247.161 304.843 247.446 304.018 247.935 303.284C248.423 302.549 249.1 301.925 249.913 301.461Z" fill="#BA68C8"/>
<path opacity="0.7" d="M249.913 301.461L281.217 285.597C282.774 284.814 284.041 285.449 284.041 287.024V292.006C283.98 292.855 283.693 293.68 283.203 294.415C282.712 295.15 282.032 295.774 281.217 296.236L249.913 312.1C248.357 312.883 247.102 312.249 247.102 310.673V305.691C247.161 304.843 247.446 304.018 247.935 303.284C248.423 302.549 249.1 301.925 249.913 301.461Z" fill="white"/>
<path d="M295.483 283.442V281.803C295.483 279.941 294.192 279.074 292.587 279.888C291.706 280.442 290.986 281.168 290.483 282.009C289.98 282.85 289.708 283.783 289.691 284.732V286.202C289.657 287.211 289.324 288.196 288.725 289.058C288.581 289.288 288.502 289.546 288.496 289.809C288.496 290.285 288.822 290.496 289.22 290.295L295.978 286.869C296.202 286.731 296.385 286.55 296.513 286.338C296.641 286.127 296.71 285.892 296.714 285.652C296.724 285.56 296.709 285.468 296.672 285.382C296.634 285.295 296.574 285.218 296.497 285.155C296.156 284.988 295.878 284.736 295.697 284.432C295.517 284.127 295.443 283.783 295.483 283.442Z" fill="#455A64"/>
<path d="M293.971 288.379C293.966 288.835 293.837 289.284 293.596 289.688C293.355 290.093 293.008 290.442 292.583 290.706C291.823 291.097 291.195 290.706 291.195 289.786L293.971 288.379Z" fill="#455A64"/>
<path d="M238.704 291.47C238.642 291.852 238.418 292.199 238.077 292.443C238.144 292.591 238.177 292.749 238.173 292.908C238.146 293.138 238.057 293.359 237.915 293.554C237.772 293.749 237.58 293.911 237.353 294.029L233.672 295.901V291.671C233.672 291.597 234.686 289.651 234.77 289.354C234.818 288.855 234.818 288.352 234.77 287.853C234.861 287.703 235.007 287.584 235.184 287.515C235.361 287.446 235.559 287.431 235.748 287.472C235.848 287.515 235.926 287.591 235.965 287.683C236.072 287.897 236.149 288.12 236.194 288.35C236.241 288.753 236.213 289.16 236.11 289.555L238.342 288.424C238.404 288.384 238.476 288.358 238.552 288.349C238.628 288.34 238.705 288.347 238.777 288.371C238.852 288.419 238.913 288.483 238.953 288.557C238.993 288.631 239.011 288.712 239.006 288.794C238.989 289.102 238.863 289.398 238.644 289.64C238.644 289.64 239.09 289.524 239.09 290.042C239.078 290.226 239.024 290.406 238.93 290.572C238.837 290.737 238.707 290.884 238.547 291.004C238.547 291.004 238.704 291.078 238.704 291.47Z" fill="#BA68C8"/>
<path d="M233.141 295.628V296.527C233.136 296.59 233.116 296.651 233.08 296.706C233.045 296.761 232.995 296.808 232.935 296.844L231.729 297.447C231.661 297.463 231.591 297.463 231.523 297.447V292.603L232.489 292.116L233.068 291.82C233.084 291.883 233.084 291.948 233.068 292.011L233.141 295.628Z" fill="#BA68C8"/>
<path d="M264.813 274.959C264.815 274.895 264.798 274.831 264.763 274.775C264.728 274.718 264.678 274.67 264.615 274.636C264.553 274.602 264.482 274.583 264.409 274.58C264.336 274.577 264.263 274.591 264.198 274.621C264.258 274.438 264.29 274.25 264.294 274.06C264.294 273.7 263.956 273.521 263.474 273.764L259.793 275.625V279.856C260.196 280.23 260.567 280.629 260.903 281.051C260.951 281.554 260.951 282.06 260.903 282.563C260.903 282.722 261.495 282.489 261.881 281.95C261.968 281.815 262.04 281.673 262.098 281.527C262.196 281.232 262.269 280.932 262.315 280.628C262.372 280.25 262.347 279.866 262.243 279.496L264.463 278.375C264.648 278.284 264.799 278.148 264.898 277.984C265.035 277.789 265.114 277.567 265.127 277.339C265.127 276.947 264.886 276.863 264.765 276.852C264.9 276.744 265.009 276.614 265.086 276.469C265.163 276.323 265.205 276.166 265.211 276.006C265.211 275.71 265.006 275.488 264.668 275.594C264.771 275.394 264.821 275.177 264.813 274.959Z" fill="#BA68C8"/>
<path d="M259.266 276.431V275.543C259.266 275.427 259.17 275.374 259.049 275.437L257.842 276.03C257.763 276.079 257.69 276.136 257.625 276.199V281.043L258.602 280.556L259.17 280.26C259.203 280.182 259.224 280.1 259.23 280.017L259.266 276.431Z" fill="#BA68C8"/>
<path d="M293.236 261.358L289.182 260.301V262.183C287.577 262.782 286.194 263.759 285.187 265.007C282.955 267.926 284.572 269.597 285.32 269.714C285.32 269.714 284.113 269.005 285.441 266.911C286.344 265.753 287.659 264.89 289.182 264.457V266.572L293.236 261.358Z" fill="#BA68C8"/>
<path d="M244.64 284.826L249.564 282.341C251.12 281.548 252.375 282.108 252.375 283.589C252.306 284.417 252.015 285.218 251.527 285.929C251.038 286.64 250.366 287.241 249.564 287.682L244.64 290.167C243.083 290.96 241.828 290.4 241.828 288.919C241.897 288.091 242.188 287.29 242.677 286.579C243.165 285.867 243.838 285.267 244.64 284.826Z" fill="#E0E0E0"/>
<path d="M271.015 271.478L275.939 268.982C277.495 268.2 278.75 268.76 278.75 270.23C278.681 271.058 278.39 271.86 277.902 272.571C277.413 273.282 276.741 273.882 275.939 274.323L271.015 276.819C269.458 277.602 268.203 277.052 268.203 275.571C268.272 274.744 268.563 273.942 269.052 273.231C269.54 272.52 270.213 271.919 271.015 271.478Z" fill="#E0E0E0"/>
<path d="M122.898 218.105L299.485 128.758C301.042 127.965 302.297 128.61 302.297 130.175V240.453C302.238 241.301 301.953 242.126 301.465 242.861C300.977 243.596 300.299 244.22 299.485 244.683L122.898 334.073C121.353 334.866 120.086 334.221 120.086 332.655V222.336C120.147 221.487 120.433 220.663 120.921 219.929C121.409 219.195 122.086 218.57 122.898 218.105Z" fill="#455A64"/>
<path opacity="0.3" d="M143.302 316.557L272.909 251.249C273.742 250.826 274.43 251.133 274.43 251.926C274.39 252.373 274.232 252.805 273.968 253.189C273.704 253.573 273.342 253.897 272.909 254.136L143.302 319.444C142.457 319.867 141.781 319.56 141.781 318.767C141.818 318.32 141.975 317.886 142.239 317.502C142.503 317.118 142.867 316.794 143.302 316.557Z" fill="white"/>
<path d="M143.302 316.558L260.154 257.702C260.999 257.279 261.674 257.586 261.674 258.379C261.638 258.826 261.481 259.26 261.217 259.644C260.952 260.028 260.588 260.352 260.154 260.589L143.302 319.446C142.457 319.869 141.781 319.562 141.781 318.769C141.818 318.321 141.975 317.888 142.239 317.504C142.503 317.12 142.867 316.796 143.302 316.558Z" fill="white"/>
<path d="M127.446 324.745V327.579C127.443 327.649 127.421 327.718 127.381 327.778C127.341 327.839 127.285 327.891 127.217 327.928L126.59 328.246C126.567 328.26 126.54 328.268 126.512 328.27C126.484 328.271 126.456 328.265 126.432 328.253C126.407 328.24 126.388 328.222 126.375 328.2C126.362 328.178 126.357 328.154 126.36 328.129V325.295C126.366 325.225 126.39 325.158 126.43 325.097C126.469 325.037 126.524 324.985 126.59 324.946L127.217 324.628C127.35 324.565 127.446 324.618 127.446 324.745Z" fill="white"/>
<path d="M129.617 323.643V326.478C129.614 326.548 129.592 326.616 129.552 326.677C129.512 326.738 129.456 326.789 129.388 326.827L128.773 327.144C128.64 327.207 128.531 327.144 128.531 327.028V324.193C128.537 324.122 128.561 324.054 128.603 323.993C128.645 323.932 128.703 323.881 128.773 323.844L129.388 323.527C129.521 323.463 129.617 323.516 129.617 323.643Z" fill="white"/>
<path d="M138.26 319.359V322.194C138.254 322.263 138.23 322.331 138.19 322.391C138.151 322.452 138.096 322.503 138.03 322.543L137.753 322.691C137.62 322.754 137.523 322.691 137.523 322.575V319.74C137.527 319.67 137.549 319.602 137.589 319.541C137.629 319.48 137.685 319.429 137.753 319.391L138.03 319.243C138.053 319.229 138.08 319.22 138.108 319.219C138.136 319.218 138.164 319.224 138.188 319.236C138.212 319.248 138.232 319.266 138.245 319.288C138.257 319.31 138.263 319.335 138.26 319.359Z" fill="white"/>
<path d="M133.699 321.558V324.339C133.699 324.54 133.82 324.582 133.977 324.424L136.897 321.473C137.054 321.314 136.982 321.188 136.752 321.188H134.122C134.01 321.187 133.902 321.226 133.823 321.296C133.744 321.365 133.699 321.459 133.699 321.558Z" fill="white"/>
<path d="M289.612 243.307C289.513 243.307 289.418 243.272 289.348 243.211C289.278 243.149 289.238 243.066 289.238 242.979V242.048C289.238 241.993 289.255 241.938 289.287 241.89C289.319 241.841 289.364 241.801 289.419 241.773L291.145 240.906C291.186 240.884 291.231 240.869 291.279 240.863C291.326 240.857 291.375 240.859 291.421 240.87C291.468 240.881 291.511 240.9 291.549 240.926C291.586 240.952 291.617 240.985 291.64 241.022C291.685 241.096 291.696 241.182 291.671 241.262C291.647 241.343 291.588 241.412 291.507 241.456L289.974 242.228V242.979C289.974 243.064 289.937 243.146 289.869 243.207C289.802 243.268 289.709 243.304 289.612 243.307Z" fill="#FAFAFA"/>
<path d="M297.437 239.351C297.341 239.351 297.249 239.318 297.181 239.258C297.113 239.199 297.075 239.118 297.075 239.034V238.643L295.868 239.235C295.827 239.256 295.782 239.269 295.734 239.275C295.687 239.28 295.639 239.277 295.593 239.267C295.547 239.256 295.504 239.237 295.467 239.212C295.429 239.186 295.397 239.155 295.374 239.119C295.348 239.083 295.331 239.043 295.324 239.001C295.317 238.96 295.32 238.917 295.332 238.876C295.345 238.836 295.367 238.798 295.397 238.765C295.426 238.732 295.464 238.705 295.506 238.685L297.22 237.818C297.274 237.786 297.337 237.77 297.401 237.77C297.465 237.77 297.528 237.786 297.582 237.818C297.639 237.844 297.686 237.883 297.718 237.932C297.75 237.981 297.766 238.036 297.763 238.093V239.034C297.763 239.113 297.73 239.189 297.67 239.248C297.61 239.306 297.527 239.343 297.437 239.351Z" fill="#FAFAFA"/>
<path d="M289.612 247.568C289.553 247.58 289.491 247.58 289.431 247.568C289.375 247.541 289.327 247.501 289.294 247.453C289.26 247.405 289.241 247.35 289.238 247.293V246.352C289.254 246.276 289.299 246.208 289.367 246.159C289.434 246.11 289.519 246.083 289.606 246.083C289.694 246.083 289.779 246.11 289.846 246.159C289.913 246.208 289.959 246.276 289.974 246.352V246.658L291.181 246.066C291.265 246.027 291.363 246.017 291.455 246.039C291.547 246.06 291.626 246.112 291.676 246.183C291.722 246.258 291.733 246.345 291.709 246.427C291.684 246.51 291.625 246.581 291.543 246.627L289.83 247.494C289.765 247.533 289.69 247.558 289.612 247.568Z" fill="#FAFAFA"/>
<path d="M295.718 244.482C295.638 244.482 295.561 244.459 295.497 244.417C295.434 244.374 295.388 244.314 295.368 244.247C295.347 244.179 295.353 244.108 295.383 244.043C295.414 243.979 295.468 243.925 295.537 243.89L297.069 243.107V242.356C297.069 242.272 297.108 242.191 297.176 242.132C297.243 242.072 297.336 242.039 297.432 242.039C297.528 242.039 297.62 242.072 297.688 242.132C297.755 242.191 297.794 242.272 297.794 242.356V243.298C297.796 243.354 297.781 243.409 297.749 243.458C297.717 243.507 297.669 243.547 297.613 243.573L295.899 244.44C295.844 244.469 295.782 244.483 295.718 244.482Z" fill="#FAFAFA"/>
<path d="M285.679 246.743H285.618H284.918C284.903 246.745 284.888 246.743 284.873 246.739C284.859 246.735 284.845 246.728 284.834 246.719C284.822 246.71 284.813 246.699 284.807 246.687C284.801 246.675 284.798 246.662 284.798 246.648C284.804 246.553 284.804 246.458 284.798 246.363C284.798 246.257 284.798 246.151 284.798 246.056C284.796 245.99 284.821 245.926 284.87 245.876L285.643 245.051C285.658 245.025 285.667 244.996 285.667 244.966C285.667 244.937 285.658 244.908 285.643 244.882L285.28 244.163C285.28 244.163 285.208 244.163 285.172 244.163L284.339 244.829C284.311 244.846 284.277 244.856 284.243 244.856C284.208 244.856 284.174 244.846 284.146 244.829C284.043 244.751 283.924 244.69 283.796 244.649C283.768 244.64 283.744 244.622 283.728 244.599C283.713 244.576 283.707 244.549 283.712 244.522L283.965 243.465C283.965 243.465 283.965 243.412 283.965 243.391H283.893L283.072 243.465C283.036 243.469 283.003 243.481 282.973 243.5C282.944 243.518 282.92 243.542 282.903 243.57L282.457 244.628C282.422 244.7 282.357 244.757 282.276 244.787C282.102 244.858 281.936 244.943 281.781 245.041C281.708 245.041 281.636 245.041 281.6 245.041L281.19 244.491C281.19 244.491 281.093 244.491 281.033 244.491L280.14 245.315C280.09 245.365 280.064 245.429 280.067 245.495L280.321 246.236C280.342 246.29 280.342 246.35 280.321 246.405C280.176 246.616 280.031 246.817 279.91 247.039C279.865 247.1 279.797 247.145 279.717 247.166L278.957 247.325C278.917 247.332 278.88 247.347 278.849 247.369C278.817 247.391 278.792 247.42 278.776 247.452L278.39 248.584C278.386 248.596 278.386 248.61 278.389 248.622C278.392 248.635 278.399 248.647 278.408 248.658C278.417 248.668 278.429 248.676 278.443 248.682C278.456 248.687 278.471 248.69 278.486 248.689H279.186C279.218 248.689 279.249 248.7 279.272 248.72C279.294 248.74 279.307 248.767 279.307 248.795C279.283 248.988 279.283 249.183 279.307 249.377C279.307 249.442 279.281 249.506 279.235 249.557L278.45 250.392C278.434 250.418 278.426 250.447 278.426 250.477C278.426 250.506 278.434 250.535 278.45 250.561L278.824 251.28C278.824 251.28 278.885 251.28 278.921 251.28L279.753 250.614C279.779 250.596 279.811 250.586 279.844 250.586C279.877 250.586 279.909 250.596 279.934 250.614C280.041 250.691 280.159 250.755 280.284 250.804C280.315 250.812 280.34 250.829 280.356 250.853C280.372 250.877 280.376 250.905 280.369 250.931L280.115 251.989C280.115 251.989 280.115 252.042 280.115 252.063H280.188L281.008 251.989C281.047 251.987 281.083 251.976 281.115 251.957C281.147 251.939 281.173 251.913 281.19 251.883L281.624 250.826C281.665 250.761 281.729 250.709 281.805 250.678L282.058 250.551L282.312 250.424C282.312 250.424 282.457 250.371 282.481 250.424L282.903 250.984C282.923 250.995 282.946 251 282.97 251C282.993 251 283.016 250.995 283.036 250.984L283.929 250.159C283.955 250.138 283.975 250.112 283.988 250.082C284.001 250.053 284.005 250.021 284.001 249.99L283.748 249.25C283.727 249.191 283.727 249.128 283.748 249.07C283.901 248.87 284.038 248.662 284.158 248.446C284.203 248.384 284.271 248.339 284.351 248.319L285.124 248.16C285.196 248.16 285.28 248.086 285.293 248.034L285.679 246.891C285.701 246.891 285.723 246.884 285.738 246.87C285.754 246.856 285.763 246.837 285.763 246.817C285.763 246.798 285.754 246.779 285.738 246.765C285.723 246.751 285.701 246.743 285.679 246.743ZM281.588 249.514H281.286C281.121 249.513 280.959 249.469 280.822 249.388C280.685 249.308 280.578 249.193 280.514 249.059C280.454 248.942 280.417 248.817 280.405 248.689C280.399 248.619 280.399 248.548 280.405 248.478C280.45 247.717 280.806 246.997 281.407 246.447C281.587 246.278 281.794 246.131 282.022 246.014L282.227 245.918C282.409 245.846 282.607 245.81 282.807 245.813H282.903C283.046 245.829 283.18 245.879 283.293 245.957C283.405 246.036 283.492 246.139 283.543 246.257C283.671 246.72 283.658 247.205 283.503 247.662C283.348 248.119 283.058 248.532 282.662 248.858C282.385 249.164 282.011 249.392 281.588 249.514Z" fill="white"/>
<path d="M242.274 168.291C246.088 166.356 249.189 167.921 249.189 171.781C249.057 173.883 248.362 175.928 247.161 177.75C245.959 179.573 244.285 181.122 242.274 182.273C238.461 184.208 235.359 182.643 235.359 178.772C235.491 176.671 236.185 174.628 237.387 172.807C238.588 170.986 240.263 169.439 242.274 168.291Z" fill="#BA68C8"/>
<path d="M242.037 180.665V175.555L240.651 177.163L240.243 176.385L242.188 174.001L243.245 173.459V180.046L242.037 180.665Z" fill="#455A64"/>
<path d="M257.755 163.477L291.291 146.555C292.221 146.09 292.957 146.418 292.957 147.295C292.918 147.785 292.747 148.259 292.458 148.678C292.168 149.097 291.768 149.45 291.291 149.707L257.755 166.629C256.838 167.094 256.09 166.766 256.09 165.888C256.137 165.401 256.311 164.93 256.6 164.512C256.889 164.093 257.284 163.739 257.755 163.477Z" fill="#BA68C8"/>
<path d="M257.236 169.145L280.249 157.511C280.877 157.194 281.396 157.416 281.396 158.019C281.37 158.356 281.252 158.683 281.053 158.971C280.853 159.26 280.578 159.503 280.249 159.68L257.236 171.313C256.609 171.631 256.09 171.409 256.09 170.806C256.116 170.469 256.234 170.142 256.433 169.853C256.632 169.565 256.908 169.322 257.236 169.145Z" fill="#E0E0E0"/>
<path d="M242.274 189.284C246.088 187.359 249.189 188.925 249.189 192.785C249.057 194.887 248.362 196.931 247.161 198.754C245.959 200.577 244.285 202.126 242.274 203.276C238.461 205.201 235.359 203.636 235.359 199.776C235.492 197.674 236.187 195.629 237.388 193.807C238.589 191.984 240.263 190.435 242.274 189.284Z" fill="#BA68C8"/>
<path d="M240.047 202.689V201.611L241.389 199.377C241.643 198.953 241.862 198.585 242.046 198.271C242.23 197.951 242.369 197.667 242.463 197.419C242.564 197.167 242.614 196.929 242.614 196.703C242.614 196.37 242.532 196.189 242.366 196.161C242.2 196.126 241.934 196.203 241.566 196.391C241.418 196.467 241.255 196.56 241.078 196.671C240.9 196.782 240.728 196.894 240.563 197.005C240.403 197.114 240.264 197.212 240.145 197.299L240.083 196.273C240.213 196.166 240.373 196.041 240.563 195.897C240.758 195.751 240.968 195.603 241.193 195.455C241.424 195.296 241.649 195.161 241.868 195.049C242.508 194.721 242.996 194.624 243.334 194.757C243.671 194.884 243.84 195.263 243.84 195.895C243.84 196.241 243.796 196.57 243.707 196.881C243.624 197.19 243.491 197.514 243.307 197.855C243.13 198.185 242.893 198.569 242.597 199.007L241.424 200.865L243.92 199.587V200.704L240.047 202.689Z" fill="#455A64"/>
<path d="M257.755 184.469L291.291 167.548C292.221 167.082 292.957 167.41 292.957 168.277C292.918 168.768 292.747 169.243 292.458 169.665C292.168 170.086 291.768 170.44 291.291 170.699L257.755 187.632C256.838 188.097 256.09 187.769 256.09 186.891C256.135 186.402 256.309 185.929 256.598 185.509C256.887 185.089 257.283 184.733 257.755 184.469Z" fill="#BA68C8"/>
<path d="M257.236 190.15L280.249 178.516C280.877 178.189 281.396 178.421 281.396 179.014C281.37 179.35 281.252 179.677 281.053 179.966C280.853 180.255 280.578 180.498 280.249 180.674L257.236 192.308C256.609 192.625 256.09 192.392 256.09 191.8C256.118 191.465 256.236 191.141 256.436 190.854C256.635 190.567 256.909 190.326 257.236 190.15Z" fill="#E0E0E0"/>
<path d="M242.274 210.287C246.088 208.351 249.189 209.917 249.189 213.787C249.058 215.888 248.363 217.932 247.162 219.753C245.96 221.574 244.286 223.121 242.274 224.268C238.461 226.204 235.359 224.639 235.359 220.778C235.492 218.677 236.187 216.632 237.388 214.809C238.589 212.987 240.263 211.437 242.274 210.287Z" fill="#BA68C8"/>
<path d="M241.895 222.856C241.676 222.968 241.445 223.073 241.202 223.171C240.965 223.265 240.737 223.349 240.518 223.421C240.305 223.484 240.127 223.535 239.985 223.575L240.039 222.479C240.181 222.427 240.349 222.363 240.545 222.29C240.746 222.213 240.951 222.132 241.158 222.046C241.371 221.95 241.566 221.856 241.744 221.765C242.082 221.592 242.333 221.394 242.499 221.169C242.665 220.944 242.748 220.676 242.748 220.363C242.748 220.15 242.709 220.003 242.632 219.923C242.561 219.833 242.455 219.794 242.312 219.807C242.176 219.817 242.016 219.866 241.833 219.953L240.625 220.572V219.474L241.806 218.869C241.942 218.799 242.073 218.699 242.197 218.569C242.327 218.436 242.431 218.286 242.508 218.12C242.591 217.951 242.632 217.777 242.632 217.598C242.632 217.318 242.555 217.161 242.401 217.127C242.253 217.083 242.01 217.148 241.673 217.321C241.495 217.412 241.309 217.517 241.113 217.637C240.918 217.757 240.731 217.876 240.554 217.994C240.376 218.105 240.228 218.204 240.11 218.291L240.056 217.271C240.187 217.164 240.347 217.042 240.536 216.905C240.726 216.761 240.927 216.622 241.14 216.486C241.353 216.343 241.555 216.224 241.744 216.126C242.247 215.869 242.653 215.721 242.961 215.683C243.275 215.635 243.503 215.708 243.645 215.901C243.787 216.088 243.858 216.394 243.858 216.82C243.858 217.053 243.831 217.263 243.778 217.45C243.731 217.634 243.666 217.803 243.583 217.959C243.506 218.111 243.426 218.246 243.343 218.361C243.26 218.47 243.183 218.57 243.112 218.659C243.29 218.661 243.443 218.686 243.574 218.732C243.704 218.778 243.805 218.876 243.876 219.026C243.947 219.176 243.982 219.408 243.982 219.72C243.982 220.219 243.905 220.661 243.751 221.046C243.597 221.424 243.367 221.762 243.059 222.06C242.751 222.351 242.363 222.616 241.895 222.856Z" fill="#455A64"/>
<path d="M257.755 205.476L291.291 188.491C292.221 188.025 292.957 188.364 292.957 189.231C292.917 189.721 292.746 190.196 292.456 190.617C292.167 191.038 291.768 191.393 291.291 191.653L257.755 208.638C256.838 209.103 256.09 208.765 256.09 207.898C256.135 207.409 256.309 206.935 256.598 206.515C256.887 206.095 257.283 205.739 257.755 205.476Z" fill="#BA68C8"/>
<path d="M257.236 211.155L280.249 199.521C280.877 199.204 281.396 199.437 281.396 200.029C281.37 200.366 281.252 200.692 281.053 200.981C280.853 201.27 280.578 201.513 280.249 201.689L257.236 213.323C256.609 213.651 256.09 213.418 256.09 212.826C256.114 212.487 256.231 212.159 256.43 211.868C256.63 211.577 256.906 211.332 257.236 211.155Z" fill="#E0E0E0"/>
<path d="M212.388 238.322C204.23 239.19 182.279 239.877 182.279 239.877C167.798 234.303 156.478 222.077 155.042 208.297L154.415 202.364C153.208 191.11 162.44 180.608 174.737 177.224C178.342 176.197 182.165 175.895 185.921 176.34C189.678 176.785 193.272 177.966 196.437 179.794C199.601 181.623 202.256 184.053 204.202 186.904C206.149 189.754 207.338 192.953 207.682 196.261C207.983 199.18 208.888 201.761 211.58 203.664C213.084 204.608 214.703 205.402 216.407 206.033C218.856 206.975 221.086 208.306 222.984 209.957C223.924 210.789 224.659 211.782 225.143 212.874C225.626 213.965 225.849 215.133 225.795 216.303C225.604 217.808 224.93 219.234 223.852 220.417C223.647 220.589 223.526 220.824 223.515 221.073C223.558 221.247 223.654 221.408 223.792 221.538C226.29 224.341 227.606 228.212 226.109 231.511C225.067 233.58 223.237 235.266 220.932 236.281C218.63 237.284 216.148 237.931 213.595 238.196L212.388 238.322Z" fill="#263238"/>
<path d="M282.982 218.377C282.557 217.865 282.067 217.397 281.522 216.981C280.569 216.209 279.253 215.501 278.034 215.924C277.319 216.233 276.729 216.728 276.345 217.341C275.573 218.335 274.655 219.255 273.931 220.281C272.941 221.778 271.798 223.194 270.516 224.511C269.973 225.083 269.189 225.865 268.26 225.622C268.093 225.581 267.943 225.5 267.825 225.389C267.724 225.271 267.658 225.133 267.632 224.987C267.518 224.281 267.563 223.563 267.765 222.872C267.96 222.177 267.96 221.452 267.765 220.757C267.655 220.416 267.421 220.116 267.098 219.902C266.776 219.689 266.383 219.573 265.979 219.572C265.753 219.584 265.542 219.671 265.387 219.816C265.282 219.917 265.2 220.036 265.146 220.165C263.567 222.904 262.419 225.818 261.731 228.826C261.574 230.158 261.3 231.477 260.91 232.771C259.885 235.563 256.156 237.002 253.537 238.62C247.835 241.911 241.946 244.947 235.894 247.715C232.925 245.431 214.172 231.09 208.995 227.304C201.537 221.867 193.621 224.3 192.546 224.374C191.472 224.448 190.048 230.72 198.822 239.815C198.822 239.815 226.179 260.1 231.405 262.734C232.696 263.379 234.446 264.722 236.558 264.648H236.63H236.895C237.179 264.627 237.458 264.578 237.728 264.5C240.323 263.77 244.027 260.957 245.584 259.899C253.429 254.367 260.945 248.486 268.103 242.279C270.142 240.545 272.459 239.107 274.667 237.531C277.569 235.602 280.026 233.208 281.908 230.476C283.344 228.555 284.219 226.354 284.454 224.067C284.722 222.079 284.202 220.07 282.982 218.377Z" fill="#FFA8A7"/>
<path d="M163.427 273.402C156.971 286.093 155.402 293.496 154.895 300.402C154.388 307.309 155.136 317.758 155.136 317.758L212.132 288.959C210.864 281.922 208.993 274.978 206.533 268.188L163.427 273.402Z" fill="#BA68C8"/>
<path d="M206.62 252.496L206.282 265.589C207.03 268.159 208.225 272.358 209.565 276.165C208.72 278.482 202.481 284.711 189.23 288.571C175.232 292.654 159.266 288.444 157.492 285.398L163.043 273.077C163.043 273.077 158.216 256.737 158.144 256.536C158.071 256.335 163.321 249.693 163.671 241.729C164.021 233.766 161.511 230.349 160.714 229.588C161.076 229.451 169.246 227.473 169.246 227.473L185.538 224.617L193.201 224.184C199.585 227.051 204.756 231.631 207.96 237.256C209.441 239.638 210.103 242.345 209.865 245.05C209.627 247.754 208.5 250.341 206.62 252.496Z" fill="#FAFAFA"/>
<path d="M197.348 186.797C199.049 188.32 202.489 191.969 202.175 205.199C201.849 216.421 197.698 219.181 195.61 220.006C193.522 220.831 189.504 220.302 185.606 219.731V225.199C185.606 225.199 191.133 228.573 192.521 231.629C193.607 234.009 186.704 237.33 176.229 233.374C171.945 231.756 168.494 227.642 168.494 227.642L168.626 211.439C168.626 211.439 166.322 213.385 162.436 210.382C159.226 207.917 158.152 203.75 160.662 201.529C161.314 201.001 162.1 200.616 162.955 200.405C163.81 200.195 164.71 200.166 165.58 200.32C166.451 200.473 167.268 200.806 167.963 201.29C168.658 201.775 169.212 202.397 169.58 203.105C174.948 203.178 180.238 201.979 184.894 199.636C193.136 195.639 196.793 191.154 197.348 186.797Z" fill="#FFA8A7"/>
<path d="M187.647 203.178C187.649 203.453 187.559 203.723 187.388 203.954C187.216 204.185 186.971 204.366 186.683 204.476C186.395 204.586 186.076 204.62 185.767 204.572C185.457 204.525 185.17 204.399 184.941 204.21C184.713 204.021 184.552 203.777 184.48 203.509C184.408 203.241 184.427 202.961 184.536 202.702C184.644 202.443 184.836 202.218 185.089 202.055C185.342 201.891 185.644 201.796 185.958 201.782C186.174 201.776 186.388 201.808 186.59 201.875C186.791 201.942 186.976 202.043 187.133 202.173C187.29 202.303 187.416 202.458 187.504 202.631C187.593 202.803 187.641 202.989 187.647 203.178Z" fill="#263238"/>
<path d="M186.418 211.492L192.452 212.455C192.397 212.807 192.263 213.145 192.056 213.451C191.849 213.756 191.574 214.022 191.248 214.232C190.921 214.443 190.549 214.593 190.155 214.675C189.761 214.756 189.351 214.767 188.952 214.707C188.137 214.564 187.417 214.148 186.944 213.548C186.471 212.949 186.283 212.211 186.418 211.492Z" fill="#B16668"/>
<path d="M188.963 214.707C189.36 214.779 189.771 214.779 190.169 214.707C190.138 214.113 189.848 213.552 189.358 213.14C188.868 212.729 188.217 212.498 187.539 212.496C187.173 212.493 186.811 212.558 186.477 212.687C186.631 213.195 186.946 213.654 187.386 214.012C187.826 214.369 188.373 214.61 188.963 214.707Z" fill="#F28F8F"/>
<path d="M200.437 198.654L196.816 197.353C196.901 197.139 197.034 196.943 197.207 196.776C197.381 196.609 197.592 196.475 197.827 196.382C198.062 196.289 198.316 196.239 198.574 196.235C198.832 196.231 199.088 196.273 199.326 196.359C199.81 196.545 200.194 196.887 200.401 197.313C200.607 197.74 200.62 198.219 200.437 198.654Z" fill="#263238"/>
<path d="M199.593 202.141C199.592 202.416 199.5 202.685 199.327 202.915C199.154 203.144 198.908 203.324 198.62 203.432C198.332 203.541 198.013 203.572 197.704 203.524C197.396 203.475 197.11 203.349 196.882 203.159C196.655 202.97 196.496 202.726 196.425 202.458C196.353 202.191 196.373 201.91 196.482 201.652C196.591 201.394 196.783 201.17 197.036 201.007C197.288 200.844 197.59 200.749 197.903 200.735C198.34 200.726 198.762 200.869 199.079 201.133C199.395 201.396 199.58 201.759 199.593 202.141Z" fill="#263238"/>
<path d="M192.051 201.57L193.161 209.777L197.988 207.768L192.051 201.57Z" fill="#F28F8F"/>
<path d="M185.546 219.699C181.431 219.212 172.972 217.065 171.656 214.125C172.179 215.613 173.212 216.923 174.613 217.88C177.135 219.783 185.534 221.941 185.534 221.941L185.546 219.699Z" fill="#F28F8F"/>
<path d="M168.941 207.187C169.994 207.108 170.969 206.666 171.65 205.958C172.331 205.25 172.663 204.334 172.574 203.411C172.484 202.488 171.98 201.634 171.172 201.037C170.364 200.44 169.319 200.149 168.266 200.227L168.941 207.187Z" fill="#263238"/>
<path d="M127.911 280.226C129.685 289.543 133.571 298.205 145.228 315.561C146.56 317.681 148.181 319.652 150.055 321.43C152.022 323.296 154.41 324.783 157.067 325.798C158.618 326.368 160.342 326.469 161.966 326.084C165.128 325.418 167.819 323.271 168.061 321.949C168.386 320.172 164.754 318.374 163.33 317.084C162.123 316.026 159.71 314.239 158.901 313.266C158.093 312.293 157.175 311.51 158.189 311.542C158.805 311.542 159.396 311.743 159.987 311.806C160.493 311.848 161.002 311.848 161.508 311.806C162.015 311.838 162.524 311.772 163 311.613C163.475 311.454 163.905 311.206 164.259 310.886C164.409 310.725 164.502 310.529 164.526 310.322C164.549 310.115 164.503 309.906 164.392 309.723C164.159 309.47 163.85 309.279 163.499 309.173C162.383 308.802 161.299 308.364 160.253 307.861C159.212 307.337 158.208 306.758 157.248 306.127C155.776 305.069 153.772 303.927 152.867 302.457C150.603 298.901 148.883 295.1 147.751 291.151C146.93 288.401 145.337 283.124 144.516 278.121C144.782 277.486 148.463 271.553 150.84 268.105C154.255 263.145 157.513 258.894 160.663 254.473C167.312 247.366 166.697 233.818 160.808 229.598C150.454 231.924 147.473 235.827 144.058 241.612C140.727 247.239 131.773 262.934 128.816 270.686C127.621 273.752 127.31 277.029 127.911 280.226Z" fill="#FFA8A7"/>
</svg>
