<svg width="340" height="360" viewBox="0 0 340 360" fill="none" xmlns="http://www.w3.org/2000/svg">
<path d="M202.095 206.349C202.157 206.405 202.216 206.464 202.272 206.526L202.778 207.05L204.73 209.117L212.094 217.004L238.186 245.136H237.884L267.48 211.237L267.684 211.006L267.853 211.264L270.009 214.511L292.401 248.224L292.091 248.17L313.614 230.977L313.738 230.879L313.844 230.995L330.275 249.625L334.711 254.709L335.864 256.04C336.121 256.341 336.246 256.501 336.246 256.501C336.246 256.501 336.095 256.359 335.829 256.075L334.658 254.709L330.133 249.687L313.596 231.19H313.827L292.357 248.499L292.179 248.641L292.046 248.445L269.627 214.786L267.463 211.53H267.826C257.056 223.862 246.924 235.439 238.194 245.429L238.044 245.598L237.893 245.429C227.176 233.771 218.206 224.03 211.916 217.181L204.641 209.197L202.734 207.085C202.53 206.845 202.37 206.668 202.246 206.535C202.122 206.402 202.086 206.358 202.095 206.349Z" fill="#0B2962"/>
<path d="M235.113 245.364C235.108 245.98 235.286 246.584 235.626 247.099C235.965 247.614 236.449 248.016 237.018 248.254C237.586 248.492 238.213 248.556 238.818 248.437C239.422 248.318 239.978 248.022 240.414 247.586C240.85 247.15 241.146 246.594 241.265 245.99C241.384 245.385 241.32 244.758 241.082 244.19C240.844 243.621 240.442 243.137 239.927 242.797C239.412 242.458 238.808 242.28 238.192 242.285C237.377 242.29 236.597 242.616 236.02 243.192C235.444 243.768 235.118 244.549 235.113 245.364Z" fill="#E0E0E0"/>
<path d="M289.481 249.062C289.484 249.677 289.67 250.277 290.014 250.785C290.359 251.294 290.847 251.689 291.416 251.921C291.985 252.152 292.61 252.21 293.212 252.086C293.814 251.962 294.366 251.662 294.797 251.224C295.228 250.787 295.52 250.231 295.636 249.628C295.751 249.024 295.685 248.4 295.445 247.834C295.205 247.268 294.803 246.786 294.289 246.449C293.776 246.112 293.174 245.934 292.559 245.94C291.737 245.947 290.951 246.279 290.374 246.865C289.797 247.45 289.476 248.24 289.481 249.062Z" fill="#E0E0E0"/>
<path d="M310.621 231.97C310.626 232.582 310.813 233.179 311.158 233.685C311.502 234.191 311.989 234.584 312.557 234.814C313.125 235.043 313.748 235.099 314.347 234.974C314.947 234.85 315.496 234.55 315.925 234.113C316.355 233.677 316.645 233.123 316.759 232.521C316.873 231.919 316.807 231.297 316.568 230.734C316.328 230.17 315.927 229.69 315.415 229.354C314.903 229.018 314.303 228.842 313.691 228.847C312.87 228.856 312.087 229.19 311.512 229.775C310.937 230.36 310.616 231.149 310.621 231.97Z" fill="#E0E0E0"/>
<path d="M264.555 211.656C264.558 212.271 264.744 212.87 265.089 213.379C265.433 213.888 265.921 214.283 266.49 214.515C267.059 214.746 267.684 214.804 268.286 214.68C268.888 214.556 269.44 214.256 269.871 213.818C270.303 213.381 270.594 212.825 270.71 212.221C270.825 211.618 270.759 210.993 270.519 210.428C270.28 209.862 269.877 209.38 269.364 209.042C268.85 208.705 268.248 208.528 267.633 208.533C266.811 208.54 266.026 208.873 265.449 209.458C264.871 210.044 264.55 210.834 264.555 211.656Z" fill="#E0E0E0"/>
<path d="M333.789 256.589C333.793 257.203 333.978 257.803 334.323 258.312C334.667 258.821 335.155 259.216 335.724 259.447C336.294 259.679 336.919 259.736 337.521 259.612C338.123 259.488 338.674 259.188 339.106 258.751C339.537 258.313 339.829 257.757 339.944 257.154C340.059 256.55 339.993 255.926 339.754 255.36C339.514 254.794 339.112 254.312 338.598 253.975C338.084 253.638 337.482 253.461 336.868 253.466C336.046 253.473 335.26 253.806 334.683 254.391C334.106 254.976 333.784 255.767 333.789 256.589Z" fill="#E0E0E0"/>
<path d="M61.8295 21.6426H41.8945V100.93H61.8295V21.6426Z" fill="#407BFF"/>
<path d="M91.1615 38.9355H71.2266V100.923H91.1615V38.9355Z" fill="#407BFF"/>
<path d="M120.931 53.0938H100.996V100.922H120.931V53.0938Z" fill="#407BFF"/>
<path d="M148.497 72.5303H128.562V100.938H148.497V72.5303Z" fill="#E6E6E6"/>
<path d="M132.536 1.85938C132.536 1.85938 132.35 2.09891 131.986 2.52476L130.327 4.4322L124.019 11.6184L101.272 37.3466L101.147 37.4797L101.006 37.3732L86.163 25.9996H86.4646L65.7046 52.3134L65.4562 52.6327L65.3054 52.8279L65.1191 52.6594L37.164 27.9691H37.4745C26.5001 42.3769 17.2024 54.6821 10.5486 63.3854L2.80349 73.5081L0.736362 76.1696L0.195181 76.8528C0.134777 76.9335 0.0696001 77.0105 0 77.0834C0.050396 76.9968 0.106721 76.9138 0.168566 76.835L0.683126 76.1253L2.69703 73.4016L10.3357 63.2079L37.1285 27.6675L37.2705 27.4812L37.439 27.632L65.4296 52.2601H65.0924L65.3409 51.9407L86.1275 25.6447L86.2606 25.4761L86.4291 25.6092L101.245 36.974H100.979L123.842 11.4498C126.601 8.38903 128.765 5.98477 130.247 4.35235L131.942 2.48927C132.332 2.04568 132.536 1.85938 132.536 1.85938Z" fill="#FFBB00"/>
<path d="M129.242 20.2531C129.234 20.1185 129.249 19.9837 129.286 19.8539L129.508 18.7183C129.738 17.6626 130.049 16.2608 130.395 14.5486C131.184 10.9998 132.302 6.15583 133.589 0.72628L133.873 0.992434L132.87 1.30295C127.308 3.0152 122.268 4.53228 118.613 5.61465L114.275 6.86557L113.086 7.18496C112.95 7.23579 112.806 7.2628 112.66 7.2648C112.787 7.19566 112.921 7.13921 113.059 7.09624L114.222 6.69701L118.516 5.30413C122.144 4.14193 127.174 2.57162 132.71 0.868229L133.713 0.566588L134.103 0.442383L134.006 0.841611C132.773 6.29777 131.646 11.124 130.759 14.6284C130.324 16.3229 129.969 17.7158 129.712 18.7627C129.588 19.1974 129.481 19.57 129.401 19.8716C129.367 20.006 129.313 20.1345 129.242 20.2531Z" fill="#FFBB00"/>
<path d="M286.507 135.926C290.469 135.862 294.36 136.974 297.69 139.121C301.019 141.268 303.637 144.354 305.213 147.989C306.789 151.624 307.251 155.645 306.542 159.543C305.833 163.441 303.983 167.041 301.228 169.888C298.473 172.734 294.936 174.701 291.063 175.537C287.191 176.374 283.157 176.043 279.472 174.588C275.788 173.132 272.617 170.616 270.362 167.359C268.107 164.102 266.869 160.249 266.803 156.287C266.722 150.976 268.752 145.85 272.446 142.033C276.139 138.216 281.196 136.02 286.507 135.926ZM286.986 165.541C288.88 165.505 290.721 164.909 292.277 163.828C293.832 162.747 295.032 161.229 295.725 159.466C296.418 157.704 296.573 155.775 296.17 153.924C295.768 152.073 294.825 150.383 293.463 149.067C292.1 147.752 290.378 146.87 288.514 146.532C286.65 146.195 284.728 146.418 282.991 147.172C281.253 147.927 279.779 149.179 278.753 150.772C277.727 152.364 277.196 154.225 277.227 156.119C277.249 157.378 277.519 158.621 278.022 159.776C278.524 160.931 279.249 161.976 280.155 162.851C281.061 163.726 282.131 164.414 283.303 164.875C284.475 165.337 285.727 165.563 286.986 165.541Z" fill="#407BFF"/>
<path d="M286.474 133.432C292.448 133.347 298.212 135.633 302.503 139.791C306.794 143.949 309.261 149.638 309.363 155.612L295.701 155.966C295.612 150.031 291.593 147.618 286.829 147.316C285.658 147.246 284.486 147.419 283.385 147.825C282.285 148.23 281.28 148.859 280.434 149.671C279.588 150.483 278.92 151.462 278.47 152.546C278.021 153.629 277.801 154.794 277.824 155.966L264.303 156.33C264.211 150.355 266.494 144.587 270.651 140.294C274.808 136 280.499 133.532 286.474 133.432Z" fill="#F0F0F0"/>
<path d="M124.289 224.197C131.186 216.96 140.648 212.719 150.64 212.387C160.631 212.055 170.354 215.659 177.715 222.422C181.332 225.755 184.25 229.773 186.303 234.242C188.355 238.712 189.499 243.544 189.67 248.459C189.841 253.374 189.035 258.274 187.298 262.875C185.561 267.476 182.928 271.687 179.552 275.263C172.655 282.5 163.193 286.74 153.201 287.072C143.21 287.404 133.488 283.801 126.126 277.037C122.509 273.704 119.591 269.687 117.538 265.217C115.486 260.748 114.342 255.916 114.171 251C114 246.085 114.806 241.185 116.543 236.584C118.28 231.983 120.913 227.773 124.289 224.197ZM165.1 261.937C166.718 260.228 167.981 258.214 168.813 256.013C169.646 253.811 170.032 251.466 169.95 249.114C169.867 246.761 169.317 244.449 168.332 242.311C167.347 240.173 165.947 238.253 164.212 236.662C160.689 233.431 156.037 231.714 151.26 231.88C146.483 232.046 141.962 234.082 138.67 237.549C137.052 239.258 135.79 241.272 134.957 243.473C134.124 245.675 133.738 248.02 133.821 250.372C133.903 252.725 134.453 255.037 135.438 257.175C136.423 259.313 137.823 261.233 139.558 262.825C143.081 266.062 147.737 267.784 152.519 267.618C157.302 267.452 161.827 265.412 165.117 261.937H165.1Z" fill="#F5F5F5"/>
<path d="M124.299 224.197C131.196 216.96 140.658 212.719 150.65 212.387C160.641 212.055 170.364 215.659 177.725 222.422L164.258 236.688C160.734 233.458 156.083 231.741 151.305 231.907C146.528 232.073 142.007 234.109 138.716 237.575C137.097 239.284 135.835 241.298 135.002 243.5C134.17 245.701 133.783 248.047 133.866 250.399C133.949 252.751 134.498 255.064 135.483 257.202C136.468 259.339 137.869 261.26 139.603 262.851L126.118 277.064C122.499 273.729 119.578 269.709 117.525 265.237C115.472 260.764 114.328 255.929 114.159 251.01C113.989 246.092 114.799 241.189 116.54 236.586C118.28 231.983 120.918 227.772 124.299 224.197Z" fill="#407BFF"/>
<path d="M176.171 216.291C194.801 233.529 197.064 261.537 179.631 280.026L160.707 263.711C169.038 254.883 170.848 243.093 161.931 234.851L176.171 216.291Z" fill="#EBEBEB"/>
<path d="M158.742 264.883L169.983 287.116C174.631 285.412 178.819 282.651 182.217 279.052L162.025 262.745L158.742 264.883Z" fill="#E0E0E0"/>
<path d="M201.144 59.6631C200.98 49.6975 203.775 39.9073 209.177 31.5309C214.578 23.1545 222.343 16.5683 231.488 12.6056C240.633 8.64284 250.748 7.48159 260.554 9.26873C270.359 11.0559 279.414 15.7111 286.573 22.6455C293.732 29.5799 298.674 38.4819 300.773 48.2254C302.872 57.9688 302.034 68.1158 298.364 77.3828C294.695 86.6497 288.36 94.6203 280.16 100.286C271.96 105.952 262.264 109.058 252.298 109.212C238.951 109.402 226.072 104.294 216.484 95.0064C206.896 85.719 201.379 73.0099 201.144 59.6631ZM275.605 58.4654C275.527 53.7024 274.038 49.0693 271.328 45.1522C268.617 41.235 264.805 38.2095 260.375 36.4584C255.945 34.7073 251.095 34.3091 246.439 35.3142C241.782 36.3193 237.528 38.6825 234.215 42.1051C230.902 45.5276 228.677 49.8558 227.824 54.5424C226.97 59.229 227.525 64.0634 229.419 68.4345C231.313 72.8056 234.46 76.517 238.463 79.0994C242.466 81.6818 247.145 83.0193 251.908 82.9427C258.294 82.833 264.376 80.1941 268.819 75.6051C273.261 71.016 275.702 64.8519 275.605 58.4654Z" fill="#FAFAFA"/>
<path d="M201.142 59.6619C200.941 46.3055 206.047 33.4147 215.34 23.819C224.633 14.2234 237.353 8.70691 250.709 8.48047L251.135 34.7676C244.747 34.87 238.661 37.5059 234.216 42.0954C229.771 46.685 227.332 52.8523 227.434 59.2405C227.536 65.6288 230.172 71.7147 234.762 76.1595C239.351 80.6044 245.519 83.0439 251.907 82.9416L252.297 109.211C238.948 109.406 226.067 104.299 216.478 95.0105C206.888 85.7221 201.374 73.0102 201.142 59.6619Z" fill="#407BFF"/>
<path d="M246.199 4.43772C278.697 3.91429 304.629 29.0215 305.144 61.5189L274.385 62.0158C274.137 46.4724 262.257 36.6867 246.723 36.944L246.199 4.43772Z" fill="#F0F0F0"/>
<path d="M100.125 236.309L264.52 235.129V237.436L100.125 238.908V236.309Z" fill="#263238"/>
<path d="M96.5469 69.1719L100.291 237.683L264.526 236.405V66.3418L96.5469 69.1719Z" fill="white"/>
<path d="M96.5422 69.1776L264.521 66.1523H264.725V66.3564C264.725 115.036 264.725 172.481 264.725 233.767V236.651H264.494L100.26 237.902H100.064V237.706C97.944 136.71 96.56 70.9165 96.5156 69.1865C96.5156 70.8899 98.0948 136.71 100.455 237.689L100.26 237.494L264.494 236.189L264.264 236.42V233.759C264.264 172.472 264.264 115.027 264.264 66.3475L264.468 66.5516L96.5422 69.1776Z" fill="#263238"/>
<path d="M95.8867 70.3009L265.241 69.3339L265.454 62.2275L95.8867 63.2833V70.3009Z" fill="#263238"/>
<path d="M176.962 242.282C176.678 242.282 176.376 240.96 176.297 239.31C176.217 237.659 176.394 236.311 176.678 236.293C176.962 236.275 177.264 237.606 177.343 239.256C177.423 240.906 177.255 242.282 176.962 242.282Z" fill="#263238"/>
<path d="M176.894 241.065C176.894 241.003 177.178 240.985 177.621 241.162C177.889 241.275 178.14 241.424 178.366 241.606C178.672 241.851 178.928 242.152 179.121 242.493C179.384 242.964 179.516 243.498 179.503 244.037C179.491 244.577 179.334 245.104 179.05 245.563C178.879 245.839 178.663 246.085 178.411 246.29C178.148 246.502 177.847 246.661 177.524 246.76C176.838 246.95 176.108 246.896 175.457 246.61C175.127 246.463 174.827 246.259 174.569 246.006C174.313 245.754 174.111 245.452 173.975 245.119C173.729 244.514 173.677 243.848 173.824 243.212C173.933 242.681 174.189 242.192 174.562 241.8C174.936 241.408 175.411 241.129 175.936 240.994C176.607 240.81 177.321 240.873 177.95 241.171C178.375 241.384 178.535 241.606 178.5 241.659C178.464 241.712 178.225 241.659 177.816 241.553C177.261 241.449 176.687 241.498 176.157 241.695C175.816 241.827 175.512 242.04 175.27 242.316C174.993 242.64 174.812 243.035 174.748 243.457C174.684 243.879 174.739 244.31 174.906 244.702C175.1 245.124 175.445 245.456 175.874 245.634C176.3 245.824 176.778 245.865 177.231 245.749C177.647 245.641 178.008 245.382 178.242 245.021C178.473 244.682 178.611 244.287 178.642 243.877C178.668 243.692 178.668 243.503 178.642 243.318C178.613 243.144 178.562 242.974 178.491 242.812C178.263 242.29 177.906 241.835 177.453 241.49C177.124 241.26 176.894 241.136 176.894 241.065Z" fill="#263238"/>
<path d="M201.333 161.389C201.333 161.389 201.333 161.389 201.226 161.389H200.925L199.754 161.442L195.238 161.637L178.63 162.258C164.604 162.773 145.219 163.456 123.82 164.192L116.456 164.441H116.288V164.272C114.797 144.692 113.449 127.144 112.517 114.528C112.056 108.229 111.692 103.163 111.435 99.6764C111.319 97.9021 111.222 96.5802 111.16 95.6664C111.16 95.2051 111.107 94.8591 111.098 94.6195C111.089 94.38 111.098 94.4155 111.098 94.3534C111.098 94.2913 111.098 94.2646 111.098 94.2646C111.102 94.2941 111.102 94.3239 111.098 94.3534C111.098 94.4155 111.098 94.5042 111.098 94.6195C111.098 94.7348 111.151 95.2051 111.195 95.6575C111.266 96.5447 111.382 97.9198 111.532 99.6676C111.807 103.154 112.216 108.22 112.721 114.501C113.715 127.081 115.081 144.586 116.589 164.245L116.412 164.086L123.776 163.828C145.174 163.101 164.586 162.453 178.586 162.01L195.202 161.495L199.718 161.371H200.889H201.297L201.333 161.389Z" fill="#455A64"/>
<path d="M141.863 88.8078V91.0701L165.267 89.9523V88.0537L141.863 88.8078Z" fill="#263238"/>
<path d="M124.141 159.455H132.277L130.999 137.373H123.023L124.141 159.455Z" fill="#FFBB00"/>
<path d="M138.887 159.464H147.014L145.745 128.599H137.77L138.887 159.464Z" fill="#FFBB00"/>
<path d="M152.695 158.475H160.83L159.553 118.063H151.586L152.695 158.475Z" fill="#FFBB00"/>
<path d="M184.372 156.909H192.498L191.23 101.833H183.254L184.372 156.909Z" fill="#FFBB00"/>
<path d="M168.95 157.095H177.076L175.799 109.702H167.832L168.95 157.095Z" fill="#FFBB00"/>
<path d="M119.037 131.647C118.825 131.319 133.357 121.631 151.482 110.009C169.607 98.3868 184.494 89.2311 184.707 89.6038C184.92 89.9764 170.387 99.62 152.254 111.242C134.12 122.864 119.233 131.976 119.037 131.647Z" fill="#FFBB00"/>
<path d="M176.661 89.5704C176.59 89.18 181.851 87.867 188.434 86.625L190.102 86.3145L189.152 87.7251L189.099 87.8049C185.337 93.3942 182.002 97.7502 181.691 97.5639C181.381 97.3776 184.158 92.6401 187.901 87.0419L187.955 86.9621L188.682 88.0622C182.108 89.2599 176.732 89.9519 176.661 89.5704Z" fill="#FFBB00"/>
<path d="M123.023 166.917H131.523L131.789 168.425H123.023V166.917Z" fill="#263238"/>
<path d="M138.066 166.292H146.566L146.832 167.8H138.066V166.292Z" fill="#263238"/>
<path d="M153.562 165.851H162.062L162.328 167.359H153.562V165.851Z" fill="#263238"/>
<path d="M168.07 165.485H176.57L176.836 167.002H168.07V165.485Z" fill="#263238"/>
<path d="M186.066 164.953H194.566L194.832 166.47H186.066V164.953Z" fill="#263238"/>
<path d="M224.181 225.083C239.164 225.083 251.311 212.937 251.311 197.953C251.311 182.97 239.164 170.823 224.181 170.823C209.197 170.823 197.051 182.97 197.051 197.953C197.051 212.937 209.197 225.083 224.181 225.083Z" fill="#FFBB00"/>
<path opacity="0.3" d="M224.181 225.083C239.164 225.083 251.311 212.937 251.311 197.953C251.311 182.97 239.164 170.823 224.181 170.823C209.197 170.823 197.051 182.97 197.051 197.953C197.051 212.937 209.197 225.083 224.181 225.083Z" fill="black"/>
<path d="M224.188 197.922L197.723 203.875C193.465 184.357 209.203 170.792 224.188 170.792" fill="#FFBB00"/>
<path d="M224.22 197.922L224.043 170.792C244.022 170.792 253.923 189.059 250.729 203.698L224.22 197.922Z" fill="#FFBB00"/>
<path d="M224.22 197.922L224.043 170.792C244.022 170.792 253.923 189.059 250.729 203.698L224.22 197.922Z" fill="#FFBB00"/>
<path opacity="0.1" d="M224.22 197.922L224.043 170.792C244.022 170.792 253.923 189.059 250.729 203.698L224.22 197.922Z" fill="black"/>
<path d="M252.008 133.718C251.481 133.366 250.919 133.069 250.331 132.831C248.692 132.33 246.935 132.38 245.327 132.973C243.251 133.621 241.193 135.271 239.197 137.338C237.201 139.405 235.063 141.907 231.94 143.371C230.433 144.12 228.737 144.401 227.069 144.178C225.564 143.866 224.11 143.347 222.749 142.635C221.55 142.01 220.268 141.559 218.943 141.295C217.79 141.114 216.609 141.262 215.536 141.721C213.957 142.391 212.665 143.598 211.89 145.128C211.64 145.702 211.435 146.296 211.277 146.902C211.305 146.26 211.459 145.63 211.73 145.048C212.473 143.432 213.778 142.142 215.403 141.419C216.516 140.924 217.745 140.749 218.951 140.914C220.321 141.168 221.647 141.616 222.891 142.244C224.217 142.932 225.632 143.434 227.096 143.735C228.674 143.931 230.275 143.66 231.7 142.954C234.699 141.552 236.802 139.068 238.851 137.037C240.9 135.005 243.021 133.293 245.177 132.663C246.851 132.079 248.674 132.079 250.349 132.663C250.796 132.835 251.216 133.068 251.6 133.355C251.75 133.459 251.887 133.581 252.008 133.718Z" fill="#263238"/>
<path d="M254.306 151.246C254.306 151.379 244.671 151.477 232.791 151.477C220.912 151.477 211.277 151.379 211.277 151.246C211.277 151.113 220.912 151.016 232.791 151.016C244.671 151.016 254.306 151.122 254.306 151.246Z" fill="#263238"/>
<path d="M251.918 151.249C251.794 151.249 251.688 145.766 251.688 138.997C251.688 132.228 251.794 126.754 251.918 126.754C252.042 126.754 252.149 132.237 252.149 138.997C252.149 145.757 252.051 151.249 251.918 151.249Z" fill="#263238"/>
<path d="M215.622 140.931C215.622 140.931 215.56 140.842 215.622 140.683C215.662 140.571 215.727 140.469 215.812 140.385C215.896 140.3 215.998 140.236 216.11 140.195C216.278 140.12 216.464 140.093 216.647 140.117C216.83 140.14 217.003 140.213 217.148 140.328C217.304 140.503 217.396 140.726 217.409 140.961C217.422 141.196 217.355 141.428 217.219 141.619C217.083 141.811 216.886 141.951 216.661 142.016C216.435 142.081 216.194 142.068 215.977 141.978C215.824 141.887 215.698 141.756 215.612 141.601C215.527 141.445 215.484 141.269 215.489 141.091C215.487 140.973 215.509 140.855 215.553 140.745C215.597 140.636 215.663 140.536 215.746 140.452C215.879 140.346 215.977 140.346 215.985 140.363C215.994 140.381 215.746 140.621 215.808 141.073C215.82 141.189 215.86 141.301 215.923 141.4C215.986 141.498 216.071 141.581 216.172 141.641C216.296 141.672 216.427 141.665 216.548 141.621C216.668 141.577 216.773 141.498 216.847 141.393C216.922 141.289 216.964 141.164 216.966 141.036C216.969 140.908 216.934 140.782 216.864 140.674C216.775 140.601 216.669 140.55 216.556 140.527C216.444 140.504 216.327 140.509 216.216 140.541C215.764 140.612 215.684 140.949 215.622 140.931Z" fill="#263238"/>
<path d="M244.631 132.031C244.631 132.031 244.631 131.924 244.791 131.836C244.997 131.732 245.236 131.713 245.456 131.782C245.631 131.83 245.79 131.925 245.915 132.056C246.04 132.187 246.127 132.35 246.166 132.528C246.179 132.756 246.116 132.983 245.985 133.171C245.854 133.359 245.663 133.498 245.444 133.564C245.224 133.631 244.989 133.622 244.776 133.538C244.562 133.455 244.383 133.302 244.267 133.104C244.203 132.933 244.187 132.748 244.22 132.568C244.252 132.389 244.333 132.221 244.453 132.084C244.603 131.907 244.817 131.795 245.048 131.774C245.208 131.774 245.287 131.827 245.279 131.853C245.27 131.88 244.941 131.898 244.72 132.279C244.658 132.374 244.62 132.482 244.608 132.595C244.595 132.707 244.609 132.821 244.649 132.927C244.727 133.023 244.831 133.093 244.95 133.129C245.068 133.165 245.194 133.165 245.312 133.128C245.43 133.092 245.535 133.022 245.613 132.926C245.69 132.83 245.738 132.713 245.749 132.59C245.725 132.479 245.676 132.376 245.605 132.288C245.534 132.2 245.444 132.13 245.341 132.084C244.95 131.889 244.675 132.093 244.631 132.031Z" fill="#263238"/>
<path d="M251.152 102.996C251.152 103.12 241.819 103.227 230.313 103.227C218.806 103.227 209.473 103.12 209.473 102.996C209.473 102.872 218.797 102.766 230.313 102.766C241.828 102.766 251.152 102.89 251.152 102.996Z" fill="#263238"/>
<path d="M251.152 108.808C251.152 108.941 241.819 109.038 230.313 109.038C218.806 109.038 209.473 108.941 209.473 108.808C209.473 108.675 218.797 108.577 230.313 108.577C241.828 108.577 251.152 108.684 251.152 108.808Z" fill="#263238"/>
<path d="M251.152 114.598C251.152 114.722 241.819 114.829 230.313 114.829C218.806 114.829 209.473 114.722 209.473 114.598C209.473 114.474 218.797 114.367 230.313 114.367C241.828 114.367 251.152 114.465 251.152 114.598Z" fill="#263238"/>
<path d="M251.152 120.381C251.152 120.514 241.819 120.612 230.313 120.612C218.806 120.612 209.473 120.514 209.473 120.381C209.473 120.248 218.797 120.15 230.313 120.15C241.828 120.15 251.152 120.257 251.152 120.381Z" fill="#263238"/>
<path d="M231.652 92.4268H209.473V94.2987H231.652V92.4268Z" fill="#263238"/>
<path d="M140.09 185.367H117.91V187.239H140.09V185.367Z" fill="#263238"/>
<path d="M178.605 196.217C178.605 196.35 165.146 196.448 148.547 196.448C131.948 196.448 118.48 196.35 118.48 196.217C118.48 196.084 131.939 195.986 148.547 195.986C165.155 195.986 178.605 196.093 178.605 196.217Z" fill="#263238"/>
<path d="M178.957 201.467C178.957 201.591 165.259 201.698 148.367 201.698C131.475 201.698 117.777 201.591 117.777 201.467C117.777 201.343 131.467 201.236 148.367 201.236C165.268 201.236 178.957 201.361 178.957 201.467Z" fill="#263238"/>
<path d="M179.664 206.426C179.664 206.55 165.886 206.657 148.896 206.657C131.907 206.657 118.129 206.55 118.129 206.426C118.129 206.302 131.907 206.195 148.896 206.195C165.886 206.195 179.664 206.293 179.664 206.426Z" fill="#263238"/>
<path d="M150.126 211.691C150.126 211.815 143.029 211.921 134.299 211.921C125.569 211.921 118.48 211.815 118.48 211.691C118.48 211.566 125.578 211.46 134.299 211.46C143.02 211.46 150.126 211.566 150.126 211.691Z" fill="#263238"/>
<path d="M53.5075 355.318V347.333L38.4875 347.2L38.3633 358.938L39.2505 359C43.3936 359.257 60.3299 360.011 63.1068 359.195C66.2474 358.272 53.5075 355.318 53.5075 355.318Z" fill="#F1F7FD"/>
<path d="M63.5124 358.466C63.5124 358.608 57.8965 358.724 50.9677 358.724C44.0388 358.724 38.4141 358.608 38.4141 358.466C38.4141 358.324 44.0388 358.209 50.9677 358.209C57.8965 358.209 63.5124 358.324 63.5124 358.466Z" fill="#263238"/>
<path d="M53.7704 356.959C53.6462 356.888 53.7704 356.454 54.0721 356.072C54.3737 355.691 54.7907 355.442 54.8794 355.54C54.9681 355.637 54.7729 356.001 54.4802 356.427C54.1874 356.853 53.8946 357.03 53.7704 356.959Z" fill="#263238"/>
<path d="M54.7285 357.484C54.5955 357.431 54.6665 356.951 54.9592 356.455C55.252 355.958 55.6424 355.656 55.7488 355.745C55.8553 355.834 55.6778 356.251 55.4028 356.712C55.1278 357.173 54.8616 357.537 54.7285 357.484Z" fill="#263238"/>
<path d="M42.9377 358.408C42.8756 358.453 42.6449 358.24 42.3167 357.885C41.9171 357.421 41.4745 356.996 40.9948 356.616C40.5163 356.265 39.9588 356.036 39.3712 355.951C38.9188 355.889 38.626 355.951 38.5994 355.88C38.5728 355.809 38.8567 355.623 39.3801 355.587C40.0699 355.567 40.7458 355.783 41.2964 356.199C41.8212 356.602 42.2665 357.098 42.6094 357.663C42.8845 358.08 43.0087 358.364 42.9377 358.408Z" fill="#263238"/>
<path d="M53.8219 355.449C53.8928 355.564 53.6267 355.848 53.2009 355.999C52.775 356.15 52.3935 356.097 52.3758 355.955C52.358 355.813 52.6508 355.653 53.0323 355.52C53.4138 355.387 53.742 355.325 53.8219 355.449Z" fill="#263238"/>
<path d="M53.5712 354.676C53.5712 354.818 53.1809 354.942 52.6841 354.951C52.1872 354.96 51.7969 354.844 51.7969 354.702C51.7969 354.56 52.205 354.445 52.6841 354.436C53.1631 354.427 53.5712 354.534 53.5712 354.676Z" fill="#F1F7FD"/>
<path d="M63.5124 358.466C63.5124 358.608 57.8965 358.724 50.9677 358.724C44.0388 358.724 38.4141 358.608 38.4141 358.466C38.4141 358.324 44.0388 358.209 50.9677 358.209C57.8965 358.209 63.5124 358.324 63.5124 358.466Z" fill="#263238"/>
<path d="M53.7704 356.959C53.6462 356.888 53.7704 356.454 54.0721 356.072C54.3737 355.691 54.7907 355.442 54.8794 355.54C54.9681 355.637 54.7729 356.001 54.4802 356.427C54.1874 356.853 53.8946 357.03 53.7704 356.959Z" fill="#263238"/>
<path d="M54.7285 357.484C54.5955 357.431 54.6665 356.951 54.9592 356.455C55.252 355.958 55.6424 355.656 55.7488 355.745C55.8553 355.834 55.6778 356.251 55.4028 356.712C55.1278 357.173 54.8616 357.537 54.7285 357.484Z" fill="#263238"/>
<path d="M42.9377 358.408C42.8756 358.453 42.6449 358.24 42.3167 357.885C41.9171 357.421 41.4745 356.996 40.9948 356.616C40.5163 356.265 39.9588 356.036 39.3712 355.951C38.9188 355.889 38.626 355.951 38.5994 355.88C38.5728 355.809 38.8567 355.623 39.3801 355.587C40.0699 355.567 40.7458 355.783 41.2964 356.199C41.8212 356.602 42.2665 357.098 42.6094 357.663C42.8845 358.08 43.0087 358.364 42.9377 358.408Z" fill="#263238"/>
<path d="M53.8219 355.449C53.8928 355.564 53.6267 355.848 53.2009 355.999C52.775 356.15 52.3935 356.097 52.3758 355.955C52.358 355.813 52.6508 355.653 53.0323 355.52C53.4138 355.387 53.742 355.325 53.8219 355.449Z" fill="#263238"/>
<path d="M53.5712 354.676C53.5712 354.818 53.1809 354.942 52.6841 354.951C52.1872 354.96 51.7969 354.844 51.7969 354.702C51.7969 354.56 52.205 354.445 52.6841 354.436C53.1631 354.427 53.5712 354.534 53.5712 354.676Z" fill="#263238"/>
<path d="M69.3545 352.483L71.7233 344.827L57.4042 340.284L53.8555 351.454L54.7426 351.791C58.6196 353.264 74.58 358.995 77.4722 359.039C80.6483 359.075 69.3545 352.483 69.3545 352.483Z" fill="#F1F7FD"/>
<path d="M77.9797 358.436C77.9797 358.578 72.5324 357.025 65.9141 354.967C59.2957 352.908 53.9637 351.143 54.0081 351.01C54.0524 350.877 59.4465 352.429 66.0737 354.479C72.701 356.528 78.0241 358.303 77.9797 358.436Z" fill="#263238"/>
<path d="M69.1277 354.123C69.0301 354.017 69.2608 353.644 69.6866 353.334C70.1125 353.023 70.5738 352.943 70.6182 353.068C70.6625 353.192 70.3786 353.476 69.9883 353.76C69.5979 354.044 69.2253 354.221 69.1277 354.123Z" fill="#263238"/>
<path d="M69.8715 354.915C69.7651 354.826 69.9691 354.383 70.4038 354.028C70.8386 353.673 71.291 353.469 71.3709 353.584C71.4507 353.699 71.1491 354.045 70.7498 354.409C70.3506 354.773 69.9869 354.968 69.8715 354.915Z" fill="#263238"/>
<path d="M58.3489 352.306C58.2779 352.306 58.1271 352.066 57.923 351.623C57.6793 351.063 57.3822 350.528 57.0359 350.026C56.6836 349.549 56.2208 349.166 55.6874 348.908C55.2704 348.722 54.9688 348.686 54.9688 348.615C54.9688 348.544 55.2881 348.438 55.8027 348.562C56.4644 348.75 57.043 349.156 57.444 349.715C57.8239 350.252 58.1034 350.853 58.269 351.49C58.3844 351.969 58.411 352.306 58.3489 352.306Z" fill="#455A64"/>
<path d="M69.6143 352.693C69.6143 352.826 69.3127 353.021 68.8602 353.039C68.4078 353.057 68.0529 352.888 68.0795 352.746C68.1061 352.604 68.4433 352.542 68.8425 352.524C69.2417 352.506 69.5434 352.551 69.6143 352.693Z" fill="#263238"/>
<path d="M69.6117 351.884C69.6117 352.018 69.1681 352.018 68.6801 351.884C68.1922 351.751 67.8462 351.512 67.8905 351.379C67.9349 351.246 68.3608 351.255 68.8221 351.379C69.2834 351.503 69.6472 351.742 69.6117 351.884Z" fill="#263238"/>
<path d="M79.5522 196.72L59.8391 195.203L29.9766 192.781L33.3124 353.192L59.2447 352.855C59.2447 352.855 59.2447 351.081 59.1826 347.94L74.3888 352.101C74.3888 352.101 89.2048 302.046 94.2528 281.508C98.4669 264.395 79.5522 196.72 79.5522 196.72ZM58.8987 323.028C58.5083 285.997 58.0558 223.025 58.597 215.325C58.597 215.325 73.0403 270.764 73.1734 275.138C73.2621 277.782 65.2154 303.368 58.8987 323.028Z" fill="#455A64"/>
<path d="M59.3794 346.781C59.3794 346.923 53.5772 347.038 46.4266 347.038C39.2759 347.038 33.4648 346.923 33.4648 346.781C33.4648 346.639 39.267 346.523 46.4266 346.523C53.5861 346.523 59.3794 346.639 59.3794 346.781Z" fill="#455A64"/>
<path d="M59.1523 341.01C59.9635 341.202 60.7584 341.457 61.53 341.773L67.4652 343.84L73.4005 345.916C74.2399 346.156 75.054 346.477 75.8313 346.874C74.9647 346.754 74.1119 346.548 73.2851 346.262C71.7414 345.809 69.6211 345.135 67.2967 344.328C64.9723 343.521 62.8608 342.722 61.4058 342.11C60.6073 341.849 59.8489 341.479 59.1523 341.01Z" fill="#455A64"/>
<path d="M82.9177 274.641C81.3138 275.014 79.6757 275.222 78.0293 275.262C76.3964 275.47 74.7463 275.509 73.1055 275.377C74.7084 274.996 76.3468 274.785 77.9938 274.747C79.6268 274.539 81.2772 274.503 82.9177 274.641Z" fill="#455A64"/>
<path d="M81.2198 277.552C79.9445 277.444 78.6888 277.17 77.4848 276.736C76.2317 276.462 75.0205 276.024 73.8828 275.432C75.1618 275.529 76.4214 275.8 77.6267 276.239C79.6495 276.825 81.2642 277.41 81.2198 277.552Z" fill="#455A64"/>
<path d="M60.9885 195.411C61.1077 196.424 61.1522 197.444 61.1216 198.463C61.1216 200.353 61.1216 202.961 61.1216 205.844C61.1216 207.273 61.1216 208.639 61.0684 209.899C61.1009 211.034 60.8891 212.162 60.4474 213.208C60.1327 213.921 59.6297 214.534 58.9924 214.982C58.7751 215.163 58.5156 215.285 58.2383 215.337C58.2383 215.337 58.4867 215.178 58.8859 214.84C59.4461 214.36 59.8815 213.751 60.1546 213.066C60.5245 212.05 60.6903 210.97 60.6425 209.89C60.6425 208.621 60.6425 207.228 60.6425 205.827C60.6425 202.943 60.7135 200.335 60.7668 198.454C60.7639 197.436 60.838 196.418 60.9885 195.411Z" fill="#455A64"/>
<path d="M46.1374 194.503C46.1469 194.633 46.1469 194.763 46.1374 194.893C46.1374 195.177 46.1374 195.559 46.1374 196.047C46.1374 197.076 46.0575 198.566 45.9954 200.483C45.8712 204.342 45.6938 209.887 45.472 216.727C45.055 230.443 44.6292 249.402 44.5227 270.33C44.4162 291.259 44.6558 310.253 44.9308 323.96C45.0816 330.801 45.197 336.381 45.2857 340.205C45.2857 342.112 45.3566 343.594 45.3833 344.641C45.3833 345.128 45.3833 345.528 45.3833 345.794C45.3928 345.924 45.3928 346.054 45.3833 346.184C45.3737 346.054 45.3737 345.924 45.3833 345.794C45.3833 345.519 45.3833 345.137 45.3212 344.649C45.3212 343.611 45.2236 342.13 45.1437 340.214C44.9929 336.381 44.8155 330.827 44.638 323.969C44.2743 310.245 43.9904 291.285 44.0969 270.33C44.2033 249.375 44.6824 230.407 45.1792 216.718C45.4276 209.86 45.6583 204.297 45.8535 200.474C45.9511 198.575 46.0309 197.093 46.0841 196.038C46.0841 195.55 46.1374 195.151 46.1551 194.884C46.1401 194.758 46.1341 194.63 46.1374 194.503Z" fill="#455A64"/>
<path d="M73.0951 198.54C73.149 198.658 73.1935 198.779 73.2282 198.904C73.3081 199.17 73.4234 199.525 73.5653 199.986C73.8492 200.935 74.3017 202.337 74.7985 204.165C75.8188 207.811 77.1939 213.108 78.7287 219.699C80.2636 226.291 81.9669 234.151 83.7413 242.917C85.5157 251.682 87.3876 261.335 89.0644 271.52C89.2773 272.797 89.4725 274.066 89.641 275.334C89.641 275.672 89.7032 276.018 89.7032 276.346L89.5435 277.286C89.4281 277.916 89.3394 278.546 89.1975 279.158C88.6918 281.625 88.124 284.038 87.5118 286.398C86.3053 291.117 85.0277 295.633 83.7679 299.927C81.2661 308.515 78.8529 316.198 76.8035 322.648C74.7542 329.098 73.0419 334.288 71.8353 337.872L70.4336 341.997L70.0521 343.071C70.019 343.194 69.9714 343.313 69.9102 343.426C69.9333 343.299 69.966 343.175 70.0077 343.053C70.0965 342.787 70.2029 342.432 70.3449 341.971L71.6668 337.819L76.493 322.55C78.4981 316.091 80.8757 308.4 83.3598 299.812C84.6019 295.518 85.8705 290.993 87.0771 286.282C87.6804 283.931 88.2482 281.527 88.7539 279.069C88.8958 278.457 88.9757 277.836 89.0821 277.215L89.2418 276.284C89.2418 275.982 89.1975 275.689 89.1797 275.397C89.0112 274.146 88.8249 272.877 88.6119 271.608C86.9263 261.432 85.0632 251.78 83.2888 243.014C81.5145 234.249 79.9087 226.327 78.4182 219.77C76.9278 213.214 75.5881 207.864 74.6211 204.209C74.1597 202.382 73.7339 200.971 73.4766 200.013L73.1839 198.922C73.1403 198.798 73.1105 198.67 73.0951 198.54Z" fill="#455A64"/>
<path d="M58.8102 319.771C58.8817 320.184 58.9084 320.604 58.8901 321.022C58.8901 321.91 58.8901 323.072 58.9344 324.447C58.9344 327.419 59.0409 331.367 59.103 335.723C59.1651 340.079 59.3336 344.027 59.4135 346.999C59.4135 348.374 59.4845 349.528 59.5111 350.424C59.5512 350.84 59.5512 351.259 59.5111 351.675C59.4132 351.267 59.3597 350.851 59.3514 350.432C59.2804 349.625 59.2006 348.463 59.1119 347.017C58.9344 344.133 58.7659 340.141 58.6683 335.732C58.5707 331.323 58.5884 327.33 58.6683 324.447C58.6683 323.001 58.7304 321.785 58.7659 321.022C58.7479 320.605 58.7627 320.187 58.8102 319.771Z" fill="#455A64"/>
<path d="M79.5522 196.72L59.8391 195.203L29.9766 192.781L33.3124 353.192L59.2447 352.855C59.2447 352.855 59.2447 351.081 59.1826 347.94L74.3888 352.101C74.3888 352.101 89.2048 302.046 94.2528 281.508C98.4669 264.395 79.5522 196.72 79.5522 196.72ZM58.8987 323.028C58.5083 285.997 58.0558 223.025 58.597 215.325C58.597 215.325 73.0403 270.764 73.1734 275.138C73.2621 277.782 65.2154 303.368 58.8987 323.028Z" fill="#263238"/>
<path d="M59.3794 346.781C59.3794 346.923 53.5772 347.038 46.4266 347.038C39.2759 347.038 33.4648 346.923 33.4648 346.781C33.4648 346.639 39.267 346.523 46.4266 346.523C53.5861 346.523 59.3794 346.639 59.3794 346.781Z" fill="#455A64"/>
<path d="M59.1523 341.01C59.9635 341.202 60.7584 341.457 61.53 341.773L67.4652 343.84L73.4005 345.916C74.2399 346.156 75.054 346.477 75.8313 346.874C74.9647 346.754 74.1119 346.548 73.2851 346.262C71.7414 345.809 69.6211 345.135 67.2967 344.328C64.9723 343.521 62.8608 342.722 61.4058 342.11C60.6073 341.849 59.8489 341.479 59.1523 341.01Z" fill="#455A64"/>
<path d="M82.9177 274.641C81.3138 275.014 79.6757 275.222 78.0293 275.262C76.3964 275.47 74.7463 275.509 73.1055 275.377C74.7084 274.996 76.3468 274.785 77.9938 274.747C79.6268 274.539 81.2772 274.503 82.9177 274.641Z" fill="#455A64"/>
<path d="M81.2198 277.552C79.9445 277.444 78.6888 277.17 77.4848 276.736C76.2317 276.462 75.0205 276.024 73.8828 275.432C75.1618 275.529 76.4214 275.8 77.6267 276.239C79.6495 276.825 81.2642 277.41 81.2198 277.552Z" fill="#455A64"/>
<path d="M60.9885 195.411C61.1077 196.424 61.1522 197.444 61.1216 198.463C61.1216 200.353 61.1216 202.961 61.1216 205.844C61.1216 207.273 61.1216 208.639 61.0684 209.899C61.1009 211.034 60.8891 212.162 60.4474 213.208C60.1327 213.921 59.6297 214.534 58.9924 214.982C58.7751 215.163 58.5156 215.285 58.2383 215.337C58.2383 215.337 58.4867 215.178 58.8859 214.84C59.4461 214.36 59.8815 213.751 60.1546 213.066C60.5245 212.05 60.6903 210.97 60.6425 209.89C60.6425 208.621 60.6425 207.228 60.6425 205.827C60.6425 202.943 60.7135 200.335 60.7668 198.454C60.7639 197.436 60.838 196.418 60.9885 195.411Z" fill="#455A64"/>
<path d="M46.1374 194.503C46.1469 194.633 46.1469 194.763 46.1374 194.893C46.1374 195.177 46.1374 195.559 46.1374 196.047C46.1374 197.076 46.0575 198.566 45.9954 200.483C45.8712 204.342 45.6938 209.887 45.472 216.727C45.055 230.443 44.6292 249.402 44.5227 270.33C44.4162 291.259 44.6558 310.253 44.9308 323.96C45.0816 330.801 45.197 336.381 45.2857 340.205C45.2857 342.112 45.3566 343.594 45.3833 344.641C45.3833 345.128 45.3833 345.528 45.3833 345.794C45.3928 345.924 45.3928 346.054 45.3833 346.184C45.3737 346.054 45.3737 345.924 45.3833 345.794C45.3833 345.519 45.3833 345.137 45.3212 344.649C45.3212 343.611 45.2236 342.13 45.1437 340.214C44.9929 336.381 44.8155 330.827 44.638 323.969C44.2743 310.245 43.9904 291.285 44.0969 270.33C44.2033 249.375 44.6824 230.407 45.1792 216.718C45.4276 209.86 45.6583 204.297 45.8535 200.474C45.9511 198.575 46.0309 197.093 46.0841 196.038C46.0841 195.55 46.1374 195.151 46.1551 194.884C46.1401 194.758 46.1341 194.63 46.1374 194.503Z" fill="#455A64"/>
<path d="M73.0951 198.54C73.149 198.658 73.1935 198.779 73.2282 198.904C73.3081 199.17 73.4234 199.525 73.5653 199.986C73.8492 200.935 74.3017 202.337 74.7985 204.165C75.8188 207.811 77.1939 213.108 78.7287 219.699C80.2636 226.291 81.9669 234.151 83.7413 242.917C85.5157 251.682 87.3876 261.335 89.0644 271.52C89.2773 272.797 89.4725 274.066 89.641 275.334C89.641 275.672 89.7032 276.018 89.7032 276.346L89.5435 277.286C89.4281 277.916 89.3394 278.546 89.1975 279.158C88.6918 281.625 88.124 284.038 87.5118 286.398C86.3053 291.117 85.0277 295.633 83.7679 299.927C81.2661 308.515 78.8529 316.198 76.8035 322.648C74.7542 329.098 73.0419 334.288 71.8353 337.872L70.4336 341.997L70.0521 343.071C70.019 343.194 69.9714 343.313 69.9102 343.426C69.9333 343.299 69.966 343.175 70.0077 343.053C70.0965 342.787 70.2029 342.432 70.3449 341.971L71.6668 337.819L76.493 322.55C78.4981 316.091 80.8757 308.4 83.3598 299.812C84.6019 295.518 85.8705 290.993 87.0771 286.282C87.6804 283.931 88.2482 281.527 88.7539 279.069C88.8958 278.457 88.9757 277.836 89.0821 277.215L89.2418 276.284C89.2418 275.982 89.1975 275.689 89.1797 275.397C89.0112 274.146 88.8249 272.877 88.6119 271.608C86.9263 261.432 85.0632 251.78 83.2888 243.014C81.5145 234.249 79.9087 226.327 78.4182 219.77C76.9278 213.214 75.5881 207.864 74.6211 204.209C74.1597 202.382 73.7339 200.971 73.4766 200.013L73.1839 198.922C73.1403 198.798 73.1105 198.67 73.0951 198.54Z" fill="#455A64"/>
<path d="M58.8102 319.771C58.8817 320.184 58.9084 320.604 58.8901 321.022C58.8901 321.91 58.8901 323.072 58.9344 324.447C58.9344 327.419 59.0409 331.367 59.103 335.723C59.1651 340.079 59.3336 344.027 59.4135 346.999C59.4135 348.374 59.4845 349.528 59.5111 350.424C59.5512 350.84 59.5512 351.259 59.5111 351.675C59.4132 351.267 59.3597 350.851 59.3514 350.432C59.2804 349.625 59.2006 348.463 59.1119 347.017C58.9344 344.133 58.7659 340.141 58.6683 335.732C58.5707 331.323 58.5884 327.33 58.6683 324.447C58.6683 323.001 58.7304 321.785 58.7659 321.022C58.7479 320.605 58.7627 320.187 58.8102 319.771Z" fill="#455A64"/>
<path d="M45.5907 119.728L60.6728 120.846C60.8768 119.072 61.1696 112.32 61.1696 112.32C61.1696 112.32 67.4597 111.744 67.921 105.516C68.3824 99.2877 68.1872 84.9065 68.1872 84.9065C64.7391 83.1637 60.8879 82.3739 57.0321 82.6188C53.1763 82.8637 49.456 84.1344 46.2561 86.2994L45.2891 86.9559L45.5907 119.728Z" fill="#E5BAAB"/>
<path d="M66.0409 95.5275C65.9213 95.4017 65.8413 95.2436 65.8108 95.0728C65.7802 94.902 65.8004 94.7259 65.8688 94.5665C65.9373 94.407 66.051 94.2711 66.1959 94.1757C66.3408 94.0802 66.5105 94.0293 66.684 94.0293C66.8576 94.0293 67.0273 94.0802 67.1722 94.1757C67.3171 94.2711 67.4308 94.407 67.4993 94.5665C67.5677 94.7259 67.5879 94.902 67.5574 95.0728C67.5268 95.2436 67.4468 95.4017 67.3273 95.5275C67.2444 95.6148 67.1446 95.6842 67.034 95.7317C66.9235 95.7792 66.8044 95.8037 66.684 95.8037C66.5637 95.8037 66.4446 95.7792 66.3341 95.7317C66.2235 95.6842 66.1237 95.6148 66.0409 95.5275Z" fill="#263238"/>
<path d="M67.6347 94.2C67.5282 94.3065 66.9515 93.8008 66.091 93.7387C65.2304 93.6766 64.5828 94.0847 64.4941 93.9693C64.4053 93.854 64.5562 93.7298 64.8489 93.5435C65.2264 93.2956 65.6767 93.183 66.1265 93.2241C66.5796 93.2512 67.0106 93.4292 67.3508 93.7298C67.6081 93.9516 67.6879 94.1379 67.6347 94.2Z" fill="#263238"/>
<path d="M57.6995 94.3407C57.84 94.4433 57.9472 94.585 58.0078 94.748C58.0685 94.9111 58.0798 95.0884 58.0404 95.2579C58.001 95.4274 57.9127 95.5815 57.7864 95.7012C57.6601 95.8208 57.5014 95.9007 57.3301 95.9308C57.1587 95.961 56.9823 95.9401 56.8227 95.8708C56.6632 95.8015 56.5275 95.6868 56.4326 95.541C56.3377 95.3951 56.2878 95.2246 56.2891 95.0506C56.2904 94.8767 56.3427 94.7069 56.4397 94.5625C56.5063 94.4633 56.5923 94.3786 56.6924 94.3135C56.7925 94.2483 56.9048 94.2041 57.0224 94.1834C57.1401 94.1627 57.2607 94.1659 57.377 94.1929C57.4934 94.22 57.6031 94.2702 57.6995 94.3407Z" fill="#263238"/>
<path d="M58.2597 94.3815C58.1533 94.4791 57.5766 93.9734 56.716 93.9113C55.8555 93.8492 55.2078 94.2662 55.1191 94.1509C55.0304 94.0355 55.1812 93.9024 55.4651 93.7161C55.8497 93.4772 56.2998 93.3655 56.7515 93.3968C57.2033 93.4296 57.6325 93.6069 57.9758 93.9024C58.2331 94.1331 58.313 94.3372 58.2597 94.3815Z" fill="#263238"/>
<path d="M61.2748 101.675C61.7286 101.535 62.2016 101.466 62.6766 101.471C62.9072 101.471 63.0935 101.427 63.1202 101.303C63.1426 101.074 63.0995 100.843 62.9959 100.637L62.4282 98.8629C61.8818 97.3459 61.4808 95.7804 61.2305 94.1875C61.9179 95.6441 62.4674 97.1619 62.8717 98.721L63.4041 100.495C63.5321 100.789 63.5572 101.117 63.475 101.427C63.4377 101.51 63.3813 101.583 63.3104 101.64C63.2395 101.697 63.156 101.737 63.0669 101.755C62.9403 101.772 62.8121 101.772 62.6854 101.755C62.214 101.804 61.7377 101.777 61.2748 101.675Z" fill="#263238"/>
<path d="M58.4273 102.446C57.5401 101.86 60.805 103.91 62.5616 103.936C62.2425 104.369 61.786 104.68 61.2669 104.818C60.7478 104.957 60.197 104.915 59.7049 104.699C57.8773 103.892 58.4273 102.446 58.4273 102.446Z" fill="#FFBB00"/>
<path d="M61.137 112.236C58.2562 112.114 55.4768 111.139 53.1523 109.433C53.1523 109.433 54.7936 114.037 61.0482 113.869L61.137 112.236Z" fill="#D78776"/>
<path d="M46.4759 92.482C46.3339 92.4288 41.8448 91.8432 42.2707 97.1486C42.6965 102.454 47.9131 100.263 47.9043 100.112C47.8954 99.961 46.4759 92.482 46.4759 92.482Z" fill="#E5BAAB"/>
<path d="M46.0891 98.3851C46.0891 98.3851 46.0093 98.456 45.8584 98.5448C45.6448 98.6543 45.3978 98.6796 45.1664 98.6157C44.8072 98.4241 44.5049 98.1411 44.2899 97.7953C44.075 97.4495 43.955 97.0531 43.9421 96.6462C43.8932 96.1933 43.9478 95.7353 44.1018 95.3066C44.1373 95.1369 44.2131 94.9782 44.3227 94.8439C44.4323 94.7095 44.5726 94.6035 44.7317 94.5347C44.8365 94.5009 44.9496 94.5036 45.0527 94.5423C45.1558 94.5809 45.2428 94.6533 45.2995 94.7476C45.3794 94.8896 45.3616 94.996 45.3882 95.0049C45.4148 95.0138 45.4947 94.9073 45.3882 94.6944C45.3512 94.5642 45.2696 94.4511 45.1576 94.375C45.0002 94.2814 44.8136 94.2498 44.6341 94.2863C44.4228 94.3461 44.2303 94.4591 44.075 94.6144C43.9197 94.7697 43.8068 94.9622 43.7469 95.1735C43.5556 95.6486 43.4855 96.1638 43.5429 96.6728C43.5527 97.1468 43.703 97.6071 43.9746 97.9956C44.2463 98.3841 44.6271 98.6833 45.0688 98.8553C45.2143 98.8858 45.3647 98.8833 45.509 98.848C45.6533 98.8127 45.7879 98.7454 45.9028 98.6512C46.0891 98.5181 46.1157 98.3939 46.0891 98.3851Z" fill="#D78776"/>
<path d="M68.5826 82.6629C68.9417 82.6533 69.2938 82.5613 69.6116 82.3939C69.9294 82.2265 70.2044 81.9882 70.4154 81.6975C70.6264 81.4068 70.7678 81.0715 70.8285 80.7174C70.8892 80.3634 70.8677 80.0001 70.7655 79.6558C70.6634 79.3114 70.4835 78.9951 70.2396 78.7314C69.9957 78.4677 69.6944 78.2636 69.359 78.1349C69.0237 78.0062 68.6632 77.9564 68.3055 77.9893C67.9478 78.0222 67.6025 78.1369 67.2962 78.3246C68.0381 77.7088 68.6426 76.9441 69.0706 76.08C69.2776 75.6443 69.346 75.1555 69.2667 74.6796C69.1874 74.2037 68.9641 73.7636 68.627 73.4185C68.2366 73.1602 67.7849 73.0094 67.3177 72.9813C66.8504 72.9533 66.3839 73.049 65.9654 73.2588C64.6435 73.8266 63.5967 74.9445 62.2393 75.4147C60.8819 75.8849 59.3648 75.6542 57.9098 75.7163C56.2772 75.7454 54.696 76.2922 53.3941 77.2777C52.2847 78.1494 51.5667 79.4258 51.3979 80.8265C51.2236 80.587 51.0307 80.3616 50.8213 80.1522C50.1313 79.3287 49.2004 78.7423 48.1597 78.4754C48.0976 78.5908 49.3131 79.265 50.4753 80.4716C50.7917 80.7743 51.088 81.0974 51.3624 81.4386C49.3397 81.1902 47.1128 81.1725 45.5159 82.4323C44.869 83.0089 44.3577 83.7216 44.0187 84.5193C43.6797 85.3169 43.5214 86.1796 43.5553 87.0456C43.5553 88.7667 44.265 90.408 44.7707 92.0582C44.893 92.5257 45.1038 92.9654 45.3917 93.3535L46.1547 97.7894L48.9316 97.7361L48.7541 88.4296C48.7541 88.4296 48.4702 84.5083 51.8415 84.8809C55.2128 85.2535 59.8261 89.024 66.3735 88.0659C67.4479 88.006 68.4945 87.7026 69.4343 87.1787C69.8892 86.8905 70.259 86.4862 70.5054 86.0074C70.7518 85.5286 70.866 84.9927 70.8361 84.455C70.7715 83.92 70.4988 83.432 70.0771 83.0966C69.6553 82.7612 69.1184 82.6054 68.5826 82.6629Z" fill="#263238"/>
<path d="M125.019 128.595L125.427 125.773C125.844 124.23 126.106 122.649 126.208 121.054C126.275 120.261 126.203 119.462 125.995 118.694C125.786 117.727 125.439 116.795 124.966 115.926C124.451 115.172 125.126 114.151 125.853 114.462C126.581 114.772 128.098 116.777 128.586 119.67C129.074 122.562 131.354 118.552 132.205 117.106C133.057 115.66 135.923 111.304 136.579 111.215C137.537 111.082 137.857 112.102 136.961 113.513C136.065 114.923 133.705 119.403 134.494 119.812C135.085 119.717 135.69 119.747 136.269 119.9C136.362 119.928 136.445 119.983 136.505 120.06C136.565 120.136 136.601 120.229 136.606 120.326C136.602 120.774 136.65 121.22 136.748 121.657C136.748 121.657 137.91 121.391 138.149 121.896C138.311 122.416 138.386 122.958 138.371 123.502C138.371 123.502 139.258 123.201 139.684 123.502C140.571 124.221 139.436 125.454 139.436 125.454C136.824 128.57 134.017 131.518 131.034 134.281L124.922 128.391" fill="#E5BAAB"/>
<path d="M136.388 121.848C136.127 122.397 135.776 122.897 135.35 123.33C134.995 123.756 134.551 124.217 134.028 124.776C133.755 125.066 133.458 125.333 133.141 125.574C132.945 125.73 132.709 125.826 132.46 125.851C132.212 125.876 131.962 125.829 131.739 125.716C131.617 125.645 131.515 125.546 131.439 125.427C131.363 125.308 131.317 125.173 131.304 125.033C131.286 124.783 131.342 124.533 131.464 124.315C131.682 123.985 131.919 123.668 132.174 123.365C132.626 122.797 132.999 122.265 133.309 121.804C133.607 121.282 133.948 120.787 134.329 120.322C134.182 120.912 133.929 121.471 133.584 121.972C133.262 122.543 132.906 123.094 132.52 123.623C132.284 123.906 132.065 124.202 131.863 124.51C131.703 124.803 131.712 125.166 131.969 125.299C132.114 125.36 132.273 125.382 132.429 125.362C132.585 125.341 132.732 125.28 132.857 125.184C133.151 124.961 133.43 124.718 133.691 124.457C134.223 123.96 134.684 123.489 135.066 123.09C135.463 122.632 135.906 122.216 136.388 121.848Z" fill="#D78776"/>
<path d="M137.933 123.668C137.672 124.141 137.337 124.569 136.94 124.936C136.539 125.366 136.103 125.76 135.636 126.116C135.355 126.328 135.058 126.518 134.748 126.684C134.564 126.776 134.367 126.839 134.163 126.87C134.039 126.89 133.913 126.884 133.793 126.852C133.672 126.82 133.559 126.763 133.462 126.684C133.298 126.515 133.195 126.296 133.167 126.062C133.14 125.828 133.191 125.591 133.311 125.389C133.491 125.073 133.702 124.775 133.941 124.502C134.331 124.049 134.695 123.614 135.059 123.18C135.707 122.434 136.132 122 136.186 122.035C135.951 122.522 135.653 122.976 135.298 123.384L134.305 124.794C134.095 125.045 133.905 125.312 133.737 125.593C133.669 125.706 133.637 125.838 133.646 125.969C133.656 126.101 133.706 126.227 133.79 126.329C133.95 126.48 134.287 126.418 134.58 126.276C134.871 126.125 135.153 125.956 135.423 125.77C135.884 125.441 136.325 125.086 136.745 124.706C137.097 124.313 137.496 123.964 137.933 123.668Z" fill="#D78776"/>
<path d="M138.297 126.204C138.341 126.204 138.297 126.603 137.88 127.091C137.753 127.242 137.598 127.366 137.423 127.456C137.247 127.546 137.056 127.6 136.859 127.614C136.605 127.616 136.358 127.532 136.159 127.375C136.049 127.283 135.96 127.167 135.901 127.037C135.841 126.906 135.811 126.764 135.813 126.621C135.883 126.168 136.066 125.741 136.345 125.379C136.532 125.086 136.736 124.804 136.957 124.536C137.339 124.074 137.614 123.835 137.667 123.879C137.72 123.924 137.525 124.225 137.223 124.766C137.046 125.077 136.868 125.361 136.709 125.654C136.495 125.967 136.347 126.32 136.274 126.692C136.281 126.842 136.345 126.984 136.455 127.089C136.564 127.193 136.709 127.251 136.859 127.251C137.154 127.241 137.435 127.124 137.649 126.922C138.048 126.496 138.235 126.168 138.297 126.204Z" fill="#D78776"/>
<path d="M124.347 124.926C124.347 124.926 101.076 147.824 97.8116 147.993C94.0854 148.17 82.623 131.917 82.623 131.917C75.2861 120.597 65.6069 118.769 62.0759 118.485V117.084L44.7316 115.664C44.7316 115.664 44.7316 117.155 44.7316 118.459H37.0752C37.0752 118.459 23.3239 117.829 21.2656 136.3L31.1488 144.116L35.2032 159.198C36.6138 164.45 31.5747 172.816 29.1704 186.363C28.7996 188.622 29.1765 190.94 30.2439 192.964L80.3252 198.722L77.6637 160.431L76.8564 151.559C80.9818 157.193 88.3897 165.16 97.4656 164.982C112.947 164.69 134.452 132.157 134.452 132.157L124.347 124.926Z" fill="#0B2962"/>
<path d="M56.2381 116.839C56.3242 117.626 56.3242 118.42 56.2381 119.208C56.1088 121.179 55.842 123.138 55.4397 125.072L55.3776 125.365L55.1114 125.223C54.5081 124.903 53.8782 124.566 53.2395 124.194C50.7553 122.73 48.635 121.222 47.0292 120.175C46.1623 119.647 45.327 119.069 44.5273 118.445C44.7929 118.522 45.0466 118.636 45.2814 118.782C45.7428 119.039 46.4082 119.412 47.2066 119.9C48.8213 120.876 50.9683 122.348 53.4169 123.794C54.0379 124.158 54.6589 124.504 55.2622 124.823L54.934 124.974C55.4485 122.685 55.697 120.636 55.8833 119.181C55.954 118.394 56.0725 117.612 56.2381 116.839Z" fill="#FFBB00"/>
<path d="M62.1313 118.587C62.0198 119.349 61.8538 120.102 61.6345 120.84C61.4659 121.541 61.2885 122.375 60.9868 123.28C60.8298 123.758 60.6431 124.226 60.4279 124.682C60.3659 124.845 60.2541 124.984 60.1085 125.081C60.0075 125.143 59.8884 125.169 59.7707 125.154C59.6531 125.14 59.5438 125.086 59.4609 125.001C59.2946 124.756 59.1605 124.49 59.0616 124.211C58.1745 122.197 57.4736 120.37 56.959 119.03C56.6354 118.328 56.3885 117.594 56.2227 116.839C56.6371 117.491 56.9848 118.184 57.2607 118.906C57.8551 120.21 58.6447 122.02 59.4875 124.034C59.5693 124.258 59.6702 124.475 59.7891 124.682C59.8335 124.682 59.7891 124.682 59.869 124.682C59.9358 124.627 59.9877 124.557 60.0198 124.477C60.2321 124.041 60.4216 123.594 60.5876 123.138C60.8981 122.251 61.111 121.434 61.3151 120.751C61.4915 119.997 61.7659 119.269 62.1313 118.587Z" fill="#FFBB00"/>
<path d="M58.9017 180.549C58.8593 180.341 58.8356 180.131 58.8308 179.919C58.8308 179.458 58.7953 178.866 58.7243 178.145C58.6533 176.512 58.5469 174.25 58.4227 171.473C58.2097 165.795 57.9081 158.032 57.5887 149.462C57.2693 140.892 57.0653 133.129 56.8878 127.451C56.8257 124.665 56.7725 122.403 56.7281 120.771C56.7281 120.025 56.7281 119.422 56.7281 118.996C56.7052 118.784 56.7052 118.57 56.7281 118.357C56.769 118.565 56.7898 118.776 56.7902 118.987C56.7902 119.449 56.8612 120.052 56.9056 120.762C56.9766 122.385 57.083 124.648 57.2072 127.424C57.4201 133.102 57.7129 140.865 58.0412 149.435C58.3694 158.006 58.5557 165.768 58.7421 171.455C58.8042 174.232 58.8574 176.494 58.9017 178.127C58.9017 178.881 58.9017 179.484 58.9017 179.946C58.9226 180.146 58.9226 180.348 58.9017 180.549Z" fill="#FFBB00"/>
<path d="M55.7383 122.443L57.1933 126.453L58.4442 122.151L56.5013 117.839L55.7383 122.443Z" fill="#F1F7FD"/>
<path d="M57.4543 125.256L56.4961 170.396L63.3096 184.644L65.9978 168.612L57.4543 125.256Z" fill="#FFBB00"/>
<path d="M98.0595 153.577C98.0595 153.577 98.0595 153.71 98.0595 153.932L98.0063 154.269L97.8554 153.932C97.5121 153.034 97.3144 152.088 97.2699 151.128C97.1232 150.058 97.2514 148.968 97.6425 147.961C97.7756 147.961 97.6425 149.38 97.7312 151.102C97.8022 152.326 97.9974 153.373 98.0595 153.878H97.8554C97.9353 153.639 98.024 153.577 98.0595 153.577Z" fill="#FFBB00"/>
<path d="M100.054 153.424C99.3922 152.73 98.9003 151.892 98.6167 150.976C98.1898 150.13 97.9565 149.199 97.9336 148.252C98.3852 149.077 98.7537 149.945 99.0337 150.843C99.4568 151.668 99.7985 152.533 100.054 153.424Z" fill="#FFBB00"/>
<path d="M132.993 134.318C131.074 133.303 129.23 132.152 127.475 130.876C125.635 129.727 123.88 128.45 122.223 127.052C124.141 128.075 125.985 129.231 127.741 130.512C129.58 131.654 131.335 132.926 132.993 134.318Z" fill="#FFBB00"/>
<path d="M36.2627 141.564C36.2627 141.564 32.5721 167.293 34.3198 168.73C43.9723 176.848 57.3865 181.106 62.1773 182.446C62.8782 182.277 63.6944 182.055 64.6348 181.754C65.45 181.495 66.215 181.099 66.8971 180.583C67.768 179.972 68.5503 179.243 69.2215 178.418C69.3229 178.241 69.4768 178.1 69.6619 178.014C69.847 177.928 70.0541 177.902 70.2548 177.939C70.4555 177.976 70.6397 178.074 70.7819 178.22C70.9242 178.367 71.0176 178.553 71.0491 178.755C71.0935 179.642 69.674 181.922 67.0036 183.59C67.0036 183.59 73.1517 193.482 75.1124 194.378C77.0731 195.274 82.68 197.794 81.7308 198.273C80.7815 198.752 73.9591 196.774 73.9591 196.774L60.119 193.074C60.119 193.074 14.3405 185.897 17.3835 164.897C19.2555 152.024 21.296 140.429 22.0324 137.492L36.2627 141.564Z" fill="#E5BAAB"/>
<path d="M21.263 136.297L17.1997 164.341C16.2505 172.973 22.0349 179.831 29.8155 183.69C41.6593 189.554 59.2432 193.742 59.0924 193.715C58.9416 193.689 60.2812 181.197 60.2812 181.197C60.2812 181.197 35.6265 170.551 34.8546 165.938C34.0828 161.324 37.9864 142.161 37.9864 142.161L21.263 136.297Z" fill="#0B2962"/>
<path d="M59.0629 193.718C59.0537 193.644 59.0537 193.569 59.0629 193.496C59.0629 193.318 59.0629 193.105 59.1073 192.848C59.1517 192.236 59.2138 191.411 59.3025 190.355C59.4888 188.155 59.7638 185.032 60.0921 181.191L60.1897 181.35L47.7691 175.344L44.2204 173.57C43.0227 172.931 41.8161 172.23 40.6184 171.458C39.4033 170.674 38.236 169.818 37.123 168.894C36.564 168.424 36.0051 167.927 35.4728 167.404C35.1726 167.14 34.9309 166.817 34.7631 166.454C34.669 166.279 34.6003 166.091 34.559 165.896C34.5008 165.71 34.4592 165.52 34.4348 165.328C34.0356 162.258 34.8518 159.366 35.322 156.607C35.7922 153.848 36.2624 151.159 36.706 148.622C37.5932 143.53 38.4005 138.952 39.0748 135.084C39.4388 133.37 39.6467 131.627 39.6958 129.876C39.7129 128.558 39.4403 127.253 38.8973 126.052C38.549 125.295 38.0546 124.613 37.4423 124.047C37.0165 123.666 36.7592 123.515 36.7681 123.488C37.032 123.621 37.2792 123.785 37.5044 123.976C38.1558 124.526 38.6847 125.206 39.057 125.972C39.6393 127.191 39.9424 128.525 39.9442 129.876C39.9244 131.643 39.7373 133.405 39.3853 135.137C38.7376 139.014 37.9658 143.601 37.1141 148.702C36.6794 151.248 36.2269 153.927 35.7567 156.687C35.6414 157.379 35.5172 158.079 35.393 158.789C35.2687 159.499 35.1357 160.191 35.0381 160.901C34.8048 162.335 34.766 163.794 34.9227 165.239C34.9508 165.416 34.9893 165.59 35.0381 165.762C35.073 165.933 35.1328 166.097 35.2155 166.25C35.3617 166.564 35.5734 166.842 35.8365 167.067C36.36 167.581 36.9012 168.069 37.4512 168.53C38.5494 169.445 39.7019 170.292 40.9023 171.068C42.0823 171.84 43.2711 172.532 44.4511 173.17L47.9998 174.945L60.3227 181.084L60.4203 181.137V181.244C60.0211 185.085 59.7017 188.199 59.4799 190.399C59.3557 191.446 59.267 192.28 59.196 192.884C59.1605 193.144 59.1339 193.357 59.1162 193.522C59.1048 193.589 59.0869 193.654 59.0629 193.718Z" fill="#FFBB00"/>
<path d="M56.7664 179.479C56.7927 180.121 56.7421 180.764 56.6156 181.395C56.4648 182.566 56.2164 184.181 55.8881 185.955C55.5599 187.729 55.1872 189.326 54.8856 190.471C54.7639 191.102 54.558 191.713 54.2734 192.289C54.3044 191.648 54.4025 191.012 54.5662 190.391C54.8264 189.054 55.1222 187.546 55.4534 185.866C55.7638 183.713 56.2023 181.58 56.7664 179.479Z" fill="#FFBB00"/>
<path d="M59.0532 193.713C58.9055 193.712 58.7588 193.688 58.6185 193.642L57.4031 193.349L52.9672 192.178C49.2144 191.167 43.9978 189.836 38.4085 187.786C35.7783 186.824 33.2172 185.683 30.7433 184.371C28.7222 183.296 26.7934 182.055 24.9766 180.662C23.7508 179.724 22.5944 178.698 21.5166 177.593C21.1351 177.202 20.8601 176.892 20.6294 176.705C20.5238 176.601 20.4341 176.481 20.3633 176.351C20.3633 176.351 20.8069 176.768 21.6053 177.504C22.7301 178.551 23.9151 179.531 25.1541 180.44C26.9887 181.76 28.9159 182.946 30.9207 183.989C33.3885 185.272 35.9371 186.392 38.5505 187.343C44.1042 189.383 49.312 190.758 53.0381 191.859L57.474 193.163L58.6717 193.544C58.8056 193.584 58.9338 193.64 59.0532 193.713Z" fill="#FFBB00"/>
<path d="M59.3582 182.481C59.3635 182.639 59.3214 182.796 59.2373 182.931C59.1533 183.065 59.031 183.172 58.8862 183.236C58.7413 183.301 58.5805 183.321 58.4242 183.294C58.2678 183.267 58.1231 183.194 58.0084 183.085C57.8937 182.975 57.8143 182.834 57.7803 182.679C57.7463 182.524 57.7592 182.362 57.8174 182.215C57.8756 182.067 57.9764 181.94 58.1071 181.85C58.2377 181.76 58.3922 181.711 58.5509 181.709C58.7596 181.707 58.961 181.786 59.1119 181.93C59.2629 182.075 59.3513 182.272 59.3582 182.481Z" fill="#FFBB00"/>
</svg>
