<svg width="350" height="417" viewBox="0 0 350 417" fill="none" xmlns="http://www.w3.org/2000/svg">
<path d="M350 366.438H0V366.718H350V366.438Z" fill="#EBEBEB"/>
<path d="M314.93 384.4H291.746V384.679H314.93V384.4Z" fill="#EBEBEB"/>
<path d="M231.853 387.433H225.77V387.712H231.853V387.433Z" fill="#EBEBEB"/>
<path d="M291.046 374.038H277.613V374.317H291.046V374.038Z" fill="#EBEBEB"/>
<path d="M66.9557 375.916H36.7227V376.195H66.9557V375.916Z" fill="#EBEBEB"/>
<path d="M77.6224 375.916H73.1914V376.195H77.6224V375.916Z" fill="#EBEBEB"/>
<path d="M157.607 380.629H92.0312V380.908H157.607V380.629Z" fill="#EBEBEB"/>
<path d="M165.899 316.65H30.7361C29.6772 316.647 28.6624 315.974 27.9143 314.779C27.1662 313.584 26.7461 311.965 26.7461 310.276V7.27919C26.7553 5.6003 27.1795 3.99501 27.9266 2.812C28.6737 1.629 29.6833 0.963814 30.7361 0.960938H165.899C166.959 0.960938 167.976 1.63249 168.725 2.82786C169.475 4.02323 169.896 5.64449 169.896 7.335V310.276C169.896 311.967 169.475 313.588 168.725 314.783C167.976 315.979 166.959 316.65 165.899 316.65ZM30.7361 1.1842C29.7237 1.18716 28.7533 1.83061 28.0381 2.97332C27.3228 4.11603 26.9211 5.66463 26.9211 7.27919V310.276C26.9211 311.891 27.3228 313.439 28.0381 314.582C28.7533 315.725 29.7237 316.368 30.7361 316.371H165.899C166.912 316.368 167.883 315.725 168.6 314.583C169.316 313.44 169.719 311.892 169.721 310.276V7.27919C169.719 5.6636 169.316 4.11503 168.6 2.97264C167.883 1.83024 166.912 1.18715 165.899 1.1842H30.7361Z" fill="#EBEBEB"/>
<path d="M317.319 316.65H182.149C181.09 316.647 180.074 315.975 179.325 314.78C178.576 313.585 178.154 311.966 178.152 310.276V7.27919C178.163 5.59928 178.589 3.99401 179.337 2.81131C180.086 1.62861 181.096 0.963782 182.149 0.960938H317.319C318.371 0.966747 319.379 1.63323 320.124 2.81592C320.87 3.99862 321.293 5.60223 321.302 7.27919V310.276C321.302 311.963 320.883 313.581 320.137 314.775C319.39 315.97 318.377 316.644 317.319 316.65ZM182.149 1.1842C181.136 1.18715 180.165 1.83024 179.449 2.97264C178.732 4.11503 178.329 5.6636 178.327 7.27919V310.276C178.329 311.892 178.732 313.44 179.449 314.583C180.165 315.725 181.136 316.368 182.149 316.371H317.319C318.332 316.368 319.303 315.725 320.02 314.583C320.736 313.44 321.139 311.892 321.141 310.276V7.27919C321.139 5.6636 320.736 4.11503 320.02 2.97264C319.303 1.83024 318.332 1.18715 317.319 1.1842H182.149Z" fill="#EBEBEB"/>
<path d="M44.3672 365.668V313.905H47.1462V289.235H51.1992V203.481H57.0652V192.419L69.5882 183.109V171.946H71.3242V203.481H73.7532V289.235H76.1822V244.148H82.7762V220.907H84.6102V289.235H89.6222V263.237H92.9192V256.595H100.549V233.911H104.728V217.87H109.866V194.495H111.7V217.87H116.838V233.911H121.017V256.595H128.647V263.237H131.944V289.235H135.857V256.595H143.487V186.335H145.916V178.588H162.219V186.335H165.691V237.227H179.565V242.217H184.773V246.079H179.565V266.005H194.139V199.608H197.261V185.498H204.03V135.432H205.934V185.498H210.792V199.608H239.268V194.964H241.004V226.499H243.433V227.057H244.889V258.593H247.318V267.166H252.449V243.936H254.29V299.26H256.341V276.018H258.175V312.264H259.295V286.255H262.592V279.613H270.229V256.93H274.408V240.888H279.546V217.513H281.373V240.888H286.518V256.93H290.697V279.613H298.327V286.255H301.624V311.706H302.212V312.264H303.843V365.668H44.3672Z" fill="#EBEBEB"/>
<path d="M223.377 202.705H221.41V205.842H223.377V202.705Z" fill="#F5F5F5"/>
<path d="M223.377 207.965H221.41V211.102H223.377V207.965Z" fill="#F5F5F5"/>
<path d="M223.377 228.983H221.41V232.12H223.377V228.983Z" fill="#F5F5F5"/>
<path d="M223.377 234.243H221.41V237.38H223.377V234.243Z" fill="#F5F5F5"/>
<path d="M223.377 239.503H221.41V242.64H223.377V239.503Z" fill="#F5F5F5"/>
<path d="M223.377 255.278H221.41V258.415H223.377V255.278Z" fill="#F5F5F5"/>
<path d="M223.377 260.521H221.41V263.658H223.377V260.521Z" fill="#F5F5F5"/>
<path d="M220.256 223.74H218.289V226.877H220.256V223.74Z" fill="#F5F5F5"/>
<path d="M220.256 228.983H218.289V232.12H220.256V228.983Z" fill="#F5F5F5"/>
<path d="M220.256 234.243H218.289V237.38H220.256V234.243Z" fill="#F5F5F5"/>
<path d="M220.256 239.503H218.289V242.64H220.256V239.503Z" fill="#F5F5F5"/>
<path d="M220.256 244.759H218.289V247.896H220.256V244.759Z" fill="#F5F5F5"/>
<path d="M220.256 255.278H218.289V258.415H220.256V255.278Z" fill="#F5F5F5"/>
<path d="M220.256 260.521H218.289V263.658H220.256V260.521Z" fill="#F5F5F5"/>
<path d="M217.131 202.705H215.164V205.842H217.131V202.705Z" fill="#F5F5F5"/>
<path d="M217.131 207.965H215.164V211.102H217.131V207.965Z" fill="#F5F5F5"/>
<path d="M217.131 213.225H215.164V216.361H217.131V213.225Z" fill="#F5F5F5"/>
<path d="M217.131 218.48H215.164V221.617H217.131V218.48Z" fill="#F5F5F5"/>
<path d="M217.131 223.74H215.164V226.877H217.131V223.74Z" fill="#F5F5F5"/>
<path d="M217.131 228.983H215.164V232.12H217.131V228.983Z" fill="#F5F5F5"/>
<path d="M217.131 234.243H215.164V237.38H217.131V234.243Z" fill="#F5F5F5"/>
<path d="M217.131 239.503H215.164V242.64H217.131V239.503Z" fill="#F5F5F5"/>
<path d="M217.131 244.759H215.164V247.896H217.131V244.759Z" fill="#F5F5F5"/>
<path d="M217.131 250.019H215.164V253.155H217.131V250.019Z" fill="#F5F5F5"/>
<path d="M217.131 260.521H215.164V263.658H217.131V260.521Z" fill="#F5F5F5"/>
<path d="M214.01 202.705H212.043V205.842H214.01V202.705Z" fill="#F5F5F5"/>
<path d="M214.01 207.965H212.043V211.102H214.01V207.965Z" fill="#F5F5F5"/>
<path d="M214.01 213.225H212.043V216.361H214.01V213.225Z" fill="#F5F5F5"/>
<path d="M214.01 218.48H212.043V221.617H214.01V218.48Z" fill="#F5F5F5"/>
<path d="M214.01 223.74H212.043V226.877H214.01V223.74Z" fill="#F5F5F5"/>
<path d="M214.01 228.983H212.043V232.12H214.01V228.983Z" fill="#F5F5F5"/>
<path d="M214.01 234.243H212.043V237.38H214.01V234.243Z" fill="#F5F5F5"/>
<path d="M214.01 281.556H212.043V284.692H214.01V281.556Z" fill="#F5F5F5"/>
<path d="M210.889 202.705H208.922V205.842H210.889V202.705Z" fill="#F5F5F5"/>
<path d="M210.889 207.965H208.922V211.102H210.889V207.965Z" fill="#F5F5F5"/>
<path d="M210.889 213.225H208.922V216.361H210.889V213.225Z" fill="#F5F5F5"/>
<path d="M210.889 218.48H208.922V221.617H210.889V218.48Z" fill="#F5F5F5"/>
<path d="M210.889 223.74H208.922V226.877H210.889V223.74Z" fill="#F5F5F5"/>
<path d="M210.889 228.983H208.922V232.12H210.889V228.983Z" fill="#F5F5F5"/>
<path d="M210.889 234.243H208.922V237.38H210.889V234.243Z" fill="#F5F5F5"/>
<path d="M210.889 239.503H208.922V242.64H210.889V239.503Z" fill="#F5F5F5"/>
<path d="M210.889 271.037H208.922V274.174H210.889V271.037Z" fill="#F5F5F5"/>
<path d="M210.889 276.297H208.922V279.434H210.889V276.297Z" fill="#F5F5F5"/>
<path d="M210.889 281.556H208.922V284.692H210.889V281.556Z" fill="#F5F5F5"/>
<path d="M210.889 286.808H208.922V289.944H210.889V286.808Z" fill="#F5F5F5"/>
<path d="M210.889 307.826H208.922V310.963H210.889V307.826Z" fill="#F5F5F5"/>
<path d="M207.768 202.705H205.801V205.842H207.768V202.705Z" fill="#F5F5F5"/>
<path d="M207.768 207.965H205.801V211.102H207.768V207.965Z" fill="#F5F5F5"/>
<path d="M207.768 213.225H205.801V216.361H207.768V213.225Z" fill="#F5F5F5"/>
<path d="M207.768 218.48H205.801V221.617H207.768V218.48Z" fill="#F5F5F5"/>
<path d="M207.768 223.74H205.801V226.877H207.768V223.74Z" fill="#F5F5F5"/>
<path d="M207.768 228.983H205.801V232.12H207.768V228.983Z" fill="#F5F5F5"/>
<path d="M207.768 234.243H205.801V237.38H207.768V234.243Z" fill="#F5F5F5"/>
<path d="M207.768 239.503H205.801V242.64H207.768V239.503Z" fill="#F5F5F5"/>
<path d="M207.768 244.759H205.801V247.896H207.768V244.759Z" fill="#F5F5F5"/>
<path d="M207.768 250.019H205.801V253.155H207.768V250.019Z" fill="#F5F5F5"/>
<path d="M207.768 265.781H205.801V268.918H207.768V265.781Z" fill="#F5F5F5"/>
<path d="M207.768 271.037H205.801V274.174H207.768V271.037Z" fill="#F5F5F5"/>
<path d="M207.768 276.297H205.801V279.434H207.768V276.297Z" fill="#F5F5F5"/>
<path d="M207.768 281.556H205.801V284.692H207.768V281.556Z" fill="#F5F5F5"/>
<path d="M207.768 286.808H205.801V289.944H207.768V286.808Z" fill="#F5F5F5"/>
<path d="M207.768 307.826H205.801V310.963H207.768V307.826Z" fill="#F5F5F5"/>
<path d="M204.643 202.705H202.676V205.842H204.643V202.705Z" fill="#F5F5F5"/>
<path d="M204.643 207.965H202.676V211.102H204.643V207.965Z" fill="#F5F5F5"/>
<path d="M204.643 213.225H202.676V216.361H204.643V213.225Z" fill="#F5F5F5"/>
<path d="M204.643 218.48H202.676V221.617H204.643V218.48Z" fill="#F5F5F5"/>
<path d="M204.643 223.74H202.676V226.877H204.643V223.74Z" fill="#F5F5F5"/>
<path d="M204.643 228.983H202.676V232.12H204.643V228.983Z" fill="#F5F5F5"/>
<path d="M204.643 234.243H202.676V237.38H204.643V234.243Z" fill="#F5F5F5"/>
<path d="M204.643 239.503H202.676V242.64H204.643V239.503Z" fill="#F5F5F5"/>
<path d="M204.643 244.759H202.676V247.896H204.643V244.759Z" fill="#F5F5F5"/>
<path d="M204.643 250.019H202.676V253.155H204.643V250.019Z" fill="#F5F5F5"/>
<path d="M204.643 255.278H202.676V258.415H204.643V255.278Z" fill="#F5F5F5"/>
<path d="M204.643 260.521H202.676V263.658H204.643V260.521Z" fill="#F5F5F5"/>
<path d="M204.643 265.781H202.676V268.918H204.643V265.781Z" fill="#F5F5F5"/>
<path d="M204.643 271.037H202.676V274.174H204.643V271.037Z" fill="#F5F5F5"/>
<path d="M204.643 276.297H202.676V279.434H204.643V276.297Z" fill="#F5F5F5"/>
<path d="M204.643 281.556H202.676V284.692H204.643V281.556Z" fill="#F5F5F5"/>
<path d="M204.643 286.808H202.676V289.944H204.643V286.808Z" fill="#F5F5F5"/>
<path d="M204.643 292.071H202.676V295.208H204.643V292.071Z" fill="#F5F5F5"/>
<path d="M201.522 202.705H199.555V205.842H201.522V202.705Z" fill="#F5F5F5"/>
<path d="M201.522 207.965H199.555V211.102H201.522V207.965Z" fill="#F5F5F5"/>
<path d="M201.522 213.225H199.555V216.361H201.522V213.225Z" fill="#F5F5F5"/>
<path d="M201.522 218.48H199.555V221.617H201.522V218.48Z" fill="#F5F5F5"/>
<path d="M201.522 223.74H199.555V226.877H201.522V223.74Z" fill="#F5F5F5"/>
<path d="M201.522 228.983H199.555V232.12H201.522V228.983Z" fill="#F5F5F5"/>
<path d="M201.522 234.243H199.555V237.38H201.522V234.243Z" fill="#F5F5F5"/>
<path d="M201.522 239.503H199.555V242.64H201.522V239.503Z" fill="#F5F5F5"/>
<path d="M201.522 244.759H199.555V247.896H201.522V244.759Z" fill="#F5F5F5"/>
<path d="M201.522 250.019H199.555V253.155H201.522V250.019Z" fill="#F5F5F5"/>
<path d="M201.522 265.781H199.555V268.918H201.522V265.781Z" fill="#F5F5F5"/>
<path d="M201.522 271.037H199.555V274.174H201.522V271.037Z" fill="#F5F5F5"/>
<path d="M201.522 276.297H199.555V279.434H201.522V276.297Z" fill="#F5F5F5"/>
<path d="M201.522 281.556H199.555V284.692H201.522V281.556Z" fill="#F5F5F5"/>
<path d="M198.401 202.705H196.434V205.842H198.401V202.705Z" fill="#F5F5F5"/>
<path d="M198.401 207.965H196.434V211.102H198.401V207.965Z" fill="#F5F5F5"/>
<path d="M198.401 213.225H196.434V216.361H198.401V213.225Z" fill="#F5F5F5"/>
<path d="M198.401 218.48H196.434V221.617H198.401V218.48Z" fill="#F5F5F5"/>
<path d="M198.401 223.74H196.434V226.877H198.401V223.74Z" fill="#F5F5F5"/>
<path d="M198.401 228.983H196.434V232.12H198.401V228.983Z" fill="#F5F5F5"/>
<path d="M198.401 234.243H196.434V237.38H198.401V234.243Z" fill="#F5F5F5"/>
<path d="M198.401 239.503H196.434V242.64H198.401V239.503Z" fill="#F5F5F5"/>
<path d="M198.401 244.759H196.434V247.896H198.401V244.759Z" fill="#F5F5F5"/>
<path d="M198.401 250.019H196.434V253.155H198.401V250.019Z" fill="#F5F5F5"/>
<path d="M198.401 265.781H196.434V268.918H198.401V265.781Z" fill="#F5F5F5"/>
<path d="M198.401 271.037H196.434V274.174H198.401V271.037Z" fill="#F5F5F5"/>
<path d="M198.401 276.297H196.434V279.434H198.401V276.297Z" fill="#F5F5F5"/>
<path d="M163.248 189.065H161.281V192.202H163.248V189.065Z" fill="#F5F5F5"/>
<path d="M163.248 194.325H161.281V197.462H163.248V194.325Z" fill="#F5F5F5"/>
<path d="M163.248 199.569H161.281V202.706H163.248V199.569Z" fill="#F5F5F5"/>
<path d="M163.248 204.829H161.281V207.966H163.248V204.829Z" fill="#F5F5F5"/>
<path d="M163.248 210.088H161.281V213.225H163.248V210.088Z" fill="#F5F5F5"/>
<path d="M163.248 215.344H161.281V218.481H163.248V215.344Z" fill="#F5F5F5"/>
<path d="M163.248 220.604H161.281V223.74H163.248V220.604Z" fill="#F5F5F5"/>
<path d="M163.248 225.863H161.281V229H163.248V225.863Z" fill="#F5F5F5"/>
<path d="M163.248 241.626H161.281V244.763H163.248V241.626Z" fill="#F5F5F5"/>
<path d="M163.248 246.882H161.281V250.019H163.248V246.882Z" fill="#F5F5F5"/>
<path d="M160.123 189.065H158.156V192.202H160.123V189.065Z" fill="#F5F5F5"/>
<path d="M160.123 194.325H158.156V197.462H160.123V194.325Z" fill="#F5F5F5"/>
<path d="M160.123 199.569H158.156V202.706H160.123V199.569Z" fill="#F5F5F5"/>
<path d="M160.123 204.829H158.156V207.966H160.123V204.829Z" fill="#F5F5F5"/>
<path d="M160.123 210.088H158.156V213.225H160.123V210.088Z" fill="#F5F5F5"/>
<path d="M160.123 215.344H158.156V218.481H160.123V215.344Z" fill="#F5F5F5"/>
<path d="M160.123 220.604H158.156V223.74H160.123V220.604Z" fill="#F5F5F5"/>
<path d="M160.123 225.863H158.156V229H160.123V225.863Z" fill="#F5F5F5"/>
<path d="M160.123 246.882H158.156V250.019H160.123V246.882Z" fill="#F5F5F5"/>
<path d="M156.994 189.065H155.027V192.202H156.994V189.065Z" fill="#F5F5F5"/>
<path d="M156.994 194.325H155.027V197.462H156.994V194.325Z" fill="#F5F5F5"/>
<path d="M156.994 199.569H155.027V202.706H156.994V199.569Z" fill="#F5F5F5"/>
<path d="M156.994 204.829H155.027V207.966H156.994V204.829Z" fill="#F5F5F5"/>
<path d="M156.994 210.088H155.027V213.225H156.994V210.088Z" fill="#F5F5F5"/>
<path d="M156.994 215.344H155.027V218.481H156.994V215.344Z" fill="#F5F5F5"/>
<path d="M156.994 220.604H155.027V223.74H156.994V220.604Z" fill="#F5F5F5"/>
<path d="M156.994 225.863H155.027V229H156.994V225.863Z" fill="#F5F5F5"/>
<path d="M153.873 189.065H151.906V192.202H153.873V189.065Z" fill="#F5F5F5"/>
<path d="M153.873 194.325H151.906V197.462H153.873V194.325Z" fill="#F5F5F5"/>
<path d="M153.873 199.569H151.906V202.706H153.873V199.569Z" fill="#F5F5F5"/>
<path d="M153.873 204.829H151.906V207.966H153.873V204.829Z" fill="#F5F5F5"/>
<path d="M153.873 210.088H151.906V213.225H153.873V210.088Z" fill="#F5F5F5"/>
<path d="M153.873 215.344H151.906V218.481H153.873V215.344Z" fill="#F5F5F5"/>
<path d="M153.873 225.863H151.906V229H153.873V225.863Z" fill="#F5F5F5"/>
<path d="M153.873 231.106H151.906V234.243H153.873V231.106Z" fill="#F5F5F5"/>
<path d="M153.873 246.882H151.906V250.019H153.873V246.882Z" fill="#F5F5F5"/>
<path d="M153.873 252.142H151.906V255.278H153.873V252.142Z" fill="#F5F5F5"/>
<path d="M153.873 257.393H151.906V260.529H153.873V257.393Z" fill="#F5F5F5"/>
<path d="M153.873 262.645H151.906V265.781H153.873V262.645Z" fill="#F5F5F5"/>
<path d="M153.873 267.904H151.906V271.041H153.873V267.904Z" fill="#F5F5F5"/>
<path d="M153.873 273.16H151.906V276.297H153.873V273.16Z" fill="#F5F5F5"/>
<path d="M153.873 278.411H151.906V281.548H153.873V278.411Z" fill="#F5F5F5"/>
<path d="M150.752 189.065H148.785V192.202H150.752V189.065Z" fill="#F5F5F5"/>
<path d="M150.752 194.325H148.785V197.462H150.752V194.325Z" fill="#F5F5F5"/>
<path d="M150.752 199.569H148.785V202.706H150.752V199.569Z" fill="#F5F5F5"/>
<path d="M150.752 204.829H148.785V207.966H150.752V204.829Z" fill="#F5F5F5"/>
<path d="M150.752 210.088H148.785V213.225H150.752V210.088Z" fill="#F5F5F5"/>
<path d="M150.752 215.344H148.785V218.481H150.752V215.344Z" fill="#F5F5F5"/>
<path d="M150.752 231.106H148.785V234.243H150.752V231.106Z" fill="#F5F5F5"/>
<path d="M150.752 236.366H148.785V239.503H150.752V236.366Z" fill="#F5F5F5"/>
<path d="M150.752 241.626H148.785V244.763H150.752V241.626Z" fill="#F5F5F5"/>
<path d="M150.752 246.882H148.785V250.019H150.752V246.882Z" fill="#F5F5F5"/>
<path d="M150.752 252.142H148.785V255.278H150.752V252.142Z" fill="#F5F5F5"/>
<path d="M150.752 257.393H148.785V260.529H150.752V257.393Z" fill="#F5F5F5"/>
<path d="M150.752 262.645H148.785V265.781H150.752V262.645Z" fill="#F5F5F5"/>
<path d="M150.752 267.904H148.785V271.041H150.752V267.904Z" fill="#F5F5F5"/>
<path d="M150.752 273.16H148.785V276.297H150.752V273.16Z" fill="#F5F5F5"/>
<path d="M150.752 278.411H148.785V281.548H150.752V278.411Z" fill="#F5F5F5"/>
<path d="M150.752 283.68H148.785V286.816H150.752V283.68Z" fill="#F5F5F5"/>
<path d="M150.752 294.187H148.785V297.323H150.752V294.187Z" fill="#F5F5F5"/>
<path d="M147.631 189.065H145.664V192.202H147.631V189.065Z" fill="#F5F5F5"/>
<path d="M147.631 194.325H145.664V197.462H147.631V194.325Z" fill="#F5F5F5"/>
<path d="M147.631 199.569H145.664V202.706H147.631V199.569Z" fill="#F5F5F5"/>
<path d="M147.631 204.829H145.664V207.966H147.631V204.829Z" fill="#F5F5F5"/>
<path d="M147.631 210.088H145.664V213.225H147.631V210.088Z" fill="#F5F5F5"/>
<path d="M147.631 215.344H145.664V218.481H147.631V215.344Z" fill="#F5F5F5"/>
<path d="M147.631 231.106H145.664V234.243H147.631V231.106Z" fill="#F5F5F5"/>
<path d="M147.631 236.366H145.664V239.503H147.631V236.366Z" fill="#F5F5F5"/>
<path d="M147.631 241.626H145.664V244.763H147.631V241.626Z" fill="#F5F5F5"/>
<path d="M147.631 246.882H145.664V250.019H147.631V246.882Z" fill="#F5F5F5"/>
<path d="M147.631 262.645H145.664V265.781H147.631V262.645Z" fill="#F5F5F5"/>
<path d="M147.631 267.904H145.664V271.041H147.631V267.904Z" fill="#F5F5F5"/>
<path d="M147.631 273.16H145.664V276.297H147.631V273.16Z" fill="#F5F5F5"/>
<path d="M147.631 278.411H145.664V281.548H147.631V278.411Z" fill="#F5F5F5"/>
<path d="M147.631 283.68H145.664V286.816H147.631V283.68Z" fill="#F5F5F5"/>
<path d="M147.631 294.187H145.664V297.323H147.631V294.187Z" fill="#F5F5F5"/>
<path d="M147.631 299.434H145.664V302.57H147.631V299.434Z" fill="#F5F5F5"/>
<path d="M119.299 237.938H117.332V241.075H119.299V237.938Z" fill="#F5F5F5"/>
<path d="M119.299 243.194H117.332V246.331H119.299V243.194Z" fill="#F5F5F5"/>
<path d="M119.299 248.446H117.332V251.583H119.299V248.446Z" fill="#F5F5F5"/>
<path d="M119.299 253.706H117.332V256.843H119.299V253.706Z" fill="#F5F5F5"/>
<path d="M119.299 258.957H117.332V262.094H119.299V258.957Z" fill="#F5F5F5"/>
<path d="M119.299 264.217H117.332V267.354H119.299V264.217Z" fill="#F5F5F5"/>
<path d="M119.299 269.473H117.332V272.609H119.299V269.473Z" fill="#F5F5F5"/>
<path d="M119.299 285.235H117.332V288.372H119.299V285.235Z" fill="#F5F5F5"/>
<path d="M119.299 290.495H117.332V293.632H119.299V290.495Z" fill="#F5F5F5"/>
<path d="M119.299 295.751H117.332V298.888H119.299V295.751Z" fill="#F5F5F5"/>
<path d="M116.178 237.938H114.211V241.075H116.178V237.938Z" fill="#F5F5F5"/>
<path d="M116.178 243.194H114.211V246.331H116.178V243.194Z" fill="#F5F5F5"/>
<path d="M116.178 248.446H114.211V251.583H116.178V248.446Z" fill="#F5F5F5"/>
<path d="M116.178 253.706H114.211V256.843H116.178V253.706Z" fill="#F5F5F5"/>
<path d="M116.178 258.957H114.211V262.094H116.178V258.957Z" fill="#F5F5F5"/>
<path d="M116.178 264.217H114.211V267.354H116.178V264.217Z" fill="#F5F5F5"/>
<path d="M116.178 269.473H114.211V272.609H116.178V269.473Z" fill="#F5F5F5"/>
<path d="M113.057 237.938H111.09V241.075H113.057V237.938Z" fill="#F5F5F5"/>
<path d="M113.057 243.194H111.09V246.331H113.057V243.194Z" fill="#F5F5F5"/>
<path d="M113.057 248.446H111.09V251.583H113.057V248.446Z" fill="#F5F5F5"/>
<path d="M113.057 253.706H111.09V256.843H113.057V253.706Z" fill="#F5F5F5"/>
<path d="M113.057 258.957H111.09V262.094H113.057V258.957Z" fill="#F5F5F5"/>
<path d="M113.057 264.217H111.09V267.354H113.057V264.217Z" fill="#F5F5F5"/>
<path d="M113.057 269.473H111.09V272.609H113.057V269.473Z" fill="#F5F5F5"/>
<path d="M109.936 237.938H107.969V241.075H109.936V237.938Z" fill="#F5F5F5"/>
<path d="M109.936 243.194H107.969V246.331H109.936V243.194Z" fill="#F5F5F5"/>
<path d="M109.936 248.446H107.969V251.583H109.936V248.446Z" fill="#F5F5F5"/>
<path d="M109.936 253.706H107.969V256.843H109.936V253.706Z" fill="#F5F5F5"/>
<path d="M109.936 258.957H107.969V262.094H109.936V258.957Z" fill="#F5F5F5"/>
<path d="M109.936 264.217H107.969V267.354H109.936V264.217Z" fill="#F5F5F5"/>
<path d="M109.936 269.473H107.969V272.609H109.936V269.473Z" fill="#F5F5F5"/>
<path d="M109.936 274.732H107.969V277.869H109.936V274.732Z" fill="#F5F5F5"/>
<path d="M109.936 279.976H107.969V283.112H109.936V279.976Z" fill="#F5F5F5"/>
<path d="M109.936 285.235H107.969V288.372H109.936V285.235Z" fill="#F5F5F5"/>
<path d="M109.936 290.495H107.969V293.632H109.936V290.495Z" fill="#F5F5F5"/>
<path d="M106.807 237.938H104.84V241.075H106.807V237.938Z" fill="#F5F5F5"/>
<path d="M106.807 243.194H104.84V246.331H106.807V243.194Z" fill="#F5F5F5"/>
<path d="M106.807 248.446H104.84V251.583H106.807V248.446Z" fill="#F5F5F5"/>
<path d="M106.807 253.706H104.84V256.843H106.807V253.706Z" fill="#F5F5F5"/>
<path d="M106.807 258.957H104.84V262.094H106.807V258.957Z" fill="#F5F5F5"/>
<path d="M106.807 264.217H104.84V267.354H106.807V264.217Z" fill="#F5F5F5"/>
<path d="M106.807 269.473H104.84V272.609H106.807V269.473Z" fill="#F5F5F5"/>
<path d="M106.807 274.732H104.84V277.869H106.807V274.732Z" fill="#F5F5F5"/>
<path d="M106.807 279.976H104.84V283.112H106.807V279.976Z" fill="#F5F5F5"/>
<path d="M106.807 285.235H104.84V288.372H106.807V285.235Z" fill="#F5F5F5"/>
<path d="M106.807 290.495H104.84V293.632H106.807V290.495Z" fill="#F5F5F5"/>
<path d="M106.807 295.751H104.84V298.888H106.807V295.751Z" fill="#F5F5F5"/>
<path d="M106.807 311.514H104.84V314.65H106.807V311.514Z" fill="#F5F5F5"/>
<path d="M106.807 316.773H104.84V319.91H106.807V316.773Z" fill="#F5F5F5"/>
<path d="M103.682 237.938H101.715V241.075H103.682V237.938Z" fill="#F5F5F5"/>
<path d="M103.682 243.194H101.715V246.331H103.682V243.194Z" fill="#F5F5F5"/>
<path d="M103.682 248.446H101.715V251.583H103.682V248.446Z" fill="#F5F5F5"/>
<path d="M103.682 264.217H101.715V267.354H103.682V264.217Z" fill="#F5F5F5"/>
<path d="M103.682 269.473H101.715V272.609H103.682V269.473Z" fill="#F5F5F5"/>
<path d="M103.682 274.732H101.715V277.869H103.682V274.732Z" fill="#F5F5F5"/>
<path d="M103.682 279.976H101.715V283.112H103.682V279.976Z" fill="#F5F5F5"/>
<path d="M103.682 285.235H101.715V288.372H103.682V285.235Z" fill="#F5F5F5"/>
<path d="M103.682 290.495H101.715V293.632H103.682V290.495Z" fill="#F5F5F5"/>
<path d="M103.682 295.751H101.715V298.888H103.682V295.751Z" fill="#F5F5F5"/>
<path d="M103.682 311.514H101.715V314.65H103.682V311.514Z" fill="#F5F5F5"/>
<path d="M103.682 316.773H101.715V319.91H103.682V316.773Z" fill="#F5F5F5"/>
<path d="M103.682 322.033H101.715V325.17H103.682V322.033Z" fill="#F5F5F5"/>
<path d="M70.9592 206.405H68.9922V209.542H70.9592V206.405Z" fill="#F5F5F5"/>
<path d="M70.9592 211.652H68.9922V214.789H70.9592V211.652Z" fill="#F5F5F5"/>
<path d="M70.9592 216.912H68.9922V220.049H70.9592V216.912Z" fill="#F5F5F5"/>
<path d="M70.9592 222.168H68.9922V225.305H70.9592V222.168Z" fill="#F5F5F5"/>
<path d="M70.9592 227.428H68.9922V230.565H70.9592V227.428Z" fill="#F5F5F5"/>
<path d="M70.9592 232.688H68.9922V235.824H70.9592V232.688Z" fill="#F5F5F5"/>
<path d="M70.9592 237.938H68.9922V241.075H70.9592V237.938Z" fill="#F5F5F5"/>
<path d="M70.9592 243.194H68.9922V246.331H70.9592V243.194Z" fill="#F5F5F5"/>
<path d="M70.9592 248.446H68.9922V251.583H70.9592V248.446Z" fill="#F5F5F5"/>
<path d="M70.9592 253.706H68.9922V256.843H70.9592V253.706Z" fill="#F5F5F5"/>
<path d="M70.9592 258.957H68.9922V262.094H70.9592V258.957Z" fill="#F5F5F5"/>
<path d="M70.9592 264.217H68.9922V267.354H70.9592V264.217Z" fill="#F5F5F5"/>
<path d="M70.9592 269.473H68.9922V272.609H70.9592V269.473Z" fill="#F5F5F5"/>
<path d="M70.9592 274.732H68.9922V277.869H70.9592V274.732Z" fill="#F5F5F5"/>
<path d="M70.9592 279.976H68.9922V283.112H70.9592V279.976Z" fill="#F5F5F5"/>
<path d="M70.9592 285.235H68.9922V288.372H70.9592V285.235Z" fill="#F5F5F5"/>
<path d="M70.9592 290.495H68.9922V293.632H70.9592V290.495Z" fill="#F5F5F5"/>
<path d="M70.9592 295.751H68.9922V298.888H70.9592V295.751Z" fill="#F5F5F5"/>
<path d="M70.9592 301.011H68.9922V304.148H70.9592V301.011Z" fill="#F5F5F5"/>
<path d="M70.9592 306.27H68.9922V309.406H70.9592V306.27Z" fill="#F5F5F5"/>
<path d="M70.9592 311.514H68.9922V314.65H70.9592V311.514Z" fill="#F5F5F5"/>
<path d="M70.9592 316.773H68.9922V319.91H70.9592V316.773Z" fill="#F5F5F5"/>
<path d="M70.9592 322.033H68.9922V325.17H70.9592V322.033Z" fill="#F5F5F5"/>
<path d="M67.8381 206.405H65.8711V209.542H67.8381V206.405Z" fill="#F5F5F5"/>
<path d="M67.8381 211.652H65.8711V214.789H67.8381V211.652Z" fill="#F5F5F5"/>
<path d="M67.8381 216.912H65.8711V220.049H67.8381V216.912Z" fill="#F5F5F5"/>
<path d="M67.8381 222.168H65.8711V225.305H67.8381V222.168Z" fill="#F5F5F5"/>
<path d="M67.8381 227.428H65.8711V230.565H67.8381V227.428Z" fill="#F5F5F5"/>
<path d="M67.8381 232.688H65.8711V235.824H67.8381V232.688Z" fill="#F5F5F5"/>
<path d="M67.8381 237.938H65.8711V241.075H67.8381V237.938Z" fill="#F5F5F5"/>
<path d="M67.8381 243.194H65.8711V246.331H67.8381V243.194Z" fill="#F5F5F5"/>
<path d="M67.8381 248.446H65.8711V251.583H67.8381V248.446Z" fill="#F5F5F5"/>
<path d="M67.8381 253.706H65.8711V256.843H67.8381V253.706Z" fill="#F5F5F5"/>
<path d="M67.8381 258.957H65.8711V262.094H67.8381V258.957Z" fill="#F5F5F5"/>
<path d="M67.8381 264.217H65.8711V267.354H67.8381V264.217Z" fill="#F5F5F5"/>
<path d="M67.8381 269.473H65.8711V272.609H67.8381V269.473Z" fill="#F5F5F5"/>
<path d="M67.8381 274.732H65.8711V277.869H67.8381V274.732Z" fill="#F5F5F5"/>
<path d="M67.8381 279.976H65.8711V283.112H67.8381V279.976Z" fill="#F5F5F5"/>
<path d="M67.8381 285.235H65.8711V288.372H67.8381V285.235Z" fill="#F5F5F5"/>
<path d="M67.8381 290.495H65.8711V293.632H67.8381V290.495Z" fill="#F5F5F5"/>
<path d="M67.8381 295.751H65.8711V298.888H67.8381V295.751Z" fill="#F5F5F5"/>
<path d="M67.8381 301.011H65.8711V304.148H67.8381V301.011Z" fill="#F5F5F5"/>
<path d="M64.7131 206.405H62.7461V209.542H64.7131V206.405Z" fill="#F5F5F5"/>
<path d="M64.7131 211.652H62.7461V214.789H64.7131V211.652Z" fill="#F5F5F5"/>
<path d="M64.7131 216.912H62.7461V220.049H64.7131V216.912Z" fill="#F5F5F5"/>
<path d="M64.7131 222.168H62.7461V225.305H64.7131V222.168Z" fill="#F5F5F5"/>
<path d="M64.7131 227.428H62.7461V230.565H64.7131V227.428Z" fill="#F5F5F5"/>
<path d="M64.7131 232.688H62.7461V235.824H64.7131V232.688Z" fill="#F5F5F5"/>
<path d="M64.7131 237.938H62.7461V241.075H64.7131V237.938Z" fill="#F5F5F5"/>
<path d="M64.7131 243.194H62.7461V246.331H64.7131V243.194Z" fill="#F5F5F5"/>
<path d="M64.7131 248.446H62.7461V251.583H64.7131V248.446Z" fill="#F5F5F5"/>
<path d="M64.7131 253.706H62.7461V256.843H64.7131V253.706Z" fill="#F5F5F5"/>
<path d="M64.7131 258.957H62.7461V262.094H64.7131V258.957Z" fill="#F5F5F5"/>
<path d="M64.7131 264.217H62.7461V267.354H64.7131V264.217Z" fill="#F5F5F5"/>
<path d="M64.7131 269.473H62.7461V272.609H64.7131V269.473Z" fill="#F5F5F5"/>
<path d="M64.7131 274.732H62.7461V277.869H64.7131V274.732Z" fill="#F5F5F5"/>
<path d="M64.7131 279.976H62.7461V283.112H64.7131V279.976Z" fill="#F5F5F5"/>
<path d="M64.7131 285.235H62.7461V288.372H64.7131V285.235Z" fill="#F5F5F5"/>
<path d="M64.7131 290.495H62.7461V293.632H64.7131V290.495Z" fill="#F5F5F5"/>
<path d="M64.7131 295.751H62.7461V298.888H64.7131V295.751Z" fill="#F5F5F5"/>
<path d="M64.7131 301.011H62.7461V304.148H64.7131V301.011Z" fill="#F5F5F5"/>
<path d="M61.592 206.405H59.625V209.542H61.592V206.405Z" fill="#F5F5F5"/>
<path d="M61.592 211.652H59.625V214.789H61.592V211.652Z" fill="#F5F5F5"/>
<path d="M61.592 216.912H59.625V220.049H61.592V216.912Z" fill="#F5F5F5"/>
<path d="M61.592 222.168H59.625V225.305H61.592V222.168Z" fill="#F5F5F5"/>
<path d="M61.592 227.428H59.625V230.565H61.592V227.428Z" fill="#F5F5F5"/>
<path d="M61.592 232.688H59.625V235.824H61.592V232.688Z" fill="#F5F5F5"/>
<path d="M61.592 237.938H59.625V241.075H61.592V237.938Z" fill="#F5F5F5"/>
<path d="M61.592 243.194H59.625V246.331H61.592V243.194Z" fill="#F5F5F5"/>
<path d="M61.592 248.446H59.625V251.583H61.592V248.446Z" fill="#F5F5F5"/>
<path d="M61.592 253.706H59.625V256.843H61.592V253.706Z" fill="#F5F5F5"/>
<path d="M61.592 258.957H59.625V262.094H61.592V258.957Z" fill="#F5F5F5"/>
<path d="M61.592 264.217H59.625V267.354H61.592V264.217Z" fill="#F5F5F5"/>
<path d="M61.592 269.473H59.625V272.609H61.592V269.473Z" fill="#F5F5F5"/>
<path d="M61.592 274.732H59.625V277.869H61.592V274.732Z" fill="#F5F5F5"/>
<path d="M61.592 279.976H59.625V283.112H61.592V279.976Z" fill="#F5F5F5"/>
<path d="M58.4709 206.405H56.5039V209.542H58.4709V206.405Z" fill="#F5F5F5"/>
<path d="M58.4709 211.652H56.5039V214.789H58.4709V211.652Z" fill="#F5F5F5"/>
<path d="M58.4709 216.912H56.5039V220.049H58.4709V216.912Z" fill="#F5F5F5"/>
<path d="M58.4709 222.168H56.5039V225.305H58.4709V222.168Z" fill="#F5F5F5"/>
<path d="M58.4709 227.428H56.5039V230.565H58.4709V227.428Z" fill="#F5F5F5"/>
<path d="M58.4709 232.688H56.5039V235.824H58.4709V232.688Z" fill="#F5F5F5"/>
<path d="M58.4709 237.938H56.5039V241.075H58.4709V237.938Z" fill="#F5F5F5"/>
<path d="M58.4709 243.194H56.5039V246.331H58.4709V243.194Z" fill="#F5F5F5"/>
<path d="M58.4709 248.446H56.5039V251.583H58.4709V248.446Z" fill="#F5F5F5"/>
<path d="M58.4709 253.706H56.5039V256.843H58.4709V253.706Z" fill="#F5F5F5"/>
<path d="M58.4709 258.957H56.5039V262.094H58.4709V258.957Z" fill="#F5F5F5"/>
<path d="M58.4709 264.217H56.5039V267.354H58.4709V264.217Z" fill="#F5F5F5"/>
<path d="M58.4709 269.473H56.5039V272.609H58.4709V269.473Z" fill="#F5F5F5"/>
<path d="M55.3459 206.405H53.3789V209.542H55.3459V206.405Z" fill="#F5F5F5"/>
<path d="M55.3459 211.652H53.3789V214.789H55.3459V211.652Z" fill="#F5F5F5"/>
<path d="M55.3459 216.912H53.3789V220.049H55.3459V216.912Z" fill="#F5F5F5"/>
<path d="M55.3459 222.168H53.3789V225.305H55.3459V222.168Z" fill="#F5F5F5"/>
<path d="M55.3459 227.428H53.3789V230.565H55.3459V227.428Z" fill="#F5F5F5"/>
<path d="M55.3459 232.688H53.3789V235.824H55.3459V232.688Z" fill="#F5F5F5"/>
<path d="M55.3459 237.938H53.3789V241.075H55.3459V237.938Z" fill="#F5F5F5"/>
<path d="M55.3459 243.194H53.3789V246.331H55.3459V243.194Z" fill="#F5F5F5"/>
<path d="M55.3459 248.446H53.3789V251.583H55.3459V248.446Z" fill="#F5F5F5"/>
<path d="M55.3459 253.706H53.3789V256.843H55.3459V253.706Z" fill="#F5F5F5"/>
<path d="M55.3459 258.957H53.3789V262.094H55.3459V258.957Z" fill="#F5F5F5"/>
<path d="M55.3459 264.217H53.3789V267.354H55.3459V264.217Z" fill="#F5F5F5"/>
<path d="M284.787 244.759H282.82V247.896H284.787V244.759Z" fill="#F5F5F5"/>
<path d="M284.787 250.019H282.82V253.155H284.787V250.019Z" fill="#F5F5F5"/>
<path d="M284.787 255.278H282.82V258.415H284.787V255.278Z" fill="#F5F5F5"/>
<path d="M284.787 260.521H282.82V263.658H284.787V260.521Z" fill="#F5F5F5"/>
<path d="M284.787 265.781H282.82V268.918H284.787V265.781Z" fill="#F5F5F5"/>
<path d="M284.787 271.037H282.82V274.174H284.787V271.037Z" fill="#F5F5F5"/>
<path d="M284.787 276.297H282.82V279.434H284.787V276.297Z" fill="#F5F5F5"/>
<path d="M284.787 281.556H282.82V284.692H284.787V281.556Z" fill="#F5F5F5"/>
<path d="M284.787 286.808H282.82V289.944H284.787V286.808Z" fill="#F5F5F5"/>
<path d="M284.787 292.071H282.82V295.208H284.787V292.071Z" fill="#F5F5F5"/>
<path d="M284.787 297.319H282.82V300.456H284.787V297.319Z" fill="#F5F5F5"/>
<path d="M284.787 302.574H282.82V305.711H284.787V302.574Z" fill="#F5F5F5"/>
<path d="M284.787 307.826H282.82V310.963H284.787V307.826Z" fill="#F5F5F5"/>
<path d="M284.787 313.094H282.82V316.231H284.787V313.094Z" fill="#F5F5F5"/>
<path d="M284.787 318.35H282.82V321.486H284.787V318.35Z" fill="#F5F5F5"/>
<path d="M284.787 323.602H282.82V326.738H284.787V323.602Z" fill="#F5F5F5"/>
<path d="M284.787 328.849H282.82V331.985H284.787V328.849Z" fill="#F5F5F5"/>
<path d="M284.787 334.112H282.82V337.249H284.787V334.112Z" fill="#F5F5F5"/>
<path d="M284.787 339.372H282.82V342.509H284.787V339.372Z" fill="#F5F5F5"/>
<path d="M284.787 344.624H282.82V347.761H284.787V344.624Z" fill="#F5F5F5"/>
<path d="M281.666 244.759H279.699V247.896H281.666V244.759Z" fill="#F5F5F5"/>
<path d="M281.666 250.019H279.699V253.155H281.666V250.019Z" fill="#F5F5F5"/>
<path d="M281.666 255.278H279.699V258.415H281.666V255.278Z" fill="#F5F5F5"/>
<path d="M281.666 260.521H279.699V263.658H281.666V260.521Z" fill="#F5F5F5"/>
<path d="M281.666 265.781H279.699V268.918H281.666V265.781Z" fill="#F5F5F5"/>
<path d="M281.666 271.037H279.699V274.174H281.666V271.037Z" fill="#F5F5F5"/>
<path d="M281.666 276.297H279.699V279.434H281.666V276.297Z" fill="#F5F5F5"/>
<path d="M281.666 281.556H279.699V284.692H281.666V281.556Z" fill="#F5F5F5"/>
<path d="M281.666 286.808H279.699V289.944H281.666V286.808Z" fill="#F5F5F5"/>
<path d="M281.666 292.071H279.699V295.208H281.666V292.071Z" fill="#F5F5F5"/>
<path d="M281.666 297.319H279.699V300.456H281.666V297.319Z" fill="#F5F5F5"/>
<path d="M281.666 302.574H279.699V305.711H281.666V302.574Z" fill="#F5F5F5"/>
<path d="M281.666 307.826H279.699V310.963H281.666V307.826Z" fill="#F5F5F5"/>
<path d="M281.666 313.094H279.699V316.231H281.666V313.094Z" fill="#F5F5F5"/>
<path d="M281.666 318.35H279.699V321.486H281.666V318.35Z" fill="#F5F5F5"/>
<path d="M281.666 323.602H279.699V326.738H281.666V323.602Z" fill="#F5F5F5"/>
<path d="M281.666 328.849H279.699V331.985H281.666V328.849Z" fill="#F5F5F5"/>
<path d="M281.666 334.112H279.699V337.249H281.666V334.112Z" fill="#F5F5F5"/>
<path d="M278.545 244.759H276.578V247.896H278.545V244.759Z" fill="#F5F5F5"/>
<path d="M278.545 250.019H276.578V253.155H278.545V250.019Z" fill="#F5F5F5"/>
<path d="M278.545 255.278H276.578V258.415H278.545V255.278Z" fill="#F5F5F5"/>
<path d="M278.545 260.521H276.578V263.658H278.545V260.521Z" fill="#F5F5F5"/>
<path d="M278.545 265.781H276.578V268.918H278.545V265.781Z" fill="#F5F5F5"/>
<path d="M278.545 271.037H276.578V274.174H278.545V271.037Z" fill="#F5F5F5"/>
<path d="M278.545 276.297H276.578V279.434H278.545V276.297Z" fill="#F5F5F5"/>
<path d="M278.545 281.556H276.578V284.692H278.545V281.556Z" fill="#F5F5F5"/>
<path d="M278.545 286.808H276.578V289.944H278.545V286.808Z" fill="#F5F5F5"/>
<path d="M278.545 292.071H276.578V295.208H278.545V292.071Z" fill="#F5F5F5"/>
<path d="M278.545 297.319H276.578V300.456H278.545V297.319Z" fill="#F5F5F5"/>
<path d="M278.545 302.574H276.578V305.711H278.545V302.574Z" fill="#F5F5F5"/>
<path d="M278.545 307.826H276.578V310.963H278.545V307.826Z" fill="#F5F5F5"/>
<path d="M278.545 313.094H276.578V316.231H278.545V313.094Z" fill="#F5F5F5"/>
<path d="M278.545 318.35H276.578V321.486H278.545V318.35Z" fill="#F5F5F5"/>
<path d="M278.545 323.602H276.578V326.738H278.545V323.602Z" fill="#F5F5F5"/>
<path d="M278.545 328.849H276.578V331.985H278.545V328.849Z" fill="#F5F5F5"/>
<path d="M278.545 334.112H276.578V337.249H278.545V334.112Z" fill="#F5F5F5"/>
<path d="M296.467 283.12H294.5V286.257H296.467V283.12Z" fill="#F5F5F5"/>
<path d="M296.467 288.372H294.5V291.509H296.467V288.372Z" fill="#F5F5F5"/>
<path d="M296.467 293.632H294.5V296.769H296.467V293.632Z" fill="#F5F5F5"/>
<path d="M296.467 298.887H294.5V302.024H296.467V298.887Z" fill="#F5F5F5"/>
<path d="M296.467 304.146H294.5V307.283H296.467V304.146Z" fill="#F5F5F5"/>
<path d="M296.467 309.391H294.5V312.527H296.467V309.391Z" fill="#F5F5F5"/>
<path d="M296.467 314.65H294.5V317.787H296.467V314.65Z" fill="#F5F5F5"/>
<path d="M296.467 319.91H294.5V323.047H296.467V319.91Z" fill="#F5F5F5"/>
<path d="M296.467 325.165H294.5V328.302H296.467V325.165Z" fill="#F5F5F5"/>
<path d="M296.467 330.425H294.5V333.562H296.467V330.425Z" fill="#F5F5F5"/>
<path d="M296.467 335.685H294.5V338.821H296.467V335.685Z" fill="#F5F5F5"/>
<path d="M296.467 340.94H294.5V344.077H296.467V340.94Z" fill="#F5F5F5"/>
<path d="M296.467 346.188H294.5V349.324H296.467V346.188Z" fill="#F5F5F5"/>
<path d="M293.342 283.12H291.375V286.257H293.342V283.12Z" fill="#F5F5F5"/>
<path d="M293.342 288.372H291.375V291.509H293.342V288.372Z" fill="#F5F5F5"/>
<path d="M293.342 293.632H291.375V296.769H293.342V293.632Z" fill="#F5F5F5"/>
<path d="M293.342 298.887H291.375V302.024H293.342V298.887Z" fill="#F5F5F5"/>
<path d="M293.342 304.146H291.375V307.283H293.342V304.146Z" fill="#F5F5F5"/>
<path d="M293.342 309.391H291.375V312.527H293.342V309.391Z" fill="#F5F5F5"/>
<path d="M293.342 314.65H291.375V317.787H293.342V314.65Z" fill="#F5F5F5"/>
<path d="M293.342 319.91H291.375V323.047H293.342V319.91Z" fill="#F5F5F5"/>
<path d="M293.342 325.165H291.375V328.302H293.342V325.165Z" fill="#F5F5F5"/>
<path d="M293.342 330.425H291.375V333.562H293.342V330.425Z" fill="#F5F5F5"/>
<path d="M293.342 335.685H291.375V338.821H293.342V335.685Z" fill="#F5F5F5"/>
<path d="M293.342 340.94H291.375V344.077H293.342V340.94Z" fill="#F5F5F5"/>
<path d="M293.342 346.188H291.375V349.324H293.342V346.188Z" fill="#F5F5F5"/>
<path d="M290.221 283.12H288.254V286.257H290.221V283.12Z" fill="#F5F5F5"/>
<path d="M290.221 288.372H288.254V291.509H290.221V288.372Z" fill="#F5F5F5"/>
<path d="M290.221 293.632H288.254V296.769H290.221V293.632Z" fill="#F5F5F5"/>
<path d="M290.221 298.887H288.254V302.024H290.221V298.887Z" fill="#F5F5F5"/>
<path d="M290.221 304.146H288.254V307.283H290.221V304.146Z" fill="#F5F5F5"/>
<path d="M290.221 309.391H288.254V312.527H290.221V309.391Z" fill="#F5F5F5"/>
<path d="M290.221 314.65H288.254V317.787H290.221V314.65Z" fill="#F5F5F5"/>
<path d="M290.221 319.91H288.254V323.047H290.221V319.91Z" fill="#F5F5F5"/>
<path d="M290.221 325.165H288.254V328.302H290.221V325.165Z" fill="#F5F5F5"/>
<path d="M290.221 330.425H288.254V333.562H290.221V330.425Z" fill="#F5F5F5"/>
<path d="M290.221 335.685H288.254V338.821H290.221V335.685Z" fill="#F5F5F5"/>
<path d="M290.221 340.94H288.254V344.077H290.221V340.94Z" fill="#F5F5F5"/>
<path d="M290.221 346.188H288.254V349.324H290.221V346.188Z" fill="#F5F5F5"/>
<path d="M290.221 351.447H288.254V354.584H290.221V351.447Z" fill="#F5F5F5"/>
<path d="M272.873 284.692H270.906V287.829H272.873V284.692Z" fill="#F5F5F5"/>
<path d="M272.873 289.948H270.906V293.085H272.873V289.948Z" fill="#F5F5F5"/>
<path d="M272.873 295.195H270.906V298.332H272.873V295.195Z" fill="#F5F5F5"/>
<path d="M272.873 300.451H270.906V303.588H272.873V300.451Z" fill="#F5F5F5"/>
<path d="M272.873 305.711H270.906V308.848H272.873V305.711Z" fill="#F5F5F5"/>
<path d="M272.873 310.971H270.906V314.107H272.873V310.971Z" fill="#F5F5F5"/>
<path d="M272.873 316.223H270.906V319.359H272.873V316.223Z" fill="#F5F5F5"/>
<path d="M272.873 321.486H270.906V324.623H272.873V321.486Z" fill="#F5F5F5"/>
<path d="M272.873 326.733H270.906V329.87H272.873V326.733Z" fill="#F5F5F5"/>
<path d="M272.873 331.989H270.906V335.126H272.873V331.989Z" fill="#F5F5F5"/>
<path d="M272.873 347.764H270.906V350.9H272.873V347.764Z" fill="#F5F5F5"/>
<path d="M269.752 284.692H267.785V287.829H269.752V284.692Z" fill="#F5F5F5"/>
<path d="M269.752 289.948H267.785V293.085H269.752V289.948Z" fill="#F5F5F5"/>
<path d="M269.752 295.195H267.785V298.332H269.752V295.195Z" fill="#F5F5F5"/>
<path d="M269.752 300.451H267.785V303.588H269.752V300.451Z" fill="#F5F5F5"/>
<path d="M269.752 305.711H267.785V308.848H269.752V305.711Z" fill="#F5F5F5"/>
<path d="M269.752 310.971H267.785V314.107H269.752V310.971Z" fill="#F5F5F5"/>
<path d="M269.752 316.223H267.785V319.359H269.752V316.223Z" fill="#F5F5F5"/>
<path d="M269.752 321.486H267.785V324.623H269.752V321.486Z" fill="#F5F5F5"/>
<path d="M269.752 326.733H267.785V329.87H269.752V326.733Z" fill="#F5F5F5"/>
<path d="M269.752 342.509H267.785V345.646H269.752V342.509Z" fill="#F5F5F5"/>
<path d="M269.752 347.764H267.785V350.9H269.752V347.764Z" fill="#F5F5F5"/>
<path d="M266.627 284.692H264.66V287.829H266.627V284.692Z" fill="#F5F5F5"/>
<path d="M266.627 289.948H264.66V293.085H266.627V289.948Z" fill="#F5F5F5"/>
<path d="M266.627 295.195H264.66V298.332H266.627V295.195Z" fill="#F5F5F5"/>
<path d="M266.627 300.451H264.66V303.588H266.627V300.451Z" fill="#F5F5F5"/>
<path d="M266.627 305.711H264.66V308.848H266.627V305.711Z" fill="#F5F5F5"/>
<path d="M266.627 310.971H264.66V314.107H266.627V310.971Z" fill="#F5F5F5"/>
<path d="M266.627 316.223H264.66V319.359H266.627V316.223Z" fill="#F5F5F5"/>
<path d="M266.627 321.486H264.66V324.623H266.627V321.486Z" fill="#F5F5F5"/>
<path d="M266.627 337.241H264.66V340.378H266.627V337.241Z" fill="#F5F5F5"/>
<path d="M266.627 342.509H264.66V345.646H266.627V342.509Z" fill="#F5F5F5"/>
<path d="M266.627 347.764H264.66V350.9H266.627V347.764Z" fill="#F5F5F5"/>
<path d="M237.6 204.829H235.633V207.966H237.6V204.829Z" fill="#F5F5F5"/>
<path d="M237.6 210.088H235.633V213.225H237.6V210.088Z" fill="#F5F5F5"/>
<path d="M237.6 215.344H235.633V218.481H237.6V215.344Z" fill="#F5F5F5"/>
<path d="M237.6 220.604H235.633V223.74H237.6V220.604Z" fill="#F5F5F5"/>
<path d="M237.6 225.863H235.633V229H237.6V225.863Z" fill="#F5F5F5"/>
<path d="M237.6 231.106H235.633V234.243H237.6V231.106Z" fill="#F5F5F5"/>
<path d="M237.6 236.366H235.633V239.503H237.6V236.366Z" fill="#F5F5F5"/>
<path d="M237.6 241.626H235.633V244.763H237.6V241.626Z" fill="#F5F5F5"/>
<path d="M237.6 246.882H235.633V250.019H237.6V246.882Z" fill="#F5F5F5"/>
<path d="M237.6 252.142H235.633V255.278H237.6V252.142Z" fill="#F5F5F5"/>
<path d="M237.6 257.393H235.633V260.529H237.6V257.393Z" fill="#F5F5F5"/>
<path d="M237.6 262.645H235.633V265.781H237.6V262.645Z" fill="#F5F5F5"/>
<path d="M237.6 267.904H235.633V271.041H237.6V267.904Z" fill="#F5F5F5"/>
<path d="M237.6 273.16H235.633V276.297H237.6V273.16Z" fill="#F5F5F5"/>
<path d="M237.6 278.411H235.633V281.548H237.6V278.411Z" fill="#F5F5F5"/>
<path d="M237.6 283.68H235.633V286.816H237.6V283.68Z" fill="#F5F5F5"/>
<path d="M237.6 288.935H235.633V292.071H237.6V288.935Z" fill="#F5F5F5"/>
<path d="M237.6 299.434H235.633V302.57H237.6V299.434Z" fill="#F5F5F5"/>
<path d="M237.6 304.697H235.633V307.834H237.6V304.697Z" fill="#F5F5F5"/>
<path d="M237.6 309.957H235.633V313.094H237.6V309.957Z" fill="#F5F5F5"/>
<path d="M237.6 315.209H235.633V318.346H237.6V315.209Z" fill="#F5F5F5"/>
<path d="M237.6 320.469H235.633V323.606H237.6V320.469Z" fill="#F5F5F5"/>
<path d="M234.479 204.829H232.512V207.966H234.479V204.829Z" fill="#F5F5F5"/>
<path d="M234.479 210.088H232.512V213.225H234.479V210.088Z" fill="#F5F5F5"/>
<path d="M234.479 215.344H232.512V218.481H234.479V215.344Z" fill="#F5F5F5"/>
<path d="M234.479 220.604H232.512V223.74H234.479V220.604Z" fill="#F5F5F5"/>
<path d="M234.479 225.863H232.512V229H234.479V225.863Z" fill="#F5F5F5"/>
<path d="M234.479 231.106H232.512V234.243H234.479V231.106Z" fill="#F5F5F5"/>
<path d="M234.479 236.366H232.512V239.503H234.479V236.366Z" fill="#F5F5F5"/>
<path d="M234.479 241.626H232.512V244.763H234.479V241.626Z" fill="#F5F5F5"/>
<path d="M234.479 246.882H232.512V250.019H234.479V246.882Z" fill="#F5F5F5"/>
<path d="M234.479 252.142H232.512V255.278H234.479V252.142Z" fill="#F5F5F5"/>
<path d="M234.479 257.393H232.512V260.529H234.479V257.393Z" fill="#F5F5F5"/>
<path d="M234.479 262.645H232.512V265.781H234.479V262.645Z" fill="#F5F5F5"/>
<path d="M234.479 267.904H232.512V271.041H234.479V267.904Z" fill="#F5F5F5"/>
<path d="M234.479 273.16H232.512V276.297H234.479V273.16Z" fill="#F5F5F5"/>
<path d="M234.479 278.411H232.512V281.548H234.479V278.411Z" fill="#F5F5F5"/>
<path d="M234.479 283.68H232.512V286.816H234.479V283.68Z" fill="#F5F5F5"/>
<path d="M234.479 315.209H232.512V318.346H234.479V315.209Z" fill="#F5F5F5"/>
<path d="M234.479 320.469H232.512V323.606H234.479V320.469Z" fill="#F5F5F5"/>
<path d="M231.358 204.829H229.391V207.966H231.358V204.829Z" fill="#F5F5F5"/>
<path d="M231.358 210.088H229.391V213.225H231.358V210.088Z" fill="#F5F5F5"/>
<path d="M231.358 215.344H229.391V218.481H231.358V215.344Z" fill="#F5F5F5"/>
<path d="M231.358 220.604H229.391V223.74H231.358V220.604Z" fill="#F5F5F5"/>
<path d="M231.358 225.863H229.391V229H231.358V225.863Z" fill="#F5F5F5"/>
<path d="M231.358 231.106H229.391V234.243H231.358V231.106Z" fill="#F5F5F5"/>
<path d="M231.358 236.366H229.391V239.503H231.358V236.366Z" fill="#F5F5F5"/>
<path d="M231.358 241.626H229.391V244.763H231.358V241.626Z" fill="#F5F5F5"/>
<path d="M231.358 246.882H229.391V250.019H231.358V246.882Z" fill="#F5F5F5"/>
<path d="M231.358 252.142H229.391V255.278H231.358V252.142Z" fill="#F5F5F5"/>
<path d="M231.358 257.393H229.391V260.529H231.358V257.393Z" fill="#F5F5F5"/>
<path d="M231.358 262.645H229.391V265.781H231.358V262.645Z" fill="#F5F5F5"/>
<path d="M231.358 267.904H229.391V271.041H231.358V267.904Z" fill="#F5F5F5"/>
<path d="M231.358 273.16H229.391V276.297H231.358V273.16Z" fill="#F5F5F5"/>
<path d="M231.358 278.411H229.391V281.548H231.358V278.411Z" fill="#F5F5F5"/>
<path d="M231.358 283.68H229.391V286.816H231.358V283.68Z" fill="#F5F5F5"/>
<path d="M231.358 294.187H229.391V297.323H231.358V294.187Z" fill="#F5F5F5"/>
<path d="M231.358 299.434H229.391V302.57H231.358V299.434Z" fill="#F5F5F5"/>
<path d="M231.358 304.697H229.391V307.834H231.358V304.697Z" fill="#F5F5F5"/>
<path d="M231.358 309.957H229.391V313.094H231.358V309.957Z" fill="#F5F5F5"/>
<path d="M231.358 320.469H229.391V323.606H231.358V320.469Z" fill="#F5F5F5"/>
<path d="M248.932 271.037H246.965V274.174H248.932V271.037Z" fill="#F5F5F5"/>
<path d="M248.932 276.297H246.965V279.434H248.932V276.297Z" fill="#F5F5F5"/>
<path d="M248.932 281.556H246.965V284.692H248.932V281.556Z" fill="#F5F5F5"/>
<path d="M248.932 286.808H246.965V289.944H248.932V286.808Z" fill="#F5F5F5"/>
<path d="M248.932 292.071H246.965V295.208H248.932V292.071Z" fill="#F5F5F5"/>
<path d="M248.932 297.319H246.965V300.456H248.932V297.319Z" fill="#F5F5F5"/>
<path d="M248.932 302.574H246.965V305.711H248.932V302.574Z" fill="#F5F5F5"/>
<path d="M248.932 313.094H246.965V316.231H248.932V313.094Z" fill="#F5F5F5"/>
<path d="M248.932 318.35H246.965V321.486H248.932V318.35Z" fill="#F5F5F5"/>
<path d="M248.932 323.602H246.965V326.738H248.932V323.602Z" fill="#F5F5F5"/>
<path d="M248.932 328.849H246.965V331.985H248.932V328.849Z" fill="#F5F5F5"/>
<path d="M248.932 334.112H246.965V337.249H248.932V334.112Z" fill="#F5F5F5"/>
<path d="M248.932 339.372H246.965V342.509H248.932V339.372Z" fill="#F5F5F5"/>
<path d="M248.932 344.624H246.965V347.761H248.932V344.624Z" fill="#F5F5F5"/>
<path d="M248.932 349.879H246.965V353.016H248.932V349.879Z" fill="#F5F5F5"/>
<path d="M245.811 271.037H243.844V274.174H245.811V271.037Z" fill="#F5F5F5"/>
<path d="M245.811 276.297H243.844V279.434H245.811V276.297Z" fill="#F5F5F5"/>
<path d="M245.811 281.556H243.844V284.692H245.811V281.556Z" fill="#F5F5F5"/>
<path d="M245.811 286.808H243.844V289.944H245.811V286.808Z" fill="#F5F5F5"/>
<path d="M245.811 292.071H243.844V295.208H245.811V292.071Z" fill="#F5F5F5"/>
<path d="M245.811 297.319H243.844V300.456H245.811V297.319Z" fill="#F5F5F5"/>
<path d="M245.811 313.094H243.844V316.231H245.811V313.094Z" fill="#F5F5F5"/>
<path d="M245.811 318.35H243.844V321.486H245.811V318.35Z" fill="#F5F5F5"/>
<path d="M245.811 323.602H243.844V326.738H245.811V323.602Z" fill="#F5F5F5"/>
<path d="M245.811 328.849H243.844V331.985H245.811V328.849Z" fill="#F5F5F5"/>
<path d="M245.811 334.112H243.844V337.249H245.811V334.112Z" fill="#F5F5F5"/>
<path d="M245.811 339.372H243.844V342.509H245.811V339.372Z" fill="#F5F5F5"/>
<path d="M245.811 344.624H243.844V347.761H245.811V344.624Z" fill="#F5F5F5"/>
<path d="M245.811 349.879H243.844V353.016H245.811V349.879Z" fill="#F5F5F5"/>
<path d="M242.69 271.037H240.723V274.174H242.69V271.037Z" fill="#F5F5F5"/>
<path d="M242.69 276.297H240.723V279.434H242.69V276.297Z" fill="#F5F5F5"/>
<path d="M242.69 281.556H240.723V284.692H242.69V281.556Z" fill="#F5F5F5"/>
<path d="M242.69 286.808H240.723V289.944H242.69V286.808Z" fill="#F5F5F5"/>
<path d="M242.69 292.071H240.723V295.208H242.69V292.071Z" fill="#F5F5F5"/>
<path d="M242.69 297.319H240.723V300.456H242.69V297.319Z" fill="#F5F5F5"/>
<path d="M242.69 307.826H240.723V310.963H242.69V307.826Z" fill="#F5F5F5"/>
<path d="M242.69 313.094H240.723V316.231H242.69V313.094Z" fill="#F5F5F5"/>
<path d="M242.69 318.35H240.723V321.486H242.69V318.35Z" fill="#F5F5F5"/>
<path d="M242.69 323.602H240.723V326.738H242.69V323.602Z" fill="#F5F5F5"/>
<path d="M242.69 328.849H240.723V331.985H242.69V328.849Z" fill="#F5F5F5"/>
<path d="M242.69 334.112H240.723V337.249H242.69V334.112Z" fill="#F5F5F5"/>
<path d="M242.69 339.372H240.723V342.509H242.69V339.372Z" fill="#F5F5F5"/>
<path d="M242.69 344.624H240.723V347.761H242.69V344.624Z" fill="#F5F5F5"/>
<path d="M242.69 349.879H240.723V353.016H242.69V349.879Z" fill="#F5F5F5"/>
<path d="M176.889 241.626H174.922V244.763H176.889V241.626Z" fill="#F5F5F5"/>
<path d="M176.889 246.882H174.922V250.019H176.889V246.882Z" fill="#F5F5F5"/>
<path d="M176.889 252.142H174.922V255.278H176.889V252.142Z" fill="#F5F5F5"/>
<path d="M176.889 257.393H174.922V260.529H176.889V257.393Z" fill="#F5F5F5"/>
<path d="M176.889 262.645H174.922V265.781H176.889V262.645Z" fill="#F5F5F5"/>
<path d="M176.889 267.904H174.922V271.041H176.889V267.904Z" fill="#F5F5F5"/>
<path d="M176.889 273.16H174.922V276.297H176.889V273.16Z" fill="#F5F5F5"/>
<path d="M176.889 278.411H174.922V281.548H176.889V278.411Z" fill="#F5F5F5"/>
<path d="M176.889 283.68H174.922V286.816H176.889V283.68Z" fill="#F5F5F5"/>
<path d="M176.889 288.935H174.922V292.071H176.889V288.935Z" fill="#F5F5F5"/>
<path d="M176.889 294.187H174.922V297.323H176.889V294.187Z" fill="#F5F5F5"/>
<path d="M176.889 299.434H174.922V302.57H176.889V299.434Z" fill="#F5F5F5"/>
<path d="M176.889 304.697H174.922V307.834H176.889V304.697Z" fill="#F5F5F5"/>
<path d="M176.889 315.209H174.922V318.346H176.889V315.209Z" fill="#F5F5F5"/>
<path d="M176.889 320.469H174.922V323.606H176.889V320.469Z" fill="#F5F5F5"/>
<path d="M176.889 325.725H174.922V328.861H176.889V325.725Z" fill="#F5F5F5"/>
<path d="M176.889 330.972H174.922V334.108H176.889V330.972Z" fill="#F5F5F5"/>
<path d="M176.889 341.487H174.922V344.624H176.889V341.487Z" fill="#F5F5F5"/>
<path d="M176.889 346.747H174.922V349.884H176.889V346.747Z" fill="#F5F5F5"/>
<path d="M176.889 352.002H174.922V355.139H176.889V352.002Z" fill="#F5F5F5"/>
<path d="M173.768 241.626H171.801V244.763H173.768V241.626Z" fill="#F5F5F5"/>
<path d="M173.768 246.882H171.801V250.019H173.768V246.882Z" fill="#F5F5F5"/>
<path d="M173.768 252.142H171.801V255.278H173.768V252.142Z" fill="#F5F5F5"/>
<path d="M173.768 257.393H171.801V260.529H173.768V257.393Z" fill="#F5F5F5"/>
<path d="M173.768 262.645H171.801V265.781H173.768V262.645Z" fill="#F5F5F5"/>
<path d="M173.768 267.904H171.801V271.041H173.768V267.904Z" fill="#F5F5F5"/>
<path d="M173.768 273.16H171.801V276.297H173.768V273.16Z" fill="#F5F5F5"/>
<path d="M173.768 278.411H171.801V281.548H173.768V278.411Z" fill="#F5F5F5"/>
<path d="M173.768 283.68H171.801V286.816H173.768V283.68Z" fill="#F5F5F5"/>
<path d="M173.768 288.935H171.801V292.071H173.768V288.935Z" fill="#F5F5F5"/>
<path d="M173.768 294.187H171.801V297.323H173.768V294.187Z" fill="#F5F5F5"/>
<path d="M173.768 299.434H171.801V302.57H173.768V299.434Z" fill="#F5F5F5"/>
<path d="M173.768 304.697H171.801V307.834H173.768V304.697Z" fill="#F5F5F5"/>
<path d="M173.768 320.469H171.801V323.606H173.768V320.469Z" fill="#F5F5F5"/>
<path d="M173.768 325.725H171.801V328.861H173.768V325.725Z" fill="#F5F5F5"/>
<path d="M173.768 336.228H171.801V339.364H173.768V336.228Z" fill="#F5F5F5"/>
<path d="M173.768 341.487H171.801V344.624H173.768V341.487Z" fill="#F5F5F5"/>
<path d="M173.768 346.747H171.801V349.884H173.768V346.747Z" fill="#F5F5F5"/>
<path d="M173.768 352.002H171.801V355.139H173.768V352.002Z" fill="#F5F5F5"/>
<path d="M170.647 241.626H168.68V244.763H170.647V241.626Z" fill="#F5F5F5"/>
<path d="M170.647 246.882H168.68V250.019H170.647V246.882Z" fill="#F5F5F5"/>
<path d="M170.647 252.142H168.68V255.278H170.647V252.142Z" fill="#F5F5F5"/>
<path d="M170.647 257.393H168.68V260.529H170.647V257.393Z" fill="#F5F5F5"/>
<path d="M170.647 262.645H168.68V265.781H170.647V262.645Z" fill="#F5F5F5"/>
<path d="M170.647 267.904H168.68V271.041H170.647V267.904Z" fill="#F5F5F5"/>
<path d="M170.647 273.16H168.68V276.297H170.647V273.16Z" fill="#F5F5F5"/>
<path d="M170.647 278.411H168.68V281.548H170.647V278.411Z" fill="#F5F5F5"/>
<path d="M170.647 283.68H168.68V286.816H170.647V283.68Z" fill="#F5F5F5"/>
<path d="M170.647 288.935H168.68V292.071H170.647V288.935Z" fill="#F5F5F5"/>
<path d="M170.647 294.187H168.68V297.323H170.647V294.187Z" fill="#F5F5F5"/>
<path d="M170.647 299.434H168.68V302.57H170.647V299.434Z" fill="#F5F5F5"/>
<path d="M170.647 304.697H168.68V307.834H170.647V304.697Z" fill="#F5F5F5"/>
<path d="M170.647 309.957H168.68V313.094H170.647V309.957Z" fill="#F5F5F5"/>
<path d="M170.647 320.469H168.68V323.606H170.647V320.469Z" fill="#F5F5F5"/>
<path d="M170.647 330.972H168.68V334.108H170.647V330.972Z" fill="#F5F5F5"/>
<path d="M170.647 336.228H168.68V339.364H170.647V336.228Z" fill="#F5F5F5"/>
<path d="M170.647 341.487H168.68V344.624H170.647V341.487Z" fill="#F5F5F5"/>
<path d="M170.647 346.747H168.68V349.884H170.647V346.747Z" fill="#F5F5F5"/>
<path d="M170.647 352.002H168.68V355.139H170.647V352.002Z" fill="#F5F5F5"/>
<path d="M189.608 271.596H187.641V274.732H189.608V271.596Z" fill="#F5F5F5"/>
<path d="M189.608 276.855H187.641V279.992H189.608V276.855Z" fill="#F5F5F5"/>
<path d="M189.608 282.099H187.641V285.235H189.608V282.099Z" fill="#F5F5F5"/>
<path d="M189.608 287.358H187.641V290.495H189.608V287.358Z" fill="#F5F5F5"/>
<path d="M189.608 292.618H187.641V295.755H189.608V292.618Z" fill="#F5F5F5"/>
<path d="M189.608 297.874H187.641V301.011H189.608V297.874Z" fill="#F5F5F5"/>
<path d="M189.608 313.637H187.641V316.774H189.608V313.637Z" fill="#F5F5F5"/>
<path d="M189.608 318.896H187.641V322.033H189.608V318.896Z" fill="#F5F5F5"/>
<path d="M189.608 324.152H187.641V327.289H189.608V324.152Z" fill="#F5F5F5"/>
<path d="M189.608 329.412H187.641V332.549H189.608V329.412Z" fill="#F5F5F5"/>
<path d="M189.608 334.663H187.641V337.8H189.608V334.663Z" fill="#F5F5F5"/>
<path d="M189.608 339.923H187.641V343.06H189.608V339.923Z" fill="#F5F5F5"/>
<path d="M189.608 345.175H187.641V348.312H189.608V345.175Z" fill="#F5F5F5"/>
<path d="M186.487 271.596H184.52V274.732H186.487V271.596Z" fill="#F5F5F5"/>
<path d="M186.487 276.855H184.52V279.992H186.487V276.855Z" fill="#F5F5F5"/>
<path d="M186.487 282.099H184.52V285.235H186.487V282.099Z" fill="#F5F5F5"/>
<path d="M186.487 287.358H184.52V290.495H186.487V287.358Z" fill="#F5F5F5"/>
<path d="M186.487 292.618H184.52V295.755H186.487V292.618Z" fill="#F5F5F5"/>
<path d="M186.487 297.874H184.52V301.011H186.487V297.874Z" fill="#F5F5F5"/>
<path d="M186.487 313.637H184.52V316.774H186.487V313.637Z" fill="#F5F5F5"/>
<path d="M186.487 318.896H184.52V322.033H186.487V318.896Z" fill="#F5F5F5"/>
<path d="M186.487 324.152H184.52V327.289H186.487V324.152Z" fill="#F5F5F5"/>
<path d="M186.487 329.412H184.52V332.549H186.487V329.412Z" fill="#F5F5F5"/>
<path d="M186.487 334.663H184.52V337.8H186.487V334.663Z" fill="#F5F5F5"/>
<path d="M186.487 339.923H184.52V343.06H186.487V339.923Z" fill="#F5F5F5"/>
<path d="M186.487 350.435H184.52V353.571H186.487V350.435Z" fill="#F5F5F5"/>
<path d="M82.7522 248.446H80.7852V251.583H82.7522V248.446Z" fill="#F5F5F5"/>
<path d="M82.7522 253.706H80.7852V256.843H82.7522V253.706Z" fill="#F5F5F5"/>
<path d="M82.7522 258.957H80.7852V262.094H82.7522V258.957Z" fill="#F5F5F5"/>
<path d="M82.7522 264.217H80.7852V267.354H82.7522V264.217Z" fill="#F5F5F5"/>
<path d="M82.7522 269.473H80.7852V272.609H82.7522V269.473Z" fill="#F5F5F5"/>
<path d="M82.7522 274.732H80.7852V277.869H82.7522V274.732Z" fill="#F5F5F5"/>
<path d="M82.7522 279.976H80.7852V283.112H82.7522V279.976Z" fill="#F5F5F5"/>
<path d="M82.7522 285.235H80.7852V288.372H82.7522V285.235Z" fill="#F5F5F5"/>
<path d="M82.7522 290.495H80.7852V293.632H82.7522V290.495Z" fill="#F5F5F5"/>
<path d="M82.7522 295.751H80.7852V298.888H82.7522V295.751Z" fill="#F5F5F5"/>
<path d="M82.7522 301.011H80.7852V304.148H82.7522V301.011Z" fill="#F5F5F5"/>
<path d="M82.7522 311.514H80.7852V314.65H82.7522V311.514Z" fill="#F5F5F5"/>
<path d="M82.7522 316.773H80.7852V319.91H82.7522V316.773Z" fill="#F5F5F5"/>
<path d="M82.7522 322.033H80.7852V325.17H82.7522V322.033Z" fill="#F5F5F5"/>
<path d="M82.7522 327.288H80.7852V330.425H82.7522V327.288Z" fill="#F5F5F5"/>
<path d="M82.7522 332.548H80.7852V335.685H82.7522V332.548Z" fill="#F5F5F5"/>
<path d="M82.7522 337.808H80.7852V340.944H82.7522V337.808Z" fill="#F5F5F5"/>
<path d="M82.7522 343.052H80.7852V346.189H82.7522V343.052Z" fill="#F5F5F5"/>
<path d="M82.7522 348.311H80.7852V351.447H82.7522V348.311Z" fill="#F5F5F5"/>
<path d="M79.6311 248.446H77.6641V251.583H79.6311V248.446Z" fill="#F5F5F5"/>
<path d="M79.6311 253.706H77.6641V256.843H79.6311V253.706Z" fill="#F5F5F5"/>
<path d="M79.6311 258.957H77.6641V262.094H79.6311V258.957Z" fill="#F5F5F5"/>
<path d="M79.6311 264.217H77.6641V267.354H79.6311V264.217Z" fill="#F5F5F5"/>
<path d="M79.6311 269.473H77.6641V272.609H79.6311V269.473Z" fill="#F5F5F5"/>
<path d="M79.6311 274.732H77.6641V277.869H79.6311V274.732Z" fill="#F5F5F5"/>
<path d="M79.6311 279.976H77.6641V283.112H79.6311V279.976Z" fill="#F5F5F5"/>
<path d="M79.6311 285.235H77.6641V288.372H79.6311V285.235Z" fill="#F5F5F5"/>
<path d="M79.6311 290.495H77.6641V293.632H79.6311V290.495Z" fill="#F5F5F5"/>
<path d="M79.6311 295.751H77.6641V298.888H79.6311V295.751Z" fill="#F5F5F5"/>
<path d="M79.6311 301.011H77.6641V304.148H79.6311V301.011Z" fill="#F5F5F5"/>
<path d="M79.6311 306.27H77.6641V309.406H79.6311V306.27Z" fill="#F5F5F5"/>
<path d="M79.6311 311.514H77.6641V314.65H79.6311V311.514Z" fill="#F5F5F5"/>
<path d="M79.6311 316.773H77.6641V319.91H79.6311V316.773Z" fill="#F5F5F5"/>
<path d="M79.6311 322.033H77.6641V325.17H79.6311V322.033Z" fill="#F5F5F5"/>
<path d="M79.6311 327.288H77.6641V330.425H79.6311V327.288Z" fill="#F5F5F5"/>
<path d="M79.6311 332.548H77.6641V335.685H79.6311V332.548Z" fill="#F5F5F5"/>
<path d="M79.6311 337.808H77.6641V340.944H79.6311V337.808Z" fill="#F5F5F5"/>
<path d="M79.6311 343.052H77.6641V346.189H79.6311V343.052Z" fill="#F5F5F5"/>
<path d="M79.6311 348.311H77.6641V351.447H79.6311V348.311Z" fill="#F5F5F5"/>
<path d="M98.135 268.918H96.168V272.055H98.135V268.918Z" fill="#F5F5F5"/>
<path d="M98.135 274.173H96.168V277.31H98.135V274.173Z" fill="#F5F5F5"/>
<path d="M98.135 279.433H96.168V282.569H98.135V279.433Z" fill="#F5F5F5"/>
<path d="M98.135 284.692H96.168V287.829H98.135V284.692Z" fill="#F5F5F5"/>
<path d="M98.135 289.948H96.168V293.085H98.135V289.948Z" fill="#F5F5F5"/>
<path d="M98.135 295.195H96.168V298.332H98.135V295.195Z" fill="#F5F5F5"/>
<path d="M98.135 300.451H96.168V303.588H98.135V300.451Z" fill="#F5F5F5"/>
<path d="M98.135 305.711H96.168V308.848H98.135V305.711Z" fill="#F5F5F5"/>
<path d="M98.135 310.971H96.168V314.107H98.135V310.971Z" fill="#F5F5F5"/>
<path d="M98.135 316.223H96.168V319.359H98.135V316.223Z" fill="#F5F5F5"/>
<path d="M95.0139 268.918H93.0469V272.055H95.0139V268.918Z" fill="#F5F5F5"/>
<path d="M95.0139 274.173H93.0469V277.31H95.0139V274.173Z" fill="#F5F5F5"/>
<path d="M95.0139 279.433H93.0469V282.569H95.0139V279.433Z" fill="#F5F5F5"/>
<path d="M95.0139 284.692H93.0469V287.829H95.0139V284.692Z" fill="#F5F5F5"/>
<path d="M95.0139 289.948H93.0469V293.085H95.0139V289.948Z" fill="#F5F5F5"/>
<path d="M95.0139 295.195H93.0469V298.332H95.0139V295.195Z" fill="#F5F5F5"/>
<path d="M95.0139 300.451H93.0469V303.588H95.0139V300.451Z" fill="#F5F5F5"/>
<path d="M95.0139 305.711H93.0469V308.848H95.0139V305.711Z" fill="#F5F5F5"/>
<path d="M95.0139 310.971H93.0469V314.107H95.0139V310.971Z" fill="#F5F5F5"/>
<path d="M85.9103 55.8494C85.9103 55.2938 85.8417 54.7437 85.7084 54.2304C85.5751 53.7171 85.3797 53.2507 85.1333 52.8578C84.8869 52.465 84.5945 52.1533 84.2726 51.9407C83.9507 51.7281 83.6057 51.6187 83.2573 51.6187C82.9987 51.6145 82.7413 51.6748 82.4943 51.7973C82.5308 51.3643 82.5495 50.928 82.5503 50.4912C82.5551 49.1703 82.376 47.8642 82.0261 46.667C81.6761 45.4698 81.164 44.4113 80.5266 43.5678C79.8891 42.7243 79.1423 42.1168 78.3399 41.789C77.5375 41.4613 76.6996 41.4214 75.8863 41.6724C75.3363 40.2125 74.5022 39.0791 73.5109 38.4449C72.5197 37.8106 71.4257 37.7101 70.3954 38.1588C69.3651 38.6075 68.4549 39.5807 67.8034 40.9304C67.1519 42.28 66.7948 43.9321 66.7863 45.6353H66.7023C65.4956 45.6353 64.3383 46.3998 63.485 47.7605C62.6317 49.1213 62.1523 50.9668 62.1523 52.8912C62.1523 54.8156 62.6317 56.6612 63.485 58.022C64.3383 59.3827 65.4956 60.1472 66.7023 60.1472H83.2993C83.6478 60.1384 83.9917 60.0204 84.3115 59.7996C84.6312 59.5789 84.9206 59.2599 85.1631 58.8608C85.4056 58.4617 85.5963 57.9903 85.7246 57.4736C85.8528 56.9569 85.9159 56.405 85.9103 55.8494Z" fill="#F5F5F5"/>
<path d="M246.17 58.0782H259.589C259.553 57.563 259.534 57.045 259.533 56.5266C259.533 52.7893 260.464 49.2049 262.12 46.5611C263.777 43.9174 266.024 42.4307 268.367 42.4277C268.479 42.4277 268.584 42.4277 268.689 42.4277C269.328 39.6896 270.55 37.3964 272.141 35.9491C273.732 34.5017 275.592 33.9921 277.395 34.5094C279.198 35.0267 280.829 36.538 282.004 38.7792C283.18 41.0203 283.823 43.8488 283.823 46.7701C285.67 46.9046 287.42 48.1299 288.732 50.2075C290.044 52.2852 290.824 55.0668 290.921 58.0113H291.271C292.285 58.0795 293.243 58.7697 293.945 59.9377C294.648 61.1057 295.04 62.6612 295.04 64.2793C295.04 65.8973 294.648 67.4528 293.945 68.6208C293.243 69.7888 292.285 70.479 291.271 70.5473H246.17C245.157 70.479 244.199 69.7888 243.497 68.6208C242.794 67.4528 242.402 65.8973 242.402 64.2793C242.402 62.6612 242.794 61.1057 243.497 59.9377C244.199 58.7697 245.157 58.0795 246.17 58.0113V58.0782Z" fill="#F5F5F5"/>
<path d="M159.385 86.0152C160.864 82.2314 162.927 79.1167 165.377 76.9695C167.828 74.8224 170.583 73.7148 173.378 73.7529C176.174 73.791 178.917 74.9735 181.344 77.1871C183.77 79.4007 185.8 82.5712 187.238 86.3947C188.538 85.8017 189.906 85.6983 191.236 86.0926C192.565 86.4869 193.818 87.3682 194.898 88.6671C195.977 89.9659 196.852 91.6467 197.454 93.577C198.056 95.5073 198.369 97.6343 198.368 99.7903H203.002C204.162 99.7903 205.275 100.525 206.096 101.834C206.916 103.142 207.377 104.917 207.377 106.767C207.377 108.618 206.916 110.392 206.096 111.701C205.275 113.009 204.162 113.744 203.002 113.744H187.042C185.724 117.068 183.951 119.872 181.857 121.947C179.762 124.022 177.4 125.313 174.948 125.725C172.496 126.136 170.017 125.657 167.697 124.322C165.378 122.988 163.278 120.833 161.555 118.019C161.282 118.019 161.002 118.086 160.722 118.086C158.157 118.08 155.688 116.519 153.817 113.721C151.945 110.923 150.809 107.096 150.639 103.013C150.47 98.931 151.278 94.898 152.902 91.7301C154.525 88.5622 156.843 86.4956 159.385 85.9482V86.0152Z" fill="#F5F5F5"/>
<path d="M175 416.852C249.958 416.852 310.723 411.195 310.723 404.216C310.723 397.237 249.958 391.579 175 391.579C100.043 391.579 39.2773 397.237 39.2773 404.216C39.2773 411.195 100.043 416.852 175 416.852Z" fill="#F5F5F5"/>
<path d="M60.7039 377.153C60.7039 377.153 64.0289 365.588 60.2279 354.179C56.4269 342.771 55.3279 340.08 57.7499 337.747C60.1719 335.414 61.2499 346.867 61.2499 346.867C62.4477 341.69 62.5728 336.036 61.6069 330.737C59.9199 322.488 58.8629 309.047 61.1659 307.607C63.4689 306.167 61.5999 324.352 63.6019 330.581C64.6172 326.221 65.2737 321.669 65.5549 317.04C65.8279 310.409 65.4009 299.827 67.2139 297.114C69.0269 294.401 70.1959 296.277 68.4109 310.9C67.338 319.642 66.7455 328.517 66.6399 337.424C66.6399 337.424 70.5879 318.234 73.2339 317.676C75.8799 317.118 75.8799 323.325 73.6119 328.716C71.3439 334.108 66.9759 343.764 66.2549 348.732C66.2549 348.732 70.5879 334.287 74.4799 338.685C78.3719 343.083 71.0919 351.824 67.8439 354.983C64.5959 358.142 62.3419 377.878 62.3419 377.878L60.7039 377.153Z" fill="#FFBB00"/>
<path opacity="0.2" d="M60.7039 377.153C60.7039 377.153 64.0289 365.588 60.2279 354.179C56.4269 342.771 55.3279 340.08 57.7499 337.747C60.1719 335.414 61.2499 346.867 61.2499 346.867C62.4477 341.69 62.5728 336.036 61.6069 330.737C59.9199 322.488 58.8629 309.047 61.1659 307.607C63.4689 306.167 61.5999 324.352 63.6019 330.581C64.6172 326.221 65.2737 321.669 65.5549 317.04C65.8279 310.409 65.4009 299.827 67.2139 297.114C69.0269 294.401 70.1959 296.277 68.4109 310.9C67.338 319.642 66.7455 328.517 66.6399 337.424C66.6399 337.424 70.5879 318.234 73.2339 317.676C75.8799 317.118 75.8799 323.325 73.6119 328.716C71.3439 334.108 66.9759 343.764 66.2549 348.732C66.2549 348.732 70.5879 334.287 74.4799 338.685C78.3719 343.083 71.0919 351.824 67.8439 354.983C64.5959 358.142 62.3419 377.878 62.3419 377.878L60.7039 377.153Z" fill="black"/>
<path d="M63.329 381.942C63.329 381.942 60.088 370.299 63.973 358.98C67.858 347.661 68.978 345.004 66.577 342.615C64.176 340.226 62.972 351.657 62.972 351.657C61.8119 346.451 61.7309 340.789 62.741 335.504C64.491 327.299 65.646 313.882 63.357 312.386C61.068 310.89 62.79 329.13 60.746 335.303C59.7625 330.922 59.139 326.355 58.891 321.718C58.667 315.087 59.178 304.516 57.379 301.759C55.58 299.001 54.404 300.854 56.084 315.511C57.0899 324.274 57.6146 333.16 57.652 342.068C57.652 342.068 53.851 322.79 51.212 322.176C48.573 321.562 48.524 327.757 50.75 333.205C52.976 338.652 57.274 348.397 57.953 353.387C57.953 353.387 53.753 338.875 49.805 343.184C45.857 347.493 53.095 356.401 56.315 359.639C59.535 362.876 61.649 382.668 61.649 382.668L63.329 381.942Z" fill="#FFBB00"/>
<path d="M48.3906 373.639H75.1376L72.9746 404.169H50.5606L48.3906 373.639Z" fill="#263238"/>
<path d="M299.76 144.739H279.649C278.836 144.739 278.031 144.995 277.28 145.491C276.528 145.988 275.846 146.716 275.271 147.633C274.697 148.551 274.241 149.64 273.93 150.839C273.62 152.037 273.46 153.322 273.461 154.618V165.491L267.238 168.572L273.461 171.653V182.526C273.46 183.823 273.62 185.107 273.93 186.306C274.241 187.504 274.697 188.593 275.271 189.511C275.846 190.428 276.528 191.156 277.28 191.653C278.031 192.15 278.836 192.405 279.649 192.405H299.76C301.403 192.405 302.979 191.364 304.141 189.512C305.303 187.659 305.955 185.146 305.955 182.526V154.618C305.955 151.998 305.303 149.486 304.141 147.633C302.979 145.78 301.403 144.739 299.76 144.739Z" fill="#FFBB00"/>
<path opacity="0.7" d="M299.76 144.739H279.649C278.836 144.739 278.031 144.995 277.28 145.491C276.528 145.988 275.846 146.716 275.271 147.633C274.697 148.551 274.241 149.64 273.93 150.839C273.62 152.037 273.46 153.322 273.461 154.618V165.491L267.238 168.572L273.461 171.653V182.526C273.46 183.823 273.62 185.107 273.93 186.306C274.241 187.504 274.697 188.593 275.271 189.511C275.846 190.428 276.528 191.156 277.28 191.653C278.031 192.15 278.836 192.405 279.649 192.405H299.76C301.403 192.405 302.979 191.364 304.141 189.512C305.303 187.659 305.955 185.146 305.955 182.526V154.618C305.955 151.998 305.303 149.486 304.141 147.633C302.979 145.78 301.403 144.739 299.76 144.739Z" fill="white"/>
<path d="M296.839 179.832C300.737 173.616 300.737 163.537 296.839 157.32C292.941 151.104 286.621 151.104 282.722 157.32C278.824 163.537 278.824 173.616 282.722 179.832C286.621 186.049 292.941 186.049 296.839 179.832Z" fill="#FFBB00"/>
<path d="M288.737 175.679C288.604 175.68 288.473 175.634 288.352 175.546C288.231 175.457 288.123 175.327 288.037 175.166L284.117 167.81C283.959 167.513 283.882 167.13 283.901 166.742C283.921 166.355 284.037 165.996 284.222 165.744C284.408 165.493 284.649 165.369 284.891 165.4C285.134 165.432 285.359 165.616 285.517 165.912L288.737 171.951L294.05 161.971C294.128 161.825 294.224 161.704 294.331 161.616C294.439 161.529 294.556 161.475 294.676 161.46C294.796 161.444 294.917 161.467 295.032 161.526C295.147 161.585 295.253 161.679 295.345 161.804C295.437 161.928 295.513 162.081 295.568 162.252C295.623 162.423 295.656 162.61 295.666 162.802C295.676 162.994 295.662 163.186 295.625 163.37C295.588 163.553 295.528 163.722 295.45 163.869L289.444 175.166C289.356 175.328 289.248 175.457 289.126 175.546C289.004 175.635 288.871 175.68 288.737 175.679Z" fill="white"/>
<path d="M117.549 73.4142H97.445C95.802 73.4142 94.2263 74.4551 93.0645 76.3078C91.9027 78.1605 91.25 80.6733 91.25 83.2934V111.201C91.25 113.821 91.9027 116.334 93.0645 118.187C94.2263 120.039 95.802 121.08 97.445 121.08H103.311V131.004L107.511 121.08H117.584C119.227 121.08 120.803 120.039 121.965 118.187C123.126 116.334 123.779 113.821 123.779 111.201V83.2934C123.779 81.9914 123.618 80.7022 123.304 79.4999C122.991 78.2976 122.531 77.2061 121.952 76.288C121.373 75.3699 120.686 74.6433 119.93 74.1501C119.175 73.657 118.365 73.4069 117.549 73.4142Z" fill="#FFBB00"/>
<path opacity="0.7" d="M117.549 73.4142H97.445C95.802 73.4142 94.2263 74.4551 93.0645 76.3078C91.9027 78.1605 91.25 80.6733 91.25 83.2934V111.201C91.25 113.821 91.9027 116.334 93.0645 118.187C94.2263 120.039 95.802 121.08 97.445 121.08H103.311V131.004L107.511 121.08H117.584C119.227 121.08 120.803 120.039 121.965 118.187C123.126 116.334 123.779 113.821 123.779 111.201V83.2934C123.779 81.9914 123.618 80.7022 123.304 79.4999C122.991 78.2976 122.531 77.2061 121.952 76.288C121.373 75.3699 120.686 74.6433 119.93 74.1501C119.175 73.657 118.365 73.4069 117.549 73.4142Z" fill="white"/>
<path d="M103.506 111.468L104.206 112.383L105.431 110.43L104.857 109.313C105.19 108.54 105.427 107.672 105.557 106.757L106.446 106.623V103.877L105.557 103.743C105.427 102.828 105.19 101.96 104.857 101.187L105.431 100.07L104.206 98.1169L103.506 99.0323C103.018 98.521 102.474 98.1612 101.903 97.9718L101.819 96.543H100.097L100.013 97.9718C99.4431 98.1591 98.9012 98.5191 98.4167 99.0323L97.7167 98.1169L96.4917 100.07L97.0657 101.187C96.7451 101.964 96.5195 102.832 96.4007 103.743L95.5117 103.877V106.634L96.4007 106.768C96.5195 107.68 96.7451 108.547 97.0657 109.325L96.4917 110.441L97.7167 112.394L98.4167 111.479C98.9012 111.992 99.4431 112.352 100.013 112.54L100.097 113.968H101.826L101.91 112.54C102.479 112.345 103.021 111.982 103.506 111.468ZM98.6057 105.261C98.6057 104.522 98.7432 103.799 99.0009 103.184C99.2586 102.569 99.6248 102.089 100.053 101.806C100.482 101.523 100.953 101.449 101.408 101.594C101.863 101.738 102.281 102.094 102.609 102.617C102.937 103.14 103.16 103.806 103.251 104.532C103.341 105.257 103.295 106.009 103.117 106.692C102.94 107.376 102.639 107.96 102.254 108.371C101.868 108.782 101.415 109.001 100.951 109.001C100.643 108.999 100.338 108.901 100.054 108.712C99.7697 108.523 99.5117 108.246 99.2946 107.898C99.0775 107.549 98.9055 107.136 98.7885 106.682C98.6715 106.228 98.6118 105.741 98.6127 105.25L98.6057 105.261Z" fill="#FFBB00"/>
<path d="M115.401 102.68L116.402 103.998L118.166 101.185L117.34 99.5883C117.802 98.4676 118.127 97.2178 118.299 95.9045L119.587 95.7147V91.7184L118.299 91.5286C118.127 90.2153 117.802 88.9655 117.34 87.8448L118.166 86.2485L116.402 83.4243L115.401 84.7527C114.698 84.012 113.915 83.4894 113.091 83.2122L112.965 81.1582H110.466L110.347 83.201C109.523 83.4782 108.739 84.0008 108.037 84.7415L107.036 83.4131L105.265 86.2374L106.098 87.8337C105.633 88.9537 105.306 90.2035 105.132 91.5175L103.844 91.7072V95.7036L105.132 95.8933C105.306 97.2073 105.633 98.4571 106.098 99.5771L105.265 101.173L107.036 103.987L108.037 102.669C108.738 103.411 109.522 103.93 110.347 104.199L110.466 106.253H112.965L113.091 104.199C113.915 103.934 114.699 103.418 115.401 102.68ZM108.331 93.7501C108.331 92.6815 108.529 91.6369 108.902 90.7484C109.274 89.8599 109.803 89.1674 110.422 88.7584C111.041 88.3495 111.723 88.2425 112.38 88.451C113.037 88.6594 113.641 89.174 114.114 89.9296C114.588 90.6852 114.911 91.6479 115.042 92.696C115.172 93.7441 115.105 94.8304 114.849 95.8176C114.592 96.8049 114.158 97.6487 113.601 98.2424C113.044 98.8361 112.389 99.1529 111.719 99.1529C111.272 99.1529 110.83 99.0121 110.417 98.7385C110.005 98.4649 109.63 98.0639 109.316 97.5586C109.001 97.0534 108.752 96.4538 108.583 95.7944C108.414 95.1351 108.328 94.4289 108.331 93.7166V93.7501Z" fill="#FFBB00"/>
<path d="M102.984 180.137C108.871 182.235 120.876 203.702 120.876 203.702L142.576 207.173L142.807 215.345C142.807 215.345 121.583 216.026 118.839 215.613C116.095 215.2 103.005 198.969 103.005 198.969L102.984 180.137Z" fill="#FFBB00"/>
<path opacity="0.7" d="M142.803 215.343C142.803 215.343 121.586 216.013 118.842 215.611C117.442 215.41 113.487 211.224 109.861 207.094C108.02 205.006 106.27 202.919 104.996 201.39C103.722 199.86 103.008 198.967 103.008 198.967V180.124C108.895 182.234 120.893 203.7 120.893 203.7L142.593 207.172L142.803 215.343Z" fill="white"/>
<path d="M142.101 215.008L148.548 214.226L147.225 205.463C147.225 205.463 142.668 204.994 141.086 210.442L142.101 215.008Z" fill="#EBB376"/>
<path d="M152.442 210.293L150.475 204.143L147.227 205.46L148.55 214.223L152.442 210.293Z" fill="#EBB376"/>
<path opacity="0.1" d="M109.84 207.097C107.999 205.009 106.249 202.922 104.975 201.392C104.478 199.018 104.311 196.501 104.485 194.014C104.485 194.014 108.965 199.584 109.84 207.097Z" fill="black"/>
<path d="M90.4484 395.214L84.5614 395.359C84.4653 395.366 84.3732 395.423 84.2997 395.522C84.2262 395.621 84.1755 395.756 84.1554 395.906L83.3014 402.827C83.2811 402.975 83.2798 403.127 83.2976 403.276C83.3154 403.424 83.3519 403.565 83.405 403.691C83.458 403.816 83.5264 403.923 83.606 404.004C83.6857 404.086 83.7749 404.141 83.8684 404.167H84.0224C85.9264 404.066 87.3124 403.843 89.7064 403.787C91.1764 403.787 95.6214 403.876 97.6514 403.787C99.6814 403.698 99.9194 400.528 99.0864 400.248C95.3414 399.043 92.5134 397.324 91.3024 395.638C91.0635 395.324 90.7569 395.172 90.4484 395.214Z" fill="#263238"/>
<path d="M140.058 395.212L134.171 395.358C134.074 395.364 133.982 395.421 133.909 395.52C133.835 395.619 133.785 395.755 133.765 395.905L132.876 402.826C132.855 402.973 132.854 403.126 132.872 403.274C132.89 403.423 132.926 403.564 132.979 403.689C133.032 403.814 133.101 403.921 133.18 404.003C133.26 404.085 133.349 404.14 133.443 404.165H133.604C135.508 404.065 136.887 403.841 139.281 403.786C140.751 403.786 145.196 403.875 147.233 403.786C149.27 403.696 149.494 400.526 148.633 400.247C144.888 399.041 142.06 397.322 140.849 395.637C140.627 395.345 140.345 395.194 140.058 395.212Z" fill="#263238"/>
<path d="M83.2461 395.691H91.2611C91.2611 395.691 101.467 342.042 102.349 328.356C103.231 314.67 103.546 280.355 103.546 280.355V280.411C103.889 281.148 106.92 287.946 110.406 295.827C114.963 306.164 120.311 318.376 121.431 321.368C124.742 330.175 132.834 395.646 132.834 395.646H140.842C140.842 395.646 138.826 337.052 134.71 317.74C130.594 298.428 112.8 256.254 112.03 253.977C111.043 251.097 108.621 241.921 108.621 241.921L84.6041 247.234C84.6041 247.234 84.9121 253.72 84.9401 259.391C85.0521 280.668 89.6721 309.435 90.0781 317.159C90.8691 331.906 83.2461 395.691 83.2461 395.691Z" fill="#263238"/>
<path d="M102.987 180.136C102.987 180.136 110.176 200.586 108.65 241.956L84.6398 247.292C83.9398 241.443 83.7718 212.252 77.8008 185.349C80.3862 183.943 83.0261 182.806 85.7038 181.944C89.0763 180.89 92.4838 180.144 95.9098 179.712C98.2721 179.561 100.638 179.703 102.987 180.136Z" fill="#FFBB00"/>
<path opacity="0.7" d="M108.65 241.953L89.2808 246.25L84.6398 247.277C84.2198 243.705 83.9888 231.348 82.4978 216.122C82.4978 215.798 82.4348 215.463 82.3998 215.128C81.9798 210.942 81.4618 206.555 80.8178 202.079C80.0087 196.412 79.0015 190.821 77.8008 185.334C80.3853 183.951 83.0227 182.832 85.6968 181.985C89.0711 180.926 92.4812 180.18 95.9098 179.753C98.2726 179.619 100.638 179.772 102.987 180.21C102.987 180.21 110.169 200.572 108.65 241.953Z" fill="white"/>
<path d="M88.0469 185.348L93.8149 189.713L95.1099 192.224C95.1099 192.224 97.1679 209.326 96.9509 222.722L99.1349 225.814L100.794 220.656C100.794 220.656 97.3639 196.556 96.2579 191.633L96.5519 188.462L97.5669 181.765L88.4109 182.669L88.0469 185.348Z" fill="#263238"/>
<path d="M85.1562 164.43C86.3533 169.464 88.0122 178.841 86.1012 182.949C89.4612 184.21 91.8692 185.037 94.9352 188.118C95.5372 184.657 96.2582 180.181 96.2582 180.181C92.4642 179.79 92.1002 175.448 92.3032 171.25L85.1562 164.43Z" fill="#EBB376"/>
<path opacity="0.2" d="M88.0701 167.196L92.2701 171.215C92.2176 172.199 92.2176 173.189 92.2701 174.173C90.8701 174.24 88.6721 172.32 88.2731 170.032C88.0979 169.114 88.0291 168.153 88.0701 167.196Z" fill="black"/>
<path opacity="0.5" d="M83.2461 395.691H91.2611C91.2611 395.691 101.467 342.042 102.349 328.356C103.231 314.67 103.546 280.355 103.546 280.355V280.411C103.889 281.148 106.92 287.946 110.406 295.827C114.963 306.164 120.311 318.376 121.431 321.368C124.742 330.175 132.834 395.646 132.834 395.646H140.842C140.842 395.646 138.826 337.052 134.71 317.74C130.594 298.428 112.8 256.254 112.03 253.977C111.043 251.097 108.621 241.921 108.621 241.921L84.6041 247.234C84.6041 247.234 84.9121 253.72 84.9401 259.391C85.0521 280.668 89.6721 309.435 90.0781 317.159C90.8691 331.906 83.2461 395.691 83.2461 395.691Z" fill="white"/>
<path d="M82.7031 183.012L84.6981 179.049L91.1591 181.037L94.4421 187.031L94.8551 180.11L96.0661 177.788L98.7191 179.619V183.95L96.8291 182.968L95.1981 189.007L90.0321 185.624L88.8841 187.958L82.7031 183.012Z" fill="#FFBB00"/>
<path opacity="0.9" d="M82.7031 183.012L84.6981 179.049L91.1591 181.037L94.4421 187.031L94.8551 180.11L96.0661 177.788L98.7191 179.619V183.95L96.8291 182.968L95.1981 189.007L90.0321 185.624L88.8841 187.958L82.7031 183.012Z" fill="white"/>
<path opacity="0.1" d="M95.1953 189.011L95.8183 181.777L98.7163 183.954L96.8263 182.972L95.1953 189.011Z" fill="black"/>
<path opacity="0.1" d="M95.1968 189.009L90.4088 183.405L88.8828 187.96L90.0308 185.627L95.1968 189.009Z" fill="black"/>
<path opacity="0.2" d="M103.547 280.379V280.435C103.89 281.171 106.921 287.97 110.407 295.851C110.751 291.572 110.293 287.228 109.091 283.364C107.889 279.5 105.996 276.29 103.652 274.139L103.547 280.379Z" fill="black"/>
<path d="M93.5798 146.616C94.9798 148.525 95.1898 151.908 95.4488 154.04C95.7078 156.172 96.2048 158.907 94.1958 156.373C92.1868 153.839 89.2538 142.118 93.5798 146.616Z" fill="#263238"/>
<path d="M83.7444 159.148C85.0114 166.17 84.5284 167.532 87.2864 170.311C91.4444 174.564 97.1424 173.66 96.9534 166.192C96.7784 159.438 95.5534 147.528 90.8074 146.3C89.7488 146.017 88.6626 146.171 87.6517 146.746C86.6408 147.322 85.7389 148.299 85.0313 149.586C84.3238 150.873 83.8342 152.427 83.609 154.101C83.3838 155.774 83.4304 157.512 83.7444 159.148Z" fill="#EBB376"/>
<path d="M84.872 163.804C87.224 163.112 86.748 161.683 86.58 161.359C85.817 159.964 86.279 157.53 86.734 154.404C87.189 151.279 83.164 148.823 80.595 150.698C78.222 152.473 80.931 164.976 84.872 163.804Z" fill="#263238"/>
<path d="M82.365 164.618C82.9615 166.013 83.8666 166.998 84.899 167.375C86.208 167.777 86.614 165.689 86.04 163.646C85.522 161.804 84.22 159.382 83.009 159.907C81.798 160.431 81.595 162.82 82.365 164.618Z" fill="#EBB376"/>
<path d="M93.2148 156.781C93.7426 158.097 94.3809 159.291 95.1118 160.331C94.9394 160.624 94.7296 160.854 94.4965 161.006C94.2634 161.159 94.0125 161.229 93.7608 161.213L93.2148 156.781Z" fill="#D58745"/>
<path d="M80.2279 147.613C80.9279 144.967 88.7119 141.027 92.0439 142.031C92.3502 142.065 92.6479 142.208 92.9151 142.45C93.1823 142.691 93.4122 143.024 93.5881 143.426C93.7639 143.827 93.8812 144.286 93.9314 144.769C93.9815 145.252 93.9633 145.747 93.8779 146.218C92.8209 151.319 90.0699 149.343 90.0699 149.343C89.6283 149.017 89.1504 148.834 88.664 148.804C88.1776 148.775 87.6924 148.9 87.2365 149.172C86.7806 149.444 86.3632 149.858 86.0084 150.389C85.6537 150.921 85.3687 151.559 85.1699 152.268L80.3539 151.609C80.1204 151.016 79.9862 150.337 79.9642 149.637C79.9421 148.938 80.0329 148.241 80.2279 147.613Z" fill="#263238"/>
<path d="M90.0218 157.237C90.0988 157.84 90.3578 158.253 90.6028 158.175C90.8478 158.097 90.9878 157.539 90.9108 156.936C90.8338 156.333 90.5678 155.92 90.3228 156.009C90.0778 156.099 89.9448 156.657 90.0218 157.237Z" fill="#263238"/>
<path d="M94.2634 155.786C94.3404 156.389 94.6063 156.802 94.8513 156.724C95.0963 156.646 95.2293 156.077 95.1523 155.485C95.0753 154.893 94.8164 154.469 94.5714 154.547C94.3264 154.626 94.1864 155.184 94.2634 155.786Z" fill="#263238"/>
<path d="M87.7126 155.698C87.753 155.693 87.7917 155.67 87.8249 155.633C87.8581 155.595 87.8845 155.545 87.9016 155.486C88.0147 155.07 88.1878 154.703 88.4067 154.414C88.6256 154.125 88.8843 153.923 89.1616 153.823C89.2217 153.809 89.2761 153.758 89.3128 153.681C89.3495 153.603 89.3655 153.506 89.3576 153.41C89.3473 153.318 89.3155 153.236 89.2688 153.18C89.222 153.124 89.1637 153.099 89.1056 153.109C88.7527 153.224 88.4223 153.473 88.1422 153.834C87.8621 154.196 87.6403 154.659 87.4956 155.185C87.4825 155.227 87.4748 155.273 87.4731 155.321C87.4713 155.368 87.4754 155.415 87.4852 155.46C87.4949 155.504 87.5102 155.546 87.53 155.581C87.5498 155.616 87.5738 155.645 87.6006 155.665C87.6363 155.687 87.6743 155.698 87.7126 155.698Z" fill="#263238"/>
<path d="M95.0755 152.994C95.1188 152.994 95.1608 152.97 95.1945 152.927C95.219 152.898 95.2396 152.862 95.2551 152.821C95.2706 152.779 95.2806 152.733 95.2846 152.685C95.2885 152.637 95.2863 152.588 95.278 152.541C95.2697 152.495 95.2556 152.451 95.2365 152.414C95.0241 151.957 94.7459 151.589 94.4255 151.34C94.105 151.092 93.7517 150.97 93.3955 150.985C93.366 150.989 93.3374 151.002 93.3112 151.024C93.285 151.046 93.2618 151.076 93.2429 151.113C93.224 151.149 93.2099 151.191 93.2012 151.236C93.1926 151.281 93.1896 151.328 93.1925 151.375C93.1942 151.422 93.2018 151.467 93.2149 151.509C93.2279 151.551 93.246 151.588 93.2683 151.618C93.2905 151.648 93.3163 151.671 93.3442 151.685C93.3721 151.699 93.4014 151.704 93.4305 151.699C93.7107 151.683 93.9892 151.776 94.2418 151.971C94.4943 152.165 94.7132 152.455 94.8795 152.815C94.8993 152.87 94.9279 152.916 94.9623 152.947C94.9968 152.978 95.0358 152.995 95.0755 152.994Z" fill="#263238"/>
<path d="M93.6066 164.887C92.7911 164.909 91.9851 164.605 91.2616 164.005C91.2215 163.965 91.1921 163.903 91.1791 163.831C91.1662 163.759 91.1707 163.681 91.1916 163.614C91.215 163.551 91.2531 163.505 91.2977 163.486C91.3422 163.467 91.3897 163.477 91.4296 163.514C92.3526 164.229 93.3905 164.478 94.4046 164.228C94.4501 164.215 94.497 164.231 94.535 164.273C94.573 164.315 94.5991 164.379 94.6076 164.451C94.6127 164.487 94.613 164.525 94.6086 164.561C94.6042 164.597 94.5951 164.632 94.582 164.662C94.5689 164.692 94.5519 164.718 94.5322 164.738C94.5125 164.757 94.4906 164.77 94.4676 164.775C94.1834 164.854 93.8952 164.892 93.6066 164.887Z" fill="#263238"/>
<path opacity="0.1" d="M89.2791 246.257L84.6381 247.284C84.2181 243.712 83.9871 231.354 82.4961 216.128C84.1481 209.118 85.7441 203.793 85.7441 203.793C88.9518 209.189 91.7694 215.143 94.1441 221.542C97.0071 229.2 94.1791 240.776 89.2791 246.257Z" fill="black"/>
<path d="M277.65 62.8115L239.535 65.1892L243.084 73.4275L246.031 79.6899L184.732 152.986L155.136 146.244L68.9453 249.311L72.4873 257.539L85.0873 284.341L164.32 189.59L193.916 196.343L262.383 114.474L269.082 128.729L281.192 71.0498L277.65 62.8115Z" fill="#FFBB00"/>
<path opacity="0.2" d="M277.65 62.8115L239.535 65.1892L243.084 73.4275L246.031 79.6899L184.732 152.986L155.136 146.244L68.9453 249.311L72.4873 257.539L85.0873 284.341L164.32 189.59L193.916 196.343L262.383 114.474L269.082 128.729L281.192 71.0498L277.65 62.8115Z" fill="black"/>
<path d="M277.65 62.8115L239.535 65.1892L246.234 79.4444L184.732 152.986L155.136 146.244L68.9453 249.311L81.5383 276.103L160.778 181.351L190.367 188.105L258.834 106.236L265.54 120.491L277.65 62.8115Z" fill="#FFBB00"/>
<path d="M277.65 62.8115L239.535 65.1892L246.234 79.4444L184.732 152.986L155.136 146.244L68.9453 249.311L81.5383 276.103L160.778 181.351L190.367 188.105L258.834 106.236L265.54 120.491L277.65 62.8115Z" fill="#FFBB00"/>
<path d="M110.404 234.386L116.172 239.052L112.84 246.341C112.84 246.341 108.521 243.975 108.367 237.98L110.404 234.386Z" fill="#EBB376"/>
<path d="M118.822 245.059L115.525 249.547L112.844 246.343L116.176 239.054L118.822 245.059Z" fill="#EBB376"/>
<path d="M77.8017 185.348C71.5017 191.588 82.0017 224.24 84.0037 229.118C86.0057 233.996 108.371 241.966 108.371 241.966L111.136 234.387L90.3457 219.652L84.0037 194.312C81.5397 186.263 77.8017 185.348 77.8017 185.348Z" fill="#FFBB00"/>
<path opacity="0.7" d="M77.8017 185.348C71.5017 191.588 82.0017 224.24 84.0037 229.118C86.0057 233.996 108.371 241.966 108.371 241.966L111.136 234.387L90.3457 219.652L84.0037 194.312C81.5397 186.263 77.8017 185.348 77.8017 185.348Z" fill="white"/>
<path d="M266.2 402.413L270.526 399.555L267.607 382.788L263.281 385.646L266.2 402.413Z" fill="#B55B52"/>
<path d="M270.563 388.316L262.352 393.741C262.352 393.741 255.086 350.976 248.086 328.94C244.243 316.862 237.698 297.684 231.986 281.296C229.186 273.17 226.582 265.735 224.629 260.165C222.487 254.036 221.129 250.174 221.129 250.174L235.031 235.249C235.031 235.249 253.826 295.161 259.447 316.024C265.614 338.875 270.563 388.316 270.563 388.316Z" fill="#263238"/>
<path d="M270.198 395.683H264.493C264.4 395.684 264.31 395.736 264.237 395.829C264.165 395.922 264.114 396.052 264.094 396.196L263.156 402.827C263.137 402.99 263.142 403.157 263.168 403.316C263.195 403.476 263.244 403.624 263.31 403.75C263.377 403.876 263.461 403.977 263.555 404.045C263.65 404.113 263.752 404.147 263.856 404.144C265.69 404.144 267.034 403.921 269.344 403.921C270.744 403.921 275.049 404.167 277.044 404.167C279.039 404.167 279.284 401.063 278.479 400.818C274.881 399.556 272.179 397.826 271.038 396.174C270.927 396.004 270.795 395.873 270.65 395.789C270.506 395.704 270.352 395.668 270.198 395.683Z" fill="#263238"/>
<path opacity="0.3" d="M232.013 281.299C229.213 273.172 226.609 265.738 224.656 260.168C225.695 259.945 226.75 260.274 227.659 261.105C230.204 267.105 231.706 274.073 232.013 281.299Z" fill="black"/>
<path d="M253.761 136.561L257.261 127.887L252.081 124.293C252.081 124.293 249.099 129.796 250.87 135.099L253.761 136.561Z" fill="#B55B52"/>
<path d="M257.647 120.572L253.377 119.355L252.082 124.278L257.262 127.884L257.647 120.572Z" fill="#B55B52"/>
<path d="M243.536 200.452C253.042 187.994 258.012 179.734 259.916 174.777C261.82 169.821 254.799 134.334 254.799 134.334L249.325 134.736L251.81 169.732L243.41 180.75L243.536 200.452Z" fill="#263238"/>
<path opacity="0.2" d="M259.923 174.789C258.201 179.254 254.008 186.376 246.252 196.847C245.389 198.008 244.483 199.21 243.536 200.452L243.494 193.955L243.41 180.75L251.81 169.732L249.318 134.736L254.799 134.334C254.799 134.334 261.799 169.832 259.923 174.789Z" fill="white"/>
<path opacity="0.2" d="M246.25 196.851C245.387 198.012 244.482 199.214 243.534 200.457L243.492 193.96C244.484 194.735 245.411 195.706 246.25 196.851Z" fill="black"/>
<path d="M196.543 401.589L201.121 403.118L204.649 386.653L200.071 385.112L196.543 401.589Z" fill="#B55B52"/>
<path d="M230.38 235.86C230.38 235.86 224.696 302.235 221.896 324.505C218.879 348.907 205.46 394.162 205.46 394.162L196.766 391.249C196.766 391.249 205.908 349.421 207.931 324.918C210.192 297.535 213.587 235.614 213.587 235.614L230.38 235.86Z" fill="#263238"/>
<path d="M202.788 395.681H197.083C196.99 395.682 196.9 395.734 196.828 395.827C196.756 395.92 196.705 396.05 196.684 396.194L195.718 402.825C195.7 402.988 195.704 403.155 195.731 403.314C195.757 403.474 195.806 403.622 195.873 403.748C195.94 403.874 196.024 403.975 196.118 404.043C196.212 404.111 196.315 404.145 196.418 404.142C198.252 404.142 199.596 403.919 201.906 403.919C203.306 403.919 207.618 404.165 209.606 404.165C211.594 404.165 211.846 401.061 211.041 400.816C207.45 399.554 204.741 397.824 203.6 396.172C203.492 396.008 203.365 395.88 203.226 395.796C203.086 395.711 202.938 395.672 202.788 395.681Z" fill="#263238"/>
<path d="M239.98 234.452C245.433 203.296 242.941 186.016 242.941 186.016C241.049 184.981 239.118 184.138 237.159 183.493C236.746 183.348 236.326 183.237 235.899 183.125C232.452 182.399 228.981 181.993 225.504 181.908C224.853 181.908 224.195 181.908 223.551 181.908C221.453 182.029 219.38 182.669 217.405 183.806C217.531 191.416 217.285 199.029 216.67 206.578C216.257 212.16 216.418 217.54 215.858 222.363C215.326 226.906 215.487 230.992 215.004 234.452H239.98Z" fill="#FFBB00"/>
<path opacity="0.7" d="M239.98 234.452C245.433 203.296 242.941 186.016 242.941 186.016C241.049 184.981 239.118 184.138 237.159 183.493C236.746 183.348 236.326 183.237 235.899 183.125C232.452 182.399 228.981 181.993 225.504 181.908C224.853 181.908 224.195 181.908 223.551 181.908C221.453 182.029 219.38 182.669 217.405 183.806C217.531 191.416 217.285 199.029 216.67 206.578C216.257 212.16 216.418 217.54 215.858 222.363C215.326 226.906 215.487 230.992 215.004 234.452H239.98Z" fill="white"/>
<path d="M233.734 192.541C234.482 198.619 234.894 204.79 234.966 210.983C234.511 212.467 233.902 216.084 233.356 217.546C232.957 215.872 232.257 212.423 231.781 210.737C232.208 203.459 233.013 196.225 232.768 192.352L233.734 192.541Z" fill="#FFBB00"/>
<path d="M232.692 191.248C231.256 190.674 229.914 189.611 228.759 188.134C227.604 186.656 226.663 184.797 226 182.686C226.769 182.008 227.41 181.013 227.855 179.806C228.87 177.042 229.58 174.021 229.955 170.875C230.199 169.068 230.386 167.242 230.515 165.405L232.615 170.764L234.946 176.624C234.596 177.507 234.289 178.433 234.029 179.392C233.329 182.094 233.364 184.695 235.429 186.693C235.709 188.702 235.457 192.487 232.692 191.248Z" fill="#B55B52"/>
<path d="M233.447 194.84L234.644 191.436L233.125 189.906L231.781 190.799L233.447 194.84Z" fill="#FFBB00"/>
<path d="M233.1 189.901C233.1 189.901 231.812 191.832 230.349 193.685C228.627 191.675 224.63 186.429 225.162 182.522C225.486 181.764 225.966 181.211 226.52 180.959C228.398 184.483 230.62 187.502 233.1 189.901Z" fill="white"/>
<path d="M233.098 189.902C233.918 191.366 234.604 193.008 235.135 194.78C236.619 193.585 236.087 185.85 235.653 184.89C235.12 183.715 234.416 182.765 233.602 182.121C233.975 184.732 233.798 187.467 233.098 189.902Z" fill="white"/>
<path d="M211.398 258.314L228.751 261.105L231.754 249.786L234.603 260.056L242.415 256.104L238.32 243.021C246.153 212.658 243.381 180.754 243.381 180.754C239.825 182.127 235.562 183.042 235.562 183.042C240.112 194.071 233.329 217.547 233.329 217.547C229.248 199.418 224.369 181.904 224.369 181.904C221.287 182.099 218.258 183.236 215.444 185.253C215.444 185.253 216.27 222.347 213.918 232.852C211.566 243.356 211.398 258.314 211.398 258.314Z" fill="#263238"/>
<path opacity="0.2" d="M238.355 243.02L242.443 256.103L234.631 260.055L231.782 249.796L228.779 261.059L211.398 258.313C211.398 258.313 211.573 243.321 213.918 232.817C214.667 229.468 215.094 223.451 215.318 216.787C215.521 211.205 215.577 205.133 215.577 199.842C215.577 191.614 215.437 185.229 215.437 185.229C218.25 183.21 221.28 182.073 224.362 181.88C224.362 181.88 229.262 199.395 233.322 217.524C233.322 217.524 240.112 194.081 235.555 183.03C235.555 183.03 239.825 182.104 243.374 180.73C243.409 180.753 246.188 212.657 238.355 243.02Z" fill="white"/>
<path d="M227.057 196.889L223.249 204.536C223.249 204.536 232.153 214.694 234.764 231.572L233.833 221.715L241.148 205.328L237.781 198.63L241.785 193.897C241.785 193.897 238.341 184.654 235.59 183.047C240.14 194.076 233.357 217.552 233.357 217.552C229.276 199.423 224.397 181.908 224.397 181.908C222.115 184.855 220.397 188.766 219.441 193.194L227.057 196.889Z" fill="#263238"/>
<path opacity="0.2" d="M234.953 176.643C234.603 177.527 234.297 178.452 234.036 179.412C232.088 180.83 229.868 180.971 227.855 179.803C228.87 177.039 229.58 174.018 229.955 170.872C230.844 170.772 231.754 170.738 232.643 170.761L234.953 176.643Z" fill="black"/>
<path d="M226.33 155.014C225.483 157.659 225.189 163.464 227.821 162.247C230.453 161.031 227.772 150.426 226.33 155.014Z" fill="#263238"/>
<path d="M238.525 162.078C238.042 169.312 237.993 173.587 235.585 177.115C231.973 182.417 226.443 178.611 225.554 171.266C224.756 164.668 225.68 153.941 230.216 151.44C231.222 150.888 232.3 150.751 233.348 151.043C234.396 151.334 235.38 152.044 236.21 153.106C237.04 154.168 237.687 155.548 238.092 157.117C238.497 158.686 238.646 160.393 238.525 162.078Z" fill="#B55B52"/>
<path d="M242.03 155.57L237.249 152.779L236.262 157.244L236.591 157.133C236.591 157.133 235.639 163.764 237.529 167.18C241.414 164.791 243.542 159.008 242.03 155.57Z" fill="#263238"/>
<path d="M240.096 168.252C239.899 169.099 239.6 169.875 239.214 170.536C238.828 171.197 238.364 171.73 237.849 172.103C236.449 173.074 235.539 171.176 235.749 168.899C235.924 166.845 236.855 163.876 238.339 163.854C238.662 163.865 238.979 164.003 239.26 164.256C239.542 164.509 239.78 164.869 239.954 165.304C240.128 165.739 240.232 166.236 240.256 166.75C240.281 167.264 240.226 167.78 240.096 168.252Z" fill="#B55B52"/>
<path d="M231.558 163.507C231.558 164.099 231.328 164.568 231.09 164.545C230.852 164.523 230.663 164.021 230.677 163.429C230.691 162.838 230.907 162.38 231.145 162.402C231.383 162.424 231.572 162.916 231.558 163.507Z" fill="#263238"/>
<path d="M227.363 163.147C227.363 163.739 227.132 164.197 226.894 164.174C226.656 164.152 226.467 163.661 226.481 163.058C226.495 162.455 226.712 162.009 226.95 162.02C227.188 162.031 227.377 162.556 227.363 163.147Z" fill="#263238"/>
<path d="M228.689 163.552C228.183 165.261 227.53 166.851 226.75 168.274C226.998 168.569 227.281 168.777 227.583 168.885C227.885 168.993 228.197 168.997 228.5 168.899L228.689 163.552Z" fill="#A02724"/>
<path d="M230.424 171.328C230.263 171.345 230.101 171.345 229.941 171.328C229.924 171.335 229.907 171.335 229.89 171.33C229.873 171.324 229.858 171.313 229.844 171.296C229.831 171.279 229.82 171.258 229.812 171.234C229.805 171.209 229.801 171.182 229.801 171.155C229.801 171.128 229.805 171.101 229.812 171.076C229.82 171.052 229.831 171.031 229.844 171.014C229.858 170.997 229.873 170.986 229.89 170.98C229.907 170.975 229.924 170.975 229.941 170.982C230.4 171.038 230.861 170.921 231.287 170.639C231.712 170.358 232.091 169.921 232.391 169.363C232.411 169.332 232.439 169.314 232.468 169.314C232.496 169.314 232.524 169.332 232.545 169.363C232.564 169.397 232.575 169.44 232.575 169.486C232.575 169.532 232.564 169.576 232.545 169.609C232.283 170.11 231.96 170.521 231.595 170.817C231.23 171.112 230.832 171.286 230.424 171.328Z" fill="#263238"/>
<path d="M232.91 161.467C232.871 161.472 232.831 161.46 232.795 161.432C232.76 161.405 232.729 161.363 232.707 161.31C232.56 160.943 232.36 160.636 232.124 160.414C231.888 160.193 231.622 160.064 231.349 160.038C231.291 160.038 231.235 160.002 231.193 159.937C231.151 159.873 231.127 159.785 231.125 159.692C231.124 159.647 231.129 159.602 231.139 159.56C231.149 159.518 231.165 159.48 231.184 159.448C231.204 159.415 231.227 159.39 231.253 159.372C231.279 159.355 231.307 159.346 231.335 159.346C231.688 159.36 232.033 159.512 232.341 159.789C232.648 160.065 232.908 160.457 233.099 160.931C233.131 161.006 233.144 161.099 233.133 161.189C233.123 161.279 233.09 161.359 233.043 161.411C233.004 161.453 232.957 161.472 232.91 161.467Z" fill="#263238"/>
<path d="M225.62 160.689C225.578 160.705 225.535 160.705 225.494 160.689C225.444 160.644 225.407 160.57 225.391 160.482C225.375 160.394 225.382 160.3 225.41 160.22C225.568 159.732 225.797 159.312 226.079 158.995C226.36 158.678 226.685 158.474 227.027 158.401C227.085 158.397 227.141 158.429 227.185 158.489C227.229 158.548 227.258 158.633 227.265 158.724C227.267 158.77 227.263 158.815 227.254 158.859C227.245 158.902 227.23 158.942 227.211 158.976C227.192 159.01 227.169 159.038 227.144 159.058C227.118 159.078 227.09 159.09 227.062 159.093C226.792 159.153 226.535 159.317 226.314 159.572C226.093 159.827 225.915 160.165 225.795 160.555C225.773 160.595 225.746 160.628 225.716 160.651C225.686 160.674 225.653 160.687 225.62 160.689Z" fill="#263238"/>
<path d="M237.765 159.477C237.649 159.554 237.53 159.618 237.408 159.666C237.075 159.798 236.726 159.793 236.394 159.653C236.063 159.512 235.759 159.241 235.511 158.863C234.496 157.322 235.196 151.662 231.206 152.779C230.857 152.449 230.456 152.288 230.051 152.313C229.646 152.339 229.255 152.551 228.924 152.924C227.706 154.208 227.097 160.805 225.382 159.008C223.667 157.21 224.171 156.44 224.171 156.44C224.171 156.44 224.598 157.233 224.99 156.965C224.793 156.456 224.696 155.864 224.714 155.266C224.731 154.669 224.862 154.094 225.088 153.616C225.088 153.616 225.382 154.732 225.718 154.732C225.897 152.032 226.591 149.484 227.706 147.432C229.638 143.636 236.106 147.901 236.106 147.901C236.106 147.901 237.387 146.081 240.103 149.14C242.819 152.198 243.064 158.673 242.098 160.972" fill="#263238"/>
<path opacity="0.2" d="M218.075 200.454C218.075 200.454 217.928 210.779 215.352 216.785C215.555 211.203 215.611 205.131 215.611 199.84C216.451 199.555 217.328 199.773 218.075 200.454Z" fill="black"/>
<path d="M191.353 198.357L184.941 196.995L186.572 188.366C186.572 188.366 191.136 188.366 192.529 193.948L191.353 198.357Z" fill="#B55B52"/>
<path d="M181.199 192.73L183.383 186.758L186.575 188.365L184.944 197.005L181.199 192.73Z" fill="#B55B52"/>
<path d="M219.439 200.452C219.439 200.452 209.905 222.409 206.398 223.995C202.891 225.58 188.996 198.543 188.996 198.543L192.125 191.354L204.872 209.114C204.872 209.114 211.508 189.914 215.498 185.226L219.439 200.452Z" fill="#263238"/>
<path opacity="0.2" d="M219.439 200.452C219.439 200.452 209.905 222.409 206.398 223.995C202.891 225.58 188.996 198.543 188.996 198.543L192.125 191.354L204.872 209.114C204.872 209.114 211.508 189.914 215.498 185.226L219.439 200.452Z" fill="white"/>
</svg>
