<svg width="436" height="482" viewBox="0 0 436 482" fill="none" xmlns="http://www.w3.org/2000/svg">
<path d="M436 423.504H0V423.827H436V423.504Z" fill="#EBEBEB"/>
<path d="M392.314 444.309H363.434V444.632H392.314V444.309Z" fill="#EBEBEB"/>
<path d="M288.824 447.828H281.246V448.151H288.824V447.828Z" fill="#EBEBEB"/>
<path d="M362.562 432.309H345.828V432.632H362.562V432.309Z" fill="#EBEBEB"/>
<path d="M83.4078 434.48H45.7461V434.804H83.4078V434.48Z" fill="#EBEBEB"/>
<path d="M96.6955 434.48H91.1758V434.804H96.6955V434.48Z" fill="#EBEBEB"/>
<path d="M196.333 439.938H114.645V440.261H196.333V439.938Z" fill="#EBEBEB"/>
<path d="M206.665 365.824H38.2907C36.9717 365.821 35.7075 365.041 34.7756 363.657C33.8437 362.272 33.3203 360.396 33.3203 358.44V7.41736C33.3318 5.47237 33.8602 3.61264 34.7909 2.24212C35.7215 0.871602 36.9792 0.100988 38.2907 0.0976562H206.665C207.986 0.0976563 209.252 0.87565 210.186 2.26049C211.12 3.64532 211.644 5.52356 211.644 7.48202V358.44C211.644 360.398 211.12 362.276 210.186 363.661C209.252 365.046 207.986 365.824 206.665 365.824ZM38.2907 0.356304C37.0295 0.35973 35.8207 1.10517 34.9297 2.429C34.0387 3.75284 33.5383 5.54689 33.5383 7.41736V358.44C33.5383 360.31 34.0387 362.104 34.9297 363.428C35.8207 364.752 37.0295 365.497 38.2907 365.501H206.665C207.927 365.497 209.137 364.752 210.029 363.429C210.922 362.105 211.424 360.311 211.426 358.44V7.41736C211.424 5.5457 210.922 3.75168 210.029 2.42821C209.137 1.10475 207.927 0.359723 206.665 0.356304H38.2907Z" fill="#EBEBEB"/>
<path d="M395.288 365.824H226.905C225.585 365.821 224.32 365.042 223.387 363.658C222.453 362.273 221.928 360.397 221.926 358.44V7.41736C221.94 5.47119 222.47 3.61147 223.402 2.24131C224.334 0.87115 225.593 0.100952 226.905 0.0976562H395.288C396.598 0.104387 397.854 0.876505 398.782 2.24666C399.711 3.61681 400.238 5.4746 400.25 7.41736V358.44C400.25 360.394 399.728 362.268 398.798 363.652C397.868 365.036 396.606 365.817 395.288 365.824ZM226.905 0.356304C225.643 0.359723 224.433 1.10475 223.541 2.42821C222.648 3.75168 222.146 5.5457 222.144 7.41736V358.44C222.146 360.311 222.648 362.105 223.541 363.429C224.433 364.752 225.643 365.497 226.905 365.501H395.288C396.55 365.497 397.76 364.752 398.652 363.429C399.545 362.105 400.047 360.311 400.049 358.44V7.41736C400.047 5.5457 399.545 3.75168 398.652 2.42821C397.76 1.10475 396.55 0.359723 395.288 0.356304H226.905Z" fill="#EBEBEB"/>
<path d="M206.664 163.189V185.898L214.512 186.998C215.565 194.481 217.562 201.603 220.398 207.987L215.332 217.039L226.162 233.101L232.266 225.588C236.568 229.79 241.367 232.747 246.41 234.304L247.151 245.943H262.559L263.3 234.304C268.346 232.747 273.148 229.79 277.453 225.588L283.557 233.101L294.387 217.039L289.321 207.987C292.154 201.602 294.148 194.481 295.198 186.998L303.09 185.898V163.189L295.198 162.077C294.155 154.587 292.167 147.457 289.338 141.062L294.405 132.009L283.574 115.96L277.47 123.474C273.172 119.278 268.38 116.316 263.344 114.745L262.603 103.105H247.238L246.497 114.745C241.455 116.312 236.657 119.273 232.353 123.474L226.249 115.96L215.384 132.009L220.45 141.062C217.617 147.443 215.62 154.56 214.564 162.038L206.664 163.189ZM254.868 143.791C258.969 143.791 262.979 145.594 266.389 148.973C269.799 152.353 272.456 157.156 274.026 162.775C275.595 168.394 276.006 174.578 275.206 180.543C274.406 186.509 272.431 191.989 269.531 196.289C266.631 200.59 262.936 203.519 258.914 204.706C254.891 205.893 250.722 205.283 246.933 202.956C243.144 200.628 239.905 196.687 237.627 191.629C235.348 186.572 234.132 180.626 234.132 174.544C234.132 170.501 234.67 166.498 235.714 162.763C236.758 159.029 238.289 155.636 240.218 152.78C242.147 149.923 244.437 147.659 246.957 146.117C249.477 144.574 252.177 143.784 254.903 143.791H254.868Z" fill="#F0F0F0"/>
<path d="M180.814 264.836L185.174 270.242L192.961 258.693L189.316 252.227C191.372 247.63 192.819 242.496 193.581 237.096L199.249 236.308V219.948L193.581 219.159C192.826 213.782 191.391 208.665 189.351 204.08L192.996 197.614L185.209 186.065L180.849 191.471C177.756 188.452 174.307 186.324 170.682 185.199L170.15 176.793H159.11L158.578 185.199C154.953 186.332 151.503 188.469 148.411 191.497L144.051 186.091L136.264 197.64L139.909 204.106C137.87 208.691 136.435 213.808 135.68 219.185L130.012 219.974V236.295L135.68 237.084C136.435 242.461 137.87 247.578 139.909 252.163L136.264 258.629L144.051 270.177L148.411 264.772C151.504 267.791 154.954 269.919 158.578 271.044L159.11 279.45H170.115L170.647 271.044C174.269 269.939 177.718 267.833 180.814 264.836ZM149.719 228.147C149.719 223.775 150.593 219.502 152.231 215.867C153.869 212.232 156.197 209.399 158.92 207.727C161.644 206.055 164.641 205.618 167.532 206.472C170.423 207.325 173.078 209.432 175.162 212.524C177.246 215.616 178.665 219.555 179.239 223.843C179.813 228.132 179.516 232.576 178.387 236.614C177.258 240.652 175.346 244.103 172.894 246.53C170.443 248.957 167.56 250.251 164.613 250.249C162.656 250.249 160.719 249.677 158.911 248.566C157.103 247.455 155.461 245.827 154.078 243.775C152.695 241.722 151.598 239.286 150.85 236.604C150.102 233.923 149.718 231.049 149.719 228.147Z" fill="#F5F5F5"/>
<path d="M229.729 375.393C234.045 374.063 238.152 371.531 241.833 367.931L247.065 374.398L256.369 360.625L252.009 352.865C254.436 347.407 256.143 341.316 257.04 334.915L263.79 333.984V314.585L257.04 313.641C256.147 307.222 254.44 301.113 252.009 295.64L256.369 287.88L247.073 274.133L241.841 280.599C238.159 277.006 234.053 274.475 229.738 273.137L229.101 263.141H216.021L215.385 273.099C211.07 274.436 206.964 276.967 203.281 280.56L198.049 274.094L188.78 287.841L193.14 295.601C190.717 301.062 189.01 307.152 188.109 313.551L181.359 314.495V333.893L188.109 334.825C189.009 341.224 190.716 347.315 193.14 352.775L188.78 360.534L198.049 374.268L203.281 367.802C206.955 371.447 211.062 374.023 215.385 375.393L216.021 385.403H229.101L229.729 375.393ZM204.807 324.246C204.809 319.044 205.851 313.96 207.801 309.636C209.751 305.311 212.521 301.942 215.763 299.953C219.004 297.964 222.57 297.445 226.009 298.461C229.449 299.478 232.609 301.984 235.089 305.663C237.568 309.343 239.257 314.03 239.94 319.132C240.624 324.234 240.272 329.522 238.929 334.328C237.587 339.134 235.313 343.241 232.397 346.131C229.48 349.021 226.052 350.563 222.544 350.563C220.214 350.563 217.907 349.882 215.754 348.56C213.602 347.237 211.646 345.298 209.999 342.854C208.352 340.41 207.046 337.509 206.155 334.316C205.264 331.123 204.806 327.701 204.807 324.246Z" fill="#FAFAFA"/>
<path d="M123.356 140.242L83.2422 132.113L77.7615 191.605L117.876 199.734L123.356 140.242Z" fill="#F5F5F5"/>
<path d="M89.1432 148.429L88.7891 152.273L114.907 157.566L115.261 153.722L89.1432 148.429Z" fill="#E0E0E0"/>
<path d="M88.026 160.496L87.6719 164.34L113.79 169.632L114.144 165.788L88.026 160.496Z" fill="#E0E0E0"/>
<path d="M86.8854 172.969L86.5312 176.812L101.91 179.929L102.264 176.085L86.8854 172.969Z" fill="#E0E0E0"/>
<path d="M347.948 74.1576L307.461 74.3672L307.602 134.412L348.089 134.202L347.948 74.1576Z" fill="#F0F0F0"/>
<path d="M341.212 89.0794L314.852 89.2227L314.861 93.1023L341.222 92.959L341.212 89.0794Z" fill="#E0E0E0"/>
<path d="M341.255 101.259L314.895 101.402L314.904 105.282L341.265 105.139L341.255 101.259Z" fill="#E0E0E0"/>
<path d="M330.436 113.916L314.914 114L314.924 117.88L330.445 117.795L330.436 113.916Z" fill="#E0E0E0"/>
<path d="M372.244 220.594L332.078 228.141L337.167 287.709L377.332 280.163L372.244 220.594Z" fill="#F5F5F5"/>
<path d="M366.804 236.688L340.652 241.602L340.981 245.451L367.133 240.537L366.804 236.688Z" fill="#E0E0E0"/>
<path d="M367.835 248.762L341.684 253.676L342.012 257.525L368.164 252.611L367.835 248.762Z" fill="#E0E0E0"/>
<path d="M358.149 263.271L342.75 266.164L343.079 270.013L358.477 267.12L358.149 263.271Z" fill="#E0E0E0"/>
<path d="M156.877 317.275L116.391 317.484L116.532 377.529L157.019 377.319L156.877 317.275Z" fill="#F0F0F0"/>
<path d="M150.196 332.247L123.836 332.391L123.846 336.27L150.206 336.127L150.196 332.247Z" fill="#E0E0E0"/>
<path d="M150.224 344.431L123.863 344.574L123.873 348.454L150.233 348.311L150.224 344.431Z" fill="#E0E0E0"/>
<path d="M139.42 357.084L123.898 357.168L123.908 361.048L139.43 360.963L139.42 357.084Z" fill="#E0E0E0"/>
<path d="M335.698 346.677L295.211 346.887L295.352 406.931L335.839 406.722L335.698 346.677Z" fill="#F0F0F0"/>
<path d="M329.009 361.603L302.648 361.746L302.658 365.626L329.018 365.482L329.009 361.603Z" fill="#E0E0E0"/>
<path d="M329.048 373.782L302.688 373.926L302.697 377.805L329.057 377.662L329.048 373.782Z" fill="#E0E0E0"/>
<path d="M318.232 386.439L302.711 386.523L302.721 390.403L318.242 390.319L318.232 386.439Z" fill="#E0E0E0"/>
<path d="M165.091 70.2335L125.566 83.25L134.343 141.867L173.867 128.85L165.091 70.2335Z" fill="#F0F0F0"/>
<path d="M160.667 87.0368L134.934 95.5117L135.501 99.2992L161.234 90.8243L160.667 87.0368Z" fill="#E0E0E0"/>
<path d="M162.449 98.9313L136.715 107.406L137.282 111.194L163.016 102.719L162.449 98.9313Z" fill="#E0E0E0"/>
<path d="M153.707 114.705L138.555 119.695L139.122 123.483L154.274 118.493L153.707 114.705Z" fill="#E0E0E0"/>
<path d="M86.5391 138.604H85.8153L84.8125 131.75H87.5331L86.5391 138.604Z" fill="#E0E0E0"/>
<path d="M86.172 136.91C88.2043 136.91 89.8519 134.982 89.8519 132.603C89.8519 130.225 88.2043 128.297 86.172 128.297C84.1397 128.297 82.4922 130.225 82.4922 132.603C82.4922 134.982 84.1397 136.91 86.172 136.91Z" fill="#E6E6E6"/>
<path d="M160.511 78.767H159.787L158.793 71.9258H161.514L160.511 78.767Z" fill="#E0E0E0"/>
<path d="M160.15 77.0856C162.187 77.0856 163.838 75.1575 163.838 72.7791C163.838 70.4007 162.187 68.4727 160.15 68.4727C158.112 68.4727 156.461 70.4007 156.461 72.7791C156.461 75.1575 158.112 77.0856 160.15 77.0856Z" fill="#E6E6E6"/>
<path d="M327.125 80.4857H326.401L325.398 73.6445H328.119L327.125 80.4857Z" fill="#E0E0E0"/>
<path d="M326.754 78.8043C328.786 78.8043 330.434 76.8763 330.434 74.4979C330.434 72.1195 328.786 70.1914 326.754 70.1914C324.722 70.1914 323.074 72.1195 323.074 74.4979C323.074 76.8763 324.722 78.8043 326.754 78.8043Z" fill="#E6E6E6"/>
<path d="M368.507 229.193H367.783L366.789 222.352H369.51L368.507 229.193Z" fill="#E0E0E0"/>
<path d="M368.152 227.511C370.185 227.511 371.832 225.583 371.832 223.205C371.832 220.827 370.185 218.898 368.152 218.898C366.12 218.898 364.473 220.827 364.473 223.205C364.473 225.583 366.12 227.511 368.152 227.511Z" fill="#E6E6E6"/>
<path d="M316.18 353.499H315.447L314.453 346.645H317.174L316.18 353.499Z" fill="#E0E0E0"/>
<path d="M315.813 351.804C317.845 351.804 319.492 349.876 319.492 347.498C319.492 345.119 317.845 343.191 315.813 343.191C313.78 343.191 312.133 345.119 312.133 347.498C312.133 349.876 313.78 351.804 315.813 351.804Z" fill="#E6E6E6"/>
<path d="M135.577 322.721H134.853L133.859 315.867H136.58L135.577 322.721Z" fill="#E0E0E0"/>
<path d="M135.223 321.027C137.255 321.027 138.903 319.099 138.903 316.721C138.903 314.342 137.255 312.414 135.223 312.414C133.19 312.414 131.543 314.342 131.543 316.721C131.543 319.099 133.19 321.027 135.223 321.027Z" fill="#E6E6E6"/>
<path d="M217.998 481.904C311.374 481.904 387.07 475.349 387.07 467.264C387.07 459.179 311.374 452.625 217.998 452.625C124.622 452.625 48.9258 459.179 48.9258 467.264C48.9258 475.349 124.622 481.904 217.998 481.904Z" fill="#F5F5F5"/>
<path d="M125.281 250.777C125.281 242.254 129.057 235.258 133.705 235.258C138.353 235.258 142.128 242.19 142.128 250.777C142.128 259.364 138.353 266.218 133.705 266.218C129.057 266.218 125.281 259.299 125.281 250.777ZM127.025 250.777C127.025 257.864 130.025 263.631 133.705 263.631C137.385 263.631 140.384 257.864 140.384 250.777C140.384 243.69 137.393 237.844 133.705 237.844C130.016 237.844 127.025 243.69 127.025 250.777Z" fill="#263238"/>
<path d="M108.707 250.777C108.707 242.254 112.483 235.258 117.131 235.258C121.778 235.258 125.554 242.19 125.554 250.777C125.554 259.364 121.778 266.218 117.131 266.218C112.483 266.218 108.707 259.299 108.707 250.777ZM110.451 250.777C110.451 257.864 113.442 263.631 117.131 263.631C120.819 263.631 123.81 257.864 123.81 250.777C123.81 243.69 120.81 237.844 117.131 237.844C113.451 237.844 110.451 243.69 110.451 250.777Z" fill="#263238"/>
<path d="M92.1211 250.777C92.1211 242.254 95.9056 235.258 100.553 235.258C105.201 235.258 108.977 242.19 108.977 250.777C108.977 259.364 105.192 266.218 100.553 266.218C95.9143 266.218 92.1211 259.299 92.1211 250.777ZM93.8651 250.777C93.8651 257.864 96.8648 263.631 100.553 263.631C104.242 263.631 107.233 257.864 107.233 250.777C107.233 243.69 104.233 237.844 100.553 237.844C96.8735 237.844 93.8651 243.69 93.8651 250.777Z" fill="#263238"/>
<path d="M75.543 250.777C75.543 242.254 79.3275 235.258 83.9752 235.258C88.623 235.258 92.3987 242.19 92.3987 250.777C92.3987 259.364 88.6143 266.218 83.9752 266.218C79.3362 266.218 75.543 259.299 75.543 250.777ZM77.287 250.777C77.287 257.864 80.2867 263.631 83.9752 263.631C87.6638 263.631 90.6547 257.864 90.6547 250.777C90.6547 243.69 87.6551 237.844 83.9752 237.844C80.2954 237.844 77.287 243.69 77.287 250.777Z" fill="#263238"/>
<path d="M141.859 250.777C141.859 242.254 145.635 235.258 150.283 235.258C154.931 235.258 158.715 242.19 158.715 250.777C158.715 259.364 154.931 266.218 150.283 266.218C145.635 266.218 141.859 259.299 141.859 250.777ZM143.603 250.777C143.603 257.864 146.603 263.631 150.283 263.631C153.963 263.631 156.971 257.864 156.971 250.777C156.971 243.69 153.971 237.844 150.283 237.844C146.594 237.844 143.603 243.69 143.603 250.777Z" fill="#263238"/>
<path d="M64.5802 464.094H168.418L168.418 251.072L64.5802 251.072L64.5802 464.094Z" fill="#263238"/>
<path opacity="0.7" d="M64.5802 464.094H168.418L168.418 251.072L64.5802 251.072L64.5802 464.094Z" fill="white"/>
<path opacity="0.6" d="M73.9368 464.094H168.418L168.418 251.072L73.9368 251.072L73.9368 464.094Z" fill="white"/>
<path opacity="0.2" d="M67.6962 464.096L67.2602 265.016L66.8242 464.096H67.6962Z" fill="black"/>
<path opacity="0.2" d="M72.04 464.096L71.604 277.418L71.168 464.096H72.04Z" fill="black"/>
<path opacity="0.2" d="M68.9961 251.23L69.4321 400.896L69.8681 251.23H68.9961Z" fill="black"/>
<path d="M152.796 261.202C152.885 261.891 153.105 262.529 153.43 263.04C153.754 263.551 154.17 263.914 154.629 264.087C155.088 264.261 155.57 264.237 156.02 264.019C156.47 263.8 156.869 263.397 157.17 262.855C157.471 262.313 157.662 261.655 157.72 260.958C157.778 260.261 157.701 259.554 157.499 258.92C157.296 258.285 156.976 257.749 156.575 257.375C156.175 257 155.711 256.803 155.237 256.805C154.523 256.916 153.866 257.439 153.41 258.262C152.953 259.084 152.732 260.14 152.796 261.202Z" fill="#263238"/>
<path d="M155.392 262.506C155.516 262.504 155.639 262.463 155.752 262.385C155.865 262.307 155.965 262.194 156.046 262.054C157.803 258.878 158.748 254.884 158.714 250.777C158.714 242.254 154.93 235.258 150.282 235.258C146.864 235.258 143.803 239.008 142.495 244.789C142.458 244.95 142.443 245.121 142.451 245.291C142.459 245.46 142.489 245.626 142.54 245.779C142.591 245.931 142.662 246.068 142.749 246.179C142.835 246.291 142.936 246.377 143.044 246.431C143.153 246.486 143.268 246.508 143.383 246.496C143.497 246.485 143.609 246.44 143.712 246.364C143.815 246.288 143.906 246.184 143.982 246.055C144.057 245.927 144.115 245.778 144.152 245.617C145.216 240.896 147.64 237.857 150.256 237.857C153.944 237.857 156.944 243.638 156.944 250.79C156.981 254.276 156.187 257.669 154.703 260.372C154.592 260.56 154.52 260.791 154.495 261.038C154.471 261.285 154.495 261.537 154.565 261.764C154.635 261.991 154.748 262.183 154.89 262.317C155.032 262.451 155.197 262.521 155.366 262.519L155.392 262.506Z" fill="#263238"/>
<g opacity="0.4">
<path d="M155.388 262.506C155.512 262.504 155.635 262.463 155.748 262.385C155.861 262.307 155.961 262.194 156.042 262.054C157.799 258.878 158.744 254.884 158.71 250.777C158.71 242.254 154.926 235.258 150.278 235.258C146.86 235.258 143.799 239.008 142.491 244.789C142.454 244.95 142.44 245.121 142.447 245.291C142.455 245.46 142.485 245.626 142.536 245.779C142.587 245.931 142.658 246.068 142.745 246.179C142.831 246.291 142.932 246.377 143.04 246.431C143.149 246.486 143.264 246.508 143.379 246.496C143.493 246.485 143.605 246.44 143.708 246.364C143.811 246.288 143.903 246.184 143.978 246.055C144.053 245.927 144.111 245.778 144.148 245.617C145.212 240.896 147.636 237.857 150.252 237.857C153.94 237.857 156.94 243.638 156.94 250.79C156.977 254.276 156.183 257.669 154.699 260.372C154.588 260.56 154.516 260.791 154.491 261.038C154.467 261.285 154.491 261.537 154.561 261.764C154.631 261.991 154.744 262.183 154.886 262.317C155.028 262.451 155.193 262.521 155.362 262.519L155.388 262.506Z" fill="white"/>
</g>
<path d="M136.218 261.202C136.309 261.887 136.529 262.52 136.853 263.026C137.177 263.533 137.591 263.893 138.048 264.064C138.504 264.235 138.984 264.21 139.431 263.992C139.879 263.774 140.275 263.373 140.575 262.833C140.874 262.294 141.064 261.64 141.122 260.947C141.181 260.254 141.105 259.551 140.904 258.919C140.704 258.288 140.386 257.754 139.989 257.379C139.591 257.005 139.13 256.806 138.659 256.805C137.945 256.916 137.288 257.439 136.832 258.262C136.375 259.084 136.154 260.14 136.218 261.202Z" fill="#263238"/>
<path d="M138.805 262.506C138.931 262.506 139.055 262.466 139.17 262.388C139.284 262.31 139.386 262.196 139.468 262.054C141.222 258.877 142.164 254.883 142.127 250.777C142.127 242.254 138.352 235.258 133.704 235.258C130.277 235.258 127.225 239.008 125.917 244.789C125.843 245.115 125.859 245.471 125.962 245.779C126.065 246.087 126.246 246.322 126.466 246.431C126.686 246.541 126.926 246.517 127.134 246.364C127.341 246.211 127.5 245.942 127.574 245.617C128.637 240.896 131.062 237.857 133.678 237.857C137.366 237.857 140.357 243.638 140.357 250.79C140.397 254.274 139.607 257.668 138.125 260.372C138.014 260.559 137.942 260.789 137.917 261.035C137.893 261.281 137.916 261.532 137.985 261.758C138.054 261.985 138.166 262.177 138.307 262.312C138.447 262.447 138.611 262.519 138.779 262.519L138.805 262.506Z" fill="#263238"/>
<g opacity="0.4">
<path d="M138.809 262.506C138.935 262.506 139.059 262.466 139.174 262.388C139.288 262.31 139.39 262.196 139.472 262.054C141.226 258.877 142.168 254.883 142.131 250.777C142.131 242.254 138.355 235.258 133.708 235.258C130.281 235.258 127.229 239.008 125.921 244.789C125.847 245.115 125.863 245.471 125.966 245.779C126.069 246.087 126.25 246.322 126.47 246.431C126.69 246.541 126.93 246.517 127.138 246.364C127.345 246.211 127.504 245.942 127.578 245.617C128.641 240.896 131.066 237.857 133.682 237.857C137.37 237.857 140.361 243.638 140.361 250.79C140.401 254.274 139.611 257.668 138.129 260.372C138.018 260.559 137.946 260.789 137.921 261.035C137.897 261.281 137.92 261.532 137.989 261.758C138.058 261.985 138.17 262.177 138.31 262.312C138.451 262.447 138.615 262.519 138.783 262.519L138.809 262.506Z" fill="white"/>
</g>
<path d="M119.631 261.202C119.72 261.891 119.94 262.528 120.264 263.038C120.588 263.549 121.004 263.913 121.462 264.087C121.92 264.26 122.403 264.237 122.852 264.02C123.302 263.803 123.701 263.4 124.002 262.86C124.304 262.319 124.495 261.662 124.554 260.966C124.614 260.27 124.538 259.563 124.337 258.929C124.135 258.294 123.816 257.757 123.417 257.381C123.018 257.005 122.554 256.805 122.081 256.805C121.366 256.916 120.709 257.439 120.251 258.261C119.792 259.083 119.57 260.139 119.631 261.202Z" fill="#263238"/>
<path d="M122.228 262.506C122.354 262.506 122.478 262.466 122.593 262.388C122.707 262.31 122.809 262.196 122.891 262.054C124.63 258.868 125.556 254.875 125.507 250.777C125.507 242.254 121.731 235.258 117.083 235.258C113.656 235.258 110.604 239.008 109.296 244.789C109.259 244.95 109.244 245.121 109.252 245.291C109.26 245.461 109.29 245.627 109.341 245.779C109.392 245.932 109.463 246.068 109.549 246.18C109.636 246.292 109.737 246.377 109.846 246.431C109.954 246.486 110.069 246.508 110.184 246.497C110.299 246.486 110.411 246.441 110.514 246.365C110.616 246.29 110.708 246.184 110.784 246.056C110.859 245.928 110.917 245.778 110.953 245.617C112.017 240.896 114.441 237.857 117.057 237.857C120.737 237.857 123.737 243.638 123.737 250.79C123.778 254.277 122.984 257.672 121.496 260.372C121.384 260.56 121.312 260.791 121.288 261.038C121.263 261.285 121.288 261.537 121.358 261.764C121.428 261.991 121.541 262.183 121.683 262.317C121.825 262.451 121.99 262.521 122.158 262.519L122.228 262.506Z" fill="#263238"/>
<g opacity="0.4">
<path d="M122.228 262.506C122.354 262.506 122.478 262.466 122.593 262.388C122.707 262.31 122.809 262.196 122.891 262.054C124.63 258.868 125.556 254.875 125.507 250.777C125.507 242.254 121.731 235.258 117.083 235.258C113.656 235.258 110.604 239.008 109.296 244.789C109.259 244.95 109.244 245.121 109.252 245.291C109.26 245.461 109.29 245.627 109.341 245.779C109.392 245.932 109.463 246.068 109.549 246.18C109.636 246.292 109.737 246.377 109.846 246.431C109.954 246.486 110.069 246.508 110.184 246.497C110.299 246.486 110.411 246.441 110.514 246.365C110.616 246.29 110.708 246.184 110.784 246.056C110.859 245.928 110.917 245.778 110.953 245.617C112.017 240.896 114.441 237.857 117.057 237.857C120.737 237.857 123.737 243.638 123.737 250.79C123.778 254.277 122.984 257.672 121.496 260.372C121.384 260.56 121.312 260.791 121.288 261.038C121.263 261.285 121.288 261.537 121.358 261.764C121.428 261.991 121.541 262.183 121.683 262.317C121.825 262.451 121.99 262.521 122.158 262.519L122.228 262.506Z" fill="white"/>
</g>
<path d="M103.053 261.202C103.142 261.891 103.362 262.528 103.686 263.038C104.01 263.549 104.426 263.913 104.884 264.087C105.342 264.26 105.825 264.237 106.274 264.02C106.724 263.803 107.123 263.4 107.424 262.86C107.726 262.319 107.917 261.662 107.976 260.966C108.035 260.27 107.96 259.563 107.759 258.929C107.557 258.294 107.238 257.757 106.839 257.381C106.439 257.005 105.976 256.805 105.503 256.805C104.788 256.916 104.131 257.439 103.672 258.261C103.214 259.083 102.992 260.139 103.053 261.202Z" fill="#263238"/>
<path d="M105.651 262.506C105.777 262.506 105.901 262.466 106.016 262.388C106.13 262.31 106.232 262.196 106.314 262.054C108.053 258.868 108.979 254.875 108.93 250.777C108.93 242.254 105.145 235.258 100.506 235.258C97.0792 235.258 94.0272 239.008 92.7192 244.789C92.6733 244.953 92.6506 245.128 92.6524 245.306C92.6543 245.483 92.6807 245.657 92.7299 245.819C92.7792 245.98 92.8503 246.125 92.9389 246.244C93.0274 246.363 93.1315 246.454 93.2447 246.511C93.3578 246.567 93.4777 246.589 93.5967 246.574C93.7158 246.56 93.8316 246.509 93.9368 246.425C94.0421 246.341 94.1346 246.226 94.2087 246.087C94.2827 245.948 94.3367 245.788 94.3673 245.617C95.4311 240.896 97.8553 237.857 100.471 237.857C104.151 237.857 107.151 243.638 107.151 250.79C107.188 254.276 106.394 257.669 104.91 260.372C104.799 260.56 104.727 260.791 104.702 261.038C104.678 261.285 104.702 261.537 104.772 261.764C104.842 261.991 104.955 262.183 105.097 262.317C105.239 262.451 105.404 262.521 105.573 262.519L105.651 262.506Z" fill="#263238"/>
<g opacity="0.4">
<path d="M105.651 262.506C105.777 262.506 105.901 262.466 106.016 262.388C106.13 262.31 106.232 262.196 106.314 262.054C108.053 258.868 108.979 254.875 108.93 250.777C108.93 242.254 105.145 235.258 100.506 235.258C97.0792 235.258 94.0272 239.008 92.7192 244.789C92.6733 244.953 92.6506 245.128 92.6524 245.306C92.6543 245.483 92.6807 245.657 92.7299 245.819C92.7792 245.98 92.8503 246.125 92.9389 246.244C93.0274 246.363 93.1315 246.454 93.2447 246.511C93.3578 246.567 93.4777 246.589 93.5967 246.574C93.7158 246.56 93.8316 246.509 93.9368 246.425C94.0421 246.341 94.1346 246.226 94.2087 246.087C94.2827 245.948 94.3367 245.788 94.3673 245.617C95.4311 240.896 97.8553 237.857 100.471 237.857C104.151 237.857 107.151 243.638 107.151 250.79C107.188 254.276 106.394 257.669 104.91 260.372C104.799 260.56 104.727 260.791 104.702 261.038C104.678 261.285 104.702 261.537 104.772 261.764C104.842 261.991 104.955 262.183 105.097 262.317C105.239 262.451 105.404 262.521 105.573 262.519L105.651 262.506Z" fill="white"/>
</g>
<path d="M86.4766 261.202C86.4766 263.633 87.5753 265.599 88.9182 265.599C89.6091 265.405 90.2328 264.86 90.6815 264.057C91.1303 263.255 91.3758 262.244 91.3758 261.202C91.3758 260.159 91.1303 259.149 90.6815 258.346C90.2328 257.543 89.6091 256.998 88.9182 256.805C87.5753 256.805 86.4766 258.745 86.4766 261.202Z" fill="#263238"/>
<path d="M89.0768 262.506C89.2027 262.506 89.3272 262.466 89.4416 262.388C89.556 262.31 89.6576 262.196 89.7395 262.054C91.475 258.865 92.4008 254.874 92.3555 250.777C92.3555 242.254 88.571 235.258 83.932 235.258C80.505 235.258 77.4443 239.008 76.145 244.789C76.0991 244.953 76.0764 245.128 76.0782 245.306C76.0801 245.483 76.1065 245.657 76.1557 245.819C76.205 245.98 76.2761 246.125 76.3646 246.244C76.4532 246.363 76.5573 246.454 76.6704 246.511C76.7836 246.567 76.9034 246.589 77.0225 246.574C77.1416 246.56 77.2573 246.509 77.3626 246.425C77.4679 246.341 77.5604 246.226 77.6345 246.087C77.7085 245.948 77.7625 245.788 77.7931 245.617C78.8569 240.896 81.2811 237.857 83.8971 237.857C87.5769 237.857 90.5766 243.638 90.5766 250.79C90.6136 254.276 89.82 257.669 88.3356 260.372C88.2593 260.501 88.201 260.651 88.164 260.813C88.1271 260.975 88.1122 261.147 88.1203 261.318C88.1284 261.488 88.1593 261.655 88.2113 261.808C88.2632 261.961 88.3351 262.097 88.4228 262.209C88.5126 262.321 88.6169 262.405 88.7293 262.457C88.8417 262.508 88.9599 262.525 89.0768 262.506Z" fill="#263238"/>
<g opacity="0.4">
<path d="M89.0768 262.506C89.2027 262.506 89.3272 262.466 89.4416 262.388C89.556 262.31 89.6576 262.196 89.7395 262.054C91.475 258.865 92.4008 254.874 92.3555 250.777C92.3555 242.254 88.571 235.258 83.932 235.258C80.505 235.258 77.4443 239.008 76.145 244.789C76.0991 244.953 76.0764 245.128 76.0782 245.306C76.0801 245.483 76.1065 245.657 76.1557 245.819C76.205 245.98 76.2761 246.125 76.3646 246.244C76.4532 246.363 76.5573 246.454 76.6704 246.511C76.7836 246.567 76.9034 246.589 77.0225 246.574C77.1416 246.56 77.2573 246.509 77.3626 246.425C77.4679 246.341 77.5604 246.226 77.6345 246.087C77.7085 245.948 77.7625 245.788 77.7931 245.617C78.8569 240.896 81.2811 237.857 83.8971 237.857C87.5769 237.857 90.5766 243.638 90.5766 250.79C90.6136 254.276 89.82 257.669 88.3356 260.372C88.2593 260.501 88.201 260.651 88.164 260.813C88.1271 260.975 88.1122 261.147 88.1203 261.318C88.1284 261.488 88.1593 261.655 88.2113 261.808C88.2632 261.961 88.3351 262.097 88.4228 262.209C88.5126 262.321 88.6169 262.405 88.7293 262.457C88.8417 262.508 88.9599 262.525 89.0768 262.506Z" fill="white"/>
</g>
<path d="M101.221 349.074H93.9141V367.555H101.221V349.074Z" fill="#407BFF"/>
<path d="M113.053 335.625H105.746V367.555H113.053V335.625Z" fill="#407BFF"/>
<path d="M124.897 340.668H117.59V367.554H124.897V340.668Z" fill="#407BFF"/>
<path d="M136.741 327.219H129.434V367.555H136.741V327.219Z" fill="#407BFF"/>
<path d="M148.573 313.77H141.266V367.555H148.573V313.77Z" fill="#407BFF"/>
<path opacity="0.5" d="M101.221 349.074H93.9141V367.555H101.221V349.074Z" fill="white"/>
<path opacity="0.5" d="M113.053 335.625H105.746V367.555H113.053V335.625Z" fill="white"/>
<path opacity="0.5" d="M124.897 340.668H117.59V367.554H124.897V340.668Z" fill="white"/>
<path opacity="0.5" d="M136.741 327.219H129.434V367.555H136.741V327.219Z" fill="white"/>
<path opacity="0.5" d="M148.573 313.77H141.266V367.555H148.573V313.77Z" fill="white"/>
<path d="M158.322 364.996H83.8789V370.117H158.322V364.996Z" fill="#263238"/>
<path d="M87.0185 352.877L85.4141 349.877L109.289 321.697L121.105 331.862L153.003 291.539L154.677 294.449L121.393 336.544L109.525 326.327L87.0185 352.877Z" fill="#407BFF"/>
<path d="M155.743 290.621L150.895 291.733L154.313 297.139L155.743 290.621Z" fill="#407BFF"/>
<g opacity="0.3">
<path d="M126.092 386.774H83.9658C83.7345 386.774 83.5127 386.638 83.3492 386.395C83.1856 386.153 83.0938 385.824 83.0938 385.481C83.0938 385.138 83.1856 384.809 83.3492 384.566C83.5127 384.324 83.7345 384.188 83.9658 384.188H126.092C126.323 384.188 126.545 384.324 126.709 384.566C126.872 384.809 126.964 385.138 126.964 385.481C126.964 385.824 126.872 386.153 126.709 386.395C126.545 386.638 126.323 386.774 126.092 386.774Z" fill="black"/>
</g>
<g opacity="0.3">
<path d="M158.634 398.297H89.9814C89.7501 398.297 89.5283 398.161 89.3648 397.919C89.2012 397.676 89.1094 397.347 89.1094 397.004C89.1094 396.661 89.2012 396.332 89.3648 396.09C89.5283 395.847 89.7501 395.711 89.9814 395.711H158.634C158.865 395.711 159.087 395.847 159.251 396.09C159.414 396.332 159.506 396.661 159.506 397.004C159.506 397.347 159.414 397.676 159.251 397.919C159.087 398.161 158.865 398.297 158.634 398.297Z" fill="black"/>
<path d="M158.705 404.778H83.9657C83.7345 404.778 83.5127 404.642 83.3492 404.399C83.1856 404.157 83.0938 403.828 83.0938 403.485C83.0938 403.142 83.1856 402.813 83.3492 402.57C83.5127 402.328 83.7345 402.191 83.9657 402.191H158.705C158.936 402.191 159.158 402.328 159.321 402.57C159.485 402.813 159.577 403.142 159.577 403.485C159.577 403.828 159.485 404.157 159.321 404.399C159.158 404.642 158.936 404.778 158.705 404.778Z" fill="black"/>
<path d="M158.825 411.254H84.0595C83.8282 411.254 83.6064 411.118 83.4429 410.876C83.2794 410.633 83.1875 410.304 83.1875 409.961C83.1875 409.618 83.2794 409.289 83.4429 409.047C83.6064 408.804 83.8282 408.668 84.0595 408.668H158.825C159.056 408.668 159.278 408.804 159.441 409.047C159.605 409.289 159.697 409.618 159.697 409.961C159.697 410.304 159.605 410.633 159.441 410.876C159.278 411.118 159.056 411.254 158.825 411.254Z" fill="black"/>
<path d="M146.706 417.735H84.1572C83.9259 417.735 83.7041 417.599 83.5406 417.356C83.377 417.114 83.2852 416.785 83.2852 416.442C83.2852 416.099 83.377 415.77 83.5406 415.527C83.7041 415.285 83.9259 415.148 84.1572 415.148H146.706C146.937 415.148 147.159 415.285 147.322 415.527C147.486 415.77 147.578 416.099 147.578 416.442C147.578 416.785 147.486 417.114 147.322 417.356C147.159 417.599 146.937 417.735 146.706 417.735Z" fill="black"/>
</g>
<g opacity="0.3">
<path d="M158.634 429.36H89.9814C89.7501 429.36 89.5283 429.224 89.3648 428.981C89.2012 428.739 89.1094 428.41 89.1094 428.067C89.1094 427.724 89.2012 427.395 89.3648 427.152C89.5283 426.91 89.7501 426.773 89.9814 426.773H158.634C158.865 426.773 159.087 426.91 159.251 427.152C159.414 427.395 159.506 427.724 159.506 428.067C159.506 428.41 159.414 428.739 159.251 428.981C159.087 429.224 158.865 429.36 158.634 429.36Z" fill="black"/>
<path d="M158.705 435.84H83.9657C83.7345 435.84 83.5127 435.704 83.3492 435.462C83.1856 435.219 83.0938 434.89 83.0938 434.547C83.0938 434.204 83.1856 433.875 83.3492 433.633C83.5127 433.39 83.7345 433.254 83.9657 433.254H158.705C158.936 433.254 159.158 433.39 159.321 433.633C159.485 433.875 159.577 434.204 159.577 434.547C159.577 434.89 159.485 435.219 159.321 435.462C159.158 435.704 158.936 435.84 158.705 435.84Z" fill="black"/>
<path d="M158.825 442.383H84.0595C83.8282 442.383 83.6064 442.247 83.4429 442.005C83.2794 441.762 83.1875 441.433 83.1875 441.09C83.1875 440.747 83.2794 440.418 83.4429 440.176C83.6064 439.933 83.8282 439.797 84.0595 439.797H158.825C159.056 439.797 159.278 439.933 159.441 440.176C159.605 440.418 159.697 440.747 159.697 441.09C159.697 441.433 159.605 441.762 159.441 442.005C159.278 442.247 159.056 442.383 158.825 442.383Z" fill="black"/>
<path d="M146.706 448.848H84.1572C83.9259 448.848 83.7041 448.712 83.5406 448.469C83.377 448.227 83.2852 447.898 83.2852 447.555C83.2852 447.212 83.377 446.883 83.5406 446.641C83.7041 446.398 83.9259 446.262 84.1572 446.262H146.706C146.937 446.262 147.159 446.398 147.322 446.641C147.486 446.883 147.578 447.212 147.578 447.555C147.578 447.898 147.486 448.227 147.322 448.469C147.159 448.712 146.937 448.848 146.706 448.848Z" fill="black"/>
</g>
<g opacity="0.3">
<path d="M126.092 279.333H83.9658C83.7345 279.333 83.5127 279.196 83.3492 278.954C83.1856 278.711 83.0938 278.382 83.0938 278.039C83.0938 277.696 83.1856 277.367 83.3492 277.125C83.5127 276.882 83.7345 276.746 83.9658 276.746H126.092C126.323 276.746 126.545 276.882 126.709 277.125C126.872 277.367 126.964 277.696 126.964 278.039C126.964 278.382 126.872 278.711 126.709 278.954C126.545 279.196 126.323 279.333 126.092 279.333Z" fill="black"/>
</g>
<path d="M357.903 150.422H257.771C256.105 150.422 254.754 152.425 254.754 154.896V400.223C254.754 402.694 256.105 404.697 257.771 404.697H357.903C359.569 404.697 360.92 402.694 360.92 400.223V154.896C360.92 152.425 359.569 150.422 357.903 150.422Z" fill="#407BFF"/>
<path d="M279.77 149.207H335.909C336.057 149.207 336.199 149.294 336.304 149.45C336.409 149.605 336.467 149.815 336.467 150.035V158.363H279.203V150.035C279.203 149.925 279.218 149.816 279.246 149.715C279.275 149.614 279.317 149.522 279.37 149.445C279.422 149.368 279.485 149.307 279.554 149.266C279.622 149.226 279.696 149.205 279.77 149.207Z" fill="#263238"/>
<path opacity="0.9" d="M356.726 158.363H258.957V396.719H356.726V158.363Z" fill="white"/>
<path d="M326.997 169.33H309.81L309.609 168.438C309.488 167.885 309.251 167.404 308.934 167.063C308.617 166.721 308.235 166.537 307.843 166.537C307.451 166.537 307.07 166.721 306.752 167.063C306.435 167.404 306.199 167.885 306.078 168.438L305.877 169.33H288.672C288.006 169.33 287.366 168.938 286.894 168.24C286.421 167.542 286.155 166.595 286.152 165.606V156.217C286.157 155.229 286.424 154.283 286.896 153.586C287.368 152.889 288.006 152.496 288.672 152.492H327.04C327.706 152.496 328.343 152.889 328.814 153.587C329.284 154.285 329.549 155.23 329.552 156.217V165.631C329.55 166.124 329.481 166.611 329.351 167.064C329.222 167.517 329.032 167.927 328.795 168.271C328.557 168.615 328.276 168.886 327.967 169.068C327.659 169.25 327.329 169.339 326.997 169.33ZM311.004 166.744H326.997C327.098 166.745 327.198 166.717 327.292 166.661C327.385 166.604 327.471 166.52 327.542 166.414C327.614 166.308 327.67 166.182 327.708 166.043C327.746 165.904 327.765 165.756 327.764 165.606V156.217C327.764 155.915 327.683 155.625 327.539 155.412C327.396 155.199 327.2 155.079 326.997 155.079H288.629C288.527 155.077 288.427 155.105 288.332 155.162C288.238 155.218 288.153 155.302 288.081 155.407C288.008 155.513 287.951 155.639 287.912 155.778C287.873 155.917 287.853 156.066 287.853 156.217V165.631C287.853 165.782 287.873 165.931 287.912 166.07C287.951 166.209 288.008 166.335 288.081 166.441C288.153 166.547 288.238 166.63 288.332 166.687C288.427 166.743 288.527 166.771 288.629 166.769H304.674C304.982 165.921 305.44 165.213 305.998 164.719C306.556 164.225 307.193 163.964 307.843 163.964C308.493 163.964 309.131 164.225 309.689 164.719C310.247 165.213 310.705 165.921 311.013 166.769L311.004 166.744Z" fill="#263238"/>
<g opacity="0.5">
<path d="M327.001 169.33H309.814L309.613 168.438C309.492 167.885 309.255 167.404 308.938 167.063C308.621 166.721 308.239 166.537 307.847 166.537C307.455 166.537 307.074 166.721 306.756 167.063C306.439 167.404 306.203 167.885 306.081 168.438L305.881 169.33H288.676C288.009 169.33 287.37 168.938 286.897 168.24C286.425 167.542 286.159 166.595 286.156 165.606V156.217C286.161 155.229 286.428 154.283 286.9 153.586C287.372 152.889 288.01 152.496 288.676 152.492H327.044C327.71 152.496 328.347 152.889 328.818 153.587C329.288 154.285 329.553 155.23 329.556 156.217V165.631C329.553 166.124 329.485 166.611 329.355 167.064C329.225 167.517 329.036 167.927 328.799 168.271C328.561 168.615 328.28 168.886 327.971 169.068C327.663 169.25 327.333 169.339 327.001 169.33ZM311.008 166.744H327.001C327.102 166.745 327.202 166.717 327.296 166.661C327.389 166.604 327.474 166.52 327.546 166.414C327.617 166.308 327.674 166.182 327.712 166.043C327.75 165.904 327.769 165.756 327.768 165.606V156.217C327.768 155.915 327.687 155.625 327.543 155.412C327.399 155.199 327.204 155.079 327.001 155.079H288.633C288.531 155.077 288.43 155.105 288.336 155.162C288.242 155.218 288.157 155.302 288.084 155.407C288.012 155.513 287.955 155.639 287.916 155.778C287.877 155.917 287.857 156.066 287.857 156.217V165.631C287.857 165.782 287.877 165.931 287.916 166.07C287.955 166.209 288.012 166.335 288.084 166.441C288.157 166.547 288.242 166.63 288.336 166.687C288.43 166.743 288.531 166.771 288.633 166.769H304.678C304.986 165.921 305.444 165.213 306.002 164.719C306.56 164.225 307.197 163.964 307.847 163.964C308.497 163.964 309.135 164.225 309.693 164.719C310.251 165.213 310.708 165.921 311.017 166.769L311.008 166.744Z" fill="white"/>
</g>
<path d="M324.315 150.992H291.371C290.894 150.992 290.508 151.565 290.508 152.272V155.337C290.508 156.045 290.894 156.618 291.371 156.618H324.315C324.792 156.618 325.179 156.045 325.179 155.337V152.272C325.179 151.565 324.792 150.992 324.315 150.992Z" fill="#263238"/>
<path opacity="0.2" d="M324.315 150.992H291.371C290.894 150.992 290.508 151.565 290.508 152.272V155.337C290.508 156.045 290.894 156.618 291.371 156.618H324.315C324.792 156.618 325.179 156.045 325.179 155.337V152.272C325.179 151.565 324.792 150.992 324.315 150.992Z" fill="white"/>
<path d="M349.082 358.047C351.436 343.254 345.258 328.432 335.284 324.941C325.31 321.45 315.316 330.611 312.962 345.403C310.608 360.196 316.785 375.018 326.759 378.509C336.733 382 346.728 372.839 349.082 358.047Z" fill="#407BFF"/>
<path opacity="0.3" d="M331.029 351.754H349.585C349.585 357.197 348.497 362.518 346.458 367.044C344.419 371.569 341.521 375.097 338.13 377.18C334.739 379.262 331.008 379.807 327.409 378.746C323.809 377.684 320.503 375.063 317.908 371.214C315.312 367.365 313.545 362.462 312.829 357.123C312.113 351.785 312.481 346.252 313.885 341.223C315.29 336.194 317.668 331.896 320.72 328.872C323.771 325.848 327.359 324.234 331.029 324.234H331.099L331.029 351.754Z" fill="white"/>
<path opacity="0.3" d="M331.028 351.754L341.038 374.916C338.611 377.226 335.855 378.665 332.988 379.119C330.121 379.573 327.222 379.03 324.521 377.533C321.82 376.036 319.391 373.626 317.428 370.494C315.464 367.362 314.02 363.595 313.209 359.491C312.399 355.387 312.244 351.059 312.758 346.851C313.272 342.643 314.439 338.671 316.169 335.249C317.898 331.827 320.142 329.05 322.721 327.138C325.3 325.226 328.144 324.232 331.028 324.234H331.089L331.028 351.754Z" fill="white"/>
<path opacity="0.3" d="M331.03 351.754L315.386 366.549C313.598 362.389 312.597 357.593 312.487 352.663C312.377 347.733 313.163 342.849 314.762 338.524C316.361 334.198 318.715 330.59 321.577 328.076C324.439 325.562 327.704 324.235 331.03 324.234H331.091L331.03 351.754Z" fill="white"/>
<g opacity="0.5">
<path d="M266.004 201.055V266.001H349.716V201.055H266.004ZM349.027 211.194H334.543V202.025H349.027V211.194ZM302.767 211.194H287.856V202.025H302.767V211.194ZM303.421 202.025H318.324V211.194H303.456L303.421 202.025ZM302.767 212.164V265.031H287.856V212.189L302.767 212.164ZM303.421 212.164H318.324V265.031H303.456L303.421 212.164ZM318.978 212.164H333.889V265.031H318.978V212.164ZM318.978 211.194V202.025H333.889V211.194H318.978ZM287.202 202.025V211.194H266.658V202.025H287.202ZM266.658 212.189H287.202V265.057H266.658V212.189ZM334.543 265.057V212.189H349.027V265.057H334.543Z" fill="black"/>
<path d="M292.606 221.243H298.641C298.872 221.243 299.094 221.106 299.257 220.864C299.421 220.621 299.513 220.292 299.513 219.949C299.513 219.606 299.421 219.278 299.257 219.035C299.094 218.793 298.872 218.656 298.641 218.656H292.606C292.375 218.656 292.153 218.793 291.99 219.035C291.826 219.278 291.734 219.606 291.734 219.949C291.734 220.292 291.826 220.621 291.99 220.864C292.153 221.106 292.375 221.243 292.606 221.243Z" fill="black"/>
<path d="M307.817 232.973H314.366C314.597 232.973 314.819 232.837 314.983 232.594C315.146 232.352 315.238 232.023 315.238 231.68C315.238 231.337 315.146 231.008 314.983 230.765C314.819 230.523 314.597 230.387 314.366 230.387H307.817C307.586 230.387 307.364 230.523 307.201 230.765C307.037 231.008 306.945 231.337 306.945 231.68C306.945 232.023 307.037 232.352 307.201 232.594C307.364 232.837 307.586 232.973 307.817 232.973Z" fill="black"/>
<path d="M314.68 253.855H307.817C307.586 253.855 307.364 253.992 307.201 254.234C307.037 254.477 306.945 254.806 306.945 255.149C306.945 255.492 307.037 255.821 307.201 256.063C307.364 256.306 307.586 256.442 307.817 256.442H314.654C314.885 256.442 315.107 256.306 315.27 256.063C315.434 255.821 315.526 255.492 315.526 255.149C315.526 254.806 315.434 254.477 315.27 254.234C315.107 253.992 314.885 253.855 314.654 253.855H314.68Z" fill="black"/>
<path d="M329.853 242.113H322.642C322.41 242.113 322.188 242.25 322.025 242.492C321.861 242.735 321.77 243.064 321.77 243.407C321.77 243.75 321.861 244.078 322.025 244.321C322.188 244.563 322.41 244.7 322.642 244.7H329.87C330.102 244.7 330.323 244.563 330.487 244.321C330.651 244.078 330.742 243.75 330.742 243.407C330.742 243.064 330.651 242.735 330.487 242.492C330.323 242.25 330.102 242.113 329.87 242.113H329.853Z" fill="black"/>
<path d="M345.451 218.656H338.126C337.895 218.656 337.673 218.793 337.509 219.035C337.346 219.278 337.254 219.606 337.254 219.949C337.254 220.292 337.346 220.621 337.509 220.864C337.673 221.106 337.895 221.243 338.126 221.243H345.451C345.682 221.243 345.904 221.106 346.067 220.864C346.231 220.621 346.323 220.292 346.323 219.949C346.323 219.606 346.231 219.278 346.067 219.035C345.904 218.793 345.682 218.656 345.451 218.656Z" fill="black"/>
<path d="M344.509 253.855H338.126C337.895 253.855 337.673 253.992 337.509 254.234C337.346 254.477 337.254 254.806 337.254 255.149C337.254 255.492 337.346 255.821 337.509 256.063C337.673 256.306 337.895 256.442 338.126 256.442H344.509C344.74 256.442 344.962 256.306 345.126 256.063C345.289 255.821 345.381 255.492 345.381 255.149C345.381 254.806 345.289 254.477 345.126 254.234C344.962 253.992 344.74 253.855 344.509 253.855Z" fill="black"/>
<path d="M292.606 244.7H297.777C298.009 244.7 298.23 244.563 298.394 244.321C298.557 244.078 298.649 243.75 298.649 243.407C298.649 243.064 298.557 242.735 298.394 242.492C298.23 242.25 298.009 242.113 297.777 242.113H292.606C292.375 242.113 292.153 242.25 291.99 242.492C291.826 242.735 291.734 243.064 291.734 243.407C291.734 243.75 291.826 244.078 291.99 244.321C292.153 244.563 292.375 244.7 292.606 244.7Z" fill="black"/>
<path d="M298.641 253.855H292.606C292.375 253.855 292.153 253.992 291.99 254.234C291.826 254.477 291.734 254.806 291.734 255.149C291.734 255.492 291.826 255.821 291.99 256.063C292.153 256.306 292.375 256.442 292.606 256.442H298.641C298.872 256.442 299.094 256.306 299.257 256.063C299.421 255.821 299.513 255.492 299.513 255.149C299.513 254.806 299.421 254.477 299.257 254.234C299.094 253.992 298.872 253.855 298.641 253.855Z" fill="black"/>
<path d="M269.806 221.243H283.601C283.832 221.243 284.054 221.106 284.217 220.864C284.381 220.621 284.473 220.292 284.473 219.949C284.473 219.606 284.381 219.278 284.217 219.035C284.054 218.793 283.832 218.656 283.601 218.656H269.806C269.574 218.656 269.353 218.793 269.189 219.035C269.025 219.278 268.934 219.606 268.934 219.949C268.934 220.292 269.025 220.621 269.189 220.864C269.353 221.106 269.574 221.243 269.806 221.243Z" fill="black"/>
<path d="M269.806 232.973H278.988C279.219 232.973 279.441 232.837 279.604 232.594C279.768 232.352 279.86 232.023 279.86 231.68C279.86 231.337 279.768 231.008 279.604 230.765C279.441 230.523 279.219 230.387 278.988 230.387H269.806C269.574 230.387 269.353 230.523 269.189 230.765C269.025 231.008 268.934 231.337 268.934 231.68C268.934 232.023 269.025 232.352 269.189 232.594C269.353 232.837 269.574 232.973 269.806 232.973Z" fill="black"/>
<path d="M283.601 242.113H269.806C269.574 242.113 269.353 242.25 269.189 242.492C269.025 242.735 268.934 243.064 268.934 243.407C268.934 243.75 269.025 244.078 269.189 244.321C269.353 244.563 269.574 244.7 269.806 244.7H283.601C283.832 244.7 284.054 244.563 284.217 244.321C284.381 244.078 284.473 243.75 284.473 243.407C284.473 243.064 284.381 242.735 284.217 242.492C284.054 242.25 283.832 242.113 283.601 242.113Z" fill="black"/>
<path d="M276.703 253.855H269.806C269.574 253.855 269.353 253.992 269.189 254.234C269.025 254.477 268.934 254.806 268.934 255.149C268.934 255.492 269.025 255.821 269.189 256.063C269.353 256.306 269.574 256.442 269.806 256.442H276.703C276.934 256.442 277.156 256.306 277.32 256.063C277.483 255.821 277.575 255.492 277.575 255.149C277.575 254.806 277.483 254.477 277.32 254.234C277.156 253.992 276.934 253.855 276.703 253.855Z" fill="black"/>
</g>
<g opacity="0.5">
<path d="M299.524 187.434H266.876C266.645 187.434 266.423 187.298 266.259 187.055C266.096 186.813 266.004 186.484 266.004 186.141C266.004 185.798 266.096 185.469 266.259 185.226C266.423 184.984 266.645 184.848 266.876 184.848H299.524C299.755 184.848 299.977 184.984 300.14 185.226C300.304 185.469 300.396 185.798 300.396 186.141C300.396 186.484 300.304 186.813 300.14 187.055C299.977 187.298 299.755 187.434 299.524 187.434Z" fill="black"/>
</g>
<g opacity="0.5">
<path d="M288.074 194.692H266.876C266.645 194.692 266.423 194.556 266.259 194.313C266.096 194.071 266.004 193.742 266.004 193.399C266.004 193.056 266.096 192.727 266.259 192.484C266.423 192.242 266.645 192.105 266.876 192.105H288.074C288.305 192.105 288.527 192.242 288.691 192.484C288.854 192.727 288.946 193.056 288.946 193.399C288.946 193.742 288.854 194.071 288.691 194.313C288.527 194.556 288.305 194.692 288.074 194.692Z" fill="black"/>
</g>
<g opacity="0.5">
<path d="M309.002 277.211H266.876C266.645 277.211 266.423 277.075 266.259 276.833C266.096 276.59 266.004 276.261 266.004 275.918C266.004 275.575 266.096 275.246 266.259 275.004C266.423 274.761 266.645 274.625 266.876 274.625H309.002C309.233 274.625 309.455 274.761 309.619 275.004C309.782 275.246 309.874 275.575 309.874 275.918C309.874 276.261 309.782 276.59 309.619 276.833C309.455 277.075 309.233 277.211 309.002 277.211Z" fill="black"/>
</g>
<path d="M271.21 328.477H266.004V336.197H271.21V328.477Z" fill="#407BFF"/>
<g opacity="0.5">
<path d="M300.835 333.633H274.989C274.758 333.633 274.536 333.497 274.373 333.255C274.209 333.012 274.117 332.683 274.117 332.34C274.117 331.997 274.209 331.668 274.373 331.426C274.536 331.183 274.758 331.047 274.989 331.047H300.835C301.067 331.047 301.288 331.183 301.452 331.426C301.615 331.668 301.707 331.997 301.707 332.34C301.707 332.683 301.615 333.012 301.452 333.255C301.288 333.497 301.067 333.633 300.835 333.633Z" fill="black"/>
</g>
<path d="M271.21 341.422H266.004V349.142H271.21V341.422Z" fill="#407BFF"/>
<g opacity="0.5">
<path d="M300.835 346.567H274.989C274.758 346.567 274.536 346.431 274.373 346.188C274.209 345.946 274.117 345.617 274.117 345.274C274.117 344.931 274.209 344.602 274.373 344.359C274.536 344.117 274.758 343.98 274.989 343.98H300.835C301.067 343.98 301.288 344.117 301.452 344.359C301.615 344.602 301.707 344.931 301.707 345.274C301.707 345.617 301.615 345.946 301.452 346.188C301.288 346.431 301.067 346.567 300.835 346.567Z" fill="black"/>
</g>
<path d="M271.21 354.352H266.004V362.072H271.21V354.352Z" fill="#407BFF"/>
<g opacity="0.5">
<path d="M300.835 359.512H274.989C274.758 359.512 274.536 359.376 274.373 359.133C274.209 358.891 274.117 358.562 274.117 358.219C274.117 357.876 274.209 357.547 274.373 357.305C274.536 357.062 274.758 356.926 274.989 356.926H300.835C301.067 356.926 301.288 357.062 301.452 357.305C301.615 357.547 301.707 357.876 301.707 358.219C301.707 358.562 301.615 358.891 301.452 359.133C301.288 359.376 301.067 359.512 300.835 359.512Z" fill="black"/>
</g>
<path d="M271.21 367.297H266.004V375.017H271.21V367.297Z" fill="#407BFF"/>
<g opacity="0.5">
<path d="M300.835 372.458H274.989C274.758 372.458 274.536 372.321 274.373 372.079C274.209 371.836 274.117 371.507 274.117 371.164C274.117 370.821 274.209 370.492 274.373 370.25C274.536 370.007 274.758 369.871 274.989 369.871H300.835C301.067 369.871 301.288 370.007 301.452 370.25C301.615 370.492 301.707 370.821 301.707 371.164C301.707 371.507 301.615 371.836 301.452 372.079C301.288 372.321 301.067 372.458 300.835 372.458Z" fill="black"/>
</g>
<g opacity="0.5">
<path d="M348.521 288.774H272.884C272.652 288.774 272.431 288.638 272.267 288.395C272.104 288.153 272.012 287.824 272.012 287.481C272.012 287.138 272.104 286.809 272.267 286.566C272.431 286.324 272.652 286.188 272.884 286.188H348.521C348.752 286.188 348.974 286.324 349.138 286.566C349.301 286.809 349.393 287.138 349.393 287.481C349.393 287.824 349.301 288.153 349.138 288.395C348.974 288.638 348.752 288.774 348.521 288.774Z" fill="black"/>
<path d="M348.617 295.254H266.876C266.645 295.254 266.423 295.118 266.259 294.876C266.096 294.633 266.004 294.304 266.004 293.961C266.004 293.618 266.096 293.289 266.259 293.047C266.423 292.804 266.645 292.668 266.876 292.668H348.617C348.848 292.668 349.07 292.804 349.234 293.047C349.397 293.289 349.489 293.618 349.489 293.961C349.489 294.304 349.397 294.633 349.234 294.876C349.07 295.118 348.848 295.254 348.617 295.254Z" fill="black"/>
<path d="M348.711 301.731H266.97C266.738 301.731 266.517 301.595 266.353 301.352C266.19 301.11 266.098 300.781 266.098 300.438C266.098 300.095 266.19 299.766 266.353 299.523C266.517 299.281 266.738 299.145 266.97 299.145H348.711C348.942 299.145 349.164 299.281 349.328 299.523C349.491 299.766 349.583 300.095 349.583 300.438C349.583 300.781 349.491 301.11 349.328 301.352C349.164 301.595 348.942 301.731 348.711 301.731Z" fill="black"/>
<path d="M336.592 308.211H267.067C266.836 308.211 266.614 308.075 266.451 307.833C266.287 307.59 266.195 307.261 266.195 306.918C266.195 306.575 266.287 306.246 266.451 306.004C266.614 305.761 266.836 305.625 267.067 305.625H336.592C336.823 305.625 337.045 305.761 337.208 306.004C337.372 306.246 337.464 306.575 337.464 306.918C337.464 307.261 337.372 307.59 337.208 307.833C337.045 308.075 336.823 308.211 336.592 308.211Z" fill="black"/>
</g>
<path opacity="0.3" d="M271.21 341.422H266.004V349.142H271.21V341.422Z" fill="white"/>
<path opacity="0.5" d="M271.21 354.352H266.004V362.072H271.21V354.352Z" fill="white"/>
<path opacity="0.7" d="M271.21 367.297H266.004V375.017H271.21V367.297Z" fill="white"/>
<path d="M355.259 437.535C355.259 437.535 351.117 424.137 355.852 410.92C360.587 397.703 361.956 394.6 358.939 391.897C355.922 389.194 354.535 402.463 354.535 402.463C353.043 396.459 352.89 389.904 354.099 383.762C356.192 374.205 357.509 358.635 354.649 356.967C351.789 355.298 354.099 376.365 351.606 383.581C350.341 378.53 349.523 373.257 349.173 367.894C348.833 360.225 349.364 347.966 347.106 344.823C344.848 341.681 343.391 343.853 345.615 360.795C346.951 370.918 347.69 381.195 347.821 391.509C347.821 391.509 342.912 369.278 339.607 368.632C336.302 367.985 336.311 375.188 339.136 381.435C341.961 387.681 347.411 398.854 348.301 404.609C348.301 404.609 342.903 387.888 338.055 392.97C333.206 398.053 342.275 408.204 346.321 411.851C350.367 415.498 353.158 438.427 353.158 438.427L355.259 437.535Z" fill="#FFBB00"/>
<path opacity="0.2" d="M355.259 437.535C355.259 437.535 351.117 424.137 355.852 410.92C360.587 397.703 361.956 394.6 358.939 391.897C355.922 389.194 354.535 402.463 354.535 402.463C353.043 396.459 352.89 389.904 354.099 383.762C356.192 374.205 357.509 358.635 354.649 356.967C351.789 355.298 354.099 376.365 351.606 383.581C350.341 378.53 349.523 373.257 349.173 367.894C348.833 360.225 349.364 347.966 347.106 344.823C344.848 341.681 343.391 343.853 345.615 360.795C346.951 370.918 347.69 381.195 347.821 391.509C347.821 391.509 342.912 369.278 339.607 368.632C336.302 367.985 336.311 375.188 339.136 381.435C341.961 387.681 347.411 398.854 348.301 404.609C348.301 404.609 342.903 387.888 338.055 392.97C333.206 398.053 342.275 408.204 346.321 411.851C350.367 415.498 353.158 438.427 353.158 438.427L355.259 437.535Z" fill="black"/>
<path d="M351.99 443.03C351.99 443.03 356.028 429.541 351.188 416.441C346.348 403.34 344.953 400.25 347.944 397.469C350.935 394.689 352.435 407.944 352.435 407.944C353.88 401.918 353.981 395.362 352.723 389.244C350.552 379.726 349.104 364.194 351.955 362.461C354.807 360.728 352.662 381.86 355.208 388.999C356.434 383.927 357.21 378.641 357.519 373.273C357.798 365.578 357.161 353.331 359.402 350.137C361.643 346.943 363.108 349.089 361.016 366.082C359.762 376.234 359.109 386.528 359.062 396.848C359.062 396.848 363.797 374.514 367.111 373.842C370.424 373.169 370.459 380.308 367.686 386.619C364.913 392.93 359.559 404.233 358.713 410.001C358.713 410.001 363.945 393.189 368.864 398.18C373.782 403.172 364.765 413.505 360.754 417.243C356.743 420.98 354.109 443.922 354.109 443.922L351.99 443.03Z" fill="#FFBB00"/>
<path d="M370.6 433.422H337.281L339.976 468.779H367.897L370.6 433.422Z" fill="#263238"/>
<path d="M169.393 130.156H194.454C196.499 130.156 198.459 131.361 199.905 133.505C201.351 135.649 202.163 138.556 202.163 141.588V173.919C202.163 176.951 201.351 179.859 199.905 182.003C198.459 184.147 196.499 185.351 194.454 185.351H187.129L189.745 199.448L181.897 185.351H169.393C168.38 185.353 167.377 185.059 166.44 184.485C165.504 183.911 164.653 183.069 163.937 182.008C163.22 180.946 162.651 179.685 162.263 178.297C161.875 176.909 161.676 175.422 161.676 173.919V141.588C161.676 140.086 161.875 138.598 162.263 137.211C162.651 135.823 163.22 134.562 163.937 133.5C164.653 132.438 165.504 131.597 166.44 131.023C167.377 130.449 168.38 130.155 169.393 130.156Z" fill="#407BFF"/>
<path opacity="0.7" d="M169.393 130.156H194.454C196.499 130.156 198.459 131.361 199.905 133.505C201.351 135.649 202.163 138.556 202.163 141.588V173.919C202.163 176.951 201.351 179.859 199.905 182.003C198.459 184.147 196.499 185.351 194.454 185.351H187.129L189.745 199.448L181.897 185.351H169.393C168.38 185.353 167.377 185.059 166.44 184.485C165.504 183.911 164.653 183.069 163.937 182.008C163.22 180.946 162.651 179.685 162.263 178.297C161.875 176.909 161.676 175.422 161.676 173.919V141.588C161.676 140.086 161.875 138.598 162.263 137.211C162.651 135.823 163.22 134.562 163.937 133.5C164.653 132.438 165.504 131.597 166.44 131.023C167.377 130.449 168.38 130.155 169.393 130.156Z" fill="white"/>
<path opacity="0.7" d="M178.133 164.801C182.443 164.801 185.937 159.619 185.937 153.227C185.937 146.834 182.443 141.652 178.133 141.652C173.822 141.652 170.328 146.834 170.328 153.227C170.328 159.619 173.822 164.801 178.133 164.801Z" fill="white"/>
<path d="M178.133 166.47C176.067 166.467 174.066 165.403 172.471 163.458C170.875 161.513 169.783 158.808 169.381 155.803C168.98 152.798 169.293 149.68 170.267 146.979C171.242 144.278 172.818 142.162 174.726 140.991C176.635 139.819 178.758 139.666 180.734 140.556C182.711 141.445 184.418 143.324 185.565 145.871C186.713 148.418 187.229 151.477 187.026 154.525C186.824 157.574 185.915 160.424 184.455 162.59C183.625 163.823 182.64 164.8 181.555 165.466C180.47 166.131 179.307 166.473 178.133 166.47ZM178.133 143.334C176.59 143.334 175.094 144.128 173.901 145.581C172.708 147.033 171.892 149.054 171.591 151.299C171.29 153.543 171.524 155.874 172.251 157.892C172.979 159.91 174.156 161.492 175.582 162.368C177.008 163.243 178.594 163.359 180.071 162.694C181.548 162.029 182.824 160.626 183.681 158.722C184.538 156.819 184.924 154.534 184.773 152.256C184.621 149.978 183.942 147.849 182.85 146.231C182.233 145.309 181.497 144.578 180.688 144.08C179.878 143.583 179.009 143.329 178.133 143.334Z" fill="#407BFF"/>
<path d="M184.455 160.224L182.852 162.602L191.749 175.797L193.352 173.42L184.455 160.224Z" fill="#407BFF"/>
<path d="M193.504 178.56C193.054 178.554 192.623 178.29 192.301 177.823L185.508 167.749C185.338 167.519 185.202 167.241 185.106 166.931C185.011 166.621 184.959 166.286 184.954 165.946C184.948 165.605 184.989 165.266 185.074 164.95C185.159 164.634 185.287 164.346 185.449 164.105C185.611 163.864 185.804 163.674 186.017 163.546C186.23 163.419 186.459 163.357 186.688 163.364C186.918 163.371 187.144 163.447 187.353 163.587C187.563 163.727 187.751 163.929 187.906 164.179L194.708 174.267C194.943 174.62 195.102 175.068 195.166 175.556C195.231 176.043 195.196 176.548 195.068 177.006C194.939 177.465 194.722 177.857 194.444 178.133C194.166 178.41 193.839 178.558 193.504 178.56Z" fill="#407BFF"/>
<path d="M179.343 147.989C179.343 148.5 179.241 149 179.05 149.426C178.858 149.851 178.586 150.183 178.267 150.378C177.948 150.574 177.598 150.625 177.259 150.526C176.921 150.426 176.61 150.179 176.366 149.818C176.122 149.456 175.956 148.995 175.889 148.493C175.822 147.992 175.856 147.472 175.988 146.999C176.12 146.526 176.344 146.122 176.631 145.838C176.917 145.554 177.255 145.402 177.599 145.402C178.062 145.402 178.506 145.675 178.833 146.16C179.16 146.645 179.343 147.303 179.343 147.989Z" fill="white"/>
<path d="M181.932 149.879C181.932 150.135 181.88 150.385 181.785 150.598C181.689 150.81 181.553 150.976 181.393 151.074C181.234 151.172 181.059 151.197 180.889 151.148C180.72 151.098 180.565 150.974 180.443 150.794C180.321 150.613 180.238 150.382 180.204 150.131C180.171 149.881 180.188 149.621 180.254 149.384C180.32 149.148 180.432 148.946 180.575 148.804C180.718 148.662 180.887 148.586 181.06 148.586C181.291 148.586 181.513 148.722 181.676 148.965C181.84 149.207 181.932 149.536 181.932 149.879Z" fill="white"/>
<path d="M251.817 367.969H121.941V398.968H251.817V367.969Z" fill="#407BFF"/>
<path opacity="0.8" d="M251.817 367.969H121.941V398.968H251.817V367.969Z" fill="white"/>
<path opacity="0.2" d="M251.816 376.166V373.645L162.898 374.692L251.816 376.166Z" fill="black"/>
<path opacity="0.2" d="M251.815 387.031V385.078L211.895 387.199L251.815 387.031Z" fill="black"/>
<path opacity="0.2" d="M251.815 394.299V391.777L187.453 393.239L251.815 394.299Z" fill="black"/>
<path opacity="0.2" d="M150.979 367.969L149.113 391.079L151.337 387.561C152.084 391.78 153.481 395.685 155.418 398.968C156.807 396.269 157.912 393.273 158.697 390.083L219.353 389.048L159.272 387.096C159.459 385.821 159.555 384.521 159.56 383.216C159.557 382.135 159.487 381.057 159.351 379.996L248.347 379.66L159.141 378.625C158.827 376.884 158.389 375.197 157.833 373.594C159.116 371.916 160.77 370.996 162.481 371.008H251.817V367.969H150.979Z" fill="black"/>
<path d="M152.982 383.296C152.989 387.012 153.988 390.572 155.762 393.197C157.535 395.822 159.937 397.298 162.443 397.301H253.314C253.406 397.301 253.496 397.328 253.581 397.38C253.666 397.432 253.743 397.508 253.807 397.604C253.872 397.701 253.924 397.815 253.959 397.94C253.994 398.066 254.012 398.2 254.012 398.336V399.448C254.012 399.723 253.938 399.986 253.807 400.18C253.677 400.374 253.499 400.483 253.314 400.483H119.078C117.547 400.483 116.031 400.033 114.618 399.16C113.205 398.287 111.922 397.007 110.844 395.395C109.765 393.783 108.913 391.87 108.336 389.766C107.759 387.663 107.468 385.411 107.481 383.141C107.556 378.551 108.846 374.189 111.071 370.998C113.297 367.806 116.279 366.041 119.375 366.083H253.314C253.499 366.083 253.677 366.192 253.807 366.386C253.938 366.58 254.012 366.843 254.012 367.117V368.217C254.012 368.491 253.938 368.754 253.807 368.948C253.677 369.142 253.499 369.251 253.314 369.251H162.722C160.184 369.243 157.744 370.708 155.924 373.332C154.104 375.956 153.048 379.532 152.982 383.296Z" fill="#407BFF"/>
<path opacity="0.4" d="M152.982 383.296C152.989 387.012 153.988 390.572 155.762 393.197C157.535 395.822 159.937 397.298 162.443 397.301H253.314C253.406 397.301 253.496 397.328 253.581 397.38C253.666 397.432 253.743 397.508 253.807 397.604C253.872 397.701 253.924 397.815 253.959 397.94C253.994 398.066 254.012 398.2 254.012 398.336V399.448C254.012 399.723 253.938 399.986 253.807 400.18C253.677 400.374 253.499 400.483 253.314 400.483H119.078C117.547 400.483 116.031 400.033 114.618 399.16C113.205 398.287 111.922 397.007 110.844 395.395C109.765 393.783 108.913 391.87 108.336 389.766C107.759 387.663 107.468 385.411 107.481 383.141C107.556 378.551 108.846 374.189 111.071 370.998C113.297 367.806 116.279 366.041 119.375 366.083H253.314C253.499 366.083 253.677 366.192 253.807 366.386C253.938 366.58 254.012 366.843 254.012 367.117V368.217C254.012 368.491 253.938 368.754 253.807 368.948C253.677 369.142 253.499 369.251 253.314 369.251H162.722C160.184 369.243 157.744 370.708 155.924 373.332C154.104 375.956 153.048 379.532 152.982 383.296Z" fill="white"/>
<path d="M152.985 383.295C152.992 387.011 153.991 390.572 155.765 393.197C157.538 395.822 159.941 397.298 162.446 397.301H253.317C253.409 397.301 253.5 397.328 253.584 397.38C253.669 397.432 253.746 397.508 253.811 397.604C253.875 397.7 253.927 397.814 253.962 397.94C253.997 398.065 254.015 398.2 254.015 398.336V399.448C254.015 399.722 253.941 399.985 253.811 400.179C253.68 400.373 253.502 400.482 253.317 400.482H161.923C160.392 400.481 158.876 400.03 157.463 399.156C156.049 398.283 154.766 397.003 153.688 395.391C152.609 393.78 151.756 391.867 151.177 389.765C150.599 387.662 150.306 385.411 150.317 383.14C150.397 378.557 151.685 374.203 153.906 371.014C156.127 367.824 159.102 366.054 162.193 366.082H253.317C253.502 366.082 253.68 366.191 253.811 366.385C253.941 366.579 254.015 366.843 254.015 367.117V368.216C254.015 368.491 253.941 368.754 253.811 368.948C253.68 369.142 253.502 369.251 253.317 369.251H162.725C160.187 369.243 157.747 370.707 155.927 373.332C154.107 375.956 153.051 379.532 152.985 383.295Z" fill="#407BFF"/>
<path d="M170.09 374.941V387.369L173.124 382.869L176.063 387.227V374.941H170.09Z" fill="#263238"/>
<path opacity="0.6" d="M152.985 383.295C152.992 387.011 153.991 390.572 155.765 393.197C157.538 395.822 159.941 397.298 162.446 397.301H253.317C253.409 397.301 253.5 397.328 253.584 397.38C253.669 397.432 253.746 397.508 253.811 397.604C253.875 397.7 253.927 397.814 253.962 397.94C253.997 398.065 254.015 398.2 254.015 398.336V399.448C254.015 399.722 253.941 399.985 253.811 400.179C253.68 400.373 253.502 400.482 253.317 400.482H161.923C160.392 400.481 158.876 400.03 157.463 399.156C156.049 398.283 154.766 397.003 153.688 395.391C152.609 393.78 151.756 391.867 151.177 389.765C150.599 387.662 150.306 385.411 150.317 383.14C150.397 378.557 151.685 374.203 153.906 371.014C156.127 367.824 159.102 366.054 162.193 366.082H253.317C253.502 366.082 253.68 366.191 253.811 366.385C253.941 366.579 254.015 366.843 254.015 367.117V368.216C254.015 368.491 253.941 368.754 253.811 368.948C253.68 369.142 253.502 369.251 253.317 369.251H162.725C160.187 369.243 157.747 370.707 155.927 373.332C154.107 375.956 153.051 379.532 152.985 383.295Z" fill="white"/>
<path d="M258.087 436.277H128.211V467.276H258.087V436.277Z" fill="#407BFF"/>
<path opacity="0.7" d="M258.087 436.277H128.211V467.276H258.087V436.277Z" fill="white"/>
<path opacity="0.2" d="M258.086 444.463V441.941L169.168 443.002L258.086 444.463Z" fill="black"/>
<path opacity="0.2" d="M258.084 455.327V453.387L218.164 455.495L258.084 455.327Z" fill="black"/>
<path opacity="0.2" d="M258.085 462.595V460.086L193.723 461.534L258.085 462.595Z" fill="black"/>
<path opacity="0.2" d="M157.247 436.277L155.363 459.387L157.587 455.87C158.342 460.087 159.742 463.989 161.677 467.276C163.059 464.569 164.162 461.57 164.947 458.379L225.603 457.344L165.522 455.404C165.711 454.13 165.81 452.829 165.819 451.525C165.813 450.444 165.74 449.366 165.601 448.304L254.623 448.007L165.409 446.972C165.095 445.235 164.656 443.553 164.101 441.955C165.377 440.253 167.032 439.309 168.748 439.304H258.111V436.277H157.247Z" fill="black"/>
<path d="M159.252 451.588C159.248 453.434 159.489 455.264 159.963 456.971C160.436 458.679 161.132 460.231 162.012 461.538C162.891 462.846 163.935 463.883 165.085 464.59C166.235 465.297 167.468 465.66 168.713 465.658H259.585C259.77 465.658 259.947 465.767 260.078 465.961C260.209 466.155 260.282 466.418 260.282 466.693V467.805C260.282 468.079 260.209 468.342 260.078 468.536C259.947 468.73 259.77 468.839 259.585 468.839H118.207C116.677 468.836 115.163 468.385 113.751 467.511C112.34 466.637 111.058 465.359 109.981 463.748C108.903 462.138 108.05 460.228 107.472 458.128C106.893 456.028 106.6 453.779 106.61 451.51C106.683 446.915 107.972 442.546 110.2 439.35C112.427 436.153 115.413 434.384 118.512 434.427H259.585C259.77 434.427 259.947 434.536 260.078 434.73C260.209 434.924 260.282 435.187 260.282 435.461V436.573C260.282 436.848 260.209 437.111 260.078 437.305C259.947 437.499 259.77 437.608 259.585 437.608H168.992C166.461 437.599 164.028 439.055 162.209 441.666C160.39 444.276 159.329 447.836 159.252 451.588Z" fill="#263238"/>
<path opacity="0.2" d="M159.252 451.588C159.248 453.434 159.489 455.264 159.963 456.971C160.436 458.679 161.132 460.231 162.012 461.538C162.891 462.846 163.935 463.883 165.085 464.59C166.235 465.297 167.468 465.66 168.713 465.658H259.585C259.77 465.658 259.947 465.767 260.078 465.961C260.209 466.155 260.282 466.418 260.282 466.693V467.805C260.282 468.079 260.209 468.342 260.078 468.536C259.947 468.73 259.77 468.839 259.585 468.839H118.207C116.677 468.836 115.163 468.385 113.751 467.511C112.34 466.637 111.058 465.359 109.981 463.748C108.903 462.138 108.05 460.228 107.472 458.128C106.893 456.028 106.6 453.779 106.61 451.51C106.683 446.915 107.972 442.546 110.2 439.35C112.427 436.153 115.413 434.384 118.512 434.427H259.585C259.77 434.427 259.947 434.536 260.078 434.73C260.209 434.924 260.282 435.187 260.282 435.461V436.573C260.282 436.848 260.209 437.111 260.078 437.305C259.947 437.499 259.77 437.608 259.585 437.608H168.992C166.461 437.599 164.028 439.055 162.209 441.666C160.39 444.276 159.329 447.836 159.252 451.588Z" fill="white"/>
<path d="M159.254 451.588C159.249 453.434 159.49 455.264 159.964 456.971C160.438 458.679 161.134 460.231 162.013 461.538C162.892 462.846 163.937 463.883 165.087 464.59C166.237 465.297 167.47 465.66 168.715 465.658H259.586C259.771 465.658 259.948 465.767 260.079 465.961C260.21 466.155 260.284 466.418 260.284 466.693V467.805C260.284 468.079 260.21 468.342 260.079 468.536C259.948 468.73 259.771 468.839 259.586 468.839H168.192C166.661 468.84 165.146 468.39 163.733 467.518C162.32 466.645 161.038 465.367 159.96 463.756C158.882 462.145 158.029 460.234 157.452 458.132C156.874 456.03 156.583 453.78 156.594 451.51C156.665 446.916 157.953 442.548 160.179 439.35C162.404 436.153 165.39 434.385 168.488 434.427H259.586C259.771 434.427 259.948 434.536 260.079 434.73C260.21 434.924 260.284 435.187 260.284 435.461V436.573C260.284 436.848 260.21 437.111 260.079 437.305C259.948 437.499 259.771 437.608 259.586 437.608H168.994C166.463 437.599 164.029 439.055 162.21 441.666C160.392 444.276 159.331 447.836 159.254 451.588Z" fill="#263238"/>
<path d="M169.168 447.656V460.084L172.194 455.584L175.132 459.942V447.656H169.168Z" fill="#407BFF"/>
<path opacity="0.4" d="M159.254 451.588C159.249 453.434 159.49 455.264 159.964 456.971C160.438 458.679 161.134 460.231 162.013 461.538C162.892 462.846 163.937 463.883 165.087 464.59C166.237 465.297 167.47 465.66 168.715 465.658H259.586C259.771 465.658 259.948 465.767 260.079 465.961C260.21 466.155 260.284 466.418 260.284 466.693V467.805C260.284 468.079 260.21 468.342 260.079 468.536C259.948 468.73 259.771 468.839 259.586 468.839H168.192C166.661 468.84 165.146 468.39 163.733 467.518C162.32 466.645 161.038 465.367 159.96 463.756C158.882 462.145 158.029 460.234 157.452 458.132C156.874 456.03 156.583 453.78 156.594 451.51C156.665 446.916 157.953 442.548 160.179 439.35C162.404 436.153 165.39 434.385 168.488 434.427H259.586C259.771 434.427 259.948 434.536 260.079 434.73C260.21 434.924 260.284 435.187 260.284 435.461V436.573C260.284 436.848 260.21 437.111 260.079 437.305C259.948 437.499 259.771 437.608 259.586 437.608H168.994C166.463 437.599 164.029 439.055 162.21 441.666C160.392 444.276 159.331 447.836 159.254 451.588Z" fill="white"/>
<path d="M116.524 433.07H164.641V402.11H116.524V433.07Z" fill="#407BFF"/>
<path opacity="0.8" d="M116.524 433.07H164.641V402.11H116.524V433.07Z" fill="white"/>
<path opacity="0.2" d="M160.786 405.151H116.523V402.125H160.734L160.786 405.151Z" fill="black"/>
<path opacity="0.2" d="M160.788 407.789L120.859 409.056L160.788 410.311V407.789Z" fill="black"/>
<path opacity="0.2" d="M160.787 419.234L118.504 420.295L160.787 421.187V419.234Z" fill="black"/>
<path opacity="0.2" d="M160.783 425.934L118.875 427.188L160.783 428.442V425.934Z" fill="black"/>
<path opacity="0.2" d="M116.523 412.199L157.063 414.01L116.523 415.277V412.199Z" fill="black"/>
<path d="M223.918 417.434C223.914 421.152 222.915 424.715 221.142 427.343C219.368 429.971 216.964 431.449 214.457 431.452H114.299C114.114 431.452 113.937 431.561 113.806 431.755C113.675 431.949 113.602 432.212 113.602 432.487V433.586C113.602 433.861 113.675 434.124 113.806 434.318C113.937 434.512 114.114 434.621 114.299 434.621H214.98C216.511 434.624 218.028 434.177 219.441 433.306C220.855 432.435 222.139 431.157 223.217 429.545C224.296 427.933 225.148 426.021 225.725 423.917C226.302 421.814 226.592 419.562 226.578 417.291C226.507 412.697 225.219 408.329 222.993 405.132C220.767 401.935 217.782 400.166 214.684 400.208H114.299C114.114 400.208 113.937 400.317 113.806 400.511C113.675 400.705 113.602 400.968 113.602 401.242V402.354C113.602 402.629 113.675 402.892 113.806 403.086C113.937 403.28 114.114 403.389 114.299 403.389H214.178C216.716 403.381 219.156 404.846 220.976 407.47C222.796 410.094 223.852 413.67 223.918 417.434Z" fill="#263238"/>
<path opacity="0.4" d="M223.918 417.434C223.914 421.152 222.915 424.715 221.142 427.343C219.368 429.971 216.964 431.449 214.457 431.452H114.299C114.114 431.452 113.937 431.561 113.806 431.755C113.675 431.949 113.602 432.212 113.602 432.487V433.586C113.602 433.861 113.675 434.124 113.806 434.318C113.937 434.512 114.114 434.621 114.299 434.621H214.98C216.511 434.624 218.028 434.177 219.441 433.306C220.855 432.435 222.139 431.157 223.217 429.545C224.296 427.933 225.148 426.021 225.725 423.917C226.302 421.814 226.592 419.562 226.578 417.291C226.507 412.697 225.219 408.329 222.993 405.132C220.767 401.935 217.782 400.166 214.684 400.208H114.299C114.114 400.208 113.937 400.317 113.806 400.511C113.675 400.705 113.602 400.968 113.602 401.242V402.354C113.602 402.629 113.675 402.892 113.806 403.086C113.937 403.28 114.114 403.389 114.299 403.389H214.178C216.716 403.381 219.156 404.846 220.976 407.47C222.796 410.094 223.852 413.67 223.918 417.434Z" fill="white"/>
<path d="M260.446 417.616C260.446 421.732 259.344 425.68 257.381 428.59C255.419 431.5 252.757 433.135 249.982 433.135H160.785V402.098H249.991C252.764 402.101 255.424 403.738 257.384 406.648C259.345 409.558 260.446 413.503 260.446 417.616Z" fill="#407BFF"/>
<path opacity="0.7" d="M160.785 402.125V433.163H249.999C252.775 433.163 255.436 431.528 257.399 428.617C259.361 425.707 260.463 421.76 260.463 417.644C260.463 413.528 259.361 409.581 257.399 406.67C255.436 403.76 252.775 402.125 249.999 402.125H160.785Z" fill="white"/>
<path opacity="0.2" d="M160.785 410.311V407.789L249.703 408.85L160.785 410.311Z" fill="black"/>
<path opacity="0.2" d="M160.785 421.187V419.234L200.705 421.355L160.785 421.187Z" fill="black"/>
<path opacity="0.2" d="M160.785 428.442V425.934L225.147 427.382L160.785 428.442Z" fill="black"/>
<path opacity="0.2" d="M250.139 405.15C251.855 405.156 253.51 406.1 254.787 407.801C254.231 409.406 253.789 411.092 253.47 412.832L164.264 413.867L253.269 414.19C253.13 415.256 253.058 416.338 253.051 417.423C253.053 418.729 253.155 420.031 253.357 421.303L193.267 423.243L253.915 424.29C254.44 426.436 255.115 428.495 255.929 430.433C257.755 428.549 259.128 425.852 259.85 422.732C260.572 419.612 260.605 416.232 259.944 413.083C259.283 409.934 257.963 407.178 256.175 405.217C254.386 403.256 252.223 402.191 249.999 402.176H160.785V405.202L250.139 405.15Z" fill="black"/>
<path d="M259.62 417.434C259.615 421.152 258.617 424.715 256.843 427.343C255.069 429.971 252.666 431.449 250.159 431.452H159.287C159.102 431.452 158.925 431.561 158.794 431.755C158.663 431.949 158.59 432.212 158.59 432.487V433.586C158.59 433.861 158.663 434.124 158.794 434.318C158.925 434.512 159.102 434.621 159.287 434.621H250.682C252.213 434.624 253.729 434.177 255.143 433.306C256.557 432.435 257.84 431.157 258.919 429.545C259.997 427.933 260.85 426.021 261.426 423.917C262.003 421.814 262.293 419.562 262.279 417.291C262.208 412.697 260.921 408.329 258.695 405.132C256.469 401.935 253.484 400.166 250.385 400.208H159.287C159.102 400.208 158.925 400.317 158.794 400.511C158.663 400.705 158.59 400.968 158.59 401.242V402.354C158.59 402.629 158.663 402.892 158.794 403.086C158.925 403.28 159.102 403.389 159.287 403.389H249.88C252.418 403.381 254.858 404.846 256.678 407.47C258.498 410.094 259.554 413.67 259.62 417.434Z" fill="#263238"/>
<path d="M249.704 413.504V425.932L246.669 421.431L243.73 425.79V413.504H249.704Z" fill="#407BFF"/>
<path d="M273.276 238.814H271.096C270.691 238.826 270.293 238.982 269.937 239.267C269.581 239.553 269.275 239.961 269.046 240.456L266.884 245.138C266.455 246.063 266.182 247.127 266.087 248.241C265.993 249.355 266.081 250.486 266.343 251.539L266.675 252.833C270.293 253.091 274.339 249.419 274.339 249.419L275.578 248.565C275.834 248.4 276.065 248.161 276.258 247.862C276.451 247.563 276.602 247.21 276.703 246.824C276.803 246.438 276.851 246.026 276.844 245.612C276.836 245.199 276.773 244.791 276.659 244.414L275.552 240.857C275.345 240.228 275.021 239.7 274.617 239.338C274.213 238.975 273.747 238.793 273.276 238.814Z" fill="#EEC1BB"/>
<path d="M231.949 244.517C237.547 251.229 243.59 257.695 250.261 261.652L249.432 261.394C250.043 261.613 251.647 260.708 252.484 260.1C257.141 256.738 261.553 251.694 265.739 247.09C266.167 246.63 266.692 246.413 267.219 246.477C267.746 246.542 268.241 246.884 268.612 247.442C268.984 247.999 269.209 248.736 269.247 249.518C269.284 250.301 269.132 251.077 268.817 251.707C264.64 259.467 255.24 275.231 247.793 272.929C239.631 269.321 232.42 262.583 225.993 254.345C221.825 248.397 227.414 239.098 231.949 244.517Z" fill="#EBC0BB"/>
<path d="M220.204 235.374C218.164 243.806 221.451 252.186 229.36 262.054C233.293 261.187 238.604 249.225 238.604 249.225C238.604 249.225 227.477 232.723 220.204 235.374Z" fill="#FFBB00"/>
<path d="M227.008 182.998C227.008 182.998 219.221 171.178 209.071 186.011C198.921 200.845 196.941 249.987 196.941 249.987L223.433 257.618C223.433 257.618 226.86 251.785 228.621 234.96C230.383 218.135 231.316 202.047 233.548 198.297C235.78 194.546 227.008 182.998 227.008 182.998Z" fill="#263238"/>
<path d="M249.757 431.866L244.02 428.478L246.261 416.076L248.327 404.695L255.582 407.075L252.504 420.201L249.757 431.866Z" fill="#EEC1BB"/>
<path opacity="0.2" d="M252.434 420.474L246.199 416.309L248.301 404.812L255.564 407.14L252.434 420.474Z" fill="black"/>
<path d="M206.34 320.121C206.34 320.121 254.3 310.525 267.624 323.147C280.948 335.769 255.146 412.639 255.146 412.639L247.071 410.052C247.071 410.052 253.123 349.115 252.669 346.568C252.216 344.02 229.631 360.638 198.719 362.216L206.34 320.121Z" fill="#263238"/>
<path opacity="0.2" d="M206.34 320.121C206.34 320.121 254.3 310.525 267.624 323.147C280.948 335.769 255.146 412.639 255.146 412.639L247.071 410.052C247.071 410.052 253.123 349.115 252.669 346.568C252.216 344.02 229.631 360.638 198.719 362.216L206.34 320.121Z" fill="black"/>
<path d="M246.627 406.172L256.786 411.06L254.963 417.927L245.633 413.22L246.627 406.172Z" fill="#263238"/>
<path d="M255.07 433.78C253.971 433.78 252.036 431.194 251.635 430.573C251.611 430.541 251.593 430.501 251.582 430.457V430.379C251.58 430.297 251.595 430.215 251.626 430.146C251.678 430.056 252.951 427.56 254.172 427.482C254.357 427.454 254.543 427.487 254.718 427.579C254.893 427.671 255.052 427.819 255.184 428.013C255.489 428.439 255.593 428.853 255.489 429.241C255.323 429.862 254.617 430.198 253.823 430.405C254.465 430.541 255.069 430.939 255.567 431.556C255.655 431.686 255.722 431.842 255.766 432.013C255.81 432.185 255.828 432.369 255.82 432.552C255.82 433.302 255.55 433.599 255.358 433.703C255.266 433.756 255.169 433.782 255.07 433.78ZM252.367 430.715C253.379 432.009 254.721 433.405 255.201 433.121C255.201 433.121 255.375 433.03 255.393 432.513C255.397 432.415 255.386 432.317 255.362 432.225C255.338 432.134 255.301 432.051 255.253 431.983C254.782 431.207 253.326 430.845 252.367 430.741V430.715ZM254.268 428.129H254.189C253.418 428.429 252.735 429.097 252.245 430.03C253.579 429.939 254.939 429.564 255.079 429.034C255.122 428.866 254.974 428.62 254.878 428.491C254.712 428.266 254.493 428.146 254.268 428.155V428.129Z" fill="#577AFA"/>
<path d="M242.946 423.19C243.172 422.233 250.959 426.824 250.959 426.824C250.959 426.824 254.238 436.562 258.633 440.519C263.028 444.476 259.435 447.425 254.125 444.851L240.975 438.502C237.182 436.691 240.6 433.07 242.946 423.19Z" fill="#2E353A"/>
<path opacity="0.4" d="M246.627 406.172L256.786 411.06L254.963 417.927L245.633 413.22L246.627 406.172Z" fill="white"/>
<path d="M274.782 456.477L268.835 458.96L265.521 447.088L262.504 436.199L269.236 431.543L272.174 444.747L274.782 456.477Z" fill="#EEC1BB"/>
<path d="M266.194 452.727C266.194 451.718 274.583 452.817 274.583 452.817C274.583 452.817 279.597 460.771 284.567 462.698C289.538 464.625 286.669 468.97 281.079 468.776L267.258 468.259C263.29 468.116 265.854 463.189 266.194 452.727Z" fill="#2E353A"/>
<path d="M278.986 456.14C277.763 455.894 276.581 455.32 275.498 454.446L275.437 454.381C275.434 454.347 275.434 454.312 275.437 454.278C275.433 454.248 275.433 454.217 275.437 454.188C275.427 454.146 275.427 454.1 275.437 454.058C275.437 453.916 276.213 451.071 277.355 450.411C277.527 450.307 277.713 450.261 277.898 450.276C278.084 450.292 278.265 450.369 278.428 450.502C278.803 450.773 278.977 451.123 278.96 451.549C278.916 452.209 278.288 452.843 277.591 453.36C278.238 453.216 278.9 453.346 279.5 453.735C279.607 453.823 279.7 453.943 279.774 454.088C279.848 454.233 279.9 454.399 279.927 454.575C279.984 454.798 279.993 455.041 279.954 455.272C279.915 455.503 279.83 455.711 279.709 455.869C279.498 456.084 279.241 456.18 278.986 456.14ZM276.221 454.278C277.451 455.093 278.994 455.856 279.404 455.377C279.404 455.377 279.553 455.209 279.474 454.718C279.46 454.621 279.431 454.531 279.39 454.452C279.35 454.374 279.298 454.31 279.239 454.265C278.628 453.722 277.163 454.019 276.221 454.278ZM277.791 450.903C277.681 450.902 277.571 450.933 277.468 450.993C276.796 451.597 276.27 452.503 275.969 453.58C277.233 452.933 278.463 451.989 278.497 451.433C278.497 451.252 278.314 451.071 278.201 450.993C278.071 450.917 277.931 450.886 277.791 450.903Z" fill="#577AFA"/>
<path opacity="0.2" d="M272.229 445.02L265.575 447.335L262.523 436.317L269.247 431.609L272.229 445.02Z" fill="black"/>
<path d="M219.944 329.315C219.944 329.315 219.255 315.244 218.932 312.373C218.666 309.527 218.272 306.71 217.755 303.941C215.654 294.565 187.462 305.597 187.462 305.597L186.66 312.063C186.66 312.063 173.937 347.64 182.439 360.456C185.055 364.335 190.086 366.094 195.257 366.042C195.257 366.042 211.067 367.168 240.471 365.137C240.471 365.137 238.291 390.536 262.524 440.3L270.633 436.42C270.633 436.42 254.623 346.075 253.263 344.471C241.543 330.427 219.944 329.315 219.944 329.315Z" fill="#263238"/>
<path d="M261.059 439.692L271.13 434.402L272.499 441.502L263.16 446.184L261.059 439.692Z" fill="#263238"/>
<path d="M229.423 242.11C229.423 242.11 228.411 245.783 226.999 252.197C226.658 253.697 226.31 255.353 225.943 257.137C225.464 259.478 224.949 262.052 224.435 264.897C224.06 266.914 223.685 269.022 223.319 271.247C222.952 273.471 222.56 275.876 222.185 278.32C222.185 278.605 222.098 278.902 222.063 279.187C220.469 289.193 219.304 299.34 218.575 309.565L187.602 305.556C187.597 295.474 187.949 285.399 188.657 275.372C189.215 266.684 190.298 258.089 191.892 249.688C193.121 243.636 194.708 238.437 196.749 235.036C196.749 235.088 213.544 226.914 229.423 242.11Z" fill="#FFBB00"/>
<path d="M213.64 228.494C204.318 224.072 200.699 234.961 200.699 234.961L205.661 234.236L215.732 252.988L221.636 241.647L225.351 244.608C225.351 244.608 221.714 232.322 213.64 228.494Z" fill="#407BFF"/>
<path opacity="0.6" d="M213.64 228.494C204.318 224.072 200.699 234.961 200.699 234.961L205.661 234.236L215.732 252.988L221.636 241.647L225.351 244.608C225.351 244.608 221.714 232.322 213.64 228.494Z" fill="white"/>
<path d="M215.467 251.965L206.922 232.993C210.951 230.29 213.619 218.858 214.203 212.418L220.237 225.945C218.267 230.29 216.95 235.256 221.467 239.007C221.484 239.007 215.459 251.926 215.467 251.965Z" fill="#EEC1BB"/>
<path opacity="0.2" d="M216.665 217.941L220.24 225.947C219.771 226.94 219.365 227.996 219.028 229.102C217.24 227.912 215.34 223.929 215.784 221.174C215.936 220.023 216.235 218.926 216.665 217.941Z" fill="black"/>
<path d="M187.122 307.02L196.81 307.964L196.461 312.024L186.172 310.925L187.122 307.02Z" fill="black"/>
<path d="M219.35 314.441L197.629 312.139L197.978 308.078L219.002 310.134L219.35 314.441Z" fill="black"/>
<path d="M211.387 314.43H211.3L208.684 314.172C208.372 314.142 208.08 313.931 207.871 313.585C207.662 313.239 207.553 312.786 207.568 312.322L207.637 309.736C207.637 309.491 207.671 309.249 207.739 309.026C207.806 308.803 207.906 308.604 208.03 308.443C208.145 308.279 208.282 308.153 208.433 308.073C208.583 307.993 208.743 307.96 208.902 307.977L211.622 308.21C211.781 308.223 211.936 308.283 212.079 308.386C212.222 308.489 212.349 308.633 212.454 308.81C212.559 308.987 212.639 309.193 212.689 309.417C212.739 309.64 212.759 309.876 212.747 310.111L212.617 312.801C212.588 313.252 212.445 313.671 212.217 313.973C211.989 314.276 211.693 314.439 211.387 314.43ZM208.475 309.723L208.396 312.309C208.394 312.436 208.424 312.558 208.481 312.652C208.537 312.746 208.616 312.804 208.701 312.814L211.317 313.085C211.404 313.092 211.489 313.049 211.554 312.965C211.619 312.88 211.659 312.761 211.666 312.633L211.797 309.956C211.801 309.891 211.796 309.825 211.783 309.763C211.769 309.7 211.747 309.643 211.718 309.594C211.689 309.547 211.654 309.509 211.616 309.482C211.577 309.456 211.535 309.441 211.492 309.438L208.771 309.206C208.684 309.201 208.6 309.248 208.536 309.335C208.503 309.376 208.476 309.428 208.458 309.486C208.44 309.544 208.431 309.607 208.431 309.671L208.475 309.723Z" fill="white"/>
<path opacity="0.5" d="M261.059 439.692L271.13 434.402L272.499 441.502L263.16 446.184L261.059 439.692Z" fill="white"/>
<path d="M235.38 208.942C235.335 208.944 235.29 208.927 235.252 208.892C235.213 208.858 235.182 208.808 235.162 208.748C234.92 208.05 234.575 207.443 234.152 206.973C233.729 206.502 233.24 206.181 232.72 206.032C232.688 206.03 232.656 206.019 232.627 205.998C232.597 205.978 232.571 205.948 232.55 205.912C232.528 205.875 232.512 205.833 232.503 205.787C232.493 205.74 232.49 205.692 232.494 205.644C232.502 205.551 232.534 205.467 232.582 205.407C232.631 205.347 232.692 205.317 232.755 205.321C233.358 205.474 233.929 205.834 234.421 206.373C234.913 206.912 235.313 207.615 235.589 208.424C235.604 208.466 235.613 208.511 235.616 208.558C235.619 208.605 235.615 208.652 235.606 208.697C235.596 208.741 235.58 208.783 235.559 208.818C235.538 208.854 235.513 208.882 235.485 208.903L235.38 208.942Z" fill="#263238"/>
<path d="M232.463 214.539C232.558 216.334 232.798 218.105 233.178 219.815C232.87 220.096 232.515 220.244 232.153 220.244C231.792 220.244 231.437 220.096 231.129 219.815L232.463 214.539Z" fill="#D4827D"/>
<path d="M234.391 212.612C234.164 213.413 233.693 213.905 233.327 213.672C232.96 213.439 232.847 212.612 233.074 211.81C233.301 211.008 233.771 210.517 234.138 210.749C234.504 210.982 234.609 211.797 234.391 212.612Z" fill="#263238"/>
<path d="M233.973 210.699H235.342C235.342 210.699 234.348 211.85 233.973 210.699Z" fill="#263238"/>
<path d="M214.317 219.57C214.35 219.703 214.394 219.829 214.448 219.945C214.535 220.204 214.631 220.437 214.727 220.695C215.287 222.288 216.047 223.706 216.968 224.872C219.941 228.532 222.505 229.696 224.816 228.752C224.929 228.752 225.034 228.649 225.147 228.597C228.565 226.683 231.251 220.838 233.527 212.949C234.513 209.895 235.158 206.623 235.437 203.263C235.437 203.263 235.437 203.146 235.437 203.12C235.437 203.094 235.437 202.849 235.437 202.732C235.548 200.8 235.332 198.856 234.808 197.079C234.284 195.301 233.469 193.746 232.437 192.555C231.555 191.478 230.596 190.55 229.577 189.787C219.671 182.157 209.53 205.371 214.317 219.57Z" fill="#EEC1BB"/>
<path d="M235.44 203.132C235.44 203.132 232.458 213.944 224.296 213.478C224.296 213.478 217.773 222.156 213.527 219.169C207.728 215.095 206.786 199.24 212.951 188.415C220.965 174.371 237.707 185.26 235.44 203.132Z" fill="#263238"/>
<path d="M228.698 213.014C229.247 211.384 229.291 208.009 227.468 207.104C225.646 206.199 222.411 211.876 226.248 216.544C226.797 217.217 227.59 216.402 228.698 213.014Z" fill="#EEC1BB"/>
<path d="M227.006 182.999C227.006 182.999 234.549 185.482 236.886 192.233C239.624 200.121 239.624 206.161 231.968 209.821C231.968 209.821 222.576 196.035 218.452 194.392C216.047 193.412 213.591 192.733 211.109 192.362C214.065 180.775 224.032 177.955 227.006 182.999Z" fill="#263238"/>
<path d="M224.314 213.478C219.571 227.536 209.141 251.422 198.023 234.571C198.023 234.571 202.017 215.509 210.083 207.646C218.149 199.783 224.314 213.478 224.314 213.478Z" fill="#263238"/>
<path d="M222.594 236.926C226.649 241.375 221.46 256.014 226.579 259.273C226.098 258.287 225.795 257.134 225.701 255.925C225.606 254.715 225.722 253.491 226.038 252.367C227.111 248.384 231.462 237.857 229.727 223.605L222.594 236.926Z" fill="#263238"/>
<path opacity="0.2" d="M201.588 267.794C201.588 267.794 194.961 274.454 188.691 275.282C189.242 266.627 190.313 258.061 191.892 249.689C192.694 249.019 193.589 248.63 194.508 248.551C199.164 248.68 200.865 255.159 200.865 255.159C201.369 259.329 201.611 263.558 201.588 267.794Z" fill="black"/>
<path d="M225.777 313.924L224.381 311.441C224.119 310.988 223.788 310.634 223.415 310.409C223.041 310.184 222.637 310.094 222.236 310.148L218.417 310.562C217.662 310.643 216.932 310.992 216.287 311.58C215.642 312.167 215.101 312.975 214.711 313.937L214.223 315.14C216.35 319.498 220.806 321.89 220.806 321.89L222.027 322.783C222.272 322.979 222.542 323.102 222.819 323.143C223.096 323.184 223.377 323.143 223.643 323.023C223.91 322.903 224.158 322.706 224.373 322.442C224.588 322.179 224.766 321.855 224.896 321.489L226.117 317.92C226.336 317.28 226.42 316.557 226.359 315.845C226.299 315.133 226.096 314.464 225.777 313.924Z" fill="#EEC1BB"/>
<path d="M198.928 254.475C198.822 262.62 199.216 270.762 200.105 278.801C200.432 281.372 200.854 283.915 201.37 286.418L200.986 285.293C203 289.858 205.948 294.087 208.52 298.225L212.828 304.82L217.188 311.455C217.572 312.028 217.799 312.793 217.826 313.6C217.852 314.408 217.676 315.201 217.332 315.828C216.987 316.454 216.499 316.869 215.96 316.993C215.421 317.117 214.871 316.941 214.415 316.498C212.61 314.804 210.927 313.02 209.183 311.209C203.864 305.273 198.501 299.725 194.359 291.811C190.749 279.952 189.868 266.774 190.173 253.893C190.688 245.293 199.094 245.927 199.024 254.552L198.928 254.475Z" fill="#EBC0BB"/>
<path d="M196.453 235.168C190.741 238.078 188.378 247.13 188.125 262.442C191.046 266.464 200.656 265.132 200.656 265.132C200.656 265.132 202.391 241.932 196.453 235.168Z" fill="#FFBB00"/>
<path d="M257.999 325.824V329.872C257.999 330.919 257.127 331.346 256.464 331.346H201.432C200.726 331.346 199.871 330.919 199.871 329.872V325.785L257.999 325.824Z" fill="#263238"/>
<path opacity="0.4" d="M257.999 325.824V329.872C257.999 330.919 257.127 331.346 256.464 331.346H201.432C200.726 331.346 199.871 330.919 199.871 329.872V325.785L257.999 325.824Z" fill="white"/>
<path opacity="0.2" d="M258 325.824V329.872C258 330.919 257.128 331.346 256.465 331.346H220.172C219.466 331.346 218.629 330.919 218.629 329.872V325.785L258 325.824Z" fill="black"/>
<path d="M267.205 283.429L260.648 327.489C260.532 328.199 260.259 328.83 259.874 329.285C259.489 329.739 259.012 329.99 258.52 329.998H222.768C222.546 329.988 222.328 329.903 222.132 329.748C221.935 329.594 221.766 329.374 221.636 329.106C221.506 328.839 221.419 328.53 221.383 328.205C221.346 327.88 221.361 327.546 221.425 327.231L227.974 283.493C228.107 282.828 228.389 282.25 228.775 281.856C229.161 281.463 229.626 281.279 230.093 281.334H265.889C266.83 281.334 267.415 282.019 267.205 283.429Z" fill="#263238"/>
<path opacity="0.4" d="M267.204 283.43L260.646 327.49C260.53 328.2 260.258 328.831 259.873 329.286C259.487 329.74 259.011 329.991 258.519 329.999H223.953C223.73 329.991 223.511 329.907 223.313 329.753C223.116 329.6 222.945 329.38 222.814 329.112C222.683 328.844 222.596 328.535 222.559 328.209C222.522 327.883 222.536 327.548 222.601 327.232L229.15 283.495C229.283 282.826 229.567 282.247 229.954 281.853C230.342 281.46 230.809 281.277 231.277 281.335H265.852C266.829 281.335 267.413 282.02 267.204 283.43Z" fill="white"/>
<path opacity="0.2" d="M249.558 305.828C249.558 309.592 246.829 312.657 244.832 312.657C242.835 312.657 241.649 309.592 242.216 305.828C242.783 302.065 244.78 299.103 246.733 299C246.166 302.763 247.387 305.828 249.349 305.828H249.558Z" fill="black"/>
</svg>
